<svg xmlns="http://www.w3.org/2000/svg" width="1178" height="716" fill="none"><g filter="url(#a)" opacity=".1"><path fill="url(#b)" d="M678.788 413.844c-51.439 19.372-250.377 87.693-335.901 184.993S11.995 535.104 107.695 520.44c272.996-41.833 161.91-120.54 272.996-120.54 170.978 35.859 363.617-10.731 298.097 13.944"/></g><g filter="url(#c)" opacity=".1"><path fill="url(#d)" d="M165.058 108.4c83 31.258 404 141.5 542 298.5s533.922-102.838 379.502-126.5C646.058 212.9 825.303 85.9 646.058 85.9c-275.885 57.861-586.723-17.315-481 22.5"/></g><defs><linearGradient id="b" x1="37.735" x2="437.017" y1="522.532" y2="547.785" gradientUnits="userSpaceOnUse"><stop offset=".692" stop-color="#6339f0"/><stop offset="1" stop-color="#00d1ff"/></linearGradient><linearGradient id="d" x1="1185.56" x2="569.058" y1="208.4" y2="399.9" gradientUnits="userSpaceOnUse"><stop stop-color="#00d1ff"/><stop offset=".755" stop-color="#6339f0"/></linearGradient><filter id="a" width="777.8" height="401.8" x="0" y="314" color-interpolation-filters="sRGB" filterUnits="userSpaceOnUse"><feFlood flood-opacity="0" result="BackgroundImageFix"/><feBlend in="SourceGraphic" in2="BackgroundImageFix" result="shape"/><feGaussianBlur result="effect1_foregroundBlur_405_235" stdDeviation="42.95"/></filter><filter id="c" width="1149.63" height="542.923" x="58" y="0" color-interpolation-filters="sRGB" filterUnits="userSpaceOnUse"><feFlood flood-opacity="0" result="BackgroundImageFix"/><feBlend in="SourceGraphic" in2="BackgroundImageFix" result="shape"/><feGaussianBlur result="effect1_foregroundBlur_405_235" stdDeviation="42.95"/></filter></defs></svg>