<svg xmlns="http://www.w3.org/2000/svg" width="1280" height="657" fill="none"><circle cx="829" cy="433" r="26" fill="#f4f4f9" opacity=".05"/><circle cx="904.5" cy="73.5" r="15.5" fill="#f4f4f9" opacity=".05"/><g filter="url(#a)" opacity=".1"><path fill="url(#b)" d="M757.677 561.785c34.037-12.802 165.678-57.954 222.271-122.256s218.952 42.119 155.632 51.81C954.932 518.985 1028.44 571 954.932 571c-113.139-23.698-240.612 7.092-197.255-9.215"/></g><g filter="url(#c)" opacity=".08"><circle cx="300.5" cy="566.5" r="4.5" fill="#00d1ff"/></g><g filter="url(#d)" opacity=".08"><circle cx="99" cy="516" r="6" fill="#00d1ff"/></g><circle cx="521" cy="401" r="6" fill="#00d1ff" opacity=".08"/><g filter="url(#e)" opacity=".08"><circle cx="990" cy="357" r="4" fill="#00d1ff"/></g><g filter="url(#f)" opacity=".08"><ellipse cx="809" cy="619.5" fill="#00d1ff" rx="6" ry="5.5"/></g><path fill="#00d1ff" d="m649 403 1.566 7.434L658 412l-7.434 1.566L649 421l-1.566-7.434L640 412l7.434-1.566zM1162 403l1.44 6.148 6.56 1.352-6.56 1.352L1162 418l-1.44-6.148-6.56-1.352 6.56-1.352zM1023.5 174l1.12 6.376 6.38 1.124-6.38 1.124-1.12 6.376-1.12-6.376-6.38-1.124 6.38-1.124zM1157.5 81l1.48 6.02 6.02 1.48-6.02 1.48-1.48 6.02-1.48-6.02-6.02-1.48 6.02-1.48zM158.5 89l2.821 4.679L166 96.5l-4.679 2.821L158.5 104l-2.821-4.679L151 96.5l4.679-2.821z" opacity=".08"/><g filter="url(#g)" opacity=".12"><path fill="url(#h)" d="M392.323 426.785c-34.037-12.802-165.678-57.954-222.271-122.256s-218.956 42.119-155.63 51.81C195.068 383.985 121.56 436 195.068 436c113.139-23.698 240.612 7.092 197.255-9.215"/></g><path stroke="#f4f4f9" d="M814.071 0c-34.831 71.23-45.333 151.942-24.176 230.901 50.38 188.021 261.205 294.896 470.885 238.713a446 446 0 0 0 18.89-5.513" opacity=".1"/><defs><filter id="a" width="572.8" height="323.8" x="663.1" y="333.1" color-interpolation-filters="sRGB" filterUnits="userSpaceOnUse"><feFlood flood-opacity="0" result="BackgroundImageFix"/><feBlend in="SourceGraphic" in2="BackgroundImageFix" result="shape"/><feGaussianBlur result="effect1_foregroundBlur_386_230" stdDeviation="42.95"/></filter><filter id="c" width="16.2" height="16.2" x="292.4" y="558.4" color-interpolation-filters="sRGB" filterUnits="userSpaceOnUse"><feFlood flood-opacity="0" result="BackgroundImageFix"/><feColorMatrix in="SourceAlpha" result="hardAlpha" values="0 0 0 0 0 0 0 0 0 0 0 0 0 0 0 0 0 0 127 0"/><feOffset/><feGaussianBlur stdDeviation=".9"/><feColorMatrix values="0 0 0 0 1 0 0 0 0 1 0 0 0 0 1 0 0 0 1 0"/><feBlend in2="BackgroundImageFix" result="effect1_dropShadow_386_230"/><feColorMatrix in="SourceAlpha" result="hardAlpha" values="0 0 0 0 0 0 0 0 0 0 0 0 0 0 0 0 0 0 127 0"/><feOffset/><feGaussianBlur stdDeviation="1.8"/><feColorMatrix values="0 0 0 0 1 0 0 0 0 1 0 0 0 0 1 0 0 0 1 0"/><feBlend in2="effect1_dropShadow_386_230" result="effect2_dropShadow_386_230"/><feBlend in="SourceGraphic" in2="effect2_dropShadow_386_230" result="shape"/></filter><filter id="d" width="19.2" height="19.2" x="89.4" y="506.4" color-interpolation-filters="sRGB" filterUnits="userSpaceOnUse"><feFlood flood-opacity="0" result="BackgroundImageFix"/><feColorMatrix in="SourceAlpha" result="hardAlpha" values="0 0 0 0 0 0 0 0 0 0 0 0 0 0 0 0 0 0 127 0"/><feOffset/><feGaussianBlur stdDeviation=".9"/><feColorMatrix values="0 0 0 0 1 0 0 0 0 1 0 0 0 0 1 0 0 0 1 0"/><feBlend in2="BackgroundImageFix" result="effect1_dropShadow_386_230"/><feColorMatrix in="SourceAlpha" result="hardAlpha" values="0 0 0 0 0 0 0 0 0 0 0 0 0 0 0 0 0 0 127 0"/><feOffset/><feGaussianBlur stdDeviation="1.8"/><feColorMatrix values="0 0 0 0 1 0 0 0 0 1 0 0 0 0 1 0 0 0 1 0"/><feBlend in2="effect1_dropShadow_386_230" result="effect2_dropShadow_386_230"/><feBlend in="SourceGraphic" in2="effect2_dropShadow_386_230" result="shape"/></filter><filter id="e" width="24.38" height="24.38" x="977.81" y="344.81" color-interpolation-filters="sRGB" filterUnits="userSpaceOnUse"><feFlood flood-opacity="0" result="BackgroundImageFix"/><feColorMatrix in="SourceAlpha" result="hardAlpha" values="0 0 0 0 0 0 0 0 0 0 0 0 0 0 0 0 0 0 127 0"/><feOffset/><feGaussianBlur stdDeviation=".585"/><feColorMatrix values="0 0 0 0 1 0 0 0 0 1 0 0 0 0 1 0 0 0 1 0"/><feBlend in2="BackgroundImageFix" result="effect1_dropShadow_386_230"/><feColorMatrix in="SourceAlpha" result="hardAlpha" values="0 0 0 0 0 0 0 0 0 0 0 0 0 0 0 0 0 0 127 0"/><feOffset/><feGaussianBlur stdDeviation="1.17"/><feColorMatrix values="0 0 0 0 1 0 0 0 0 1 0 0 0 0 1 0 0 0 1 0"/><feBlend in2="effect1_dropShadow_386_230" result="effect2_dropShadow_386_230"/><feColorMatrix in="SourceAlpha" result="hardAlpha" values="0 0 0 0 0 0 0 0 0 0 0 0 0 0 0 0 0 0 127 0"/><feOffset/><feGaussianBlur stdDeviation="4.095"/><feColorMatrix values="0 0 0 0 1 0 0 0 0 1 0 0 0 0 1 0 0 0 1 0"/><feBlend in2="effect2_dropShadow_386_230" result="effect3_dropShadow_386_230"/><feBlend in="SourceGraphic" in2="effect3_dropShadow_386_230" result="shape"/></filter><filter id="f" width="37.2" height="36.2" x="790.4" y="601.4" color-interpolation-filters="sRGB" filterUnits="userSpaceOnUse"><feFlood flood-opacity="0" result="BackgroundImageFix"/><feColorMatrix in="SourceAlpha" result="hardAlpha" values="0 0 0 0 0 0 0 0 0 0 0 0 0 0 0 0 0 0 127 0"/><feOffset/><feGaussianBlur stdDeviation=".9"/><feColorMatrix values="0 0 0 0 1 0 0 0 0 1 0 0 0 0 1 0 0 0 1 0"/><feBlend in2="BackgroundImageFix" result="effect1_dropShadow_386_230"/><feColorMatrix in="SourceAlpha" result="hardAlpha" values="0 0 0 0 0 0 0 0 0 0 0 0 0 0 0 0 0 0 127 0"/><feOffset/><feGaussianBlur stdDeviation="1.8"/><feColorMatrix values="0 0 0 0 1 0 0 0 0 1 0 0 0 0 1 0 0 0 1 0"/><feBlend in2="effect1_dropShadow_386_230" result="effect2_dropShadow_386_230"/><feColorMatrix in="SourceAlpha" result="hardAlpha" values="0 0 0 0 0 0 0 0 0 0 0 0 0 0 0 0 0 0 127 0"/><feOffset/><feGaussianBlur stdDeviation="6.3"/><feColorMatrix values="0 0 0 0 1 0 0 0 0 1 0 0 0 0 1 0 0 0 1 0"/><feBlend in2="effect2_dropShadow_386_230" result="effect3_dropShadow_386_230"/><feBlend in="SourceGraphic" in2="effect3_dropShadow_386_230" result="shape"/></filter><filter id="g" width="572.8" height="323.8" x="-85.9" y="198.1" color-interpolation-filters="sRGB" filterUnits="userSpaceOnUse"><feFlood flood-opacity="0" result="BackgroundImageFix"/><feBlend in="SourceGraphic" in2="BackgroundImageFix" result="shape"/><feGaussianBlur result="effect1_foregroundBlur_386_230" stdDeviation="42.95"/></filter><linearGradient id="b" x1="1176.18" x2="923.412" y1="520.828" y2="442.212" gradientUnits="userSpaceOnUse"><stop offset=".543" stop-color="#6339f0"/><stop offset="1" stop-color="#00d1ff"/></linearGradient><linearGradient id="h" x1="-26.177" x2="226.588" y1="385.828" y2="307.212" gradientUnits="userSpaceOnUse"><stop offset=".543" stop-color="#6339f0"/><stop offset="1" stop-color="#00d1ff"/></linearGradient></defs></svg>