<svg xmlns="http://www.w3.org/2000/svg" width="1188" height="324" fill="none" viewBox="0 0 1188 324"><g filter="url(#a)" opacity=".15"><path fill="url(#b)" d="M709.677 228.685c34.037-12.802 165.678-57.954 222.271-122.256s218.952 42.119 155.632 51.81C906.932 185.885 980.439 237.9 906.932 237.9c-113.139-23.698-240.612 7.092-197.255-9.215"/></g><g filter="url(#c)" opacity=".15"><path fill="url(#d)" d="M392.323 228.685c-34.037-12.802-165.678-57.954-222.271-122.256s-218.956 42.119-155.63 51.81C195.068 185.885 121.56 237.9 195.068 237.9c113.139-23.698 240.612 7.092 197.255-9.215"/></g><defs><linearGradient id="b" x1="1128.18" x2="875.412" y1="187.728" y2="109.112" gradientUnits="userSpaceOnUse"><stop offset=".543" stop-color="#6339f0"/><stop offset="1" stop-color="#00d1ff"/></linearGradient><linearGradient id="d" x1="-26.177" x2="226.588" y1="187.728" y2="109.112" gradientUnits="userSpaceOnUse"><stop offset=".543" stop-color="#6339f0"/><stop offset="1" stop-color="#00d1ff"/></linearGradient><filter id="a" width="572.8" height="323.8" x="615.1" y="0" color-interpolation-filters="sRGB" filterUnits="userSpaceOnUse"><feFlood flood-opacity="0" result="BackgroundImageFix"/><feBlend in="SourceGraphic" in2="BackgroundImageFix" result="shape"/><feGaussianBlur result="effect1_foregroundBlur_542_407" stdDeviation="42.95"/></filter><filter id="c" width="572.8" height="323.8" x="-85.9" y="0" color-interpolation-filters="sRGB" filterUnits="userSpaceOnUse"><feFlood flood-opacity="0" result="BackgroundImageFix"/><feBlend in="SourceGraphic" in2="BackgroundImageFix" result="shape"/><feGaussianBlur result="effect1_foregroundBlur_542_407" stdDeviation="42.95"/></filter></defs></svg>