<svg width="1188" height="324" viewBox="0 0 1188 324" fill="none" xmlns="http://www.w3.org/2000/svg">
<g opacity="0.15" filter="url(#filter0_f_542_407)">
<path d="M709.677 228.685C743.714 215.883 875.355 170.731 931.948 106.429C988.54 42.1267 1150.9 148.548 1087.58 158.239C906.932 185.885 980.439 237.9 906.932 237.9C793.793 214.202 666.32 244.992 709.677 228.685Z" fill="url(#paint0_linear_542_407)"/>
</g>
<g opacity="0.15" filter="url(#filter1_f_542_407)">
<path d="M392.323 228.685C358.286 215.883 226.645 170.731 170.052 106.429C113.46 42.1267 -48.9041 148.548 14.4219 158.239C195.068 185.885 121.561 237.9 195.068 237.9C308.207 214.202 435.68 244.992 392.323 228.685Z" fill="url(#paint1_linear_542_407)"/>
</g>
<defs>
<filter id="filter0_f_542_407" x="615.1" y="2.28882e-05" width="572.8" height="323.8" filterUnits="userSpaceOnUse" color-interpolation-filters="sRGB">
<feFlood flood-opacity="0" result="BackgroundImageFix"/>
<feBlend mode="normal" in="SourceGraphic" in2="BackgroundImageFix" result="shape"/>
<feGaussianBlur stdDeviation="42.95" result="effect1_foregroundBlur_542_407"/>
</filter>
<filter id="filter1_f_542_407" x="-85.9" y="2.28882e-05" width="572.8" height="323.8" filterUnits="userSpaceOnUse" color-interpolation-filters="sRGB">
<feFlood flood-opacity="0" result="BackgroundImageFix"/>
<feBlend mode="normal" in="SourceGraphic" in2="BackgroundImageFix" result="shape"/>
<feGaussianBlur stdDeviation="42.95" result="effect1_foregroundBlur_542_407"/>
</filter>
<linearGradient id="paint0_linear_542_407" x1="1128.18" y1="187.728" x2="875.412" y2="109.112" gradientUnits="userSpaceOnUse">
<stop offset="0.543269" stop-color="#6339F0"/>
<stop offset="1" stop-color="#00D1FF"/>
</linearGradient>
<linearGradient id="paint1_linear_542_407" x1="-26.1774" y1="187.728" x2="226.588" y2="109.112" gradientUnits="userSpaceOnUse">
<stop offset="0.543269" stop-color="#6339F0"/>
<stop offset="1" stop-color="#00D1FF"/>
</linearGradient>
</defs>
</svg>
