<svg xmlns="http://www.w3.org/2000/svg" width="104" height="105" fill="none"><path fill="#00d1ff" d="M52.499.016c-1.855-.068-4.277.089-6.099.35-.572.08-.273.127-.666.19-.768.123-1.484.186-2.24.348-.249.055.084.127-.177.18-1.424.3-2.783.556-4.2.948a53.4 53.4 0 0 0-19.18 9.807c-1.888 1.503-3.976 3.562-5.711 5.34-.204.206-.166.005-.21.039-.694.54-.334.481-.691.92-1.418 1.744-2.948 3.707-4.205 5.46-.533.748-.198-.137-.612.7-.029.058.198-.07.07.146-.295.49-.89 1.393-1.11 1.777-.423.74-.495.86-.89 1.562-.54.961-1.092 2.15-1.621 3.205-.114.225-.08-.129-.27.227a16 16 0 0 0-.73 1.679c-.114.342.033.238.029.305-.037.55-.72 1.6-.779 1.75-1.115 2.675-1.656 5.116-2.202 7.771-.414 2.018-.758 4.202-.894 6.159a42 42 0 0 0-.092 3.618c.014.974.053 1.94.11 2.967.014.24-.145-.032-.128.26.19 3.11.707 6.182 1.576 9.155.088.298.107-.12.202.175.563 1.819 1.767 4.54 1.695 5.78.49 1.19 1.145 2.61 1.748 3.594.39.632.19-.07.546.765.082.188-.145.005-.014.283.553 1.172 1.282 2.386 1.902 3.509.126.228-.002.224.021.297.196.613.98 1.341 1.123 1.516 1.075 1.343 1.774 2.378 2.774 3.624.233.288-.154.036.068.317a37.6 37.6 0 0 0 3.781 4.108c.296.274.12-.074.265.052.643.554.62.85 1.251 1.368.134.11.133-.033.164-.02.48.199.627.669.719.757 1.148 1.111 2.108 1.55 3.305 2.507.144.114-.267-.03.143.285a43.7 43.7 0 0 0 9.043 5.308c.487.21.186-.04.221-.037.571.056.786.43.941.508 1.218.614 2.485.874 3.25 1.471 5.465 1.861 11.211 3.035 16.936 2.788.072-.003-.057-.129.088-.134 1.75-.079 1.401.113 2.573.308.286.046 1.111-.272 1.235-.32l.01-.003c.28-.099-.03-.264.065-.286.778-.178.702.452 1.767.347.033-.004-.118-.103-.03-.123.272-.064.55-.049.813-.12.612-.166.792-.489 1.752-.454.122.003-.006.383.93.212.38-.064 2.037-.375 2.487-.504.459-.124.116-.164.148-.176 1.207-.428.722-.383 1.282-.747.553-.367.515.184.78.176.264-.007 1.13-.378 1.335-.485s-.087-.094.1-.175c1.23-.54.638.078 1.084.026 1.064-.134 1.704-.773 2.579-1.147.238-.102.072.057.29-.019.865-.304 1.317-.62 2.314-.94.162-.052 1.027-.189 1.44-.582.058-.056-.18-.048.159-.238a52 52 0 0 1 1.985-1.055c.413-.2.03.196.513-.131.214-.146-.248.008.157-.26.405-.265 1.456-.89 1.853-1.142.397-.247.246-.008.282-.02.22-.082 1.003-.528 1.068-.573 3.338-2.234 6.016-4.821 8.703-7.63.21-.222.167.014.2-.019.743-.741-.062-.356.337-.975.125.25.378-.102.875-.646.239-.263.191-.05.22-.069.457-.307.534-.72.561-.818.103-.365.474-.555.54-.804.067-.247-.38.095.05-.462.193-.102.07.463.425.059 1.372-1.514 3.24-4.833 3.968-6.287.751-1.44.987-1.911 1.362-2.78.656-1.578.56-.937 1.054-1.883.483-.957-.128-.643-.158-.82-.033-.174.119-.29.138-.482.018-.192-.187.158-.049-.254.142-.411.704-1.47.846-1.587.305-.242.347.344.639-.786.017-.065-.161.105-.094-.141.54-1.956 1.065-4.002 1.377-5.997.043-.275-.132-.056-.109-.216.226-1.667.329-1.035.718-1.911-.354.155-.457-.38-.299-1.638.091-.757.214-.61.366-1.094.046-.146.001-.698.075-.788.242-.305.451.228.45-1.1 0-.058-.131.118-.125-.082.03-1.299.265-1.439.32-2.846.007-.21.007-.453.001-.716-.02-1.117-.166-2.58-.255-3.592-.359.047-.362-1.122-.162-1.626-.089-.81-.179-1.678-.326-2.45-.05-.267-.129-.075-.145-.108-.252-.488-.069-.872-.088-1.047-.224-1.887-.737-3.357-1.032-5.15-.011-.063.208-.23-.103-.65-.021-.026.033.581-.21-.236-.242-.82-.859-2.303-1.161-3.449-.07-.276-.136-1.03-.504-1.51-.05-.065-.085.041-.164-.047-.255-.285-.094-.566-.46-.87-.367-.304-.86-1.039-1.242-2.165-.012-.036.047-.378-.124-.71-.273-.532-.705-1.259-1.007-1.803-.145-.26.058-.156.035-.202-.928-1.783-1.787-2.94-3.068-4.662-.234-.315-.77-1.33-1.352-1.845-.64-.559-.571.481-1.676-1.07-.449-.615-.516-1.883-1.78-2.607-1.81-2.007-3.824-3.5-5.9-5.23-.094-.077-.274-.482-.51-.648-.35-.245-.6-.295-.854-.462-1.062-.695-2.004-1.395-3.07-2.002-.405-.23-.316-.058-.803-.327-.488-.266-.744-.565-1.444-.853-.53-.216-1.164-.215-1.852-.502.093-.265-.373-.484-1.191-.92-.157-.084.056-.098-.016-.142-.293-.181-.615-.229-.894-.402-.068-.042-.035-.132-.089-.171-.456-.34-1.388-.462-1.543-.477-.605-.07-.825-.279-1.276-.373-.45-.093.174.19-.341.054-1.063-.282-2.413-.694-3.492-.962-.43-.108-.105-.158-.166-.176-.885-.257-1.83-.322-2.276-.671-.755.522-.528-.18-1.861-.276-.103-.006-.285.279.1.39s.996.123 1.52.301c.126.041.787.478.883.519.745.307.959-.115 1.007-.13.533-.159 1.333.375 1.56.46 1.038.388 1.93.597 2.785.958.553.236.506.544.947.692 1.46.505 2.135.322 3.332 1.25.254.202-.165.369.96.606.07.013.926.16 1.29.517.044.045-.001.13.066.174.45.29.8.39 1.29.701.493.314 1.071.71 1.653 1.025.35.188.883.31 1.069.376.528.185.896.682 1.26.744.368.064-.05-.511.747-.081-.117.226-.203.481-.306.719 1.59 1.109 3.138 2.24 4.58 3.555.177.163-.096.098.091.275.79.751 1.54 1.346 2.299 2.189.586.653 1.124 1.458 1.69 2.174.584.233 1.376 1.348 1.989 2.12.216.271.263.207.43.39.626.695.16.494.277.723.488.987 1.02.734 1.716 1.83.04.057.225.929.266 1.037.273.687.155.046.41.426.463.696.818 1.167 1.203 2.073.113.266.26.959.637 1.39.05.056.123-.025.155.025.557.915.275 1.08.428 1.674s.718 1.367.849 1.521c.342.4-.08-.38-.078-.411.053-.368.292.276.501.758.32-.047.572.65.215.502-.04-.018-.162-.41-.215-.502-.113.544.139 1.298.705 2.042.262.35.29-.077.635 1.15.152.558-.121.41-.028.912.213 1.145.792 2.542 1.022 3.72.082.425-.124.039-.072.33.135.77.356 1.437.446 2.22.008.07-.143-.08-.103.16.293 1.829.565 3.428.697 5.357.066.907.057 2.493.06 3.478l.001.102c.026 1.682.088 3.759-.105 5.188-.125.931-.229.711-.359 1.099-.25.74-.172 2.138-.161 2.327.001.007.158-.785.153-.35.09.269-.151.342-.153.35.015.124-.252 1.717-.347 2.023-.048.168-.143.049-.166.136-.55 2.08-1.152 4.14-1.818 6.212-.01.037.133.025.107.112-.366 1.21-.815 1.91-1.302 2.827-.49.918-.808 1.673-.871 2.325-.363.696-.792 1.742-1.053 2.34-.26.6-.53.552-.562.599-1.022 1.458-1.44 2.4-2.471 3.931-.487.729-1.562 2.096-2.187 2.808-.49.565-.738.948-1.222 1.441-.065.067-.088-.079-.11-.06-.611.483-.16.392-.23.544-.253.547-.425.881-1.177 1.533-.174.152-.924.339-1.237.607-.407.35-.161.315-.596.676-.037.03-.09-.04-.342.197-1.172 1.101-2.494 2.264-3.847 3.252-.185.135-.032-.15-.3.041a102 102 0 0 1-3.937 2.653c-.312.202-.062.17-.117.235-.341.404-1.086.524-1.188.573-2.489 1.202-4.328 2.279-7.025 3.132-.146.048-1.354.17-1.782.545-.028.026-.456.412-.948.382-.03-.002.248-.211-.294-.042-.547.169-1.44.321-2.169.632-.228.098-.756.468-1.513.427-.051-.001-1.243-.211-1.594.149-.056.059.061.366-.831.343-.171-.006.12-.121-.324-.099-.677.033-1.571.235-2.407.178-.147-.009-.779-.162-1.261.039-.076.031.08.125-.182.157a10 10 0 0 1-.306.034c-1.16.117-2.338.105-3.509.173-.45.024-.22.197-.69.237-.47.042-1.412.056-1.904-.05-.487-.105.063-.345-.666-.412-3.157-.303-6.291-.657-9.37-1.453-.457-.12-.055-.109-.723-.298-2.474-.66-6.537-2.373-8.596-3.22-1.667-.662.28.476-.97-.09-.603-.278-1.074-.902-1.206-.989-1.3-.85-2.286-1.299-3.427-2.111-.234-.168.072-.117-.127-.259-.679-.486-1.427-.952-2.06-1.442-.282-.22-.17-.258-.436-.452a40 40 0 0 0-1.85-1.301c-.058-.04.226.36-.225-.015-.727-.608-1.667-1.33-2.387-2.157-.214-.247-.068-.413-.668-.794-.125-.08-.189.243-.589-.5-.071-.125-.774-1.323-1.362-1.689-.156-.095-.62-.288-.847-.607-.03-.044.199.038-.002-.215-.706-.89-1.456-1.814-2.12-2.774-.176-.256.199.043-.066-.337-.728-1.044-1.637-2.344-2.32-3.386-.252-.384-.174-.06-.201-.083-.437-.365-.386-.768-.463-.928-.482-1.002-.984-1.689-1.42-2.615-.12-.255.074-.13.059-.184-.168-.566-.164-.084-.348-.404-.515-.898-.981-1.955-1.365-2.926-.14-.357.149-.01.022-.33a81 81 0 0 1-2.007-5.79c-.11-.357-.15-.103-.194-.172-.3-.48-.26-1.304-.278-1.484-.085-.826-.238-1.118-.358-1.836-.445-2.673-.778-5.852-.799-8.705-.01-.888.006-1.741.04-2.533.215-4.362.763-7.756 2.013-11.745.081-.253.134.044.206-.173.927-2.797 2.008-5.506 3.422-8.105.117-.213.07.157.26-.181.392-.694.884-1.574 1.265-2.285.186-.347-.185.046.005-.303a23 23 0 0 1 1.533-2.42c.238-.327.002.25.302-.179 2.058-2.92 4.368-5.562 6.88-8.166.172-.177.144-.529.573-.846.08.03.139.098.206.147 3.895-3.452 8.189-6.402 12.942-8.58.2-.092-.086.197.302.022 2.245-1.006 4.51-1.786 6.894-2.6.238-.08.045-.297.773-.448.127-.029 1.217-.26 1.511-.267.04 0-.132.16.219.086a73 73 0 0 1 6.25-1.047c.332-.041-.033-.138.204-.168 1.69-.212 3.54-.17 5.175-.249 1.087-.05.693-.279 1.285-.472.084-.028.768.004.812-.119.111-.31-.204-.677-.046-1.006.033-.073.968.07.423-.144C55.383.7 54.705.6 54.54.534c-.115-.047.102-.165-.134-.229-.237-.064-.505.032-.898-.042C53.114.19 53.296.045 52.5.016m41.856 79.84c-.22.579-.645.411-.207-.082.022-.023.218.053.207.083M84.192 13.382c.737.356.954.937.433.687-.52-.246-.656-.793-.433-.687M77.538 8.57c.882.335.677.954-.107.345-.046-.035.055-.364.106-.345m-26.02-6.697c.01-.007.501-.014.513-.008.26.142-.72.156-.512.008m18.689 3.07c.303.02 1.05.42.674.387-.302-.028-1.05-.412-.674-.386m.398 95.073c-.007.01-.338.142-.344.103-.02-.121.454-.265.344-.103M56.658 1.878c2.035.172 3.37-.159 1.111-.38-.405-.036.853.267.332.254-.945-.022-1.545-.41-2.536-.305-.177.017.978.42 1.096.432zM94.624 80.44c0 .014-.261.43-.273.436-.263.146.26-.69.273-.436m-44.28 23.248a15 15 0 0 1-1.208-.039c-.582-.258 1.722-.183 1.209.039m52.501-54.802c.108-.548.07-1.192-.151-1.605.061.535.106 1.067.151 1.605"/></svg>