<svg xmlns="http://www.w3.org/2000/svg" width="562" height="565" fill="none"><g filter="url(#a)" opacity=".5"><circle cx="267.7" cy="287.597" r="250.5" stroke="#00d1ff" stroke-width="2"/></g><g filter="url(#b)"><path fill="#6339f0" d="M289.77 535.543c5.963-.152 13.755-.828 19.663-1.633 1.849-.25.896-.269 2.168-.454 2.489-.365 4.804-.625 7.248-1.066.813-.148-.235-.197.617-.348 4.672-.834 9.043-1.593 13.727-2.644 22.989-5.188 44.895-13.294 65.842-24.622 6.921-3.726 15.004-8.81 21.755-13.285.79-.522.426-.054.584-.142 2.468-1.401 1.481-1.179 2.967-2.271 5.891-4.344 12.325-9.319 17.754-13.8 2.307-1.911.255.314 2.416-1.803.15-.147-.554.2.055-.352 1.384-1.246 4.046-3.567 5.099-4.555 2.031-1.9 2.368-2.213 4.275-4.025 2.601-2.483 5.562-5.569 8.257-8.328.576-.589-.031.339.899-.589.935-.927 3.287-3.494 4.034-4.4.751-.902.298-.637.41-.815.92-1.465 3.873-4.22 4.214-4.613 6.26-7.071 10.99-13.666 16.026-20.949 3.819-5.529 7.722-11.586 10.9-17.133 3.791-6.625 6.671-12.407 9.836-19.1.332-.707.159.222.564-.642 4.299-9.201 7.963-18.613 10.927-28.267.297-.97-.301.21-.018-.763 1.779-5.932 3.903-15.489 5.584-18.854.939-4.089 1.938-9.101 2.423-12.815.312-2.401-.317-.127.285-3.037.133-.658.183.235.367-.755.774-4.19 1.344-8.732 1.919-12.899.117-.846.266-.595.325-.832.488-2.008.373-5.392.401-6.129.24-5.594.552-9.697.698-14.895.03-1.21.231.227.267-.938.059-2.013.089-4.056.087-6.108a189 189 0 0 0-.393-12.147c-.088-1.307-.231-.094-.284-.718-.24-2.773.103-3.414-.17-6.066-.059-.558-.208-.23-.235-.33-.418-1.573-.118-2.989-.145-3.4-.344-5.173-1.177-8.48-1.813-13.443-.078-.595.334.713.099-.958-1.573-11.189-4.175-22.826-7.475-33.506-.512-1.655-.323-.422-.373-.521-.804-1.612-.735-2.829-.886-3.374-1.206-4.306-2.896-8.129-3.445-11.144-6.565-17.709-14.724-34.831-25.224-50.357-.133-.197-.079.275-.344-.119-3.214-4.724-2.349-3.972-4.159-7.33-.458-.846-2.526-2.94-2.706-3.125-.65-.684-.339.285-.542.046-1.673-1.979-.583-2.249-2.677-5.054-.067-.087.058.395-.134.171-.595-.693-1.082-1.459-1.677-2.127-1.368-1.524-2.201-1.79-3.92-4.399-.22-.329.624-.235-1.378-2.632-.79-.964-4.354-5.169-5.417-6.292-1.049-1.13-.489-.212-.568-.289-2.95-2.931-1.981-1.685-3.651-2.971-1.676-1.275-.645-1.447-1.151-2.134-.506-.69-2.756-2.751-3.331-3.234-.572-.485-.008.266-.5-.182-3.272-2.952-1.046-1.682-1.971-2.811-2.195-2.655-4.575-4.037-6.908-6.122-.633-.563-.025-.202-.57-.725-2.168-2.062-3.638-3.111-6.086-5.48-.398-.388-2.239-2.476-3.797-3.391-.221-.129.228.452-.777-.332-1.5-1.172-4.196-3.287-5.782-4.58-1.17-.956.365-.11-1.194-1.204-.695-.484.456.59-.841-.327-1.287-.919-4.527-3.318-5.777-4.21-1.244-.896-.444-.573-.537-.656-.562-.502-2.923-2.269-3.141-2.413-10.815-7.457-21.485-13.251-32.917-18.944-.899-.446-.205-.346-.341-.416-3.056-1.563-.86.113-3.104-.736.497-.244-.812-.781-2.995-1.82-1.053-.498-.406-.391-.496-.45-1.475-.94-2.716-1.117-3.027-1.178-1.149-.228-2.183-.983-2.963-1.129s.776.762-1.358-.125c-.542-.39 1.203-.112-.399-.84-6.035-2.818-17.887-6.585-23.027-8.008-5.114-1.476-6.789-1.926-9.81-2.651-5.454-1.254-3.393-1.048-6.76-1.968-3.391-.893-1.886.202-2.41.248-.516.051-1.008-.22-1.627-.26-.617-.04.657.335-.757.076-1.405-.265-5.196-1.273-5.671-1.52-.998-.535.817-.601-2.964-1.12-.218-.03.452.28-.379.16-6.595-.952-13.47-1.808-20.082-2.238-.909-.058-.115.226-.645.195-5.522-.291-3.524-.496-6.54-1.092.654.584-1.058.785-5.225.63-2.514-.085-2.075-.303-3.703-.51-.489-.062-2.281.07-2.605-.042-1.008-.35.446-.729-3.045-.647q-.316.01-.687.023c-.191.009.417.205-.242.22-4.261.111-4.76-.262-9.364-.142-3.613.091-9.995.741-14.067 1.188.145.59-3.715.84-5.326.617-2.642.326-5.486.684-8.028 1.124-.873.152-.271.239-.379.274-1.645.551-2.846.338-3.415.416-6.17.874-11.078 2.186-16.922 3.255-.208.039-.635-.297-2.111.382-.094.046 1.858-.24-.854.447-2.715.684-7.733 2.274-11.499 3.219-.911.224-3.282.597-5.017 1.444-.23.113.071.141-.256.319-1.059.572-1.808.371-3.009 1.16-1.197.792-3.84 1.984-7.575 3.127-.118.037-1.102.047-2.245.495-1.829.717-4.386 1.824-6.272 2.615-.903.379-.407-.057-.565.005-6.119 2.477-10.312 4.619-16.569 7.887-1.149.598-4.582 2.073-6.667 3.485-2.284 1.558.661 1.045-4.922 3.97-2.235 1.192-5.701 1.73-9.205 4.768-7.577 4.655-14.07 9.717-21.192 15.065-.321.24-1.539.748-2.268 1.348-1.082.89-1.565 1.512-2.326 2.16-3.183 2.72-6.161 5.136-9.124 7.883-1.122 1.045-.611.809-1.939 2.063-1.323 1.258-2.368 1.93-4.06 3.741-1.276 1.372-2.264 3.025-3.95 4.837-.398-.256-1.587.964-3.747 3.091-.415.409-.108-.159-.31.03-.828.763-1.431 1.618-2.216 2.344-.19.177-.317.079-.48.218-1.389 1.176-3.082 3.648-3.366 4.075-1.1 1.631-1.848 2.192-2.741 3.4-.888 1.206.635-.434-.44.943-2.23 2.852-5.137 6.474-7.341 9.414-.88 1.171-.45.245-.579.41-1.867 2.391-3.47 5.017-4.783 6.148-.304 2.354-1.152 1.425-3.396 5.151-.175.295.015.942.807-.104.791-1.044 1.776-2.776 2.916-4.193.268-.339 2.09-2.062 2.311-2.314 1.725-1.993 1.33-2.745 1.378-2.884.566-1.548 2.81-3.631 3.324-4.232 2.35-2.765 4.201-5.223 6.236-7.473 1.333-1.469 1.847-1.285 2.846-2.472 3.342-3.926 4.04-5.745 7.822-8.872.817-.664.49.458 2.775-2.525.141-.188 1.804-2.448 3.127-3.393.165-.119.274.001.473-.176 1.33-1.183 2.092-2.1 3.541-3.388s3.218-2.8 4.826-4.317c.968-.916 2.052-2.272 2.486-2.747 1.219-1.348 2.919-2.335 3.61-3.25.7-.922-1.25.19.922-1.834.352.254.821.427 1.225.642 4.983-4.12 9.971-8.086 15.295-11.799.66-.459.116.198.827-.288 3.007-2.048 5.558-3.942 8.778-5.916 2.489-1.523 5.347-2.99 8.007-4.475 1.359-1.361 5.389-3.463 8.27-5.04 1.01-.556.882-.632 1.589-1.051 2.675-1.568 1.584-.518 2.368-.848 3.371-1.388 3.215-2.393 7.112-4.22.208-.1 2.944-.802 3.306-.927 2.3-.81.292-.33 1.665-.986 2.514-1.19 4.243-2.067 7.319-3.162.897-.319 3.135-.87 4.767-1.758.215-.117.029-.227.208-.306 3.252-1.409 3.53-.929 5.492-1.443s4.792-1.854 5.367-2.151c1.494-.781-1.248.288-1.34.294-1.105.036 1.07-.645 2.724-1.205.078-.577 2.421-1.285 1.716-.575-.081.078-1.391.444-1.716.575 1.619.015 4.172-.723 6.879-2.01 1.269-.595-.065-.507 4.02-1.539 1.854-.456 1.235.082 2.887-.251 3.782-.761 8.557-2.222 12.469-2.968 1.411-.269.079.204 1.045.028 2.562-.462 4.8-1.029 7.401-1.397.234-.033-.301.267.5.134 6.082-.993 11.399-1.837 17.819-2.462 3.094-.31 8.664-.598 11.881-.761 3.828-.213 8.21-.468 12.174-.534a99 99 0 0 1 5.098.028c3.119.117 2.427.314 3.754.496 2.547.349 7.13.125 7.753.098.019-.004-2.664-.215-1.224-.235.848-.169 1.194.232 1.224.235.41-.036 5.757.33 6.805.482.572.075.233.24.531.275a436 436 0 0 1 21.364 3.099c.127.02-.023-.23.273-.183 4.144.671 6.734 1.492 10.08 2.41 3.346.925 5.995 1.544 8.085 1.705 2.525.706 6.181 1.571 8.275 2.1 2.096.527 2.253 1.03 2.433 1.093 5.585 2.044 8.872 2.918 14.65 5.06 2.75 1.013 8.076 3.253 10.959 4.584 2.276 1.04 3.688 1.572 5.747 2.603.278.14-.087.178-.004.225 2.223 1.299 1.306.357 1.82.509 1.862.561 3.017.935 5.894 2.554.666.373 2.323 1.981 3.521 2.666 1.561.89 1.075.356 2.703 1.31.139.081.04.193 1.06.75 4.734 2.588 9.822 5.53 14.523 8.59.642.418-.308.08.615.687 4.327 2.847 8.999 6.102 13.107 9.037 1.013.723.487.125.732.248 1.507.76 3.111 2.54 3.41 2.786 7.152 5.866 12.779 10.209 19.488 16.855.37.36 2.877 3.441 4.39 4.421.103.066 1.619 1.026 2.494 2.329.054.081-.848-.559.482.793s3.316 3.673 5.229 5.458c.605.564 2.214 1.751 3.586 3.826.095.134 2.011 3.489 3.252 4.219.201.119.472-.402 2.12 2.052.312.47-.419-.25.451.948 1.332 1.836 3.294 4.118 4.779 6.489.261.414 1.206 2.28 2.397 3.462.187.185.04-.318.569.38 2.516 3.323 4.884 6.995 7.281 10.479.847 1.237.673.438 1.578 1.717.906 1.278 2.627 3.932 3.351 5.403.725 1.473-.574.167.637 2.294 5.247 9.267 10.22 18.559 14.425 28.344.619 1.451-.034.307.854 2.45 3.357 7.884 7.926 21.952 10.123 29.052 1.812 5.696.079-1.625 1.359 2.765.61 2.121.654 4.55.76 5.07 1.03 5.076 1.99 8.57 2.762 13.16.157.95-.221.059-.086.867.456 2.754 1.021 5.674 1.381 8.302.161 1.186-.032.99.13 2.08.381 2.608.727 4.92 1.15 7.475.038.234.075-1.37.286.583.336 3.136.813 7.036.872 10.697.014 1.083-.348 1.162.019 3.454.073.482.503-.157.218 2.556-.04.457-.436 5.003-.096 7.239.056.351.211 1.027.312 1.794.069.522.114 1.085.087 1.614-.01.176-.205-.534-.233.547-.097 3.812-.198 7.768-.474 11.653-.075 1.042-.194-.522-.302 1.03-.297 4.277-.699 9.526-1.116 13.704-.153 1.532.14.495.146.609.093 1.827-.453 2.832-.553 3.419-.626 3.655-.861 6.471-1.487 9.846-.174.93-.253.236-.302.418-.505 1.89.094.521-.085 1.743-.503 3.418-1.284 7.19-2.082 10.602-.294 1.251-.195-.207-.457.915-1.558 6.617-3.423 13.475-5.329 19.841-.361 1.202.047.504.005.765-.285 1.806-1.496 4.187-1.731 4.747-1.062 2.552-1.278 3.599-2.157 5.883-4.248 11.122-10.402 24.508-15.889 34.319-7.133 12.787-13.404 22.345-22.079 33.309-.555.694-.179-.151-.66.444-6.206 7.685-12.653 14.993-19.74 21.909-.581.566.098-.412-.842.491-1.928 1.85-4.376 4.186-6.324 6.06-.951.914.484-.138-.478.778a134 134 0 0 1-7.18 6.346c-1.046.857.373-.625-.976.499-9.201 7.638-18.764 14.482-28.904 21.073-.696.451-1.078 1.226-2.637 2.057-.179-.041-.25-.173-.369-.26-14.995 8.855-30.655 16.28-47.194 21.936-.697.237.431-.4-.92.056-7.831 2.632-15.562 4.747-23.72 6.861-.813.207-.296.537-2.73 1.002-.43.088-4.092.788-5.049.872-.131.011.496-.313-.679-.092a335 335 0 0 1-20.969 3.243c-1.119.136.097.224-.7.322-5.598.69-11.842.939-17.215 1.303-3.625.238-2.273.562-4.204.962-.273.059-2.538.091-2.655.3-.3.53.808 1.101.359 1.667-.094.126-3.159 0-1.344.291.127.021 2.349.104 2.896.193.382.064-.301.287.477.364.778.076 1.628-.118 2.915-.049 1.286.067.731.335 3.294.269m71.276-491.021c1.962.462 1.992 1.265.007.388-.096-.043-.107-.412-.007-.388M130.44 80.049c1.915-1.828 3.661-2.473 2.311-1.186-1.343 1.288-2.892 1.743-2.311 1.186m-21.099 17.162c2.087-2.267 3.155-1.802.592.252-.148.12-.713-.119-.592-.251m183.456 435.095c-.033.013-1.642.1-1.682.091-.87-.196 2.355-.37 1.682-.091M90.315 116.392c.52-.82 2.483-2.77 1.823-1.762-.534.807-2.474 2.778-1.823 1.762m360.341-19.068c.032.013.891.802.831.832-.196.093-1.344-1.053-.831-.832M63.371 153.55c3.45-5.837 4.975-9.778 1.118-3.434-.689 1.152 1.758-2.316.926-.821-1.516 2.731-3.054 4.232-4.394 7.148-.244.524 2.15-2.564 2.358-2.903zM362.433 44.051c.041.003 1.566.53 1.598.553.744.514-2.324-.548-1.598-.553m131.702 105.442c.071.062 2.035 3.261 2.075 3.378.68 1.871-3.281-4.587-2.075-3.378M255.192 30.722c-1.771-.071-3.894.13-5.255.594 1.74-.22 3.509-.412 5.255-.594"/></g><path fill="#00d1ff" d="M277.639 533.565c5.915-.202 13.647-.818 19.521-1.542 1.838-.225.904-.139 2.17-.302 2.478-.322 4.77-.631 7.204-1.021.81-.131-.205-.014.644-.151 4.656-.757 8.994-1.553 13.658-2.564 22.896-4.987 44.726-12.994 65.613-24.204 6.899-3.686 15.03-8.621 21.719-13.135.782-.525.337-.181.488-.279 2.352-1.546 1.537-1.081 3.04-2.137 5.956-4.199 12.381-9.149 17.753-13.658 2.283-1.922.05.072 2.308-1.912.156-.138-.443.326.175-.211a303 303 0 0 0 5.095-4.523 266 266 0 0 0 4.278-3.994c2.595-2.472 5.602-5.493 8.263-8.268.568-.593-.152.222.755-.722.911-.942 3.263-3.489 4.035-4.366.776-.874.419-.526.552-.684 1.099-1.299 3.791-4.269 4.123-4.665 6.129-7.136 10.991-13.587 16.011-20.848 3.807-5.513 7.642-11.582 10.817-17.105 3.786-6.596 6.734-12.319 9.876-18.998.33-.705-.013.142.389-.72a243 243 0 0 0 11.003-28.117c.308-.963-.132.264.173-.699 1.901-5.868 4.342-15.343 5.318-18.863.963-4.068 1.987-9.054 2.614-12.732.402-2.378-.048-.077.477-2.995.116-.659.011.205.18-.784.715-4.187 1.334-8.709 1.826-12.873.1-.845.109-.61.142-.849.281-2.021.506-5.358.558-6.092.423-5.561.661-9.661.812-14.843.031-1.207.042.221.072-.941.05-2.006.076-4.041.075-6.086 0-4.101-.107-8.193-.307-12.107-.068-1.305-.05-.103-.085-.726-.165-2.772-.128-3.392-.334-6.039-.045-.558-.056-.241-.068-.342-.179-1.588-.216-2.973-.251-3.381-.444-5.147-.924-8.485-1.609-13.433-.084-.592.154.737-.087-.928a244 244 0 0 0-7.32-33.449c-.49-1.657-.175-.464-.209-.567-.56-1.682-.817-2.8-.979-3.339-1.291-4.268-2.709-8.179-3.638-11.05-6.419-17.717-14.749-34.678-24.919-50.36-.13-.199.065.182-.193-.216-3.132-4.77-2.487-3.878-4.553-7.046-.521-.798-2.271-3.107-2.429-3.309-.564-.743-.051.079-.237-.171-1.545-2.072-1.123-1.858-3.21-4.653-.065-.087.18.302.001.07-.556-.72-1.09-1.448-1.643-2.146-1.269-1.595-1.788-2.109-3.688-4.571-.243-.309.236.076-1.744-2.327-.78-.968-4.341-5.156-5.378-6.295-1.024-1.148-.353-.332-.427-.413-2.796-3.058-1.767-1.87-3.22-3.355-1.461-1.475-.944-1.17-1.506-1.803-.562-.636-2.689-2.806-3.223-3.328-.531-.525.101.158-.367-.311-3.121-3.1-1.293-1.437-2.295-2.486-2.374-2.461-4.387-4.212-6.686-6.334-.623-.573-.096-.126-.648-.64-2.192-2.028-3.554-3.197-6.096-5.451-.415-.37-2.452-2.216-3.861-3.304-.199-.154.332.326-.654-.479a395 395 0 0 0-5.758-4.597c-1.188-.93.214.084-1.302-1.06-.675-.508.55.467-.718-.486-1.259-.954-4.5-3.348-5.752-4.236-1.245-.891-.54-.436-.639-.51-.598-.452-2.999-2.15-3.216-2.295-10.8-7.422-21.319-13.445-32.78-19.053-.902-.438-.282-.185-.42-.253-3.081-1.495-.692-.231-2.871-1.217.349.07-.932-.523-3.128-1.526-1.059-.481-.468-.252-.563-.299-1.555-.752-2.687-1.168-2.976-1.279-1.07-.41-2.194-.948-2.922-1.216-.729-.267.901.461-1.234-.424-.588-.275 1.031.303-.589-.376-6.095-2.628-17.832-6.625-22.962-8.073-5.1-1.499-6.778-1.927-9.784-2.694-5.429-1.33-3.428-.892-6.811-1.703-3.406-.783-1.78-.268-2.277-.346-.489-.072-1.009-.217-1.613-.325-.603-.107.69.183-.721-.103-1.402-.29-5.239-1.077-5.736-1.194-1.048-.257.712-.032-3.043-.652-.216-.035.479.121-.349-.014-6.567-1.07-13.435-1.932-20.033-2.468-.909-.073-.1.039-.629-.003-5.516-.401-3.54-.315-6.571-.587.678.154-1.018.09-5.191-.068-2.517-.086-2.083-.115-3.714-.189-.49-.022-2.28-.02-2.604-.044-1.01-.076.438-.151-3.045-.143q-.314 0-.686.005c-.19.002.417.04-.242.044-4.255.05-4.749-.021-9.34.135-3.601.12-9.98.585-14.049 1 .1.107-3.753.468-5.321.577-2.64.312-5.477.688-8.021 1.083-.874.136-.294.084-.404.104-1.681.316-2.831.423-3.396.514-6.14.995-11.093 2.064-16.875 3.366-.206.047-.554.04-2.084.478-.098.03 1.815-.405-.897.27-2.712.671-7.775 2.086-11.493 3.18-.9.26-3.184.892-4.982 1.534-.239.086.033.023-.311.149-1.112.409-1.752.531-3.045 1.046-1.289.517-4.011 1.507-7.68 2.838-.117.043-1.006.305-2.149.75a268 268 0 0 0-6.294 2.558c-.903.38-.341.098-.498.163-6.078 2.56-10.327 4.564-16.614 7.774-1.154.587-4.478 2.263-6.647 3.515-2.38 1.386.167.152-5.336 3.257-2.207 1.267-5.127 2.695-8.918 5.274-7.505 4.768-14.165 9.61-21.176 15.113-.315.247-1.351.982-2.082 1.578-1.084.885-1.654 1.4-2.421 2.041-3.209 2.69-6.11 5.193-9.084 7.925-1.126 1.04-.71.7-2.044 1.95-1.33 1.253-2.246 2.058-4 3.805-1.323 1.321-2.58 2.708-4.301 4.494-.131.004-1.326 1.219-3.415 3.414-.4.422.002-.056-.19.143-.777.808-1.46 1.59-2.19 2.365-.177.188-.209.176-.355.329-1.248 1.3-3.153 3.577-3.475 3.972-1.243 1.506-1.864 2.175-2.814 3.333-.945 1.158.507-.542-.604.806-2.303 2.794-5.197 6.432-7.407 9.37-.881 1.172-.314.347-.44.514-1.833 2.416-3.584 4.938-4.62 6.264-1.022 1.851-1.082 1.474-3.468 5.097-.187.287-.342.705.4-.376s1.835-2.741 2.9-4.216c.248-.351 1.757-2.304 1.96-2.572 1.582-2.109 1.688-2.494 1.762-2.613.863-1.33 2.772-3.666 3.266-4.287 2.249-2.852 4.173-5.261 6.14-7.577 1.288-1.511 1.493-1.592 2.506-2.776 3.39-3.918 4.505-5.354 7.94-8.828.744-.739.093.079 2.642-2.675.158-.174 2.055-2.216 3.24-3.308.148-.138.166-.11.358-.295 1.286-1.24 2.124-2.087 3.545-3.416a454 454 0 0 1 4.796-4.397c.991-.901 2.24-2.081 2.714-2.513 1.335-1.223 2.86-2.427 3.686-3.187.835-.765-.915.59 1.345-1.333.138-.005.387-.1.577-.146 5.015-4.13 10.092-8.027 15.429-11.768.662-.463.01.047.722-.447 3.007-2.082 5.642-3.878 8.849-5.904 2.479-1.565 5.252-3.204 7.905-4.74 1.562-1.035 5.543-3.26 8.457-4.814 1.02-.548.941-.533 1.666-.924 2.744-1.464 1.492-.714 2.255-1.093 3.286-1.601 3.475-1.918 7.375-3.767.207-.101 2.78-1.18 3.134-1.33 2.243-.966.353-.2 1.745-.831 2.548-1.144 4.321-1.934 7.363-3.145.887-.353 3.043-1.146 4.754-1.853.225-.093.087-.077.27-.149 3.31-1.289 3.442-1.209 5.366-1.863 1.926-.654 4.868-1.722 5.471-1.939 1.57-.575-1.223.379-1.309.406-1.027.28 1.142-.446 2.808-.987.207-.18 2.547-.913 1.728-.557-.094.04-1.396.443-1.728.557 1.497-.377 4.054-1.17 6.88-2.092 1.323-.425.043-.135 4.117-1.243 1.85-.491 1.154-.23 2.793-.641 3.754-.939 8.613-2.144 12.528-2.933 1.414-.285.045.034 1.012-.158 2.566-.506 4.836-.96 7.437-1.389.235-.038-.331.1.474-.036 6.112-1.018 11.47-1.76 17.92-2.385 3.109-.311 8.7-.692 11.935-.837 3.849-.193 8.255-.33 12.235-.341 1.852-.007 3.594.011 5.12.046 3.132.08 2.442.112 3.78.183 2.571.131 7.161.298 7.78.331.02-.002-2.678-.175-1.237-.11.84.008 1.207.108 1.237.11.41.004 5.777.408 6.833.53.576.058.249.067.55.096 7.176.718 14.295 1.71 21.493 3.01.127.022-.055-.056.242-.002 4.148.75 6.792 1.364 10.187 2.163 3.394.806 6.054 1.471 8.077 1.925 2.549.673 6.188 1.671 8.267 2.28 2.081.607 2.34.784 2.523.842 5.682 1.849 8.93 2.915 14.726 5.097 2.76 1.032 8.133 3.238 11.048 4.542 2.301 1.018 3.688 1.627 5.779 2.617.283.135-.019.035.067.077 2.315 1.142 1.232.53 1.721.744 1.768.783 2.868 1.272 5.808 2.796.679.351 2.593 1.492 3.815 2.154 1.59.861 1.009.493 2.669 1.411.142.08.099.087 1.124.653a247 247 0 0 1 14.577 8.715c.646.42-.208-.079.725.528a277 277 0 0 1 13.157 9.16c1.006.746.397.25.62.404 1.373.954 3.195 2.47 3.501 2.713 7.305 5.777 12.765 10.385 19.616 16.963.376.355 3.162 3.196 4.461 4.407.09.082 1.384 1.273 2.423 2.429.064.073-.725-.687.603.686s3.408 3.635 5.199 5.555c.567.607 1.942 2.014 3.516 3.931.108.122 2.483 3.125 3.425 4.119.152.162.096-.092 1.921 2.237.347.447-.315-.338.608.831 1.412 1.792 3.296 4.158 4.943 6.432.289.396 1.475 2.105 2.498 3.426.16.207-.103-.217.417.496 2.47 3.389 4.934 7.033 7.264 10.594.824 1.264.456.583 1.313 1.903.859 1.317 2.539 4.014 3.355 5.439.82 1.427-.173-.073 1.072 2.053 5.396 9.274 10.217 18.736 14.42 28.595.619 1.463.082.261.978 2.418 3.39 7.934 8.113 22.08 10.056 29.303 1.609 5.79-.298-1.53.901 2.905.571 2.141 1.028 4.482 1.148 5.003 1.169 5.079 1.951 8.636 2.785 13.242.169.954-.042.027.102.839.489 2.769.982 5.722 1.359 8.366.168 1.193.105.978.258 2.077.361 2.631.655 4.967.958 7.553.027.235-.099-1.361.108.605.328 3.156.687 7.086.871 10.761.052 1.086-.012 1.15.149 3.467.031.488.103-.141.128 2.576.012.455.034 5.026.105 7.281.013.354.047 1.035.068 1.806.013.525.021 1.091.013 1.622-.003.178-.038-.535-.05.553a256 256 0 0 1-.391 11.73c-.062 1.05-.015-.516-.108 1.048a283 283 0 0 1-1.177 13.8c-.173 1.542-.016.481-.025.593-.15 1.81-.371 2.861-.453 3.456-.515 3.697-.905 6.51-1.495 9.915-.165.938-.089.266-.124.452-.373 1.929-.05.5-.261 1.725a215 215 0 0 1-2.151 10.665c-.288 1.261-.01-.166-.269.965a266 266 0 0 1-5.453 19.966c-.381 1.205-.105.459-.178.712-.501 1.747-1.428 4.24-1.637 4.813-.943 2.615-1.279 3.628-2.143 5.936-4.169 11.243-10.447 24.7-16.016 34.553-7.241 12.846-13.661 22.385-22.362 33.438-.556.7-.032-.034-.513.568-6.215 7.769-12.762 15.08-19.86 22.082-.583.573.226-.285-.712.633a323 323 0 0 1-6.401 6.079c-.976.9.366-.272-.619.633a216 216 0 0 1-7.256 6.358c-1.045.872.5-.481-.857.654-9.258 7.708-18.886 14.636-29.221 21.074-.71.441-1.287.905-2.817 1.8-.128.047-.137.018-.201.024-15.072 8.969-30.9 16.332-47.551 22.005-.703.238.496-.218-.864.241-7.889 2.648-15.669 4.833-23.929 6.772-.822.19-.378.186-2.814.704-.43.098-4.104.847-5.053 1.005-.129.022.533-.146-.65.081a265 265 0 0 1-21.122 3.155c-1.128.121.078.039-.725.125-5.636.603-11.905.983-17.313 1.194-3.646.134-2.295.165-4.237.277-.274.017-2.544.043-2.662.084-.301.107.801.215.35.331-.094.029-3.146.007-1.339.064.127.005 2.337.01 2.88.02.379.009-.303.061.47.068.772.005 1.619-.046 2.896-.058 1.275-.017.718.056 3.26-.032m71.589-489.726c1.913.618 2.143.857.102.112-.099-.036-.2-.144-.102-.112M118.013 79.545c2.076-1.619 3.598-2.58 2.124-1.456-1.47 1.129-2.755 1.95-2.124 1.456m-21.02 17.347c2.23-2.117 2.732-2.283.275-.094-.143.128-.405.218-.275.094m183.777 435.91c-.033.005-1.646.085-1.686.084-.863-.006 2.371-.166 1.686-.084M78.092 116.244c.607-.745 2.472-2.785 1.705-1.871-.62.732-2.464 2.794-1.705 1.871m360.569-18.981c.025.02.879.814.853.807-.084-.025-1.265-1.14-.853-.807M51.133 153.439c3.483-5.831 5.593-9.385 1.677-3.096-.7 1.144 1.565-2.43.681-.969-1.615 2.67-2.773 4.394-4.314 7.188-.282.503 1.752-2.794 1.962-3.134zM350.381 44.047c.039.01 1.561.545 1.596.56.808.336-2.257-.741-1.596-.56m131.458 105.596a221 221 0 0 1 2.058 3.384c.946 1.711-2.987-4.764-2.058-3.384M243.181 31.153c-1.75.12-3.862.343-5.249.567 1.739-.207 3.505-.396 5.249-.566"/><defs><filter id="a" width="535.4" height="535.4" x="0" y="19.897" color-interpolation-filters="sRGB" filterUnits="userSpaceOnUse"><feFlood flood-opacity="0" result="BackgroundImageFix"/><feBlend in="SourceGraphic" in2="BackgroundImageFix" result="shape"/><feGaussianBlur result="effect1_foregroundBlur_482_237" stdDeviation="8.1"/></filter><filter id="b" width="530.142" height="564.953" x="31.604" y="0" color-interpolation-filters="sRGB" filterUnits="userSpaceOnUse"><feFlood flood-opacity="0" result="BackgroundImageFix"/><feBlend in="SourceGraphic" in2="BackgroundImageFix" result="shape"/><feGaussianBlur result="effect1_foregroundBlur_482_237" stdDeviation="14.7"/></filter></defs></svg>