<svg width="704" height="486" viewBox="0 0 704 486" fill="none" xmlns="http://www.w3.org/2000/svg">
<g filter="url(#filter0_dd_473_236)">
<path d="M126.135 96L127.325 101.31L132.635 102.5L127.325 103.69L126.135 109L124.944 103.69L119.635 102.5L124.944 101.31L126.135 96Z" fill="#00D1FF"/>
</g>
<g filter="url(#filter1_dd_473_236)">
<path d="M615.135 298L616.325 303.31L621.635 304.5L616.325 305.69L615.135 311L613.944 305.69L608.635 304.5L613.944 303.31L615.135 298Z" fill="#00D1FF"/>
</g>
<g filter="url(#filter2_dd_473_236)">
<path d="M104.635 388L108.481 405.154L125.635 409L108.481 412.846L104.635 430L100.789 412.846L83.6348 409L100.789 405.154L104.635 388Z" fill="#00D1FF"/>
</g>
<path d="M104.635 388L106.535 407.099L125.635 409L106.535 410.901L104.635 430L102.734 410.901L83.6348 409L102.734 407.099L104.635 388Z" fill="#00D1FF"/>
<g filter="url(#filter3_ddf_473_236)">
<path d="M615.135 423L616.875 430.76L624.635 432.5L616.875 434.24L615.135 442L613.395 434.24L605.635 432.5L613.395 430.76L615.135 423Z" fill="#00D1FF"/>
</g>
<path d="M615.135 423L615.995 431.64L624.635 432.5L615.995 433.36L615.135 442L614.275 433.36L605.635 432.5L614.275 431.64L615.135 423Z" fill="#00D1FF"/>
<g filter="url(#filter4_ddf_473_236)">
<path d="M580.135 36L581.508 42.1264L587.635 43.5L581.508 44.8736L580.135 51L578.761 44.8736L572.635 43.5L578.761 42.1264L580.135 36Z" fill="#00D1FF"/>
</g>
<g filter="url(#filter5_dd_473_236)">
<path d="M580.135 36L581.508 42.1264L587.635 43.5L581.508 44.8736L580.135 51L578.761 44.8736L572.635 43.5L578.761 42.1264L580.135 36Z" fill="#00D1FF"/>
</g>
<path opacity="0.5" d="M559.459 61.1982C487.054 58.9672 394.326 75.5439 298.464 111.497C202.602 147.45 121.843 195.941 68.7622 245.235C42.2202 269.884 22.6368 294.699 11.5278 318.21C0.420709 341.717 -2.18165 363.841 5.08252 383.21C12.3467 402.578 28.856 417.535 52.6821 427.94C76.5122 438.348 107.584 444.164 143.79 445.279C216.195 447.51 308.923 430.934 404.785 394.98C500.647 359.027 581.406 310.538 634.487 261.243C661.029 236.594 680.612 211.779 691.721 188.268C702.828 164.76 705.431 142.636 698.167 123.268C690.902 103.899 674.393 88.9436 650.567 78.5381C626.737 68.1308 595.665 62.3138 559.459 61.1982Z" stroke="url(#paint0_linear_473_236)" stroke-width="2"/>
<g opacity="0.5" filter="url(#filter6_d_473_236)">
<path d="M236.2 240.811C242.824 244.033 249.655 244.603 256.572 243.475C262.455 242.47 268.692 241.07 275.638 238.168C288.566 231.942 291.785 229.147 299.278 218.054C300.253 216.436 301.223 214.587 302.115 212.432C310.167 194.429 301.431 174.701 295.821 168.795C294.627 167.321 293.62 166.2 292.698 165.208C289.433 162.062 287.76 159.497 278.993 156.346C269.327 153.541 262.242 154.564 254.5 156.747L253.509 157.061L253.97 156.127C254.693 154.706 255.438 153.25 256.227 151.718C259.153 145.967 265.932 133.076 271.472 121.193L271.465 121.211C272.288 119.129 272.967 115.928 270.473 115.446C268.339 114.95 266.124 115.357 264.161 115.538L264.172 115.537C261.324 115.986 258.792 116.394 256.855 116.718C245.139 118.678 231.721 120.488 223.676 121.716C221.149 122.103 219.206 122.392 217.677 122.632C217.336 122.687 217.145 122.713 216.96 122.738C216.806 122.757 216.76 122.755 216.755 122.743C216.755 122.743 216.755 122.743 216.755 122.743C216.719 122.718 217.163 122.595 218.003 122.446C221.987 121.745 227.948 120.757 234.991 119.54C247.261 117.43 249.37 117.295 264.086 114.972L264.1 114.97C265.127 114.857 266.213 114.732 267.385 114.666C269.141 114.637 271.432 114.385 272.534 116.306C273.301 118.197 272.564 119.9 272.068 121.436L272.055 121.467C266.903 132.767 262.269 141.835 254.834 156.555L254.211 155.827C254.389 155.772 254.567 155.719 254.745 155.666C271.182 151.88 280.286 152.096 293.715 164.244C296.572 167.282 299.545 171.107 302.034 176.222C310.365 196.887 306.742 206.189 300.562 218.827C297.925 223.286 294.293 228.37 287.951 233.3C279.468 239.95 268.015 243.676 256.831 245.227C234.568 249.385 218.374 229.506 216.651 218.282C216.255 216.826 215.922 215.322 215.657 213.746C214.721 208.474 218.261 202.492 224.018 200.644C226.327 199.952 229.453 199.237 231.832 201.501C232.687 202.291 232.708 203.781 232.26 204.637C231.841 205.55 231.21 206.239 230.482 206.819C227.459 208.888 227.275 212.61 228.286 216.362C229.59 223.658 236.182 229.292 243.81 230.776C245.42 231.131 247.083 231.351 248.785 231.446C263.053 231.776 280.855 224.428 287.694 209.37C291.985 199.886 293.496 188.475 288.392 179.7C287.249 177.638 285.781 175.658 284.042 173.819C278.52 167.613 269.742 163.436 260.717 164.413C256.218 164.743 251.988 166.744 248.234 169.114C246.48 170.221 244.745 171.314 243.039 172.39C240.693 174.164 236.512 174.499 234.836 171.673C233.177 169.098 233.706 165.919 235.024 163.683C238.116 158.519 240.838 153.979 242.991 150.393C247.779 142.42 250.728 137.507 253.638 132.612C254.505 131.063 255.739 129.387 255.576 127.626C255.367 126.787 254.145 126.753 253.18 126.811C252.154 126.882 251.098 127.077 249.974 127.31C247.705 127.8 245.203 128.343 242.347 128.964C236.705 130.191 229.844 131.651 222.845 133.106C219.661 133.741 215.026 134.089 213.478 130.505C212.743 128.683 212.788 126.571 213.705 124.925C214.461 123.592 215.504 123.113 216.071 122.92C216.663 122.733 216.872 122.75 216.708 122.8C216.502 122.908 214.172 123.322 213.43 126.291C213.097 127.689 213.264 129.145 213.785 130.376C215.565 134.001 220.119 133.16 222.751 132.664C224.954 132.179 226.868 131.746 228.44 131.361C236.572 129.368 240.356 128.451 249.814 126.552C250.536 126.413 251.288 126.279 252.098 126.181C253.058 126.081 254.003 125.965 255.013 126.247C255.51 126.379 256.095 126.824 256.237 127.406C256.39 127.964 256.296 128.448 256.198 128.871C255.724 130.543 254.941 131.774 254.252 132.981C251.533 137.689 249.703 141.08 247.432 144.865C244.771 149.3 244.111 150.147 235.843 164.162C234.85 165.873 234.275 168.379 235.383 170.619C236.406 173.011 239.822 173.445 242.446 171.478C242.791 171.256 243.133 171.035 243.479 170.812C244.89 169.903 246.269 169.015 247.617 168.146C251.775 165.452 256.188 163.495 260.615 163.139C271.642 161.955 280.2 167.432 285.133 172.777C290.833 178.648 292.92 185.287 293.245 190.673C293.652 195.673 292.444 202.805 289.185 210.024C283.982 222.349 269.165 230.566 256.403 232.516C254.104 232.882 251.511 233.136 248.702 232.996C240.548 232.924 228.665 227.803 226.698 216.7C226.309 214.839 225.838 212.831 226.187 210.717C226.508 208.587 227.9 206.742 229.482 205.539C230.605 204.693 231.381 203.197 230.661 202.624C229.263 201.174 226.598 201.508 224.516 202.185C219.146 203.902 216.454 209.557 217.264 213.478C217.535 215.068 217.864 216.493 218.214 217.761C220.56 225.784 223.227 229.199 225.489 232.162C227.904 235 230.195 237.697 236.2 240.811Z" fill="#F4F4F9"/>
</g>
<path opacity="0.5" d="M284.935 121.417C296.82 117.761 306.42 112.747 320.745 114.387C323.618 115.262 326.986 117.082 328.425 120.614C330.217 125.64 328.234 129.558 326.949 132.424C325.489 135.356 323.866 137.681 322.144 139.954C318.673 144.441 314.564 149.054 306.9 156.277C301.873 160.986 296.632 165.412 291.525 169.517C280.934 177.955 270.968 184.357 265.666 187.908C257.745 193.085 256.739 193.367 245.13 200.119C233.441 206.708 226.106 210.382 215.129 214.586C210.445 215.838 201.214 221.237 190.998 217.712C184.046 214.092 185.411 204.688 187.733 199.128C190.076 193.118 193.206 188.36 195.273 185.224C202.575 174.226 213.394 163.719 220.211 157.867C222.325 156.034 224.046 154.647 225.38 153.607C225.943 153.169 226.215 152.986 226.231 153.005C226.231 153.005 226.231 153.005 226.231 153.005C226.25 153.03 225.871 153.367 225.16 153.948C221.703 156.771 216.682 161.184 211.26 166.897C201.606 177.861 199.391 178.427 189.833 195.72C186.017 203.533 184.192 213.235 191.378 217.051C199.418 220.125 209.048 215.954 220.395 211.459C241.564 201.738 246.151 198.762 273.805 180.96C281.025 176.115 286.404 172.115 290.767 168.578C302.619 158.25 310.273 153.697 323.867 134.206C325.705 131.007 327.36 127.384 327.135 123.763C326.994 120.072 323.845 117.34 320.15 116.261C301.585 114.706 282.244 123.898 268.49 129.68L268.86 129.325C267.763 131.441 266.717 133.458 265.734 135.359L264.73 134.311C267.646 132.985 270.412 131.78 272.771 130.761C284.493 126.208 298.202 118.569 315.583 117.486C318.014 117.8 320.974 118.762 322.184 121.514C323.301 124.196 322.553 126.941 321.674 129.332C319.769 134.143 316.737 138.306 313.525 142.318C306.655 150.731 298.054 158.877 288.526 166.452C273.179 178.511 255.889 189.741 239.133 198.986C232.448 202.644 224.924 206.527 216.959 209.862C212.948 211.524 208.835 213.073 204.515 214.145C202.436 214.649 200.145 215.083 197.924 215.079C195.784 215.078 192.974 214.581 191.91 212.178C188.324 203.213 193.518 194.598 197.361 188.367C201.547 181.974 206.033 176.969 209.538 173.21C217 165.36 221.948 161.096 226.939 156.805C231.358 153.08 236.138 149.556 243.61 144.429C245.069 143.434 246.622 142.39 248.243 141.334L248.162 141.419C249.319 139.463 250.535 137.417 251.787 135.314L252.139 135.664C244.613 140.162 236.491 145.317 229.623 150.472C224.405 154.433 225.476 153.402 230.699 149.358C238.383 143.498 245.192 139.404 249.358 136.686C250.218 136.129 251.029 135.607 251.804 135.11L252.343 135.645C251.067 137.93 249.966 139.89 248.856 141.831L248.681 142.013C244.905 144.579 241.11 147.089 234.957 151.458C231.939 153.619 229.469 155.545 227.399 157.342C222.466 161.626 219.341 164.77 215.657 168.351C213.064 170.914 211.736 172.124 208.022 176.194C205.016 180.49 195.934 186.598 191.888 204.466C191.642 207.027 191.978 209.543 192.975 211.696C194.689 214.839 199.532 213.862 202.787 213.239C206.251 212.476 209.515 211.33 212.486 210.188C218.518 207.839 223.657 205.344 228.248 203.022C237.404 198.341 244.203 194.331 249.786 190.965C258.389 185.762 273.624 176.201 287.573 165.245C293.09 160.904 298.345 156.247 302.925 151.671C306.793 147.78 311.545 142.774 315.807 136.648C317.893 133.571 319.973 130.196 320.863 126.486C321.279 124.677 321.263 122.679 320.213 121.343C319.194 119.987 317.262 119.34 315.37 119.097C298.46 120.222 282.412 128.79 273.514 132.231C270.24 133.661 267.644 134.824 265.432 135.834L263.036 136.943L264.242 134.592C265.48 132.19 266.48 130.273 267.382 128.564L267.518 128.298L267.794 128.17C272.904 125.922 276.296 124.505 284.935 121.417Z" fill="#F4F4F9"/>
<path opacity="0.5" d="M215.766 148.965C215.967 149.488 216.665 149.369 217.066 149.727C217.504 150.076 217.494 150.429 218.21 150.517C218.733 150.562 219.266 150.626 219.638 150.549C219.764 150.523 219.866 150.484 219.935 150.429C220.189 150.209 220.37 150.568 220.756 150.266C221.12 149.954 221.354 149.825 221.74 149.607C222.162 149.434 222.926 148.228 222.811 147.698C222.759 147.21 223.017 146.683 223.026 146.319C223.031 146.209 223.042 146.121 223.057 146.05C223.063 146.02 223.084 146.002 223.109 145.997C223.109 145.997 223.109 145.997 223.109 145.997C223.139 145.991 223.173 146.005 223.184 146.04C223.237 146.213 223.329 146.469 223.449 146.795C223.646 147.421 223.437 147.483 223.317 148.313C223.148 149.131 223.047 149.773 222.211 150.418C221.384 150.945 221.415 151.672 219.899 151.774C219.88 151.774 219.86 151.774 219.84 151.773C218.367 151.631 218.173 152.232 216.622 151.735C215.033 151.16 214.143 149.16 213.956 148.303C213.923 148.196 213.891 148.085 213.861 147.968C213.64 147.13 213.621 145.943 214.149 144.902C214.687 143.738 215.817 142.352 217.286 142.054C217.452 142.017 217.627 141.988 217.809 141.967C219.191 141.757 220.754 142.42 221.305 142.941C221.95 143.52 222.063 143.674 222.615 144.276C222.924 144.63 223.181 145.261 223.152 145.813C223.136 146.09 223.017 146.044 222.905 145.815C222.737 145.482 222.659 145.188 222.454 145.084C222.04 144.887 221.899 144.851 221.744 144.415C221.564 143.973 221.153 144.114 220.991 143.942C220.81 143.807 220.957 143.456 219.672 143.253C218.987 143.195 218.491 143.307 218.119 143.42C217.797 143.521 217.569 143.632 217.388 143.735C217.004 143.927 216.095 144.381 215.779 145.099C215.445 145.677 215.185 146.957 215.45 147.629C215.477 147.715 215.506 147.788 215.537 147.849C215.823 148.374 215.609 148.451 215.766 148.965Z" fill="#F4F4F9"/>
<path opacity="0.5" d="M219.945 168.577C220.147 169.1 220.844 168.981 221.246 169.339C221.684 169.688 221.673 170.041 222.39 170.129C222.913 170.175 223.446 170.239 223.818 170.161C223.944 170.136 224.046 170.096 224.115 170.041C224.368 169.822 224.549 170.18 224.936 169.878C225.299 169.567 225.534 169.437 225.92 169.22C226.341 169.046 227.106 167.84 226.991 167.31C226.938 166.823 227.197 166.295 227.206 165.931C227.211 165.821 227.222 165.733 227.236 165.663C227.242 165.633 227.264 165.615 227.288 165.61C227.288 165.61 227.288 165.61 227.288 165.61C227.318 165.603 227.352 165.617 227.363 165.653C227.417 165.825 227.509 166.081 227.628 166.408C227.825 167.033 227.617 167.096 227.497 167.926C227.327 168.744 227.227 169.386 226.391 170.03C225.564 170.558 225.595 171.285 224.079 171.386C224.059 171.386 224.04 171.386 224.02 171.386C222.547 171.244 222.352 171.845 220.801 171.347C219.213 170.772 218.322 168.772 218.136 167.915C218.102 167.808 218.07 167.698 218.041 167.58C217.82 166.743 217.8 165.555 218.329 164.514C218.867 163.351 219.997 161.965 221.465 161.666C221.632 161.63 221.807 161.6 221.989 161.58C223.371 161.369 224.933 162.033 225.485 162.554C226.13 163.133 226.243 163.286 226.795 163.888C227.104 164.242 227.361 164.874 227.332 165.425C227.316 165.702 227.197 165.657 227.085 165.428C226.917 165.094 226.839 164.801 226.634 164.697C226.22 164.5 226.079 164.463 225.924 164.027C225.743 163.585 225.333 163.726 225.171 163.554C224.99 163.42 225.136 163.068 223.851 162.865C223.166 162.807 222.671 162.919 222.298 163.033C221.977 163.134 221.748 163.244 221.567 163.347C221.183 163.539 220.274 163.993 219.959 164.711C219.625 165.29 219.365 166.57 219.63 167.242C219.657 167.327 219.686 167.4 219.716 167.462C220.003 167.986 219.789 168.063 219.945 168.577Z" fill="#F4F4F9"/>
<path opacity="0.5" d="M224.125 188.19C224.326 188.712 225.024 188.594 225.426 188.952C225.864 189.301 225.853 189.653 226.57 189.742C227.093 189.787 227.626 189.851 227.997 189.773C228.124 189.748 228.226 189.709 228.294 189.654C228.548 189.434 228.729 189.792 229.115 189.491C229.479 189.179 229.713 189.05 230.099 188.832C230.521 188.659 231.286 187.452 231.171 186.922C231.118 186.435 231.376 185.908 231.386 185.543C231.39 185.433 231.401 185.346 231.416 185.275C231.422 185.245 231.444 185.227 231.468 185.222C231.468 185.222 231.468 185.222 231.468 185.222C231.498 185.215 231.532 185.229 231.543 185.265C231.597 185.437 231.688 185.693 231.808 186.02C232.005 186.645 231.796 186.708 231.676 187.538C231.507 188.356 231.407 188.998 230.571 189.643C229.743 190.17 229.774 190.897 228.258 190.998C228.239 190.998 228.219 190.998 228.199 190.998C226.726 190.856 226.532 191.457 224.981 190.96C223.392 190.384 222.502 188.385 222.316 187.527C222.282 187.42 222.25 187.31 222.221 187.193C221.999 186.355 221.98 185.168 222.508 184.127C223.047 182.963 224.176 181.577 225.645 181.278C225.811 181.242 225.987 181.213 226.168 181.192C227.551 180.982 229.113 181.645 229.665 182.166C230.309 182.745 230.423 182.898 230.975 183.501C231.284 183.855 231.541 184.486 231.512 185.038C231.496 185.315 231.376 185.269 231.264 185.04C231.097 184.707 231.019 184.413 230.814 184.309C230.399 184.112 230.259 184.076 230.104 183.639C229.923 183.198 229.512 183.338 229.35 183.167C229.17 183.032 229.316 182.681 228.031 182.478C227.346 182.419 226.85 182.532 226.478 182.645C226.157 182.746 225.928 182.857 225.747 182.96C225.363 183.152 224.454 183.606 224.138 184.324C223.804 184.902 223.544 186.182 223.81 186.854C223.836 186.939 223.866 187.012 223.896 187.074C224.183 187.599 223.968 187.676 224.125 188.19Z" fill="#F4F4F9"/>
<g opacity="0.5" filter="url(#filter7_d_473_236)">
<path d="M457.954 47.6648C463.319 49.0951 530.231 71.1599 530.231 71.1599C539.251 74.5892 545.208 77.1581 536.58 85.0671C517.244 100.114 507.869 106.54 486.958 122.107C512.266 126.349 529.681 141.482 535.735 161.888C545.709 195.502 531.886 226.632 506.6 242.442C480.897 258.512 454.307 257.159 427.054 248.015C397.026 237.94 381.879 208.47 392.197 175.771C394.658 167.971 403.326 162.765 412.055 164.153C416.922 164.926 421.614 167.179 421.708 171.759C421.743 173.479 420.076 174.56 418.367 174.753C408.947 175.813 407.344 181.826 405.742 187.838C401.566 203.501 410.214 216.997 424.502 225.255C441.099 234.847 475.14 239.672 496.736 221.96C514.349 207.516 523.944 189.593 517.398 167.805C512.429 151.262 502.845 141.299 486.67 135.803C482.313 134.323 477.651 134.101 473.071 134.547L459.34 135.885C446.992 137.292 446.008 124.815 454.703 119.146L503.135 88.3662C512.734 82.4012 511.234 80.2601 501.684 77.6438L459.206 66.3206C454.288 65.0095 447.569 62.0608 447.993 56.2847C448.368 51.1817 452.588 46.2345 457.954 47.6648Z" fill="#00D1FF"/>
</g>
<path opacity="0.5" d="M449.599 97.2006C399.085 107.491 337.328 138.018 353.695 163.071C367.797 184.657 477.234 177.513 529.744 166.398C637.85 143.515 615.707 117.534 609.746 111.662C600.351 102.409 562.991 94.8005 526.092 93.3731L517.36 99.6747C517.36 99.6747 586.077 102.319 600.587 112.292C623.329 127.923 576.131 150.039 527.687 159.742C464.878 172.322 358.509 177.126 359.464 156.17C360.922 124.213 437.249 105.991 447.947 103.398C463.811 99.555 489.116 96.9394 489.116 96.9394L498.621 90.9212C482.016 92.1322 467.763 93.5005 449.599 97.2006Z" fill="#6339F0"/>
<circle opacity="0.5" cx="443.576" cy="83.2944" r="6.87481" transform="rotate(14.9263 443.576 83.2944)" fill="#00D1FF"/>
<circle opacity="0.5" cx="435.391" cy="113.998" r="6.87481" transform="rotate(14.9263 435.391 113.998)" fill="#00D1FF"/>
<circle opacity="0.5" cx="427.206" cy="144.702" r="6.87481" transform="rotate(14.9263 427.206 144.702)" fill="#00D1FF"/>
<g filter="url(#filter8_d_473_236)">
<path d="M280.597 183.028C288.039 183.028 382.297 188.503 382.297 188.503C395.162 189.83 403.762 191.1 395.32 204.32C375.476 230.478 365.554 242.036 343.85 269.41C378.085 266.168 405.86 279.752 420.743 304.085C445.26 344.17 438.106 389.251 410.821 418.45C383.085 448.132 348.188 455.558 309.743 453.125C267.381 450.444 237.595 417.512 239.669 371.609C240.163 360.659 249.591 350.926 261.373 349.71C268.28 348.996 275.504 350.469 276.72 357.178C277.026 358.871 275.748 360.335 274.128 360.912C261.373 365.459 261.373 374.009 261.373 382.559C261.373 404.282 277.229 418.773 298.581 424.534C323.383 431.225 369.128 425.724 390.979 395.334C408.799 370.55 415.037 344.03 399.041 318.077C386.481 297.7 369.961 288.136 345.844 287.116C341.247 286.922 336.687 287.875 332.377 289.485L312.843 296.785C297.34 302.868 291.759 287.052 301.061 276.71L353.151 220.136C363.521 209.099 360.841 206.844 347.57 206.753H288.659C281.837 206.753 272.119 205.254 270.675 197.628C269.399 190.891 273.155 183.028 280.597 183.028Z" fill="#F4F4F9"/>
</g>
<g filter="url(#filter9_f_473_236)">
<path d="M282.426 267.7C218.129 298.542 150.977 358.335 181.994 385.197C208.718 408.341 342.989 364.793 410.118 329.529C547.758 257.225 518.303 235.395 508.173 229.836C492.208 221.073 442.997 219.255 392.821 230.172L383.329 241.376C383.329 241.376 472.964 225.896 496.071 233.823C532.289 246.246 469.262 292.88 407.541 322.243C327.519 360.313 191.518 392.948 187.283 374.24C177.779 332.246 268.957 283.386 282.426 276.318C302.398 265.838 335.519 253.684 335.519 253.684L346.152 242.581C324.237 249.901 305.545 256.61 282.426 267.7Z" fill="#6339F0"/>
</g>
<g filter="url(#filter10_f_473_236)">
<path d="M282.426 254.317C218.129 285.159 150.977 344.952 181.994 371.814C208.718 394.957 342.989 351.41 410.118 316.146C547.758 243.842 518.303 222.012 508.173 216.452C492.208 207.69 442.997 205.872 392.821 216.789L383.329 227.992C383.329 227.992 472.964 212.513 496.071 220.439C532.289 232.863 469.262 279.497 407.541 308.86C327.519 346.93 191.518 379.565 187.283 360.857C177.779 318.863 268.957 270.003 282.426 262.935C302.398 252.455 335.519 240.301 335.519 240.301L346.152 229.198C324.237 236.517 305.545 243.227 282.426 254.317Z" fill="#00D1FF"/>
</g>
<path d="M286.878 250.055C225.019 280.817 155.588 341.663 185.429 368.454C211.14 391.537 350.383 344.511 414.541 311.993C546.627 245.046 508.987 219.047 499.241 213.502C483.881 204.763 432.879 207.807 384.606 218.695L375.473 229.869C375.473 229.869 465.367 209.573 487.598 217.478C522.443 229.869 468.96 274.799 409.58 304.085C332.592 342.055 196.514 384.992 190.518 357.526C181.374 315.643 273.92 265.7 286.878 258.651C306.092 248.198 337.957 236.076 337.957 236.076L348.188 225.003C327.104 232.303 309.12 238.994 286.878 250.055Z" fill="#0B0B0C"/>
<circle cx="272.277" cy="234.128" r="9.21295" fill="#F4F4F9"/>
<circle cx="272.277" cy="276.71" r="9.21295" fill="#F4F4F9"/>
<circle cx="272.277" cy="319.293" r="9.21295" fill="#F4F4F9"/>
<defs>
<filter id="filter0_dd_473_236" x="79.6348" y="60" width="93" height="93" filterUnits="userSpaceOnUse" color-interpolation-filters="sRGB">
<feFlood flood-opacity="0" result="BackgroundImageFix"/>
<feColorMatrix in="SourceAlpha" type="matrix" values="0 0 0 0 0 0 0 0 0 0 0 0 0 0 0 0 0 0 127 0" result="hardAlpha"/>
<feOffset dy="4"/>
<feGaussianBlur stdDeviation="12.5"/>
<feComposite in2="hardAlpha" operator="out"/>
<feColorMatrix type="matrix" values="0 0 0 0 0 0 0 0 0 0.819608 0 0 0 0 1 0 0 0 0.6 0"/>
<feBlend mode="normal" in2="BackgroundImageFix" result="effect1_dropShadow_473_236"/>
<feColorMatrix in="SourceAlpha" type="matrix" values="0 0 0 0 0 0 0 0 0 0 0 0 0 0 0 0 0 0 127 0" result="hardAlpha"/>
<feOffset dy="4"/>
<feGaussianBlur stdDeviation="20"/>
<feComposite in2="hardAlpha" operator="out"/>
<feColorMatrix type="matrix" values="0 0 0 0 0 0 0 0 0 0.819608 0 0 0 0 1 0 0 0 0.6 0"/>
<feBlend mode="normal" in2="effect1_dropShadow_473_236" result="effect2_dropShadow_473_236"/>
<feBlend mode="normal" in="SourceGraphic" in2="effect2_dropShadow_473_236" result="shape"/>
</filter>
<filter id="filter1_dd_473_236" x="565.635" y="259" width="99" height="99" filterUnits="userSpaceOnUse" color-interpolation-filters="sRGB">
<feFlood flood-opacity="0" result="BackgroundImageFix"/>
<feColorMatrix in="SourceAlpha" type="matrix" values="0 0 0 0 0 0 0 0 0 0 0 0 0 0 0 0 0 0 127 0" result="hardAlpha"/>
<feOffset dy="4"/>
<feGaussianBlur stdDeviation="9.5"/>
<feComposite in2="hardAlpha" operator="out"/>
<feColorMatrix type="matrix" values="0 0 0 0 0 0 0 0 0 0.819608 0 0 0 0 1 0 0 0 0.6 0"/>
<feBlend mode="normal" in2="BackgroundImageFix" result="effect1_dropShadow_473_236"/>
<feColorMatrix in="SourceAlpha" type="matrix" values="0 0 0 0 0 0 0 0 0 0 0 0 0 0 0 0 0 0 127 0" result="hardAlpha"/>
<feOffset dy="4"/>
<feGaussianBlur stdDeviation="21.5"/>
<feComposite in2="hardAlpha" operator="out"/>
<feColorMatrix type="matrix" values="0 0 0 0 0 0 0 0 0 0.819608 0 0 0 0 1 0 0 0 0.6 0"/>
<feBlend mode="normal" in2="effect1_dropShadow_473_236" result="effect2_dropShadow_473_236"/>
<feBlend mode="normal" in="SourceGraphic" in2="effect2_dropShadow_473_236" result="shape"/>
</filter>
<filter id="filter2_dd_473_236" x="43.6348" y="352" width="122" height="122" filterUnits="userSpaceOnUse" color-interpolation-filters="sRGB">
<feFlood flood-opacity="0" result="BackgroundImageFix"/>
<feColorMatrix in="SourceAlpha" type="matrix" values="0 0 0 0 0 0 0 0 0 0 0 0 0 0 0 0 0 0 127 0" result="hardAlpha"/>
<feOffset dy="4"/>
<feGaussianBlur stdDeviation="12.5"/>
<feComposite in2="hardAlpha" operator="out"/>
<feColorMatrix type="matrix" values="0 0 0 0 0 0 0 0 0 0.819608 0 0 0 0 1 0 0 0 0.6 0"/>
<feBlend mode="normal" in2="BackgroundImageFix" result="effect1_dropShadow_473_236"/>
<feColorMatrix in="SourceAlpha" type="matrix" values="0 0 0 0 0 0 0 0 0 0 0 0 0 0 0 0 0 0 127 0" result="hardAlpha"/>
<feOffset dy="4"/>
<feGaussianBlur stdDeviation="20"/>
<feComposite in2="hardAlpha" operator="out"/>
<feColorMatrix type="matrix" values="0 0 0 0 0 0 0 0 0 0.819608 0 0 0 0 1 0 0 0 0.6 0"/>
<feBlend mode="normal" in2="effect1_dropShadow_473_236" result="effect2_dropShadow_473_236"/>
<feBlend mode="normal" in="SourceGraphic" in2="effect2_dropShadow_473_236" result="shape"/>
</filter>
<filter id="filter3_ddf_473_236" x="565.635" y="387" width="99" height="99" filterUnits="userSpaceOnUse" color-interpolation-filters="sRGB">
<feFlood flood-opacity="0" result="BackgroundImageFix"/>
<feColorMatrix in="SourceAlpha" type="matrix" values="0 0 0 0 0 0 0 0 0 0 0 0 0 0 0 0 0 0 127 0" result="hardAlpha"/>
<feOffset dy="4"/>
<feGaussianBlur stdDeviation="12.5"/>
<feComposite in2="hardAlpha" operator="out"/>
<feColorMatrix type="matrix" values="0 0 0 0 0 0 0 0 0 0.819608 0 0 0 0 1 0 0 0 0.6 0"/>
<feBlend mode="normal" in2="BackgroundImageFix" result="effect1_dropShadow_473_236"/>
<feColorMatrix in="SourceAlpha" type="matrix" values="0 0 0 0 0 0 0 0 0 0 0 0 0 0 0 0 0 0 127 0" result="hardAlpha"/>
<feOffset dy="4"/>
<feGaussianBlur stdDeviation="20"/>
<feComposite in2="hardAlpha" operator="out"/>
<feColorMatrix type="matrix" values="0 0 0 0 0 0 0 0 0 0.819608 0 0 0 0 1 0 0 0 0.6 0"/>
<feBlend mode="normal" in2="effect1_dropShadow_473_236" result="effect2_dropShadow_473_236"/>
<feBlend mode="normal" in="SourceGraphic" in2="effect2_dropShadow_473_236" result="shape"/>
<feGaussianBlur stdDeviation="2.35" result="effect3_foregroundBlur_473_236"/>
</filter>
<filter id="filter4_ddf_473_236" x="532.635" y="0" width="95" height="95" filterUnits="userSpaceOnUse" color-interpolation-filters="sRGB">
<feFlood flood-opacity="0" result="BackgroundImageFix"/>
<feColorMatrix in="SourceAlpha" type="matrix" values="0 0 0 0 0 0 0 0 0 0 0 0 0 0 0 0 0 0 127 0" result="hardAlpha"/>
<feOffset dy="4"/>
<feGaussianBlur stdDeviation="12.5"/>
<feComposite in2="hardAlpha" operator="out"/>
<feColorMatrix type="matrix" values="0 0 0 0 0 0 0 0 0 0.819608 0 0 0 0 1 0 0 0 0.6 0"/>
<feBlend mode="normal" in2="BackgroundImageFix" result="effect1_dropShadow_473_236"/>
<feColorMatrix in="SourceAlpha" type="matrix" values="0 0 0 0 0 0 0 0 0 0 0 0 0 0 0 0 0 0 127 0" result="hardAlpha"/>
<feOffset dy="4"/>
<feGaussianBlur stdDeviation="20"/>
<feComposite in2="hardAlpha" operator="out"/>
<feColorMatrix type="matrix" values="0 0 0 0 0 0 0 0 0 0.819608 0 0 0 0 1 0 0 0 0.6 0"/>
<feBlend mode="normal" in2="effect1_dropShadow_473_236" result="effect2_dropShadow_473_236"/>
<feBlend mode="normal" in="SourceGraphic" in2="effect2_dropShadow_473_236" result="shape"/>
<feGaussianBlur stdDeviation="1.75" result="effect3_foregroundBlur_473_236"/>
</filter>
<filter id="filter5_dd_473_236" x="532.635" y="0" width="95" height="95" filterUnits="userSpaceOnUse" color-interpolation-filters="sRGB">
<feFlood flood-opacity="0" result="BackgroundImageFix"/>
<feColorMatrix in="SourceAlpha" type="matrix" values="0 0 0 0 0 0 0 0 0 0 0 0 0 0 0 0 0 0 127 0" result="hardAlpha"/>
<feOffset dy="4"/>
<feGaussianBlur stdDeviation="12.5"/>
<feComposite in2="hardAlpha" operator="out"/>
<feColorMatrix type="matrix" values="0 0 0 0 0 0 0 0 0 0.819608 0 0 0 0 1 0 0 0 0.6 0"/>
<feBlend mode="normal" in2="BackgroundImageFix" result="effect1_dropShadow_473_236"/>
<feColorMatrix in="SourceAlpha" type="matrix" values="0 0 0 0 0 0 0 0 0 0 0 0 0 0 0 0 0 0 127 0" result="hardAlpha"/>
<feOffset dy="4"/>
<feGaussianBlur stdDeviation="20"/>
<feComposite in2="hardAlpha" operator="out"/>
<feColorMatrix type="matrix" values="0 0 0 0 0 0 0 0 0 0.819608 0 0 0 0 1 0 0 0 0.6 0"/>
<feBlend mode="normal" in2="effect1_dropShadow_473_236" result="effect2_dropShadow_473_236"/>
<feBlend mode="normal" in="SourceGraphic" in2="effect2_dropShadow_473_236" result="shape"/>
</filter>
<filter id="filter6_d_473_236" x="212.968" y="114.64" width="105.934" height="139.15" filterUnits="userSpaceOnUse" color-interpolation-filters="sRGB">
<feFlood flood-opacity="0" result="BackgroundImageFix"/>
<feColorMatrix in="SourceAlpha" type="matrix" values="0 0 0 0 0 0 0 0 0 0 0 0 0 0 0 0 0 0 127 0" result="hardAlpha"/>
<feOffset dx="8" dy="4"/>
<feGaussianBlur stdDeviation="2"/>
<feComposite in2="hardAlpha" operator="out"/>
<feColorMatrix type="matrix" values="0 0 0 0 0 0 0 0 0 0 0 0 0 0 0 0 0 0 0.25 0"/>
<feBlend mode="normal" in2="BackgroundImageFix" result="effect1_dropShadow_473_236"/>
<feBlend mode="normal" in="SourceGraphic" in2="effect1_dropShadow_473_236" result="shape"/>
</filter>
<filter id="filter7_d_473_236" x="388.967" y="47.4146" width="163.808" height="215.336" filterUnits="userSpaceOnUse" color-interpolation-filters="sRGB">
<feFlood flood-opacity="0" result="BackgroundImageFix"/>
<feColorMatrix in="SourceAlpha" type="matrix" values="0 0 0 0 0 0 0 0 0 0 0 0 0 0 0 0 0 0 127 0" result="hardAlpha"/>
<feOffset dx="8" dy="4"/>
<feGaussianBlur stdDeviation="2"/>
<feComposite in2="hardAlpha" operator="out"/>
<feColorMatrix type="matrix" values="0 0 0 0 0 0 0 0 0 0 0 0 0 0 0 0 0 0 0.25 0"/>
<feBlend mode="normal" in2="BackgroundImageFix" result="effect1_dropShadow_473_236"/>
<feBlend mode="normal" in="SourceGraphic" in2="effect1_dropShadow_473_236" result="shape"/>
</filter>
<filter id="filter8_d_473_236" x="239.567" y="183.028" width="208.162" height="278.526" filterUnits="userSpaceOnUse" color-interpolation-filters="sRGB">
<feFlood flood-opacity="0" result="BackgroundImageFix"/>
<feColorMatrix in="SourceAlpha" type="matrix" values="0 0 0 0 0 0 0 0 0 0 0 0 0 0 0 0 0 0 127 0" result="hardAlpha"/>
<feOffset dx="8" dy="4"/>
<feGaussianBlur stdDeviation="2"/>
<feComposite in2="hardAlpha" operator="out"/>
<feColorMatrix type="matrix" values="0 0 0 0 0 0 0 0 0 0 0 0 0 0 0 0 0 0 0.25 0"/>
<feBlend mode="normal" in2="BackgroundImageFix" result="effect1_dropShadow_473_236"/>
<feBlend mode="normal" in="SourceGraphic" in2="effect1_dropShadow_473_236" result="shape"/>
</filter>
<filter id="filter9_f_473_236" x="158.788" y="207.214" width="374.542" height="199.87" filterUnits="userSpaceOnUse" color-interpolation-filters="sRGB">
<feFlood flood-opacity="0" result="BackgroundImageFix"/>
<feBlend mode="normal" in="SourceGraphic" in2="BackgroundImageFix" result="shape"/>
<feGaussianBlur stdDeviation="7.7" result="effect1_foregroundBlur_473_236"/>
</filter>
<filter id="filter10_f_473_236" x="163.887" y="198.93" width="364.342" height="189.67" filterUnits="userSpaceOnUse" color-interpolation-filters="sRGB">
<feFlood flood-opacity="0" result="BackgroundImageFix"/>
<feBlend mode="normal" in="SourceGraphic" in2="BackgroundImageFix" result="shape"/>
<feGaussianBlur stdDeviation="5.15" result="effect1_foregroundBlur_473_236"/>
</filter>
<linearGradient id="paint0_linear_473_236" x1="660.614" y1="96.239" x2="29.6142" y2="380.739" gradientUnits="userSpaceOnUse">
<stop stop-color="#6339F0"/>
<stop offset="1" stop-color="#909093" stop-opacity="0.1"/>
</linearGradient>
</defs>
</svg>
