<svg width="704" height="553" viewBox="0 0 704 553" fill="none" xmlns="http://www.w3.org/2000/svg">
<g filter="url(#filter0_ddf_473_236)">
<path d="M112.134 36L113.508 42.1264L119.634 43.5L113.508 44.8736L112.134 51L110.761 44.8736L104.634 43.5L110.761 42.1264L112.134 36Z" fill="#00D1FF"/>
</g>
<g filter="url(#filter1_dd_473_236)">
<path d="M126.134 163L127.325 168.31L132.634 169.5L127.325 170.69L126.134 176L124.944 170.69L119.634 169.5L124.944 168.31L126.134 163Z" fill="#00D1FF"/>
</g>
<g filter="url(#filter2_dd_473_236)">
<path d="M615.134 365L616.325 370.31L621.634 371.5L616.325 372.69L615.134 378L613.944 372.69L608.634 371.5L613.944 370.31L615.134 365Z" fill="#00D1FF"/>
</g>
<g filter="url(#filter3_dd_473_236)">
<path d="M104.634 455L108.48 472.154L125.634 476L108.48 479.846L104.634 497L100.788 479.846L83.6343 476L100.788 472.154L104.634 455Z" fill="#00D1FF"/>
</g>
<path d="M104.634 455L106.535 474.099L125.634 476L106.535 477.901L104.634 497L102.734 477.901L83.6343 476L102.734 474.099L104.634 455Z" fill="#00D1FF"/>
<g filter="url(#filter4_ddf_473_236)">
<path d="M615.134 490L616.874 497.76L624.634 499.5L616.874 501.24L615.134 509L613.394 501.24L605.634 499.5L613.394 497.76L615.134 490Z" fill="#00D1FF"/>
</g>
<path d="M615.134 490L615.994 498.64L624.634 499.5L615.994 500.36L615.134 509L614.274 500.36L605.634 499.5L614.274 498.64L615.134 490Z" fill="#00D1FF"/>
<g filter="url(#filter5_ddf_473_236)">
<path d="M580.134 103L581.508 109.126L587.634 110.5L581.508 111.874L580.134 118L578.761 111.874L572.634 110.5L578.761 109.126L580.134 103Z" fill="#00D1FF"/>
</g>
<g filter="url(#filter6_dd_473_236)">
<path d="M580.134 103L581.508 109.126L587.634 110.5L581.508 111.874L580.134 118L578.761 111.874L572.634 110.5L578.761 109.126L580.134 103Z" fill="#00D1FF"/>
</g>
<path opacity="0.5" d="M559.459 128.198C487.054 125.967 394.326 142.544 298.464 178.497C202.602 214.45 121.842 262.941 68.7617 312.235C42.2198 336.884 22.6363 361.699 11.5273 385.21C0.42022 408.717 -2.18214 430.841 5.08203 450.21C12.3462 469.578 28.8555 484.535 52.6816 494.94C76.5117 505.348 107.584 511.164 143.789 512.279C216.194 514.51 308.922 497.934 404.784 461.98C500.646 426.027 581.406 377.538 634.486 328.243C661.028 303.594 680.612 278.779 691.721 255.268C702.828 231.76 705.43 209.636 698.166 190.268C690.902 170.899 674.392 155.944 650.566 145.538C626.736 135.131 595.664 129.314 559.459 128.198Z" stroke="url(#paint0_linear_473_236)" stroke-width="2"/>
<g opacity="0.5" filter="url(#filter7_d_473_236)">
<path d="M236.199 307.811C242.824 311.033 249.654 311.603 256.571 310.475C262.455 309.47 268.691 308.07 275.638 305.168C288.566 298.942 291.785 296.147 299.278 285.054C300.252 283.436 301.222 281.587 302.114 279.432C310.166 261.429 301.431 241.701 295.82 235.795C294.626 234.321 293.619 233.2 292.698 232.208C289.432 229.062 287.76 226.497 278.992 223.346C269.326 220.541 262.241 221.564 254.5 223.747L253.509 224.061L253.969 223.127C254.692 221.706 255.438 220.25 256.227 218.718C259.153 212.967 265.932 200.076 271.472 188.193L271.464 188.211C272.288 186.129 272.966 182.928 270.472 182.446C268.338 181.95 266.124 182.357 264.16 182.538L264.172 182.537C261.323 182.986 258.792 183.394 256.855 183.718C245.138 185.678 231.72 187.488 223.675 188.716C221.149 189.103 219.206 189.392 217.677 189.632C217.336 189.687 217.145 189.713 216.959 189.738C216.805 189.757 216.759 189.755 216.755 189.743C216.755 189.743 216.755 189.743 216.755 189.743C216.719 189.718 217.162 189.595 218.003 189.446C221.986 188.745 227.948 187.757 234.991 186.54C247.261 184.43 249.37 184.295 264.085 181.972L264.099 181.97C265.126 181.857 266.213 181.732 267.385 181.666C269.141 181.637 271.431 181.385 272.533 183.306C273.301 185.197 272.564 186.9 272.067 188.436L272.055 188.467C266.903 199.767 262.268 208.835 254.834 223.555L254.211 222.827C254.388 222.772 254.566 222.719 254.745 222.666C271.182 218.88 280.285 219.096 293.714 231.244C296.572 234.282 299.545 238.107 302.033 243.222C310.364 263.887 306.741 273.189 300.562 285.827C297.925 290.286 294.293 295.37 287.95 300.3C279.467 306.95 268.014 310.676 256.83 312.227C234.567 316.385 218.374 296.506 216.651 285.282C216.254 283.826 215.922 282.322 215.657 280.746C214.721 275.474 218.26 269.492 224.017 267.644C226.327 266.952 229.453 266.237 231.832 268.501C232.687 269.291 232.708 270.781 232.26 271.637C231.841 272.55 231.209 273.239 230.482 273.819C227.458 275.888 227.274 279.61 228.286 283.362C229.59 290.658 236.182 296.292 243.81 297.776C245.419 298.131 247.082 298.351 248.785 298.446C263.053 298.776 280.854 291.428 287.693 276.37C291.984 266.886 293.495 255.475 288.392 246.7C287.249 244.638 285.781 242.658 284.041 240.819C278.52 234.613 269.742 230.436 260.716 231.413C256.217 231.743 251.988 233.744 248.233 236.114C246.479 237.221 244.745 238.314 243.038 239.39C240.693 241.164 236.512 241.499 234.836 238.673C233.177 236.098 233.706 232.919 235.024 230.683C238.116 225.519 240.837 220.979 242.99 217.393C247.778 209.42 250.727 204.507 253.637 199.612C254.505 198.063 255.739 196.387 255.576 194.626C255.367 193.787 254.145 193.753 253.179 193.811C252.154 193.882 251.097 194.077 249.973 194.31C247.705 194.8 245.202 195.343 242.346 195.964C236.705 197.191 229.844 198.651 222.845 200.106C219.661 200.741 215.025 201.089 213.477 197.505C212.742 195.683 212.788 193.571 213.704 191.925C214.461 190.592 215.504 190.113 216.07 189.92C216.662 189.733 216.871 189.75 216.707 189.8C216.502 189.908 214.171 190.322 213.43 193.291C213.096 194.689 213.263 196.145 213.785 197.376C215.565 201.001 220.118 200.16 222.751 199.664C224.954 199.179 226.868 198.746 228.44 198.361C236.572 196.368 240.356 195.451 249.813 193.552C250.535 193.413 251.287 193.279 252.098 193.181C253.058 193.081 254.003 192.965 255.012 193.247C255.509 193.379 256.095 193.824 256.237 194.406C256.39 194.964 256.296 195.448 256.197 195.871C255.724 197.543 254.94 198.774 254.252 199.981C251.533 204.689 249.703 208.08 247.431 211.865C244.77 216.3 244.11 217.147 235.843 231.162C234.849 232.873 234.274 235.379 235.382 237.619C236.406 240.011 239.822 240.445 242.445 238.478C242.791 238.256 243.133 238.035 243.479 237.812C244.889 236.903 246.268 236.015 247.616 235.146C251.774 232.452 256.188 230.495 260.615 230.139C271.642 228.955 280.2 234.432 285.133 239.777C290.832 245.648 292.919 252.287 293.244 257.673C293.651 262.673 292.443 269.805 289.184 277.024C283.982 289.349 269.165 297.566 256.403 299.516C254.104 299.882 251.51 300.136 248.702 299.996C240.547 299.924 228.664 294.803 226.698 283.7C226.308 281.839 225.838 279.831 226.186 277.717C226.508 275.587 227.899 273.742 229.481 272.539C230.604 271.693 231.38 270.197 230.66 269.624C229.262 268.174 226.598 268.508 224.516 269.185C219.146 270.902 216.454 276.557 217.263 280.478C217.535 282.068 217.863 283.493 218.213 284.761C220.56 292.784 223.226 296.199 225.488 299.162C227.904 302 230.194 304.697 236.199 307.811Z" fill="#F4F4F9"/>
</g>
<path opacity="0.5" d="M284.935 188.417C296.82 184.761 306.419 179.747 320.744 181.387C323.617 182.262 326.985 184.082 328.424 187.614C330.216 192.64 328.234 196.558 326.949 199.424C325.488 202.356 323.865 204.681 322.144 206.954C318.673 211.441 314.563 216.054 306.9 223.277C301.873 227.986 296.632 232.412 291.524 236.517C280.933 244.955 270.967 251.357 265.665 254.908C257.745 260.085 256.738 260.367 245.129 267.119C233.44 273.708 226.105 277.382 215.129 281.586C210.444 282.838 201.213 288.237 190.997 284.712C184.045 281.092 185.411 271.688 187.733 266.128C190.075 260.118 193.205 255.36 195.273 252.224C202.574 241.226 213.394 230.719 220.211 224.867C222.325 223.034 224.045 221.647 225.379 220.607C225.942 220.169 226.215 219.986 226.23 220.005C226.23 220.005 226.23 220.005 226.23 220.005C226.249 220.03 225.87 220.367 225.159 220.948C221.703 223.771 216.682 228.184 211.26 233.897C201.606 244.861 199.39 245.427 189.833 262.72C186.017 270.533 184.192 280.235 191.377 284.051C199.418 287.125 209.047 282.954 220.394 278.459C241.563 268.738 246.151 265.762 273.805 247.96C281.024 243.115 286.404 239.115 290.767 235.578C302.618 225.25 310.273 220.697 323.866 201.206C325.704 198.007 327.359 194.384 327.134 190.763C326.994 187.072 323.844 184.34 320.149 183.261C301.585 181.706 282.244 190.898 268.489 196.68L268.86 196.325C267.762 198.441 266.717 200.458 265.733 202.359L264.729 201.311C267.645 199.985 270.411 198.78 272.77 197.761C284.492 193.208 298.202 185.569 315.583 184.486C318.014 184.8 320.974 185.762 322.184 188.514C323.3 191.196 322.552 193.941 321.673 196.332C319.768 201.143 316.737 205.306 313.524 209.318C306.655 217.731 298.054 225.877 288.525 233.452C273.179 245.511 255.889 256.741 239.132 265.986C232.448 269.644 224.923 273.527 216.958 276.862C212.948 278.524 208.835 280.073 204.515 281.145C202.436 281.649 200.144 282.083 197.923 282.079C195.784 282.078 192.973 281.581 191.91 279.178C188.324 270.213 193.518 261.598 197.361 255.367C201.547 248.974 206.033 243.969 209.537 240.21C216.999 232.36 221.948 228.096 226.938 223.805C231.358 220.08 236.137 216.556 243.609 211.429C245.068 210.434 246.622 209.39 248.242 208.334L248.161 208.419C249.319 206.463 250.534 204.417 251.786 202.314L252.138 202.664C244.613 207.162 236.491 212.317 229.622 217.472C224.405 221.433 225.475 220.402 230.698 216.358C238.382 210.498 245.191 206.404 249.358 203.686C250.218 203.129 251.028 202.607 251.804 202.11L252.343 202.645C251.067 204.93 249.966 206.89 248.856 208.831L248.68 209.013C244.905 211.579 241.11 214.089 234.957 218.458C231.939 220.619 229.468 222.545 227.398 224.342C222.465 228.626 219.341 231.77 215.656 235.351C213.064 237.914 211.735 239.124 208.022 243.194C205.016 247.49 195.934 253.598 191.887 271.466C191.641 274.027 191.978 276.543 192.974 278.696C194.689 281.839 199.532 280.862 202.786 280.239C206.251 279.476 209.515 278.33 212.486 277.188C218.517 274.839 223.657 272.344 228.248 270.022C237.404 265.341 244.203 261.331 249.785 257.965C258.388 252.762 273.624 243.201 287.573 232.245C293.09 227.904 298.345 223.247 302.924 218.671C306.793 214.78 311.544 209.774 315.806 203.648C317.893 200.571 319.972 197.196 320.862 193.486C321.278 191.677 321.262 189.679 320.213 188.343C319.194 186.987 317.262 186.34 315.369 186.097C298.459 187.222 282.411 195.79 273.513 199.231C270.24 200.661 267.643 201.824 265.432 202.834L263.036 203.943L264.242 201.592C265.479 199.19 266.479 197.273 267.381 195.564L267.517 195.298L267.793 195.17C272.903 192.922 276.295 191.505 284.935 188.417Z" fill="#F4F4F9"/>
<path opacity="0.5" d="M215.765 215.965C215.966 216.488 216.664 216.369 217.066 216.727C217.504 217.076 217.493 217.429 218.21 217.517C218.733 217.562 219.266 217.626 219.637 217.549C219.764 217.523 219.866 217.484 219.934 217.429C220.188 217.209 220.369 217.568 220.755 217.266C221.119 216.954 221.354 216.825 221.739 216.607C222.161 216.434 222.926 215.228 222.811 214.698C222.758 214.21 223.017 213.683 223.026 213.319C223.03 213.209 223.042 213.121 223.056 213.05C223.062 213.02 223.084 213.002 223.108 212.997C223.108 212.997 223.108 212.997 223.108 212.997C223.138 212.991 223.172 213.005 223.183 213.04C223.237 213.213 223.329 213.469 223.448 213.795C223.645 214.421 223.437 214.483 223.317 215.313C223.147 216.131 223.047 216.773 222.211 217.418C221.384 217.945 221.415 218.672 219.899 218.774C219.879 218.774 219.859 218.774 219.84 218.773C218.366 218.631 218.172 219.232 216.621 218.735C215.032 218.16 214.142 216.16 213.956 215.303C213.922 215.196 213.89 215.085 213.861 214.968C213.639 214.13 213.62 212.943 214.149 211.902C214.687 210.738 215.816 209.352 217.285 209.054C217.451 209.017 217.627 208.988 217.809 208.967C219.191 208.757 220.753 209.42 221.305 209.941C221.949 210.52 222.063 210.674 222.615 211.276C222.924 211.63 223.181 212.261 223.152 212.813C223.136 213.09 223.017 213.044 222.905 212.815C222.737 212.482 222.659 212.188 222.454 212.084C222.039 211.887 221.899 211.851 221.744 211.415C221.563 210.973 221.153 211.114 220.99 210.942C220.81 210.807 220.956 210.456 219.671 210.253C218.986 210.195 218.491 210.307 218.118 210.42C217.797 210.521 217.568 210.632 217.387 210.735C217.003 210.927 216.094 211.381 215.778 212.099C215.444 212.677 215.184 213.957 215.45 214.629C215.477 214.715 215.506 214.788 215.536 214.849C215.823 215.374 215.609 215.451 215.765 215.965Z" fill="#F4F4F9"/>
<path opacity="0.5" d="M219.945 235.577C220.146 236.1 220.844 235.981 221.245 236.339C221.684 236.688 221.673 237.041 222.39 237.129C222.913 237.175 223.446 237.239 223.817 237.161C223.944 237.136 224.046 237.096 224.114 237.041C224.368 236.822 224.549 237.18 224.935 236.878C225.299 236.567 225.533 236.437 225.919 236.22C226.341 236.046 227.106 234.84 226.991 234.31C226.938 233.823 227.196 233.295 227.206 232.931C227.21 232.821 227.221 232.733 227.236 232.663C227.242 232.633 227.264 232.615 227.288 232.61C227.288 232.61 227.288 232.61 227.288 232.61C227.318 232.603 227.352 232.617 227.363 232.653C227.417 232.825 227.508 233.081 227.628 233.408C227.825 234.033 227.616 234.096 227.496 234.926C227.327 235.744 227.227 236.386 226.391 237.03C225.563 237.558 225.594 238.285 224.078 238.386C224.059 238.386 224.039 238.386 224.019 238.386C222.546 238.244 222.352 238.845 220.801 238.347C219.212 237.772 218.322 235.772 218.136 234.915C218.102 234.808 218.07 234.698 218.041 234.58C217.819 233.743 217.8 232.555 218.328 231.514C218.867 230.351 219.996 228.965 221.465 228.666C221.631 228.63 221.807 228.6 221.988 228.58C223.37 228.369 224.933 229.033 225.485 229.554C226.129 230.133 226.243 230.286 226.794 230.888C227.103 231.242 227.36 231.874 227.331 232.425C227.316 232.702 227.196 232.657 227.084 232.428C226.916 232.094 226.838 231.801 226.633 231.697C226.219 231.5 226.079 231.463 225.923 231.027C225.743 230.585 225.332 230.726 225.17 230.554C224.99 230.42 225.136 230.068 223.851 229.865C223.166 229.807 222.67 229.919 222.298 230.033C221.976 230.134 221.748 230.244 221.567 230.347C221.183 230.539 220.274 230.993 219.958 231.711C219.624 232.29 219.364 233.57 219.629 234.242C219.656 234.327 219.686 234.4 219.716 234.462C220.002 234.986 219.788 235.063 219.945 235.577Z" fill="#F4F4F9"/>
<path opacity="0.5" d="M224.125 255.19C224.326 255.712 225.024 255.594 225.425 255.952C225.863 256.301 225.853 256.653 226.569 256.742C227.092 256.787 227.625 256.851 227.997 256.773C228.123 256.748 228.225 256.709 228.294 256.654C228.547 256.434 228.728 256.792 229.115 256.491C229.479 256.179 229.713 256.05 230.099 255.832C230.521 255.659 231.285 254.452 231.17 253.922C231.118 253.435 231.376 252.908 231.385 252.543C231.39 252.433 231.401 252.346 231.415 252.275C231.422 252.245 231.443 252.227 231.467 252.222C231.467 252.222 231.467 252.222 231.467 252.222C231.498 252.215 231.532 252.229 231.543 252.265C231.596 252.437 231.688 252.693 231.808 253.02C232.005 253.645 231.796 253.708 231.676 254.538C231.507 255.356 231.406 255.998 230.57 256.643C229.743 257.17 229.774 257.897 228.258 257.998C228.238 257.998 228.219 257.998 228.199 257.998C226.726 257.856 226.532 258.457 224.98 257.96C223.392 257.384 222.501 255.385 222.315 254.527C222.281 254.42 222.25 254.31 222.22 254.193C221.999 253.355 221.98 252.168 222.508 251.127C223.046 249.963 224.176 248.577 225.645 248.278C225.811 248.242 225.986 248.213 226.168 248.192C227.55 247.982 229.112 248.645 229.664 249.166C230.309 249.745 230.422 249.898 230.974 250.501C231.283 250.855 231.54 251.486 231.511 252.038C231.495 252.315 231.376 252.269 231.264 252.04C231.096 251.707 231.018 251.413 230.813 251.309C230.399 251.112 230.258 251.076 230.103 250.639C229.923 250.198 229.512 250.338 229.35 250.167C229.169 250.032 229.316 249.681 228.031 249.478C227.346 249.419 226.85 249.532 226.478 249.645C226.156 249.746 225.928 249.857 225.747 249.96C225.363 250.152 224.453 250.606 224.138 251.324C223.804 251.902 223.544 253.182 223.809 253.854C223.836 253.939 223.865 254.012 223.896 254.074C224.182 254.599 223.968 254.676 224.125 255.19Z" fill="#F4F4F9"/>
<g opacity="0.5" filter="url(#filter8_d_473_236)">
<path d="M457.953 114.665C463.319 116.095 530.23 138.16 530.23 138.16C539.251 141.589 545.207 144.158 536.58 152.067C517.244 167.114 507.868 173.54 486.957 189.107C512.265 193.349 529.681 208.482 535.735 228.888C545.708 262.502 531.885 293.632 506.599 309.442C480.896 325.512 454.307 324.159 427.054 315.015C397.025 304.94 381.878 275.47 392.196 242.771C394.657 234.971 403.326 229.765 412.055 231.153C416.921 231.926 421.613 234.179 421.708 238.759C421.743 240.479 420.076 241.56 418.366 241.753C408.947 242.813 407.344 248.826 405.741 254.838C401.566 270.501 410.213 283.997 424.501 292.255C441.098 301.847 475.139 306.672 496.736 288.96C514.348 274.516 523.943 256.593 517.398 234.805C512.428 218.262 502.844 208.299 486.67 202.803C482.313 201.323 477.65 201.101 473.07 201.547L459.339 202.885C446.992 204.292 446.007 191.815 454.702 186.146L503.135 155.366C512.733 149.401 511.234 147.26 501.683 144.644L459.206 133.321C454.287 132.009 447.569 129.061 447.993 123.285C448.368 118.182 452.588 113.234 457.953 114.665Z" fill="#00D1FF"/>
</g>
<path opacity="0.5" d="M449.599 164.201C399.084 174.491 337.327 205.018 353.694 230.071C367.796 251.657 477.233 244.513 529.743 233.398C637.85 210.515 615.707 184.534 609.745 178.662C600.35 169.409 562.991 161.801 526.092 160.373L517.359 166.675C517.359 166.675 586.076 169.319 600.586 179.292C623.329 194.923 576.13 217.039 527.686 226.742C464.877 239.322 358.508 244.126 359.464 223.17C360.921 191.213 437.249 172.991 447.947 170.398C463.81 166.555 489.116 163.939 489.116 163.939L498.621 157.921C482.015 159.132 467.763 160.501 449.599 164.201Z" fill="#6339F0"/>
<circle opacity="0.5" cx="443.575" cy="150.294" r="6.87481" transform="rotate(14.9263 443.575 150.294)" fill="#00D1FF"/>
<circle opacity="0.5" cx="435.39" cy="180.998" r="6.87481" transform="rotate(14.9263 435.39 180.998)" fill="#00D1FF"/>
<circle opacity="0.5" cx="427.206" cy="211.702" r="6.87481" transform="rotate(14.9263 427.206 211.702)" fill="#00D1FF"/>
<g filter="url(#filter9_d_473_236)">
<path d="M280.596 250.028C288.038 250.028 382.297 255.503 382.297 255.503C395.161 256.83 403.761 258.1 395.319 271.32C375.475 297.478 365.553 309.036 343.849 336.41C378.085 333.168 405.859 346.752 420.742 371.085C445.259 411.17 438.106 456.251 410.82 485.45C383.085 515.132 348.188 522.558 309.742 520.125C267.381 517.444 237.595 484.512 239.668 438.609C240.163 427.659 249.59 417.926 261.373 416.71C268.28 415.996 275.503 417.469 276.719 424.178C277.026 425.871 275.748 427.335 274.127 427.912C261.373 432.459 261.373 441.009 261.373 449.559C261.373 471.282 277.229 485.773 298.58 491.534C323.383 498.225 369.127 492.724 390.979 462.334C408.799 437.55 415.037 411.03 399.04 385.077C386.481 364.7 369.961 355.136 345.844 354.116C341.246 353.922 336.687 354.875 332.376 356.485L312.843 363.785C297.34 369.868 291.759 354.052 301.061 343.71L353.151 287.136C363.521 276.099 360.84 273.844 347.57 273.753H288.658C281.837 273.753 272.119 272.254 270.674 264.628C269.399 257.891 273.155 250.028 280.596 250.028Z" fill="#F4F4F9"/>
</g>
<g filter="url(#filter10_f_473_236)">
<path d="M282.425 334.7C218.129 365.542 150.977 425.335 181.994 452.197C208.718 475.341 342.989 431.793 410.118 396.529C547.758 324.225 518.303 302.395 508.173 296.836C492.208 288.073 442.996 286.255 392.821 297.172L383.328 308.376C383.328 308.376 472.963 292.896 496.071 300.823C532.288 313.246 469.261 359.88 407.541 389.243C327.518 427.313 191.517 459.948 187.283 441.24C177.779 399.246 268.957 350.386 282.425 343.318C302.397 332.838 335.518 320.684 335.518 320.684L346.152 309.581C324.237 316.901 305.545 323.61 282.425 334.7Z" fill="#6339F0"/>
</g>
<g filter="url(#filter11_f_473_236)">
<path d="M282.425 321.317C218.129 352.159 150.977 411.952 181.994 438.814C208.718 461.957 342.989 418.41 410.118 383.146C547.758 310.842 518.303 289.012 508.173 283.452C492.208 274.69 442.996 272.872 392.821 283.789L383.328 294.992C383.328 294.992 472.963 279.513 496.071 287.439C532.288 299.863 469.261 346.497 407.541 375.86C327.518 413.93 191.517 446.565 187.283 427.857C177.779 385.863 268.957 337.003 282.425 329.935C302.397 319.455 335.518 307.301 335.518 307.301L346.152 296.198C324.237 303.517 305.545 310.227 282.425 321.317Z" fill="#00D1FF"/>
</g>
<path d="M286.877 317.055C225.018 347.817 155.588 408.663 185.429 435.454C211.14 458.537 350.383 411.511 414.541 378.993C546.627 312.046 508.986 286.047 499.241 280.502C483.881 271.763 432.878 274.807 384.606 285.695L375.473 296.869C375.473 296.869 465.366 276.573 487.597 284.478C522.442 296.869 468.96 341.799 409.58 371.085C332.591 409.055 196.514 451.992 190.518 424.526C181.374 382.643 273.919 332.7 286.877 325.651C306.092 315.198 337.957 303.076 337.957 303.076L348.187 292.003C327.103 299.303 309.12 305.994 286.877 317.055Z" fill="#0B0B0C"/>
<circle cx="272.276" cy="301.128" r="9.21295" fill="#F4F4F9"/>
<circle cx="272.276" cy="343.71" r="9.21295" fill="#F4F4F9"/>
<circle cx="272.276" cy="386.293" r="9.21295" fill="#F4F4F9"/>
<defs>
<filter id="filter0_ddf_473_236" x="64.6343" y="0" width="95" height="95" filterUnits="userSpaceOnUse" color-interpolation-filters="sRGB">
<feFlood flood-opacity="0" result="BackgroundImageFix"/>
<feColorMatrix in="SourceAlpha" type="matrix" values="0 0 0 0 0 0 0 0 0 0 0 0 0 0 0 0 0 0 127 0" result="hardAlpha"/>
<feOffset dy="4"/>
<feGaussianBlur stdDeviation="12.5"/>
<feComposite in2="hardAlpha" operator="out"/>
<feColorMatrix type="matrix" values="0 0 0 0 0 0 0 0 0 0.819608 0 0 0 0 1 0 0 0 0.6 0"/>
<feBlend mode="normal" in2="BackgroundImageFix" result="effect1_dropShadow_473_236"/>
<feColorMatrix in="SourceAlpha" type="matrix" values="0 0 0 0 0 0 0 0 0 0 0 0 0 0 0 0 0 0 127 0" result="hardAlpha"/>
<feOffset dy="4"/>
<feGaussianBlur stdDeviation="20"/>
<feComposite in2="hardAlpha" operator="out"/>
<feColorMatrix type="matrix" values="0 0 0 0 0 0 0 0 0 0.819608 0 0 0 0 1 0 0 0 0.6 0"/>
<feBlend mode="normal" in2="effect1_dropShadow_473_236" result="effect2_dropShadow_473_236"/>
<feBlend mode="normal" in="SourceGraphic" in2="effect2_dropShadow_473_236" result="shape"/>
<feGaussianBlur stdDeviation="1.75" result="effect3_foregroundBlur_473_236"/>
</filter>
<filter id="filter1_dd_473_236" x="79.6343" y="127" width="93" height="93" filterUnits="userSpaceOnUse" color-interpolation-filters="sRGB">
<feFlood flood-opacity="0" result="BackgroundImageFix"/>
<feColorMatrix in="SourceAlpha" type="matrix" values="0 0 0 0 0 0 0 0 0 0 0 0 0 0 0 0 0 0 127 0" result="hardAlpha"/>
<feOffset dy="4"/>
<feGaussianBlur stdDeviation="12.5"/>
<feComposite in2="hardAlpha" operator="out"/>
<feColorMatrix type="matrix" values="0 0 0 0 0 0 0 0 0 0.819608 0 0 0 0 1 0 0 0 0.6 0"/>
<feBlend mode="normal" in2="BackgroundImageFix" result="effect1_dropShadow_473_236"/>
<feColorMatrix in="SourceAlpha" type="matrix" values="0 0 0 0 0 0 0 0 0 0 0 0 0 0 0 0 0 0 127 0" result="hardAlpha"/>
<feOffset dy="4"/>
<feGaussianBlur stdDeviation="20"/>
<feComposite in2="hardAlpha" operator="out"/>
<feColorMatrix type="matrix" values="0 0 0 0 0 0 0 0 0 0.819608 0 0 0 0 1 0 0 0 0.6 0"/>
<feBlend mode="normal" in2="effect1_dropShadow_473_236" result="effect2_dropShadow_473_236"/>
<feBlend mode="normal" in="SourceGraphic" in2="effect2_dropShadow_473_236" result="shape"/>
</filter>
<filter id="filter2_dd_473_236" x="565.634" y="326" width="99" height="99" filterUnits="userSpaceOnUse" color-interpolation-filters="sRGB">
<feFlood flood-opacity="0" result="BackgroundImageFix"/>
<feColorMatrix in="SourceAlpha" type="matrix" values="0 0 0 0 0 0 0 0 0 0 0 0 0 0 0 0 0 0 127 0" result="hardAlpha"/>
<feOffset dy="4"/>
<feGaussianBlur stdDeviation="9.5"/>
<feComposite in2="hardAlpha" operator="out"/>
<feColorMatrix type="matrix" values="0 0 0 0 0 0 0 0 0 0.819608 0 0 0 0 1 0 0 0 0.6 0"/>
<feBlend mode="normal" in2="BackgroundImageFix" result="effect1_dropShadow_473_236"/>
<feColorMatrix in="SourceAlpha" type="matrix" values="0 0 0 0 0 0 0 0 0 0 0 0 0 0 0 0 0 0 127 0" result="hardAlpha"/>
<feOffset dy="4"/>
<feGaussianBlur stdDeviation="21.5"/>
<feComposite in2="hardAlpha" operator="out"/>
<feColorMatrix type="matrix" values="0 0 0 0 0 0 0 0 0 0.819608 0 0 0 0 1 0 0 0 0.6 0"/>
<feBlend mode="normal" in2="effect1_dropShadow_473_236" result="effect2_dropShadow_473_236"/>
<feBlend mode="normal" in="SourceGraphic" in2="effect2_dropShadow_473_236" result="shape"/>
</filter>
<filter id="filter3_dd_473_236" x="43.6343" y="419" width="122" height="122" filterUnits="userSpaceOnUse" color-interpolation-filters="sRGB">
<feFlood flood-opacity="0" result="BackgroundImageFix"/>
<feColorMatrix in="SourceAlpha" type="matrix" values="0 0 0 0 0 0 0 0 0 0 0 0 0 0 0 0 0 0 127 0" result="hardAlpha"/>
<feOffset dy="4"/>
<feGaussianBlur stdDeviation="12.5"/>
<feComposite in2="hardAlpha" operator="out"/>
<feColorMatrix type="matrix" values="0 0 0 0 0 0 0 0 0 0.819608 0 0 0 0 1 0 0 0 0.6 0"/>
<feBlend mode="normal" in2="BackgroundImageFix" result="effect1_dropShadow_473_236"/>
<feColorMatrix in="SourceAlpha" type="matrix" values="0 0 0 0 0 0 0 0 0 0 0 0 0 0 0 0 0 0 127 0" result="hardAlpha"/>
<feOffset dy="4"/>
<feGaussianBlur stdDeviation="20"/>
<feComposite in2="hardAlpha" operator="out"/>
<feColorMatrix type="matrix" values="0 0 0 0 0 0 0 0 0 0.819608 0 0 0 0 1 0 0 0 0.6 0"/>
<feBlend mode="normal" in2="effect1_dropShadow_473_236" result="effect2_dropShadow_473_236"/>
<feBlend mode="normal" in="SourceGraphic" in2="effect2_dropShadow_473_236" result="shape"/>
</filter>
<filter id="filter4_ddf_473_236" x="565.634" y="454" width="99" height="99" filterUnits="userSpaceOnUse" color-interpolation-filters="sRGB">
<feFlood flood-opacity="0" result="BackgroundImageFix"/>
<feColorMatrix in="SourceAlpha" type="matrix" values="0 0 0 0 0 0 0 0 0 0 0 0 0 0 0 0 0 0 127 0" result="hardAlpha"/>
<feOffset dy="4"/>
<feGaussianBlur stdDeviation="12.5"/>
<feComposite in2="hardAlpha" operator="out"/>
<feColorMatrix type="matrix" values="0 0 0 0 0 0 0 0 0 0.819608 0 0 0 0 1 0 0 0 0.6 0"/>
<feBlend mode="normal" in2="BackgroundImageFix" result="effect1_dropShadow_473_236"/>
<feColorMatrix in="SourceAlpha" type="matrix" values="0 0 0 0 0 0 0 0 0 0 0 0 0 0 0 0 0 0 127 0" result="hardAlpha"/>
<feOffset dy="4"/>
<feGaussianBlur stdDeviation="20"/>
<feComposite in2="hardAlpha" operator="out"/>
<feColorMatrix type="matrix" values="0 0 0 0 0 0 0 0 0 0.819608 0 0 0 0 1 0 0 0 0.6 0"/>
<feBlend mode="normal" in2="effect1_dropShadow_473_236" result="effect2_dropShadow_473_236"/>
<feBlend mode="normal" in="SourceGraphic" in2="effect2_dropShadow_473_236" result="shape"/>
<feGaussianBlur stdDeviation="2.35" result="effect3_foregroundBlur_473_236"/>
</filter>
<filter id="filter5_ddf_473_236" x="532.634" y="67" width="95" height="95" filterUnits="userSpaceOnUse" color-interpolation-filters="sRGB">
<feFlood flood-opacity="0" result="BackgroundImageFix"/>
<feColorMatrix in="SourceAlpha" type="matrix" values="0 0 0 0 0 0 0 0 0 0 0 0 0 0 0 0 0 0 127 0" result="hardAlpha"/>
<feOffset dy="4"/>
<feGaussianBlur stdDeviation="12.5"/>
<feComposite in2="hardAlpha" operator="out"/>
<feColorMatrix type="matrix" values="0 0 0 0 0 0 0 0 0 0.819608 0 0 0 0 1 0 0 0 0.6 0"/>
<feBlend mode="normal" in2="BackgroundImageFix" result="effect1_dropShadow_473_236"/>
<feColorMatrix in="SourceAlpha" type="matrix" values="0 0 0 0 0 0 0 0 0 0 0 0 0 0 0 0 0 0 127 0" result="hardAlpha"/>
<feOffset dy="4"/>
<feGaussianBlur stdDeviation="20"/>
<feComposite in2="hardAlpha" operator="out"/>
<feColorMatrix type="matrix" values="0 0 0 0 0 0 0 0 0 0.819608 0 0 0 0 1 0 0 0 0.6 0"/>
<feBlend mode="normal" in2="effect1_dropShadow_473_236" result="effect2_dropShadow_473_236"/>
<feBlend mode="normal" in="SourceGraphic" in2="effect2_dropShadow_473_236" result="shape"/>
<feGaussianBlur stdDeviation="1.75" result="effect3_foregroundBlur_473_236"/>
</filter>
<filter id="filter6_dd_473_236" x="532.634" y="67" width="95" height="95" filterUnits="userSpaceOnUse" color-interpolation-filters="sRGB">
<feFlood flood-opacity="0" result="BackgroundImageFix"/>
<feColorMatrix in="SourceAlpha" type="matrix" values="0 0 0 0 0 0 0 0 0 0 0 0 0 0 0 0 0 0 127 0" result="hardAlpha"/>
<feOffset dy="4"/>
<feGaussianBlur stdDeviation="12.5"/>
<feComposite in2="hardAlpha" operator="out"/>
<feColorMatrix type="matrix" values="0 0 0 0 0 0 0 0 0 0.819608 0 0 0 0 1 0 0 0 0.6 0"/>
<feBlend mode="normal" in2="BackgroundImageFix" result="effect1_dropShadow_473_236"/>
<feColorMatrix in="SourceAlpha" type="matrix" values="0 0 0 0 0 0 0 0 0 0 0 0 0 0 0 0 0 0 127 0" result="hardAlpha"/>
<feOffset dy="4"/>
<feGaussianBlur stdDeviation="20"/>
<feComposite in2="hardAlpha" operator="out"/>
<feColorMatrix type="matrix" values="0 0 0 0 0 0 0 0 0 0.819608 0 0 0 0 1 0 0 0 0.6 0"/>
<feBlend mode="normal" in2="effect1_dropShadow_473_236" result="effect2_dropShadow_473_236"/>
<feBlend mode="normal" in="SourceGraphic" in2="effect2_dropShadow_473_236" result="shape"/>
</filter>
<filter id="filter7_d_473_236" x="212.967" y="181.64" width="105.934" height="139.15" filterUnits="userSpaceOnUse" color-interpolation-filters="sRGB">
<feFlood flood-opacity="0" result="BackgroundImageFix"/>
<feColorMatrix in="SourceAlpha" type="matrix" values="0 0 0 0 0 0 0 0 0 0 0 0 0 0 0 0 0 0 127 0" result="hardAlpha"/>
<feOffset dx="8" dy="4"/>
<feGaussianBlur stdDeviation="2"/>
<feComposite in2="hardAlpha" operator="out"/>
<feColorMatrix type="matrix" values="0 0 0 0 0 0 0 0 0 0 0 0 0 0 0 0 0 0 0.25 0"/>
<feBlend mode="normal" in2="BackgroundImageFix" result="effect1_dropShadow_473_236"/>
<feBlend mode="normal" in="SourceGraphic" in2="effect1_dropShadow_473_236" result="shape"/>
</filter>
<filter id="filter8_d_473_236" x="388.967" y="114.415" width="163.808" height="215.336" filterUnits="userSpaceOnUse" color-interpolation-filters="sRGB">
<feFlood flood-opacity="0" result="BackgroundImageFix"/>
<feColorMatrix in="SourceAlpha" type="matrix" values="0 0 0 0 0 0 0 0 0 0 0 0 0 0 0 0 0 0 127 0" result="hardAlpha"/>
<feOffset dx="8" dy="4"/>
<feGaussianBlur stdDeviation="2"/>
<feComposite in2="hardAlpha" operator="out"/>
<feColorMatrix type="matrix" values="0 0 0 0 0 0 0 0 0 0 0 0 0 0 0 0 0 0 0.25 0"/>
<feBlend mode="normal" in2="BackgroundImageFix" result="effect1_dropShadow_473_236"/>
<feBlend mode="normal" in="SourceGraphic" in2="effect1_dropShadow_473_236" result="shape"/>
</filter>
<filter id="filter9_d_473_236" x="239.566" y="250.028" width="208.162" height="278.526" filterUnits="userSpaceOnUse" color-interpolation-filters="sRGB">
<feFlood flood-opacity="0" result="BackgroundImageFix"/>
<feColorMatrix in="SourceAlpha" type="matrix" values="0 0 0 0 0 0 0 0 0 0 0 0 0 0 0 0 0 0 127 0" result="hardAlpha"/>
<feOffset dx="8" dy="4"/>
<feGaussianBlur stdDeviation="2"/>
<feComposite in2="hardAlpha" operator="out"/>
<feColorMatrix type="matrix" values="0 0 0 0 0 0 0 0 0 0 0 0 0 0 0 0 0 0 0.25 0"/>
<feBlend mode="normal" in2="BackgroundImageFix" result="effect1_dropShadow_473_236"/>
<feBlend mode="normal" in="SourceGraphic" in2="effect1_dropShadow_473_236" result="shape"/>
</filter>
<filter id="filter10_f_473_236" x="158.787" y="274.214" width="374.542" height="199.87" filterUnits="userSpaceOnUse" color-interpolation-filters="sRGB">
<feFlood flood-opacity="0" result="BackgroundImageFix"/>
<feBlend mode="normal" in="SourceGraphic" in2="BackgroundImageFix" result="shape"/>
<feGaussianBlur stdDeviation="7.7" result="effect1_foregroundBlur_473_236"/>
</filter>
<filter id="filter11_f_473_236" x="163.887" y="265.93" width="364.342" height="189.67" filterUnits="userSpaceOnUse" color-interpolation-filters="sRGB">
<feFlood flood-opacity="0" result="BackgroundImageFix"/>
<feBlend mode="normal" in="SourceGraphic" in2="BackgroundImageFix" result="shape"/>
<feGaussianBlur stdDeviation="5.15" result="effect1_foregroundBlur_473_236"/>
</filter>
<linearGradient id="paint0_linear_473_236" x1="660.614" y1="163.239" x2="29.6138" y2="447.739" gradientUnits="userSpaceOnUse">
<stop stop-color="#6339F0"/>
<stop offset="1" stop-color="#909093" stop-opacity="0.1"/>
</linearGradient>
</defs>
</svg>
