<svg xmlns="http://www.w3.org/2000/svg" width="704" height="486" fill="none" viewBox="0 0 704 486"><g filter="url(#a)"><path fill="#00d1ff" d="m126.135 96 1.19 5.31 5.31 1.19-5.31 1.19-1.19 5.31-1.191-5.31-5.309-1.19 5.309-1.19z"/></g><g filter="url(#b)"><path fill="#00d1ff" d="m615.135 298 1.19 5.31 5.31 1.19-5.31 1.19-1.19 5.31-1.191-5.31-5.309-1.19 5.309-1.19z"/></g><g filter="url(#c)"><path fill="#00d1ff" d="m104.635 388 3.846 17.154L125.635 409l-17.154 3.846L104.635 430l-3.846-17.154L83.635 409l17.154-3.846z"/></g><path fill="#00d1ff" d="m104.635 388 1.9 19.099 19.1 1.901-19.1 1.901-1.9 19.099-1.901-19.099-19.1-1.901 19.1-1.901z"/><g filter="url(#d)"><path fill="#00d1ff" d="m615.135 423 1.74 7.76 7.76 1.74-7.76 1.74-1.74 7.76-1.74-7.76-7.76-1.74 7.76-1.74z"/></g><path fill="#00d1ff" d="m615.135 423 .86 8.64 8.64.86-8.64.86-.86 8.64-.86-8.64-8.64-.86 8.64-.86z"/><g filter="url(#e)"><path fill="#00d1ff" d="m580.135 36 1.373 6.126 6.127 1.374-6.127 1.374L580.135 51l-1.374-6.126-6.126-1.374 6.126-1.374z"/></g><g filter="url(#f)"><path fill="#00d1ff" d="m580.135 36 1.373 6.126 6.127 1.374-6.127 1.374L580.135 51l-1.374-6.126-6.126-1.374 6.126-1.374z"/></g><path stroke="url(#g)" stroke-width="2" d="M559.459 61.198c-72.405-2.23-165.133 14.346-260.995 50.299S121.843 195.941 68.762 245.235c-26.542 24.649-46.125 49.464-57.234 72.975-11.107 23.507-13.71 45.631-6.445 65 7.264 19.368 23.773 34.325 47.6 44.73 23.83 10.408 54.901 16.224 91.107 17.339 72.405 2.231 165.133-14.345 260.995-50.299s176.621-84.442 229.702-133.737c26.542-24.649 46.125-49.464 57.234-72.975 11.107-23.508 13.71-45.632 6.446-65s-23.774-34.324-47.6-44.73c-23.83-10.407-54.902-16.224-91.108-17.34Z" opacity=".5"/><g filter="url(#h)" opacity=".5"><path fill="#f4f4f9" d="M236.2 240.811c6.624 3.222 13.455 3.792 20.372 2.664 5.883-1.005 12.12-2.405 19.066-5.307 12.928-6.226 16.147-9.021 23.64-20.114a42 42 0 0 0 2.837-5.622c8.052-18.003-.684-37.731-6.294-43.637a67 67 0 0 0-3.123-3.587c-3.265-3.146-4.938-5.711-13.705-8.862-9.666-2.805-16.751-1.782-24.493.401l-.991.314.461-.934a1001 1001 0 0 1 2.257-4.409c2.926-5.751 9.705-18.642 15.245-30.525l-.007.018c.823-2.082 1.502-5.283-.992-5.765-2.134-.496-4.349-.089-6.312.092l.011-.001c-2.848.449-5.38.857-7.317 1.181-11.716 1.96-25.134 3.77-33.179 4.998-2.527.387-4.47.676-5.999.916a25 25 0 0 1-.717.106c-.154.019-.2.017-.205.005-.036-.025.408-.148 1.248-.297 3.984-.701 9.945-1.689 16.988-2.906 12.27-2.11 14.379-2.245 29.095-4.568l.014-.002c1.027-.113 2.113-.238 3.285-.304 1.756-.029 4.047-.281 5.149 1.64.767 1.891.03 3.594-.466 5.13l-.013.031c-5.152 11.3-9.786 20.368-17.221 35.088l-.623-.728q.267-.082.534-.161c16.437-3.786 25.541-3.57 38.97 8.578 2.857 3.038 5.83 6.863 8.319 11.978 8.331 20.665 4.708 29.967-1.472 42.605-2.637 4.459-6.269 9.543-12.611 14.473-8.483 6.65-19.936 10.376-31.12 11.927-22.263 4.158-38.457-15.721-40.18-26.945a47 47 0 0 1-.994-4.536c-.936-5.272 2.604-11.254 8.361-13.102 2.309-.692 5.435-1.407 7.814.857.855.79.876 2.28.428 3.136-.419.913-1.05 1.602-1.778 2.182-3.023 2.069-3.207 5.791-2.196 9.543 1.304 7.296 7.896 12.93 15.524 14.414 1.61.355 3.273.575 4.975.67 14.268.33 32.07-7.018 38.909-22.076 4.291-9.484 5.802-20.895.698-29.67-1.143-2.062-2.611-4.042-4.35-5.881-5.522-6.206-14.3-10.383-23.325-9.406-4.499.33-8.729 2.331-12.483 4.701l-5.195 3.276c-2.346 1.774-6.527 2.109-8.203-.717-1.659-2.575-1.13-5.754.188-7.99 3.092-5.164 5.814-9.704 7.967-13.29a4695 4695 0 0 0 10.647-17.781c.867-1.549 2.101-3.225 1.938-4.986-.209-.839-1.431-.873-2.396-.815-1.026.071-2.082.266-3.206.499-2.269.49-4.771 1.033-7.627 1.654a2244 2244 0 0 1-19.502 4.142c-3.184.635-7.819.983-9.367-2.601-.735-1.822-.69-3.934.227-5.58.756-1.333 1.799-1.812 2.366-2.005.592-.187.801-.17.637-.12-.206.108-2.536.522-3.278 3.491a6.64 6.64 0 0 0 .355 4.085c1.78 3.625 6.334 2.784 8.966 2.288 2.203-.485 4.117-.918 5.689-1.303 8.132-1.993 11.916-2.91 21.374-4.809a33 33 0 0 1 2.284-.371c.96-.1 1.905-.216 2.915.066.497.132 1.082.577 1.224 1.159.153.558.059 1.042-.039 1.465-.474 1.672-1.257 2.903-1.946 4.11-2.719 4.708-4.549 8.099-6.82 11.884-2.661 4.435-3.321 5.282-11.589 19.297-.993 1.711-1.568 4.217-.46 6.457 1.023 2.392 4.439 2.826 7.063.859l1.033-.666 4.138-2.666c4.158-2.694 8.571-4.651 12.998-5.007 11.027-1.184 19.585 4.293 24.518 9.638 5.7 5.871 7.787 12.51 8.112 17.896.407 5-.801 12.132-4.06 19.351-5.203 12.325-20.02 20.542-32.782 22.492-2.299.366-4.892.62-7.701.48-8.154-.072-20.037-5.193-22.004-16.296-.389-1.861-.86-3.869-.511-5.983.321-2.13 1.713-3.975 3.295-5.178 1.123-.846 1.899-2.342 1.179-2.915-1.398-1.45-4.063-1.116-6.145-.439-5.37 1.717-8.062 7.372-7.252 11.293.271 1.59.6 3.015.95 4.283 2.346 8.023 5.013 11.438 7.275 14.401 2.415 2.838 4.706 5.535 10.711 8.649"/></g><path fill="#f4f4f9" d="M284.935 121.417c11.885-3.656 21.485-8.67 35.81-7.03 2.873.875 6.241 2.695 7.68 6.227 1.792 5.026-.191 8.944-1.476 11.81-1.46 2.932-3.083 5.257-4.805 7.53-3.471 4.487-7.58 9.1-15.244 16.323-5.027 4.709-10.268 9.135-15.375 13.24-10.591 8.438-20.557 14.84-25.859 18.391-7.921 5.177-8.927 5.459-20.536 12.211-11.689 6.589-19.024 10.263-30.001 14.467-4.684 1.252-13.915 6.651-24.131 3.126-6.952-3.62-5.587-13.024-3.265-18.584 2.343-6.01 5.473-10.768 7.54-13.904 7.302-10.998 18.121-21.505 24.938-27.357a127 127 0 0 1 5.169-4.26c.563-.438.835-.621.851-.602.019.025-.36.362-1.071.943-3.457 2.823-8.478 7.236-13.9 12.949-9.654 10.964-11.869 11.53-21.427 28.823-3.816 7.813-5.641 17.515 1.545 21.331 8.04 3.074 17.67-1.097 29.017-5.592 21.169-9.721 25.756-12.697 53.41-30.499 7.22-4.845 12.599-8.845 16.962-12.382 11.852-10.328 19.506-14.881 33.1-34.372 1.838-3.199 3.493-6.822 3.268-10.443-.141-3.691-3.29-6.423-6.985-7.502-18.565-1.555-37.906 7.637-51.66 13.419l.37-.355c-1.097 2.116-2.143 4.133-3.126 6.034l-1.004-1.048a460 460 0 0 1 8.041-3.55c11.722-4.553 25.431-12.192 42.812-13.275 2.431.314 5.391 1.276 6.601 4.028 1.117 2.682.369 5.427-.51 7.818-1.905 4.811-4.937 8.974-8.149 12.986-6.87 8.413-15.471 16.559-24.999 24.134-15.347 12.059-32.637 23.289-49.393 32.534-6.685 3.658-14.209 7.541-22.174 10.876-4.011 1.662-8.124 3.211-12.444 4.283-2.079.504-4.37.938-6.591.934-2.14-.001-4.95-.498-6.014-2.901-3.586-8.965 1.608-17.58 5.451-23.811 4.186-6.393 8.672-11.398 12.177-15.157 7.462-7.85 12.41-12.114 17.401-16.405 4.419-3.725 9.199-7.249 16.671-12.376a263 263 0 0 1 4.633-3.095l-.081.085c1.157-1.956 2.373-4.002 3.625-6.105l.352.35c-7.526 4.498-15.648 9.653-22.516 14.808-5.218 3.961-4.147 2.93 1.076-1.114 7.684-5.86 14.493-9.954 18.659-12.672.86-.557 1.671-1.079 2.446-1.576l.539.535a690 690 0 0 1-3.487 6.186l-.175.182c-3.776 2.566-7.571 5.076-13.724 9.445-3.018 2.161-5.488 4.087-7.558 5.884-4.933 4.284-8.058 7.428-11.742 11.009-2.593 2.563-3.921 3.773-7.635 7.843-3.006 4.296-12.088 10.404-16.134 28.272-.246 2.561.09 5.077 1.087 7.23 1.714 3.143 6.557 2.166 9.812 1.543 3.464-.763 6.728-1.909 9.699-3.051 6.032-2.349 11.171-4.844 15.762-7.166 9.156-4.681 15.955-8.691 21.538-12.057 8.603-5.203 23.838-14.764 37.787-25.72 5.517-4.341 10.772-8.998 15.352-13.574 3.868-3.891 8.62-8.897 12.882-15.023 2.086-3.077 4.166-6.452 5.056-10.162.416-1.809.4-3.807-.65-5.143-1.019-1.356-2.951-2.003-4.843-2.246-16.91 1.125-32.958 9.693-41.856 13.134a530 530 0 0 0-8.082 3.603l-2.396 1.109 1.206-2.351a690 690 0 0 1 3.14-6.028l.136-.266.276-.128c5.11-2.248 8.502-3.665 17.141-6.753M215.766 148.965c.201.523.899.404 1.3.762.438.349.428.702 1.144.79.523.045 1.056.109 1.428.032a.7.7 0 0 0 .297-.12c.254-.22.435.139.821-.163.364-.312.598-.441.984-.659.422-.173 1.186-1.379 1.071-1.909-.052-.488.206-1.015.215-1.379q.008-.164.031-.269a.07.07 0 0 1 .052-.053.064.064 0 0 1 .075.043c.053.173.145.429.265.755.197.626-.012.688-.132 1.518-.169.818-.27 1.46-1.106 2.105-.827.527-.796 1.254-2.312 1.356l-.059-.001c-1.473-.142-1.667.459-3.218-.038-1.589-.575-2.479-2.575-2.666-3.432a7 7 0 0 1-.095-.335c-.221-.838-.24-2.025.288-3.066.538-1.164 1.668-2.55 3.137-2.848q.25-.056.523-.087c1.382-.21 2.945.453 3.496.974.645.579.758.733 1.31 1.335.309.354.566.985.537 1.537-.016.277-.135.231-.247.002-.168-.333-.246-.627-.451-.731-.414-.197-.555-.233-.71-.669-.18-.442-.591-.301-.753-.473-.181-.135-.034-.486-1.319-.689a3.96 3.96 0 0 0-2.284.482c-.384.192-1.293.646-1.609 1.364-.334.578-.594 1.858-.329 2.53q.04.129.087.22c.286.525.072.602.229 1.116" opacity=".5"/><path fill="#f4f4f9" d="M219.945 168.577c.202.523.899.404 1.301.762.438.349.427.702 1.144.79.523.046 1.056.11 1.428.032a.7.7 0 0 0 .297-.12c.253-.219.434.139.821-.163.363-.311.598-.441.984-.658.421-.174 1.186-1.38 1.071-1.91-.053-.487.206-1.015.215-1.379q.008-.164.03-.268a.07.07 0 0 1 .052-.053.06.06 0 0 1 .075.043c.054.172.146.428.265.755.197.625-.011.688-.131 1.518-.17.818-.27 1.46-1.106 2.104-.827.528-.796 1.255-2.312 1.356h-.059c-1.473-.142-1.668.459-3.219-.039-1.588-.575-2.479-2.575-2.665-3.432a5 5 0 0 1-.095-.335c-.221-.837-.241-2.025.288-3.066.538-1.163 1.668-2.549 3.136-2.848q.25-.055.524-.086c1.382-.211 2.944.453 3.496.974.645.579.758.732 1.31 1.334.309.354.566.986.537 1.537-.016.277-.135.232-.247.003-.168-.334-.246-.627-.451-.731-.414-.197-.555-.234-.71-.67-.181-.442-.591-.301-.753-.473-.181-.134-.035-.486-1.32-.689a3.9 3.9 0 0 0-1.553.168c-.321.101-.55.211-.731.314-.384.192-1.293.646-1.608 1.364-.334.579-.594 1.859-.329 2.531q.04.127.086.22c.287.524.073.601.229 1.115M224.125 188.19c.201.522.899.404 1.301.762.438.349.427.701 1.144.79.523.045 1.056.109 1.427.031a.7.7 0 0 0 .297-.119c.254-.22.435.138.821-.163.364-.312.598-.441.984-.659.422-.173 1.187-1.38 1.072-1.91-.053-.487.205-1.014.215-1.379q.007-.163.03-.268a.07.07 0 0 1 .052-.053.06.06 0 0 1 .075.043c.054.172.145.428.265.755.197.625-.012.688-.132 1.518-.169.818-.269 1.46-1.105 2.105-.828.527-.797 1.254-2.313 1.355h-.059c-1.473-.142-1.667.459-3.218-.038-1.589-.576-2.479-2.575-2.665-3.433a5 5 0 0 1-.095-.334c-.222-.838-.241-2.025.287-3.066.539-1.164 1.668-2.55 3.137-2.849q.25-.054.523-.086c1.383-.21 2.945.453 3.497.974.644.579.758.732 1.31 1.335.309.354.566.985.537 1.537-.016.277-.136.231-.248.002-.167-.333-.245-.627-.45-.731-.415-.197-.555-.233-.71-.67-.181-.441-.592-.301-.754-.472-.18-.135-.034-.486-1.319-.689a3.94 3.94 0 0 0-2.284.482c-.384.192-1.293.646-1.609 1.364-.334.578-.594 1.858-.328 2.53q.04.127.086.22c.287.525.072.602.229 1.116" opacity=".5"/><g filter="url(#i)" opacity=".5"><path fill="#00d1ff" d="M457.954 47.665c5.365 1.43 72.277 23.495 72.277 23.495 9.02 3.43 14.977 5.998 6.349 13.907-19.336 15.047-28.711 21.473-49.622 37.04 25.308 4.242 42.723 19.375 48.777 39.781 9.974 33.614-3.849 64.744-29.135 80.554-25.703 16.07-52.293 14.717-79.546 5.573-30.028-10.075-45.175-39.545-34.857-72.244 2.461-7.8 11.129-13.006 19.858-11.618 4.867.773 9.559 3.026 9.653 7.606.035 1.72-1.632 2.801-3.341 2.994-9.42 1.06-11.023 7.073-12.625 13.085-4.176 15.663 4.472 29.159 18.76 37.417 16.597 9.592 50.638 14.417 72.234-3.295 17.613-14.444 27.208-32.367 20.662-54.155-4.969-16.543-14.553-26.506-30.728-32.002-4.357-1.48-9.019-1.702-13.599-1.256l-13.731 1.338c-12.348 1.407-13.332-11.07-4.637-16.739l48.432-30.78c9.599-5.965 8.099-8.106-1.451-10.722L459.206 66.32c-4.918-1.311-11.637-4.26-11.213-10.036.375-5.103 4.595-10.05 9.961-8.62"/></g><path fill="#6339f0" d="M449.599 97.2c-50.514 10.291-112.271 40.818-95.904 65.871 14.102 21.586 123.539 14.442 176.049 3.327 108.106-22.883 85.963-48.864 80.002-54.736-9.395-9.253-46.755-16.862-83.654-18.289l-8.732 6.302s68.717 2.644 83.227 12.617c22.742 15.631-24.456 37.747-72.9 47.45-62.809 12.58-169.178 17.384-168.223-3.572 1.458-31.957 77.785-50.179 88.483-52.772 15.864-3.843 41.169-6.459 41.169-6.459l9.505-6.018c-16.605 1.211-30.858 2.58-49.022 6.28" opacity=".5"/><circle cx="443.576" cy="83.294" r="6.875" fill="#00d1ff" opacity=".5" transform="rotate(14.926 443.576 83.294)"/><circle cx="435.391" cy="113.998" r="6.875" fill="#00d1ff" opacity=".5" transform="rotate(14.926 435.391 113.998)"/><circle cx="427.206" cy="144.702" r="6.875" fill="#00d1ff" opacity=".5" transform="rotate(14.926 427.206 144.702)"/><g filter="url(#j)"><path fill="#f4f4f9" d="M280.597 183.028c7.442 0 101.7 5.475 101.7 5.475 12.865 1.327 21.465 2.597 13.023 15.817-19.844 26.158-29.766 37.716-51.47 65.09 34.235-3.242 62.01 10.342 76.893 34.675 24.517 40.085 17.363 85.166-9.922 114.365-27.736 29.682-62.633 37.108-101.078 34.675-42.362-2.681-72.148-35.613-70.074-81.516.494-10.95 9.922-20.683 21.704-21.899 6.907-.714 14.131.759 15.347 7.468.306 1.693-.972 3.157-2.592 3.734-12.755 4.547-12.755 13.097-12.755 21.647 0 21.723 15.856 36.214 37.208 41.975 24.802 6.691 70.547 1.19 92.398-29.2 17.82-24.784 24.058-51.304 8.062-77.257-12.56-20.377-29.08-29.941-53.197-30.961-4.597-.194-9.157.759-13.467 2.369l-19.534 7.3c-15.503 6.083-21.084-9.733-11.782-20.075l52.09-56.574c10.37-11.037 7.69-13.292-5.581-13.383h-58.911c-6.822 0-16.54-1.499-17.984-9.125-1.276-6.737 2.48-14.6 9.922-14.6"/></g><g filter="url(#k)"><path fill="#6339f0" d="M282.426 267.7c-64.297 30.842-131.449 90.635-100.432 117.497 26.724 23.144 160.995-20.404 228.124-55.668 137.64-72.304 108.185-94.134 98.055-99.693-15.965-8.763-65.176-10.581-115.352.336l-9.492 11.204s89.635-15.48 112.742-7.553c36.218 12.423-26.809 59.057-88.53 88.42-80.022 38.07-216.023 70.705-220.258 51.997-9.504-41.994 81.674-90.854 95.143-97.922 19.972-10.48 53.093-22.634 53.093-22.634l10.633-11.103c-21.915 7.32-40.607 14.029-63.726 25.119"/></g><g filter="url(#l)"><path fill="#00d1ff" d="M282.426 254.317c-64.297 30.842-131.449 90.635-100.432 117.497 26.724 23.143 160.995-20.404 228.124-55.668 137.64-72.304 108.185-94.134 98.055-99.694-15.965-8.762-65.176-10.58-115.352.337l-9.492 11.203s89.635-15.479 112.742-7.553c36.218 12.424-26.809 59.058-88.53 88.421-80.022 38.07-216.023 70.705-220.258 51.997-9.504-41.994 81.674-90.854 95.143-97.922 19.972-10.48 53.093-22.634 53.093-22.634l10.633-11.103c-21.915 7.319-40.607 14.029-63.726 25.119"/></g><path fill="#0b0b0c" d="M286.878 250.055c-61.859 30.762-131.29 91.608-101.449 118.399 25.711 23.083 164.954-23.943 229.112-56.461 132.086-66.947 94.446-92.946 84.7-98.491-15.36-8.739-66.362-5.695-114.635 5.193l-9.133 11.174s89.894-20.296 112.125-12.391c34.845 12.391-18.638 57.321-78.018 86.607-76.988 37.97-213.066 80.907-219.062 53.441-9.144-41.883 83.402-91.826 96.36-98.875 19.214-10.453 51.079-22.575 51.079-22.575l10.231-11.073c-21.084 7.3-39.068 13.991-61.31 25.052"/><circle cx="272.277" cy="234.128" r="9.213" fill="#f4f4f9"/><circle cx="272.277" cy="276.71" r="9.213" fill="#f4f4f9"/><circle cx="272.277" cy="319.293" r="9.213" fill="#f4f4f9"/><defs><filter id="a" width="93" height="93" x="79.635" y="60" color-interpolation-filters="sRGB" filterUnits="userSpaceOnUse"><feFlood flood-opacity="0" result="BackgroundImageFix"/><feColorMatrix in="SourceAlpha" result="hardAlpha" values="0 0 0 0 0 0 0 0 0 0 0 0 0 0 0 0 0 0 127 0"/><feOffset dy="4"/><feGaussianBlur stdDeviation="12.5"/><feComposite in2="hardAlpha" operator="out"/><feColorMatrix values="0 0 0 0 0 0 0 0 0 0.819608 0 0 0 0 1 0 0 0 0.6 0"/><feBlend in2="BackgroundImageFix" result="effect1_dropShadow_473_236"/><feColorMatrix in="SourceAlpha" result="hardAlpha" values="0 0 0 0 0 0 0 0 0 0 0 0 0 0 0 0 0 0 127 0"/><feOffset dy="4"/><feGaussianBlur stdDeviation="20"/><feComposite in2="hardAlpha" operator="out"/><feColorMatrix values="0 0 0 0 0 0 0 0 0 0.819608 0 0 0 0 1 0 0 0 0.6 0"/><feBlend in2="effect1_dropShadow_473_236" result="effect2_dropShadow_473_236"/><feBlend in="SourceGraphic" in2="effect2_dropShadow_473_236" result="shape"/></filter><filter id="b" width="99" height="99" x="565.635" y="259" color-interpolation-filters="sRGB" filterUnits="userSpaceOnUse"><feFlood flood-opacity="0" result="BackgroundImageFix"/><feColorMatrix in="SourceAlpha" result="hardAlpha" values="0 0 0 0 0 0 0 0 0 0 0 0 0 0 0 0 0 0 127 0"/><feOffset dy="4"/><feGaussianBlur stdDeviation="9.5"/><feComposite in2="hardAlpha" operator="out"/><feColorMatrix values="0 0 0 0 0 0 0 0 0 0.819608 0 0 0 0 1 0 0 0 0.6 0"/><feBlend in2="BackgroundImageFix" result="effect1_dropShadow_473_236"/><feColorMatrix in="SourceAlpha" result="hardAlpha" values="0 0 0 0 0 0 0 0 0 0 0 0 0 0 0 0 0 0 127 0"/><feOffset dy="4"/><feGaussianBlur stdDeviation="21.5"/><feComposite in2="hardAlpha" operator="out"/><feColorMatrix values="0 0 0 0 0 0 0 0 0 0.819608 0 0 0 0 1 0 0 0 0.6 0"/><feBlend in2="effect1_dropShadow_473_236" result="effect2_dropShadow_473_236"/><feBlend in="SourceGraphic" in2="effect2_dropShadow_473_236" result="shape"/></filter><filter id="c" width="122" height="122" x="43.635" y="352" color-interpolation-filters="sRGB" filterUnits="userSpaceOnUse"><feFlood flood-opacity="0" result="BackgroundImageFix"/><feColorMatrix in="SourceAlpha" result="hardAlpha" values="0 0 0 0 0 0 0 0 0 0 0 0 0 0 0 0 0 0 127 0"/><feOffset dy="4"/><feGaussianBlur stdDeviation="12.5"/><feComposite in2="hardAlpha" operator="out"/><feColorMatrix values="0 0 0 0 0 0 0 0 0 0.819608 0 0 0 0 1 0 0 0 0.6 0"/><feBlend in2="BackgroundImageFix" result="effect1_dropShadow_473_236"/><feColorMatrix in="SourceAlpha" result="hardAlpha" values="0 0 0 0 0 0 0 0 0 0 0 0 0 0 0 0 0 0 127 0"/><feOffset dy="4"/><feGaussianBlur stdDeviation="20"/><feComposite in2="hardAlpha" operator="out"/><feColorMatrix values="0 0 0 0 0 0 0 0 0 0.819608 0 0 0 0 1 0 0 0 0.6 0"/><feBlend in2="effect1_dropShadow_473_236" result="effect2_dropShadow_473_236"/><feBlend in="SourceGraphic" in2="effect2_dropShadow_473_236" result="shape"/></filter><filter id="d" width="99" height="99" x="565.635" y="387" color-interpolation-filters="sRGB" filterUnits="userSpaceOnUse"><feFlood flood-opacity="0" result="BackgroundImageFix"/><feColorMatrix in="SourceAlpha" result="hardAlpha" values="0 0 0 0 0 0 0 0 0 0 0 0 0 0 0 0 0 0 127 0"/><feOffset dy="4"/><feGaussianBlur stdDeviation="12.5"/><feComposite in2="hardAlpha" operator="out"/><feColorMatrix values="0 0 0 0 0 0 0 0 0 0.819608 0 0 0 0 1 0 0 0 0.6 0"/><feBlend in2="BackgroundImageFix" result="effect1_dropShadow_473_236"/><feColorMatrix in="SourceAlpha" result="hardAlpha" values="0 0 0 0 0 0 0 0 0 0 0 0 0 0 0 0 0 0 127 0"/><feOffset dy="4"/><feGaussianBlur stdDeviation="20"/><feComposite in2="hardAlpha" operator="out"/><feColorMatrix values="0 0 0 0 0 0 0 0 0 0.819608 0 0 0 0 1 0 0 0 0.6 0"/><feBlend in2="effect1_dropShadow_473_236" result="effect2_dropShadow_473_236"/><feBlend in="SourceGraphic" in2="effect2_dropShadow_473_236" result="shape"/><feGaussianBlur result="effect3_foregroundBlur_473_236" stdDeviation="2.35"/></filter><filter id="e" width="95" height="95" x="532.635" y="0" color-interpolation-filters="sRGB" filterUnits="userSpaceOnUse"><feFlood flood-opacity="0" result="BackgroundImageFix"/><feColorMatrix in="SourceAlpha" result="hardAlpha" values="0 0 0 0 0 0 0 0 0 0 0 0 0 0 0 0 0 0 127 0"/><feOffset dy="4"/><feGaussianBlur stdDeviation="12.5"/><feComposite in2="hardAlpha" operator="out"/><feColorMatrix values="0 0 0 0 0 0 0 0 0 0.819608 0 0 0 0 1 0 0 0 0.6 0"/><feBlend in2="BackgroundImageFix" result="effect1_dropShadow_473_236"/><feColorMatrix in="SourceAlpha" result="hardAlpha" values="0 0 0 0 0 0 0 0 0 0 0 0 0 0 0 0 0 0 127 0"/><feOffset dy="4"/><feGaussianBlur stdDeviation="20"/><feComposite in2="hardAlpha" operator="out"/><feColorMatrix values="0 0 0 0 0 0 0 0 0 0.819608 0 0 0 0 1 0 0 0 0.6 0"/><feBlend in2="effect1_dropShadow_473_236" result="effect2_dropShadow_473_236"/><feBlend in="SourceGraphic" in2="effect2_dropShadow_473_236" result="shape"/><feGaussianBlur result="effect3_foregroundBlur_473_236" stdDeviation="1.75"/></filter><filter id="f" width="95" height="95" x="532.635" y="0" color-interpolation-filters="sRGB" filterUnits="userSpaceOnUse"><feFlood flood-opacity="0" result="BackgroundImageFix"/><feColorMatrix in="SourceAlpha" result="hardAlpha" values="0 0 0 0 0 0 0 0 0 0 0 0 0 0 0 0 0 0 127 0"/><feOffset dy="4"/><feGaussianBlur stdDeviation="12.5"/><feComposite in2="hardAlpha" operator="out"/><feColorMatrix values="0 0 0 0 0 0 0 0 0 0.819608 0 0 0 0 1 0 0 0 0.6 0"/><feBlend in2="BackgroundImageFix" result="effect1_dropShadow_473_236"/><feColorMatrix in="SourceAlpha" result="hardAlpha" values="0 0 0 0 0 0 0 0 0 0 0 0 0 0 0 0 0 0 127 0"/><feOffset dy="4"/><feGaussianBlur stdDeviation="20"/><feComposite in2="hardAlpha" operator="out"/><feColorMatrix values="0 0 0 0 0 0 0 0 0 0.819608 0 0 0 0 1 0 0 0 0.6 0"/><feBlend in2="effect1_dropShadow_473_236" result="effect2_dropShadow_473_236"/><feBlend in="SourceGraphic" in2="effect2_dropShadow_473_236" result="shape"/></filter><filter id="h" width="105.934" height="139.15" x="212.968" y="114.64" color-interpolation-filters="sRGB" filterUnits="userSpaceOnUse"><feFlood flood-opacity="0" result="BackgroundImageFix"/><feColorMatrix in="SourceAlpha" result="hardAlpha" values="0 0 0 0 0 0 0 0 0 0 0 0 0 0 0 0 0 0 127 0"/><feOffset dx="8" dy="4"/><feGaussianBlur stdDeviation="2"/><feComposite in2="hardAlpha" operator="out"/><feColorMatrix values="0 0 0 0 0 0 0 0 0 0 0 0 0 0 0 0 0 0 0.25 0"/><feBlend in2="BackgroundImageFix" result="effect1_dropShadow_473_236"/><feBlend in="SourceGraphic" in2="effect1_dropShadow_473_236" result="shape"/></filter><filter id="i" width="163.808" height="215.336" x="388.967" y="47.415" color-interpolation-filters="sRGB" filterUnits="userSpaceOnUse"><feFlood flood-opacity="0" result="BackgroundImageFix"/><feColorMatrix in="SourceAlpha" result="hardAlpha" values="0 0 0 0 0 0 0 0 0 0 0 0 0 0 0 0 0 0 127 0"/><feOffset dx="8" dy="4"/><feGaussianBlur stdDeviation="2"/><feComposite in2="hardAlpha" operator="out"/><feColorMatrix values="0 0 0 0 0 0 0 0 0 0 0 0 0 0 0 0 0 0 0.25 0"/><feBlend in2="BackgroundImageFix" result="effect1_dropShadow_473_236"/><feBlend in="SourceGraphic" in2="effect1_dropShadow_473_236" result="shape"/></filter><filter id="j" width="208.162" height="278.526" x="239.567" y="183.028" color-interpolation-filters="sRGB" filterUnits="userSpaceOnUse"><feFlood flood-opacity="0" result="BackgroundImageFix"/><feColorMatrix in="SourceAlpha" result="hardAlpha" values="0 0 0 0 0 0 0 0 0 0 0 0 0 0 0 0 0 0 127 0"/><feOffset dx="8" dy="4"/><feGaussianBlur stdDeviation="2"/><feComposite in2="hardAlpha" operator="out"/><feColorMatrix values="0 0 0 0 0 0 0 0 0 0 0 0 0 0 0 0 0 0 0.25 0"/><feBlend in2="BackgroundImageFix" result="effect1_dropShadow_473_236"/><feBlend in="SourceGraphic" in2="effect1_dropShadow_473_236" result="shape"/></filter><filter id="k" width="374.542" height="199.87" x="158.788" y="207.214" color-interpolation-filters="sRGB" filterUnits="userSpaceOnUse"><feFlood flood-opacity="0" result="BackgroundImageFix"/><feBlend in="SourceGraphic" in2="BackgroundImageFix" result="shape"/><feGaussianBlur result="effect1_foregroundBlur_473_236" stdDeviation="7.7"/></filter><filter id="l" width="364.342" height="189.67" x="163.887" y="198.93" color-interpolation-filters="sRGB" filterUnits="userSpaceOnUse"><feFlood flood-opacity="0" result="BackgroundImageFix"/><feBlend in="SourceGraphic" in2="BackgroundImageFix" result="shape"/><feGaussianBlur result="effect1_foregroundBlur_473_236" stdDeviation="5.15"/></filter><linearGradient id="g" x1="660.614" x2="29.614" y1="96.239" y2="380.739" gradientUnits="userSpaceOnUse"><stop stop-color="#6339f0"/><stop offset="1" stop-color="#909093" stop-opacity=".1"/></linearGradient></defs></svg>