<svg xmlns="http://www.w3.org/2000/svg" width="802" height="590" fill="none"><g filter="url(#a)"><path stroke="#6339f0" stroke-width="3" d="m146.296 113.793 420.078 41.368c4.386.432 8.024 3.689 8.881 8.012l58.318 294.109c1.183 5.968-3.193 11.601-9.268 11.93l-437.664 23.726a10 10 0 0 1-10.509-9.181zm0 0-1.587 4.496a10 10 0 0 0-.537 4.134l29.681 367.215"/></g><g filter="url(#b)"><path stroke="#00d1ff" stroke-width="2" d="m151.655 110.731 420.077 41.368c4.386.432 8.024 3.689 8.881 8.012l58.318 294.109c1.183 5.968-3.192 11.601-9.268 11.93L192 489.877a10 10 0 0 1-10.509-9.182zm0 0-1.587 4.497a10 10 0 0 0-.538 4.133l29.682 367.216"/></g><path fill="#00d1ff" fill-opacity=".6" d="M274.479 196.124c-.582-5.816 4.224-10.749 10.053-10.32l127.49 9.394a8.394 8.394 0 0 1 7.7 7.238c.714 5.234-3.527 9.819-8.801 9.514l-127.622-7.369a9.41 9.41 0 0 1-8.82-8.457m324.249 140.51a10 10 0 0 0-9.847-8.104l-115.447.326c-6.166.018-10.847 5.556-9.837 11.639l.17 1.025h135.905zm-25.209-142.802a10.01 10.01 0 0 0-9.01-8.381l-116.084-10.137c-6.048-.528-10.939 4.844-9.848 10.816l135.244 9.568zm-381.611-39.748c-6.164-.449-11.191 4.866-10.4 10.995l72.72 3.062-.082-1.016a10 10 0 0 0-9.241-9.176zm236.527 28.007a10 10 0 0 0-9.107-8.441l-142.925-11.124c-5.982-.465-10.936 4.577-10.365 10.55l162.666 10.757zm-245.779-31.876c0-.446.381-.797.825-.761l243.752 19.814a4.594 4.594 0 0 0 4.966-4.579 4.595 4.595 0 0 1 4.953-4.581l127.162 9.946a6.03 6.03 0 0 1 5.515 5.265c.475 3.798-2.663 7.073-6.478 6.76l-379.994-31.104a.763.763 0 0 1-.701-.76m20.638 261.877c-.4-5.704 4.054-10.581 9.77-10.698l54.737-1.123a10 10 0 0 1 10.171 9.167l1.807 21.685c.469 5.629-3.815 10.529-9.456 10.817l-54.905 2.801c-5.441.278-10.103-3.852-10.485-9.287z"/><path stroke="#00d1ff" d="m156.057 107.735 30.044 378.842m-30.044-378.842c.331.032.086-.767.416-.734l419.087 41.271c4.385.432 8.023 3.689 8.88 8.012l58.318 294.108c1.184 5.968-3.192 11.601-9.268 11.931l-447.389 24.254m-30.044-378.842a1.04 1.04 0 0 0-1.11.685l-1.335 3.782a6 6 0 0 0-.323 2.484l29.503 365.012a10 10 0 0 0 2.159 5.441l1.15 1.438m-4.593-321.498 17.218 204.787a10 10 0 0 0 9.965 9.162h53.362c5.872 0 10.481-5.036 9.961-10.886l-17.786-200.001m-72.72-3.062 72.72 3.062m-72.72-3.062c-.791-6.129 4.236-11.444 10.4-10.995l52.997 3.865a10 10 0 0 1 9.241 9.176l.082 1.016m11.81 4.935 12.218 127.791a10 10 0 0 0 9.774 9.047l148.748 2.686c6.204.112 11.011-5.395 10.063-11.527l-18.137-117.24m-162.666-10.757 162.666 10.757m-162.666-10.757c-.571-5.973 4.383-11.015 10.365-10.55l142.925 11.124a10 10 0 0 1 9.107 8.441l.269 1.742M280.636 317.025l314.609 3.827M438.577 186.13l11.695 64.03a9.98 9.98 0 0 0 9.48 8.197c35.401 1.207 89.355 3.061 113.494 3.892 6.397.22 11.318-5.539 10.164-11.834-2.562-13.981-6.747-37.166-9.589-54.717m-135.244-9.568 135.244 9.568m-135.244-9.568c-1.091-5.972 3.8-11.344 9.848-10.816l116.084 10.137a10.01 10.01 0 0 1 9.01 8.381l.302 1.866M463.767 341.52l-.17-1.025c-1.01-6.083 3.671-11.621 9.837-11.639l115.447-.326a10 10 0 0 1 9.847 8.104l.944 4.886m-135.905 0 14.064 84.69c.826 4.97 5.22 8.55 10.255 8.354l116.954-4.561c6.121-.239 10.59-5.875 9.429-11.889l-14.797-76.594m-135.905 0h135.905m-144.586-59.202 3.371 22.011a10 10 0 0 0 9.884 8.486h114.877c6.254 0 10.973-5.676 9.832-11.825l-3.238-17.449a10 10 0 0 0-9.436-8.168l-115.009-4.561c-6.282-.249-11.233 5.291-10.281 11.506ZM303.719 442.515l153.671-7.092c5.957-.275 10.351-5.669 9.415-11.558l-13.771-86.696a10 10 0 0 0-9.697-8.429l-151.252-2.707c-6.057-.109-10.819 5.15-10.111 11.167l11.353 96.494a10 10 0 0 0 10.392 8.821Zm-20.42-237.934 127.622 7.369c5.274.305 9.515-4.28 8.801-9.514a8.394 8.394 0 0 0-7.7-7.238l-127.49-9.394c-5.829-.429-10.635 4.504-10.053 10.32a9.41 9.41 0 0 0 8.82 8.457Zm-67.881 240.16 54.905-2.801c5.641-.288 9.925-5.188 9.456-10.817l-1.807-21.685a10 10 0 0 0-10.171-9.167l-54.737 1.123c-5.716.117-10.17 4.994-9.77 10.698l1.639 23.362c.382 5.435 5.044 9.565 10.485 9.287Zm-32.061-293.766 379.994 31.104c3.815.313 6.953-2.962 6.478-6.76a6.03 6.03 0 0 0-5.515-5.265l-127.162-9.946a4.595 4.595 0 0 0-4.953 4.581 4.594 4.594 0 0 1-4.966 4.579l-243.752-19.814a.764.764 0 0 0-.124 1.521Zm26.848 304.579 405.24-17.097c6.096-.257 10.543-5.867 9.402-11.861l-49.244-258.707a10 10 0 0 0-8.914-8.088l-382.848-34.97c-6.203-.567-11.409 4.614-10.873 10.819l26.853 310.774a10 10 0 0 0 10.384 9.13Zm-4.648 16.524 420.772-14.937c6.17-.219 10.67-5.922 9.447-11.974l-57.055-282.403a10 10 0 0 0-8.83-7.972l-392.497-38.301c-6.221-.607-11.468 4.579-10.934 10.807l28.779 335.641a10 10 0 0 0 10.318 9.139Z"/><g filter="url(#c)"><path fill="#00d1ff" d="m151.5 36 1.374 6.126L159 43.5l-6.126 1.374L151.5 51l-1.374-6.126L144 43.5l6.126-1.374z"/></g><g filter="url(#d)"><path fill="#00d1ff" d="m165.5 163 1.19 5.31 5.31 1.19-5.31 1.19-1.19 5.31-1.19-5.31-5.31-1.19 5.31-1.19z"/></g><g filter="url(#e)"><path fill="#00d1ff" d="m654.5 365 1.19 5.31 5.31 1.19-5.31 1.19-1.19 5.31-1.19-5.31-5.31-1.19 5.31-1.19z"/></g><g filter="url(#f)"><path fill="#00d1ff" d="m151 497 3.846 17.154L172 518l-17.154 3.846L151 539l-3.846-17.154L130 518l17.154-3.846z"/></g><path fill="#00d1ff" d="m151 497 1.901 19.099L172 518l-19.099 1.901L151 539l-1.901-19.099L130 518l19.099-1.901z"/><g filter="url(#g)"><path fill="#00d1ff" d="m654.5 490 1.74 7.76 7.76 1.74-7.76 1.74-1.74 7.76-1.74-7.76-7.76-1.74 7.76-1.74z"/></g><path fill="#00d1ff" d="m654.5 490 .86 8.64 8.64.86-8.64.86-.86 8.64-.86-8.64-8.64-.86 8.64-.86z"/><path stroke="url(#h)" stroke-width="2" d="M454.15 175.258c95.862 35.954 176.622 84.443 229.702 133.738 26.542 24.649 46.126 49.464 57.235 72.976 11.107 23.507 13.709 45.631 6.445 64.999-7.264 19.369-23.774 34.325-47.6 44.73-23.83 10.408-54.902 16.224-91.107 17.339-72.405 2.231-165.133-14.345-260.996-50.298s-176.621-84.444-229.701-133.738c-26.543-24.649-46.126-49.464-57.235-72.975-11.107-23.507-13.71-45.631-6.445-65 7.264-19.368 23.773-34.324 47.599-44.73 23.83-10.407 54.902-16.224 91.108-17.34 72.405-2.231 165.133 14.346 260.995 50.299Z" opacity=".15"/><path stroke="#344054" stroke-linecap="round" stroke-linejoin="round" d="m96.966 249.529 8.733-1.704a4.5 4.5 0 0 1 3.331.654 4.33 4.33 0 0 1 1.871 2.785l5.025 25.748a8.6 8.6 0 0 0 1.305 3.155 8.8 8.8 0 0 0 2.437 2.415 8.9 8.9 0 0 0 3.196 1.308 9 9 0 0 0 3.469.001 9 9 0 0 0-3.214 1.305 8.9 8.9 0 0 0-2.47 2.414 8.8 8.8 0 0 0-1.35 3.154 8.6 8.6 0 0 0-.023 3.414l5.024 25.748a4.33 4.33 0 0 1-.686 3.284 4.5 4.5 0 0 1-2.841 1.859l-8.733 1.704"/><path stroke="#00d1ff" stroke-linecap="round" stroke-linejoin="round" d="m71.778 254.445-8.732 1.704a4.5 4.5 0 0 0-2.842 1.859 4.33 4.33 0 0 0-.686 3.283l5.025 25.748a8.6 8.6 0 0 1-.024 3.414 8.7 8.7 0 0 1-1.35 3.154 8.9 8.9 0 0 1-2.47 2.414 9 9 0 0 1-3.214 1.305 8.98 8.98 0 0 1 6.666 1.309 8.67 8.67 0 0 1 3.742 5.571l5.024 25.748a4.34 4.34 0 0 0 1.87 2.784c.976.645 2.175.88 3.333.654l8.732-1.704"/><g stroke-linecap="round" stroke-linejoin="round" opacity=".25"><path stroke="#344054" stroke-width="1.5" d="M707.838 425.5h.349"/><path stroke="#00d1ff" d="M722.012 425.5c0 17.501-6.265 31.5-13.999 31.5s-14-13.999-14-31.5 6.265-31.5 14-31.5c7.734 0 13.999 13.999 13.999 31.5m-41.125 16.625c3.851 6.999 19.11 5.39 34.091-3.815s23.974-22.364 20.16-29.434c-3.815-7.072-19.11-5.392-34.126 3.814s-23.94 22.368-20.125 29.435m54.251-.001c3.814-7.001-5.181-20.231-20.16-29.436s-30.24-10.92-34.091-3.813c-3.848 7.103 5.182 20.123 20.127 29.433 14.943 9.311 30.273 10.922 34.124 3.816"/></g><defs><filter id="a" width="535.628" height="425.269" x="121.139" y="90.684" color-interpolation-filters="sRGB" filterUnits="userSpaceOnUse"><feFlood flood-opacity="0" result="BackgroundImageFix"/><feBlend in="SourceGraphic" in2="BackgroundImageFix" result="shape"/><feGaussianBlur result="effect1_foregroundBlur_508_296" stdDeviation="10.75"/></filter><filter id="b" width="499.627" height="389.233" x="144.498" y="105.659" color-interpolation-filters="sRGB" filterUnits="userSpaceOnUse"><feFlood flood-opacity="0" result="BackgroundImageFix"/><feBlend in="SourceGraphic" in2="BackgroundImageFix" result="shape"/><feGaussianBlur result="effect1_foregroundBlur_508_296" stdDeviation="2"/></filter><filter id="c" width="95" height="95" x="104" y="0" color-interpolation-filters="sRGB" filterUnits="userSpaceOnUse"><feFlood flood-opacity="0" result="BackgroundImageFix"/><feColorMatrix in="SourceAlpha" result="hardAlpha" values="0 0 0 0 0 0 0 0 0 0 0 0 0 0 0 0 0 0 127 0"/><feOffset dy="4"/><feGaussianBlur stdDeviation="12.5"/><feComposite in2="hardAlpha" operator="out"/><feColorMatrix values="0 0 0 0 0 0 0 0 0 0.819608 0 0 0 0 1 0 0 0 0.6 0"/><feBlend in2="BackgroundImageFix" result="effect1_dropShadow_508_296"/><feColorMatrix in="SourceAlpha" result="hardAlpha" values="0 0 0 0 0 0 0 0 0 0 0 0 0 0 0 0 0 0 127 0"/><feOffset dy="4"/><feGaussianBlur stdDeviation="20"/><feComposite in2="hardAlpha" operator="out"/><feColorMatrix values="0 0 0 0 0 0 0 0 0 0.819608 0 0 0 0 1 0 0 0 0.6 0"/><feBlend in2="effect1_dropShadow_508_296" result="effect2_dropShadow_508_296"/><feBlend in="SourceGraphic" in2="effect2_dropShadow_508_296" result="shape"/><feGaussianBlur result="effect3_foregroundBlur_508_296" stdDeviation="1.75"/></filter><filter id="d" width="93" height="93" x="119" y="127" color-interpolation-filters="sRGB" filterUnits="userSpaceOnUse"><feFlood flood-opacity="0" result="BackgroundImageFix"/><feColorMatrix in="SourceAlpha" result="hardAlpha" values="0 0 0 0 0 0 0 0 0 0 0 0 0 0 0 0 0 0 127 0"/><feOffset dy="4"/><feGaussianBlur stdDeviation="12.5"/><feComposite in2="hardAlpha" operator="out"/><feColorMatrix values="0 0 0 0 0 0 0 0 0 0.819608 0 0 0 0 1 0 0 0 0.6 0"/><feBlend in2="BackgroundImageFix" result="effect1_dropShadow_508_296"/><feColorMatrix in="SourceAlpha" result="hardAlpha" values="0 0 0 0 0 0 0 0 0 0 0 0 0 0 0 0 0 0 127 0"/><feOffset dy="4"/><feGaussianBlur stdDeviation="20"/><feComposite in2="hardAlpha" operator="out"/><feColorMatrix values="0 0 0 0 0 0 0 0 0 0.819608 0 0 0 0 1 0 0 0 0.6 0"/><feBlend in2="effect1_dropShadow_508_296" result="effect2_dropShadow_508_296"/><feBlend in="SourceGraphic" in2="effect2_dropShadow_508_296" result="shape"/></filter><filter id="e" width="99" height="99" x="605" y="326" color-interpolation-filters="sRGB" filterUnits="userSpaceOnUse"><feFlood flood-opacity="0" result="BackgroundImageFix"/><feColorMatrix in="SourceAlpha" result="hardAlpha" values="0 0 0 0 0 0 0 0 0 0 0 0 0 0 0 0 0 0 127 0"/><feOffset dy="4"/><feGaussianBlur stdDeviation="9.5"/><feComposite in2="hardAlpha" operator="out"/><feColorMatrix values="0 0 0 0 0 0 0 0 0 0.819608 0 0 0 0 1 0 0 0 0.6 0"/><feBlend in2="BackgroundImageFix" result="effect1_dropShadow_508_296"/><feColorMatrix in="SourceAlpha" result="hardAlpha" values="0 0 0 0 0 0 0 0 0 0 0 0 0 0 0 0 0 0 127 0"/><feOffset dy="4"/><feGaussianBlur stdDeviation="21.5"/><feComposite in2="hardAlpha" operator="out"/><feColorMatrix values="0 0 0 0 0 0 0 0 0 0.819608 0 0 0 0 1 0 0 0 0.6 0"/><feBlend in2="effect1_dropShadow_508_296" result="effect2_dropShadow_508_296"/><feBlend in="SourceGraphic" in2="effect2_dropShadow_508_296" result="shape"/></filter><filter id="f" width="122" height="122" x="90" y="461" color-interpolation-filters="sRGB" filterUnits="userSpaceOnUse"><feFlood flood-opacity="0" result="BackgroundImageFix"/><feColorMatrix in="SourceAlpha" result="hardAlpha" values="0 0 0 0 0 0 0 0 0 0 0 0 0 0 0 0 0 0 127 0"/><feOffset dy="4"/><feGaussianBlur stdDeviation="12.5"/><feComposite in2="hardAlpha" operator="out"/><feColorMatrix values="0 0 0 0 0 0 0 0 0 0.819608 0 0 0 0 1 0 0 0 0.6 0"/><feBlend in2="BackgroundImageFix" result="effect1_dropShadow_508_296"/><feColorMatrix in="SourceAlpha" result="hardAlpha" values="0 0 0 0 0 0 0 0 0 0 0 0 0 0 0 0 0 0 127 0"/><feOffset dy="4"/><feGaussianBlur stdDeviation="20"/><feComposite in2="hardAlpha" operator="out"/><feColorMatrix values="0 0 0 0 0 0 0 0 0 0.819608 0 0 0 0 1 0 0 0 0.6 0"/><feBlend in2="effect1_dropShadow_508_296" result="effect2_dropShadow_508_296"/><feBlend in="SourceGraphic" in2="effect2_dropShadow_508_296" result="shape"/></filter><filter id="g" width="99" height="99" x="605" y="454" color-interpolation-filters="sRGB" filterUnits="userSpaceOnUse"><feFlood flood-opacity="0" result="BackgroundImageFix"/><feColorMatrix in="SourceAlpha" result="hardAlpha" values="0 0 0 0 0 0 0 0 0 0 0 0 0 0 0 0 0 0 127 0"/><feOffset dy="4"/><feGaussianBlur stdDeviation="12.5"/><feComposite in2="hardAlpha" operator="out"/><feColorMatrix values="0 0 0 0 0 0 0 0 0 0.819608 0 0 0 0 1 0 0 0 0.6 0"/><feBlend in2="BackgroundImageFix" result="effect1_dropShadow_508_296"/><feColorMatrix in="SourceAlpha" result="hardAlpha" values="0 0 0 0 0 0 0 0 0 0 0 0 0 0 0 0 0 0 127 0"/><feOffset dy="4"/><feGaussianBlur stdDeviation="20"/><feComposite in2="hardAlpha" operator="out"/><feColorMatrix values="0 0 0 0 0 0 0 0 0 0.819608 0 0 0 0 1 0 0 0 0.6 0"/><feBlend in2="effect1_dropShadow_508_296" result="effect2_dropShadow_508_296"/><feBlend in="SourceGraphic" in2="effect2_dropShadow_508_296" result="shape"/><feGaussianBlur result="effect3_foregroundBlur_508_296" stdDeviation="2.35"/></filter><linearGradient id="h" x1="318.5" x2="185.5" y1="77" y2="409" gradientUnits="userSpaceOnUse"><stop stop-color="#00d1ff"/><stop offset="1" stop-color="#6339f0"/></linearGradient></defs></svg>