<svg xmlns="http://www.w3.org/2000/svg" width="597" height="13" fill="none"><path fill="#6339f0" d="M318.432 7.504c19.326-.106 37.93.3 57.33.236 24.068-.078 48.528-.606 72.675-.63 12.618-.012 25.237-.02 37.9-.03 11.439-.01 22.78-.022 34.191-.045 24.059-.154 48.183.203 71.968-.938.798-.076 1.709-.192 2.078-.352l.064-.028c-.006.01-.032 0-.202.171-.092.113-.246.248-.341.7a1.46 1.46 0 0 0 .263 1.1c.267.32.347.301.376.328.043.01-.252-.086-.487-.133a22 22 0 0 0-1.664-.27 89 89 0 0 0-3.524-.372c-2.41-.213-4.763-.378-7.185-.537-4.824-.312-9.574-.57-14.435-.818-13.47-.682-27.018-1.265-40.519-1.842a25231 25231 0 0 0-48.957-2.021 84234 84234 0 0 0-37.478-1.51 27 27 0 0 1-1.976-.144c-.524-.063-.818-.132-.816-.195.003-.062.304-.113.832-.144s1.241-.038 1.984-.022l16.162.343c5.985.127 11.96.255 17.943.384.93.284 2.221.518 4.64.678 1.228.082 3.038.156 4.365.15 1.193-.006 2.085-.054 2.946-.1.897-.048 1.746-.093 2.832-.085 1.845.015 3.617-.038 5.454-.094.677-.02 1.364-.041 2.07-.059q8.566.192 17.133.392c2.192.098 4.242.187 5.946.233 1.542.04 2.972.034 4.364.013l2.661.065c5.71.14 11.391.284 17.12.438 4.443.226 9.137.461 15.173.725 2.65.115 5.176.254 7.682.395l.54.03c3.459.196 6.717.387 9.591.496 2.01.076 4.135.224 6.252.386 2.875.222 5.656.452 8.278.617.81.052 1.594.107 2.372.194.407.048.767.092 1.19.183.229.055.422.09.75.245.096.05.153.074.311.198a1.302 1.302 0 0 1 .453.7c.126.423-.092.928-.211 1.065-.151.2-.245.268-.337.342-.242.178-.383.24-.538.316-2.48.892-4.063.83-5.773 1.002-3.255.205-6.111.374-8.573.523-2.954.176-5.567.31-7.691.28l-1.166-.02a198 198 0 0 0-11.088.04c-1.898.058-3.524.158-5.318.258-2.366.142-4.937.28-7.419.264-.384-.003-.789-.027-1.16-.05-.472-.028-.89-.053-1.138-.024-.768.085-1.79.18-3.014.286-.889.077-1.848.159-2.748.243a7596.629 7596.629 0 0 1-29.233.43 166 166 0 0 0-4.841-.262c-2.327-.086-5.009-.1-8.782-.116-2.87-.011-5.789-.028-9.589-.078l-1.759-.02a574 574 0 0 0-16.573.087l-2.972.063c-3.776.085-8.775.192-17.866.324-8.721.124-16.138.177-21.645.215-2.825.02-5.257.036-7.025.056-3.057.035-6.847.07-10.701.104-5.881.054-11.999.108-15.334.162-1.202.02-2.467.043-3.837.068-3.811.069-8.383.151-14.704.211-6.691.063-10.719.048-15.025.001-1.747-.019-3.277-.111-4.848-.207-2.232-.136-4.565-.277-7.732-.223-.74.012-1.529.038-2.356.065-1.518.05-3.139.103-4.814.087a40 40 0 0 1-1.601-.055 34 34 0 0 0-1.715-.053c-2.301.001-4.552.014-6.541.026-2.56.016-4.711.028-6.046.01-2.379-.035-4.99.01-7.625.055-2.011.034-4.043.07-6.013.07-5.63 0-13.366.093-21.339.233-3.019.053-5.576 0-8.849-.07-2.035-.042-4.35-.09-7.233-.123-1.634-.018-3.015.04-4.294.093-1.178.05-2.269.095-3.388.074-.988-.018-1.611-.107-2.206-.191-.664-.094-1.289-.182-2.332-.162-.555.01-1.23.058-2.031.114l-1.014.07q.025-.03.023-.048c.001-.088-1.062-.131-2.104-.174-.416-.017-.83-.033-1.17-.053-1.254-.071-3.61-.077-5.43-.068-.77.003-1.468-.022-2.281-.052-.722-.026-1.535-.055-2.571-.07a34 34 0 0 1-1.418-.054c-.272-.015-.502-.027-.716-.03-.186-.003-.335.023-.503.052-.121.02-.252.043-.414.058-.385.036-.881.047-1.228.037a9 9 0 0 1-.414-.023 8 8 0 0 0-.493-.026c-.924-.015-1.812.016-2.752.048a60 60 0 0 1-3.305.051 48 48 0 0 1-1.165-.04 39 39 0 0 0-1.134-.039c-1.36-.016-2.636.05-3.807.112-.779.04-1.513.079-2.194.09a22 22 0 0 0-2.428.152c-.259.03-.47.054-.691.062l-.61-.006c-.185-.005-.376-.01-.555-.008l-.04.001a452 452 0 0 1-3.327-.06c-2.466-.051-4.859-.102-7.444-.062-.558.008-1.125.041-1.702.075-.706.04-1.428.082-2.162.081-1.75-.001-3.51-.048-5.236-.093-2.573-.069-5.178-.135-7.522-.047-.776.03-1.531.076-2.287.124q-.632.04-1.271.077c.09-.042.138-.08.183-.117.093-.075.172-.139.582-.194.968-.13 2.07-.31 1.947-.438-.033-.035-.006-.074.023-.113.073-.098.147-.198-.755-.241-.608-.029-2.167-.094-3.154-.016-.215.017-.346.05-.491.086-.262.065-.574.143-1.506.164l-.504.01c-.711.011-1.52.025-1.819.078-.345.06-.271.13-.185.209.112.104.246.227-.498.378-.147.03-.428.041-.64.05-.149.005-.263.01-.275.019-.012.01.035.031.096.058.215.093.586.258-.965.27-.419.002-.898-.004-1.327-.01-.632-.008-1.156-.015-1.226.012a.2.2 0 0 0-.06.033l-1.504-.005c-.642-.03-1.541-.025-2.66-.018l-.853.005-2.997-.01q-1.19-.017-2.519-.064a126 126 0 0 1-4.797-.287c-.628-.046-1.249-.092-1.877-.133.244-.007.465-.014.636-.023 1.165-.063 1.635-.182 2.067-.292a6 6 0 0 1 1.009-.186c.824-.083.742-.176.681-.245-.032-.036-.056-.066.054-.084.089-.014.293-.021.505-.029.184-.006.375-.013.497-.025 1.482-.141 1.036-.22.387-.333-.357-.063-.775-.137-.966-.238-.165-.107-.11-.139.666-.184l-1.811-.154a3 3 0 0 0-.667.094c-.449.1-1.908.14-3.04.172-.533.015-1.008.028-1.272.044-1.407.085-.996.196-.636.293.198.054.381.104.239.143-.061.017.026.033.114.05.067.012.137.025.139.038.019.098-.814.174-1.583.244-.44.04-.86.079-1.091.119a3 3 0 0 0-.179.037 3 3 0 0 1-.269.048c-.266.033-.815.057-1.415.082-.307.013-.628.027-.931.043-.392.02-.533.06-.682.1a2.6 2.6 0 0 1-.417.085c-.367.045-1.106.063-1.789.08-.297.008-.585.015-.827.024-.098.004-.146.01-.156.02l-3.291.104c-5.318.172-9.865.32-16.696.249a166 166 0 0 0-4.063.014c-4.58-.021-8.899-.044-13.486-.067a62 62 0 0 0-3.236-.208c-2.303-.1-4.963-.112-7.844-.128a860 860 0 0 1-3.39-.022 437 437 0 0 1-3.997-.05c-4.637-.081-9.558-.145-15.009-.162-5.449-.016-11.565-.014-16.087.003-2.364.008-4.926-.054-7.274-.111-3.163-.082-6.356-.15-8.037-.003-.596.048-1.174.127-1.725.204a39 39 0 0 1-1.151.15c-1.008-.004-1.932-.008-2.959-.01-1.861-.075-4.493-.147-7.225-.02-1.02-.002-2.005-.005-3.046-.006l-6.413-.006-2.143.001h-.02c-1.369 0-2.897.004-4.253.007-.55 0-1.24.003-1.832.005-1.487.005-3.082.014-4.596.024-.84.007-1.564.012-2.436.021-1.299.013-2.597.03-3.97.056-2.122.047-4.263.07-6.36.265-.359.038-.669.076-.905.107-.239.031-.38.043-.387.013-.006-.027.118-.094.354-.171.233-.076.548-.144.91-.192 2.121-.255 4.256-.332 6.383-.436 1.376-.06 2.67-.111 3.971-.158l2.437-.084c1.513-.05 3.111-.097 4.6-.14.592-.018 1.28-.036 1.83-.052 1.362-.039 2.891-.078 4.266-.113h.026l2.128-.053c2.078-.052 4.252-.103 6.416-.15l3.442-.076 1.958-.042 1.04-.021a6416 6416 0 0 1 24.222-.455c8.07-.138 16.278-.266 24.257-.385 4.013-.057 7.56-.11 11.575-.165 4.076-.058 8.595-.117 12.69-.171a28073 28073 0 0 1 205.927-1.896"/></svg>