<svg xmlns="http://www.w3.org/2000/svg" width="100" height="73" fill="none"><g filter="url(#a)"><path fill="#f4f4f9" d="M34.073 0c1.774 0 24.25 1.305 24.25 1.305 3.068.317 5.118.62 3.105 3.772-4.731 6.237-7.097 8.993-12.273 15.52 8.164-.773 14.786 2.467 18.335 8.269 5.846 9.558 4.14 20.307-2.366 27.27-6.613 7.077-14.934 8.848-24.101 8.268-10.101-.64-17.204-8.492-16.71-19.437.119-2.611 2.367-4.932 5.176-5.222.803-.083 1.624-.042 2.288.207 1.61.604.109 2.364-1.13 3.557-1.158 1.114-1.158 2.591-1.158 4.069 0 5.18 3.78 8.635 8.872 10.008 5.914 1.596 16.822.284 22.032-6.962 4.25-5.91 5.737-12.234 1.922-18.422-2.06-3.342-4.565-5.464-7.8-6.542-4.164-1.388-8.642-.071-12.753 1.465-3.697 1.45-5.028-2.32-2.81-4.787l12.421-13.49c2.473-2.632 1.834-3.17-1.33-3.19H35.995c-1.626 0-3.943-.358-4.288-2.177C31.403 1.875 32.298 0 34.073 0"/></g><g filter="url(#b)"><path fill="#6339f0" d="M34.51 20.19C19.177 27.544 3.164 41.8 10.56 48.206c6.373 5.52 38.39-4.865 54.396-13.273 32.82-17.241 25.796-22.446 23.38-23.772-3.806-2.09-15.54-2.523-27.504.08l-2.264 2.672s21.373-3.691 26.883-1.801c8.636 2.962-6.392 14.082-21.11 21.083-19.08 9.078-51.51 16.86-52.52 12.399C9.557 35.58 31.299 23.93 34.51 22.244c4.762-2.498 12.66-5.396 12.66-5.396l2.536-2.648c-5.226 1.745-9.683 3.345-15.196 5.99"/></g><g filter="url(#c)"><path fill="#00d1ff" d="M34.51 16.999C19.177 24.353 3.164 38.61 10.56 45.015c6.373 5.519 38.39-4.865 54.396-13.273C97.777 14.5 90.753 9.296 88.337 7.97c-3.806-2.09-15.54-2.523-27.504.08l-2.264 2.672S79.942 7.03 85.452 8.92c8.636 2.962-6.392 14.082-21.11 21.083-19.08 9.078-51.51 16.86-52.52 12.399C9.557 32.39 31.299 20.739 34.51 19.053c4.762-2.498 12.66-5.396 12.66-5.396l2.536-2.648c-5.226 1.745-9.683 3.345-15.196 5.99"/></g><path fill="#0b0b0c" d="M35.57 15.982C20.82 23.317 4.266 37.826 11.38 44.214c6.131 5.504 39.333-5.709 54.631-13.463C97.507 14.788 88.531 8.59 86.208 7.266c-3.662-2.083-15.824-1.358-27.334 1.239l-2.178 2.664S78.13 6.33 83.432 8.215c8.308 2.954-4.444 13.668-18.603 20.65C46.47 37.92 14.024 48.159 12.594 41.61c-2.18-9.987 19.887-21.896 22.977-23.577 4.581-2.492 12.18-5.383 12.18-5.383l2.439-2.64c-5.028 1.74-9.316 3.336-14.62 5.973"/><circle cx="32.089" cy="12.184" r="2.197" fill="#f4f4f9"/><circle cx="32.089" cy="22.338" r="2.197" fill="#f4f4f9"/><circle cx="32.089" cy="32.492" r="2.197" fill="#f4f4f9"/><defs><filter id="a" width="58.774" height="72.506" x="24.289" y="0" color-interpolation-filters="sRGB" filterUnits="userSpaceOnUse"><feFlood flood-opacity="0" result="BackgroundImageFix"/><feColorMatrix in="SourceAlpha" result="hardAlpha" values="0 0 0 0 0 0 0 0 0 0 0 0 0 0 0 0 0 0 127 0"/><feOffset dx="8" dy="4"/><feGaussianBlur stdDeviation="2"/><feComposite in2="hardAlpha" operator="out"/><feColorMatrix values="0 0 0 0 0 0 0 0 0 0 0 0 0 0 0 0 0 0 0.25 0"/><feBlend in2="BackgroundImageFix" result="effect1_dropShadow_43_50"/><feBlend in="SourceGraphic" in2="effect1_dropShadow_43_50" result="shape"/></filter><filter id="b" width="99.364" height="57.714" x="0" y=".739" color-interpolation-filters="sRGB" filterUnits="userSpaceOnUse"><feFlood flood-opacity="0" result="BackgroundImageFix"/><feBlend in="SourceGraphic" in2="BackgroundImageFix" result="shape"/><feGaussianBlur result="effect1_foregroundBlur_43_50" stdDeviation="4.35"/></filter><filter id="c" width="84.564" height="42.914" x="7.4" y="4.948" color-interpolation-filters="sRGB" filterUnits="userSpaceOnUse"><feFlood flood-opacity="0" result="BackgroundImageFix"/><feBlend in="SourceGraphic" in2="BackgroundImageFix" result="shape"/><feGaussianBlur result="effect1_foregroundBlur_43_50" stdDeviation=".65"/></filter></defs></svg>