<svg width="678" height="435" viewBox="0 0 678 435" fill="none" xmlns="http://www.w3.org/2000/svg">
<g filter="url(#filter0_f_524_324)">
<circle cx="339.321" cy="214.239" r="64.2388" fill="url(#paint0_radial_524_324)"/>
</g>
<circle cx="339.165" cy="214.395" r="52.2038" fill="url(#paint1_linear_524_324)" fill-opacity="0.2"/>
<g filter="url(#filter2_f_524_324)">
<circle cx="339.165" cy="214.395" r="51.2038" stroke="#00D1FF" stroke-width="2"/>
</g>
<g filter="url(#filter3_f_524_324)">
<path d="M391.924 219.08C391.943 220.365 391.742 222.041 391.495 223.302C391.418 223.696 391.311 223.479 391.25 223.749C391.132 224.277 391.127 224.781 390.985 225.297C390.937 225.468 390.763 225.219 390.718 225.399C390.468 226.384 390.347 227.323 390.089 228.314C388.814 233.177 387.034 237.799 384.566 242.204C383.754 243.661 382.551 245.291 381.66 246.754C381.556 246.925 381.776 246.929 381.767 246.97C381.621 247.597 381.426 247.222 381.163 247.514C380.118 248.672 379.062 250.015 378.159 251.198C377.774 251.701 378.464 251.454 377.893 251.806C377.853 251.831 377.81 251.582 377.681 251.699C377.39 251.967 376.921 252.547 376.704 252.76C376.285 253.172 376.22 253.244 375.837 253.645C375.31 254.191 374.607 254.76 374.05 255.353C373.932 255.48 374.237 255.466 374.059 255.682C373.882 255.899 373.329 256.387 373.113 256.517C372.898 256.648 372.87 256.46 372.814 256.462C372.346 256.476 371.987 257.347 371.908 257.426C370.505 258.856 368.994 259.707 367.462 260.766C366.298 261.571 365.054 262.448 363.878 263.111C362.474 263.902 361.217 264.432 359.814 265.112C359.666 265.183 359.94 265.315 359.759 265.403C357.823 266.331 355.82 267.089 353.744 267.595C353.536 267.645 353.734 267.364 353.522 267.402C352.229 267.649 350.164 267.777 349.619 268.823C348.75 268.994 347.685 269.177 346.877 269.138C346.356 269.113 346.803 268.805 346.206 269.007C346.071 269.051 346.285 269.216 346.079 269.268C345.206 269.487 344.244 269.556 343.376 269.758C343.2 269.799 343.268 269.969 343.22 270.007C342.817 270.312 342.068 269.953 341.912 269.935C340.719 269.803 339.864 269.94 338.77 269.966C338.515 269.972 338.823 270.202 338.577 270.215C338.153 270.236 337.722 270.247 337.289 270.245C336.42 270.241 335.554 270.188 334.729 270.078C334.455 270.041 334.718 269.851 334.588 269.822C334.01 269.698 333.857 270.071 333.302 269.949C333.186 269.923 333.265 269.755 333.245 269.735C332.934 269.411 332.61 269.808 332.522 269.81C331.422 269.837 330.767 269.315 329.722 269.231C329.596 269.221 329.846 269.479 329.494 269.437C327.133 269.154 324.686 268.557 322.484 267.732C322.143 267.604 322.439 267.518 322.422 267.493C322.157 267.084 321.806 267.421 321.688 267.401C320.756 267.234 320.049 266.615 319.282 266.876C315.615 265.37 311.902 263.847 308.836 261.341C308.797 261.309 308.985 261.181 308.907 261.12C307.973 260.371 307.99 260.768 307.105 260.647C306.881 260.615 306.66 259.87 306.639 259.81C306.556 259.591 306.902 259.456 306.863 259.397C306.545 258.923 306.008 259.81 305.417 259.369C305.4 259.354 305.591 259.26 305.553 259.208C305.436 259.046 305.239 258.991 305.131 258.826C304.883 258.444 305.075 257.96 304.388 257.783C304.3 257.76 304.03 258.297 303.54 257.859C303.343 257.686 302.454 256.942 302.238 256.697C302.02 256.454 302.312 256.46 302.3 256.439C301.818 255.675 302.133 255.817 302.063 255.254C301.997 254.694 301.489 255.417 301.293 255.367C301.095 255.317 300.776 254.729 300.716 254.569C300.654 254.41 300.876 254.459 300.806 254.334C300.34 253.505 300.214 254.361 299.9 254.246C299.158 253.968 299.235 253.11 298.84 252.592C298.733 252.45 298.722 252.657 298.605 252.55C298.143 252.126 298.044 251.713 297.439 251.299C297.341 251.232 296.667 251.045 296.649 250.573C296.647 250.506 296.867 250.518 296.726 250.29C296.514 249.95 296.096 249.371 295.793 249.067C295.569 248.843 295.578 249.292 295.401 248.926C295.323 248.763 295.646 248.928 295.49 248.631C295.334 248.335 294.83 247.665 294.641 247.407C294.451 247.15 294.388 247.41 294.362 247.397C294.207 247.315 293.773 246.865 293.743 246.819C292.162 244.559 291.186 242.197 289.92 239.854C289.821 239.669 289.689 239.887 289.672 239.86C289.281 239.25 290.036 239.516 289.996 238.986C289.635 239.235 289.579 238.936 289.328 238.495C289.207 238.283 289.109 238.472 289.084 238.459C288.703 238.232 288.904 237.867 288.94 237.781C289.072 237.464 288.702 237.339 288.792 237.125C288.882 236.913 289.248 237.162 289.062 236.72C288.868 236.654 288.629 237.14 288.429 236.825C287.656 235.633 287.102 233.061 286.831 231.984C286.548 230.908 286.432 230.564 286.323 229.922C286.14 228.765 285.951 229.252 285.652 228.57C285.359 227.882 286.16 228.074 286.292 227.938C286.426 227.804 286.243 227.729 286.303 227.587C286.362 227.445 286.524 227.691 286.496 227.394C286.467 227.099 286.038 226.359 285.857 226.282C285.471 226.124 285.169 226.555 285.162 225.744C285.162 225.698 285.378 225.812 285.368 225.636C285.286 224.24 285.116 222.807 285.131 221.422C285.133 221.231 285.363 221.382 285.367 221.271C285.416 220.119 285.085 220.556 284.641 219.945C285.189 220.056 285.491 219.686 285.462 218.827C285.446 218.308 285.214 218.404 285.04 218.069C284.987 217.968 285.143 217.594 285.032 217.528C284.689 217.322 284.309 217.628 284.4 216.896C284.405 216.852 284.413 216.804 284.422 216.752C284.43 216.712 284.628 216.84 284.64 216.702C284.726 215.813 284.348 215.704 284.337 214.735C284.328 213.974 284.647 212.647 284.769 211.799C285.37 211.874 285.312 211.065 284.937 210.689C285.019 210.138 285.075 209.541 285.213 209.016C285.26 208.836 285.415 208.983 285.437 208.963C285.785 208.657 285.422 208.357 285.426 208.235C285.488 206.924 286.001 205.951 285.991 204.677C285.991 204.632 285.597 204.464 285.976 204.212C286.001 204.197 286.089 204.641 286.244 204.077C286.399 203.511 286.902 202.515 286.951 201.686C286.961 201.486 286.782 200.908 287.16 200.61C287.211 200.57 287.308 200.663 287.396 200.611C287.676 200.444 287.314 200.181 287.75 200.023C288.186 199.865 288.633 199.395 288.684 198.555C288.686 198.529 288.438 198.23 288.535 197.994C288.69 197.616 288.972 197.106 289.134 196.715C289.212 196.527 288.969 196.565 288.979 196.531C289.409 195.22 289.991 194.405 290.726 193.136C290.861 192.904 290.968 192.083 291.419 191.735C291.914 191.356 292.522 192.361 292.95 191.123C293.123 190.632 292.354 189.371 293.438 188.928C294.292 187.285 295.562 186.103 296.517 184.514C296.56 184.443 296.44 184.01 296.569 183.86C296.759 183.639 296.992 183.624 297.133 183.472C297.729 182.837 298.144 182.143 298.728 181.539C298.95 181.31 299.004 181.511 299.269 181.241C299.535 180.972 299.542 180.628 299.982 180.338C300.316 180.12 300.923 180.182 301.326 179.868C301.014 179.52 301.272 179.279 301.646 178.76C301.718 178.66 301.512 178.629 301.541 178.576C301.654 178.355 301.905 178.308 302.007 178.091C302.032 178.039 301.927 177.919 301.942 177.869C302.063 177.44 302.769 177.298 302.89 177.277C303.352 177.19 303.362 176.91 303.661 176.781C303.959 176.653 303.678 177.04 303.992 176.852C304.642 176.462 305.377 175.846 305.989 175.394C306.232 175.213 305.939 175.167 305.971 175.138C306.443 174.715 307.09 174.53 307.132 173.982C308.119 174.631 307.379 173.674 308.254 173.349C308.324 173.325 308.685 173.707 308.503 173.92C308.322 174.133 307.892 174.23 307.654 174.542C307.596 174.616 307.467 175.304 307.43 175.368C307.132 175.868 306.612 175.29 306.563 175.273C306.026 175.097 305.845 175.894 305.74 176.021C305.253 176.608 304.694 176.92 304.292 177.411C304.03 177.731 304.33 178.143 304.08 178.337C303.258 178.983 302.501 178.714 302.196 179.843C302.133 180.086 302.667 180.338 301.821 180.551C301.768 180.563 301.083 180.677 301.033 181.088C301.027 181.14 301.143 181.253 301.115 181.301C300.925 181.619 300.665 181.702 300.439 182.03C300.214 182.358 299.962 182.766 299.622 183.062C299.418 183.24 298.962 183.302 298.821 183.352C298.418 183.49 298.427 184.017 298.084 184.025C297.737 184.037 297.728 183.434 297.208 183.798C297.517 184.084 297.817 184.398 298.121 184.694C297.277 185.696 296.385 186.644 295.642 187.735C295.551 187.87 295.831 187.863 295.739 188.011C295.348 188.636 294.857 189.081 294.5 189.762C294.225 190.288 294.092 190.966 293.834 191.525C293.228 191.606 292.914 192.489 292.564 193.055C292.441 193.254 292.335 193.181 292.22 193.309C291.792 193.796 292.306 193.729 292.287 193.912C292.21 194.695 291.32 194.321 290.963 195.128C290.942 195.172 291.17 195.9 291.169 195.983C291.156 196.516 290.972 195.983 290.811 196.25C290.519 196.738 290.25 197.053 290.138 197.724C290.106 197.921 290.232 198.467 289.868 198.727C289.82 198.761 289.671 198.675 289.648 198.709C289.238 199.325 289.733 199.529 289.765 199.973C289.797 200.416 289.249 200.892 289.108 200.983C288.742 201.218 289.078 200.7 289.059 200.674C288.825 200.368 288.728 200.826 288.593 201.157C288.08 201.045 287.958 201.535 288.456 201.501C288.51 201.496 288.548 201.217 288.593 201.157C288.984 201.613 288.887 202.139 288.259 202.583C287.965 202.792 287.783 202.462 287.645 203.321C287.584 203.71 287.971 203.657 287.979 204.014C287.997 204.826 287.44 205.734 287.329 206.542C287.289 206.832 287.539 206.592 287.518 206.792C287.467 207.319 287.236 207.752 287.22 208.291C287.219 208.34 287.442 208.259 287.417 208.421C287.235 209.654 286.96 210.716 286.83 212.018C286.766 212.646 286.798 213.781 286.747 214.431C286.683 215.204 286.513 216.09 286.446 216.896C286.414 217.271 286.404 217.624 286.433 217.933C286.494 218.566 286.698 218.42 286.847 218.685C287.134 219.19 286.7 220.134 286.635 220.267C286.632 220.271 286.551 219.728 286.463 220.026C286.253 220.209 286.634 220.261 286.635 220.267C286.589 220.352 286.626 221.442 286.688 221.652C286.721 221.767 286.909 221.683 286.922 221.743C287.234 223.173 287.479 224.587 287.654 226.048C287.654 226.074 287.433 226.075 287.437 226.136C287.497 226.991 287.873 227.476 288.181 228.121C288.491 228.768 288.573 229.306 288.317 229.806C288.496 230.307 288.544 231.082 288.575 231.532C288.605 231.981 289.031 231.913 289.05 231.947C289.667 233.01 289.658 233.731 290.064 234.911C290.254 235.473 290.753 236.532 291.055 237.098C291.293 237.545 291.328 237.864 291.582 238.258C291.617 238.311 291.761 238.173 291.776 238.188C292.201 238.557 291.677 238.532 291.648 238.664C291.546 239.144 291.508 239.437 291.938 239.972C292.037 240.096 292.834 240.187 292.999 240.411C293.212 240.706 292.937 240.699 293.17 241.005C293.189 241.031 293.315 240.954 293.422 241.162C293.922 242.123 294.456 243.182 295.082 244.122C295.167 244.251 295.255 243.958 295.381 244.141C295.97 244.996 296.616 245.934 297.135 246.811C297.262 247.028 297.037 247.001 297.031 247.073C296.998 247.519 297.628 247.636 297.682 247.691C298.986 249.024 299.626 250.356 301.072 251.608C301.152 251.678 302.029 251.922 302.004 252.448C302.002 252.483 301.971 253.018 302.386 253.037C302.412 253.037 302.399 252.738 302.658 253.017C302.919 253.296 303.458 253.612 303.695 254.131C303.769 254.295 303.797 254.86 304.384 254.945C304.424 254.952 305.469 254.894 305.359 255.449C305.341 255.539 304.968 255.919 305.601 256.084C305.722 256.115 305.636 255.895 305.914 256.024C306.339 256.221 306.729 256.705 307.317 256.852C307.421 256.879 307.963 256.837 308.071 257.25C308.088 257.315 307.904 257.399 308.035 257.518C308.659 258.085 309.449 258.483 310.096 259.046C310.326 259.245 310.042 259.401 310.268 259.635C310.494 259.87 311.002 260.269 311.353 260.327C311.704 260.384 311.626 259.811 312.067 260.029C313.984 260.969 315.743 262.152 317.699 263.027C317.989 263.156 317.81 262.905 318.24 263.081C319.826 263.745 322.669 264.541 324.02 265.247C325.109 265.825 323.589 265.638 324.454 265.983C324.875 266.149 325.467 265.749 325.573 265.757C326.624 265.833 327.287 266.208 328.222 266.308C328.415 266.328 328.267 266.084 328.43 266.102C328.987 266.165 329.56 266.353 330.09 266.412C330.329 266.437 330.307 266.269 330.524 266.312C331.043 266.41 331.498 266.534 331.999 266.741C332.045 266.76 331.705 266.928 332.098 266.977C332.728 267.054 333.508 267.27 334.254 267.158C334.475 267.124 334.506 266.753 334.957 267.032C335.052 267.09 334.908 267.534 335.468 267.168C335.564 267.108 336.484 266.612 336.929 266.949C336.999 267.002 337.134 267.154 337.289 267.256C337.394 267.325 337.508 267.371 337.615 267.347C337.65 267.337 337.506 267.138 337.724 267.117C338.49 267.045 339.287 267.042 340.065 266.936C340.273 266.907 339.951 266.718 340.261 266.681C341.114 266.58 342.166 266.542 343.009 266.51C343.318 266.499 343.126 266.694 343.151 266.71C343.547 266.97 343.71 266.534 343.825 266.495C344.542 266.256 345.128 266.362 345.799 266.196C345.984 266.15 345.818 265.98 345.852 265.957C346.206 265.722 345.981 266.118 346.231 266.113C346.933 266.098 347.689 265.929 348.369 265.749C348.619 265.683 348.286 265.526 348.51 265.469C349.826 265.127 351.197 264.772 352.503 264.485C352.749 264.431 352.652 264.646 352.714 264.668C353.147 264.823 353.531 264.29 353.633 264.216C354.101 263.878 354.351 263.951 354.802 263.753C356.989 262.795 359.696 261.64 361.691 260.583C364.286 259.21 366.287 258.056 368.474 256.282C368.613 256.169 368.327 256.099 368.444 255.999C369.956 254.721 371.47 253.482 372.819 252.023C372.929 251.903 372.608 251.915 372.78 251.719C373.13 251.315 373.602 250.834 374.018 250.483C374.221 250.311 374.122 250.7 374.324 250.523C374.794 250.112 375.245 249.62 375.628 249.109C375.791 248.892 375.356 249.06 375.579 248.789C377.094 246.935 378.43 245.016 379.951 243.105C380.054 242.974 380.523 243.088 380.631 242.736C380.536 242.648 380.406 242.572 380.296 242.493C382.02 239.458 383.623 236.375 384.779 233.055C384.828 232.915 384.516 233.079 384.608 232.808C385.138 231.24 385.508 229.685 386.12 228.092C386.18 227.934 386.579 228.113 386.622 227.61C386.631 227.521 386.728 226.772 386.672 226.565C386.663 226.537 386.442 226.632 386.482 226.395C386.716 225.017 386.975 223.581 387.242 222.197C387.285 221.973 387.471 222.236 387.504 222.076C387.733 220.952 387.655 219.682 387.882 218.601C388.034 217.869 388.392 218.151 388.761 217.761C388.814 217.705 388.827 217.24 389.036 217.217C389.565 217.157 390.142 217.391 390.706 217.301C390.828 217.282 390.699 216.633 390.991 217.018C391.011 217.044 391.106 217.516 391.203 217.634C391.27 217.716 391.486 217.573 391.572 217.74C391.657 217.908 391.475 218.087 391.571 218.364C391.668 218.641 391.916 218.528 391.924 219.08ZM288.755 233.561C288.696 234.016 289.422 233.824 289.109 233.468C289.093 233.451 288.757 233.537 288.755 233.561ZM295.95 186.312C295.363 186.551 295.543 187.135 295.97 186.978C296.396 186.824 296.127 186.241 295.95 186.312ZM299.328 181.857C298.708 182.148 299.43 182.931 299.722 182.294C299.739 182.257 299.364 181.84 299.328 181.857ZM388.801 219.606C388.812 219.599 388.837 219.269 388.828 219.26C388.599 219.074 388.548 219.734 388.801 219.606ZM303.138 177.784C302.893 177.807 302.577 178.311 302.88 178.28C303.122 178.255 303.441 177.757 303.138 177.784ZM299.095 252.33C299.092 252.343 299.249 252.527 299.292 252.48C299.429 252.329 299.159 252.123 299.095 252.33ZM310.81 172.209C309.593 172.892 308.392 172.629 309.762 171.888C310.01 171.756 309.395 172.443 309.739 172.322C310.366 172.105 310.457 171.41 311.183 171.331C311.312 171.318 310.879 172.172 310.809 172.212C310.809 172.211 310.81 172.21 310.81 172.209ZM287.984 234.079C287.977 234.091 288.08 234.409 288.092 234.414C288.375 234.504 288.17 233.865 287.984 234.079ZM309.711 261.65C309.715 261.679 310.374 262.102 310.407 262.097C310.952 261.974 309.63 261.125 309.711 261.65ZM284.787 211.787C284.584 211.399 284.604 210.948 284.937 210.691C284.878 211.053 284.836 211.423 284.787 211.787Z" fill="#6339F0"/>
</g>
<path d="M392.498 216.54C392.491 217.801 392.321 219.448 392.114 220.691C392.05 221.08 391.995 220.872 391.945 221.139C391.849 221.662 391.819 222.153 391.702 222.665C391.663 222.835 391.572 222.602 391.533 222.78C391.322 223.757 391.183 224.68 390.945 225.662C389.77 230.477 388.04 235.061 385.631 239.437C384.839 240.883 383.71 242.537 382.801 243.968C382.695 244.136 382.852 244.1 382.839 244.136C382.62 244.705 382.546 244.416 382.302 244.717C381.329 245.907 380.285 247.246 379.369 248.4C378.978 248.891 379.552 248.554 379.048 248.955C379.013 248.983 379.028 248.786 378.906 248.908C378.631 249.185 378.156 249.751 377.945 249.967C377.539 250.384 377.474 250.455 377.094 250.853C376.573 251.396 375.902 251.988 375.337 252.564C375.217 252.687 375.465 252.617 375.28 252.821C375.095 253.026 374.553 253.514 374.351 253.657C374.149 253.8 374.164 253.66 374.117 253.673C373.731 253.776 373.265 254.517 373.185 254.591C371.75 255.955 370.31 256.872 368.789 257.924C367.633 258.723 366.383 259.566 365.22 260.227C363.831 261.016 362.602 261.58 361.207 262.248C361.059 262.318 361.293 262.366 361.112 262.451C359.19 263.361 357.212 264.12 355.173 264.681C354.968 264.737 355.19 264.535 354.983 264.584C353.721 264.893 351.698 265.178 351.075 265.873C350.216 266.056 349.164 266.251 348.375 266.283C347.866 266.303 348.325 266.084 347.725 266.247C347.589 266.283 347.788 266.37 347.583 266.415C346.711 266.604 345.759 266.699 344.893 266.858C344.717 266.891 344.777 266.991 344.729 267.016C344.319 267.218 343.593 267.028 343.439 267.022C342.262 266.982 341.409 267.083 340.323 267.111C340.07 267.117 340.373 267.252 340.129 267.262C339.708 267.279 339.281 267.287 338.851 267.286C337.99 267.284 337.131 267.243 336.312 267.162C336.039 267.134 336.296 267.025 336.166 267.006C335.59 266.919 335.447 267.14 334.894 267.051C334.778 267.032 334.852 266.933 334.831 266.92C334.512 266.716 334.204 266.944 334.117 266.942C333.03 266.92 332.36 266.574 331.322 266.466C331.198 266.452 331.459 266.623 331.109 266.578C328.768 266.273 326.337 265.705 324.128 264.95C323.786 264.833 324.062 264.811 324.043 264.793C323.743 264.506 323.442 264.68 323.326 264.655C322.413 264.446 321.663 263.962 320.967 264.034C317.297 262.601 313.664 260.992 310.52 258.651C310.48 258.621 310.622 258.563 310.542 258.505C309.585 257.798 309.672 258.085 308.883 257.835C308.683 257.772 308.354 257.186 308.324 257.138C308.211 256.961 308.484 256.927 308.44 256.876C308.075 256.466 307.781 257.02 307.194 256.582C307.177 256.568 307.322 256.534 307.28 256.488C307.149 256.346 306.972 256.268 306.848 256.123C306.566 255.791 306.633 255.464 306.019 255.196C305.941 255.162 305.818 255.516 305.324 255.089C305.125 254.921 304.244 254.18 304.02 253.947C303.794 253.716 304.034 253.778 304.02 253.759C303.475 253.072 303.761 253.244 303.592 252.791C303.426 252.337 303.156 252.803 302.987 252.726C302.817 252.648 302.443 252.121 302.362 251.982C302.281 251.843 302.47 251.926 302.388 251.813C301.848 251.06 301.919 251.717 301.645 251.563C300.999 251.195 300.893 250.521 300.479 250.02C300.367 249.884 300.399 250.05 300.286 249.94C299.841 249.502 299.683 249.144 299.135 248.683C299.046 248.608 298.493 248.323 298.389 247.926C298.374 247.869 298.544 247.922 298.392 247.704C298.164 247.379 297.736 246.81 297.45 246.493C297.239 246.259 297.332 246.642 297.13 246.298C297.041 246.144 297.313 246.347 297.14 246.064C296.966 245.782 296.466 245.111 296.278 244.852C296.091 244.595 296.093 244.807 296.071 244.791C295.942 244.692 295.542 244.221 295.512 244.176C293.948 241.924 292.858 239.636 291.635 237.279C291.539 237.093 291.484 237.274 291.468 237.246C291.111 236.624 291.661 236.986 291.552 236.488C291.347 236.663 291.264 236.378 291.031 235.932C290.918 235.716 290.881 235.878 290.862 235.862C290.575 235.595 290.656 235.284 290.668 235.209C290.709 234.932 290.447 234.761 290.476 234.574C290.505 234.387 290.782 234.673 290.597 234.231C290.46 234.141 290.371 234.565 290.195 234.241C289.517 233.019 288.848 230.503 288.565 229.432C288.27 228.363 288.166 228.018 288.036 227.383C287.814 226.239 287.742 226.696 287.498 226.005C287.259 225.309 287.77 225.562 287.841 225.44C287.912 225.32 287.793 225.231 287.818 225.096C287.844 224.961 287.963 225.216 287.922 224.921C287.88 224.628 287.562 223.864 287.446 223.776C287.199 223.593 287.043 223.997 286.985 223.2C286.982 223.154 287.121 223.281 287.104 223.106C286.964 221.724 286.789 220.294 286.752 218.916C286.747 218.726 286.89 218.884 286.889 218.774C286.883 217.625 286.698 218.05 286.415 217.432C286.748 217.556 286.919 217.193 286.888 216.331C286.871 215.811 286.734 215.904 286.626 215.568C286.593 215.467 286.684 215.094 286.617 215.027C286.411 214.819 286.183 215.123 286.236 214.395C286.24 214.351 286.244 214.304 286.25 214.252C286.255 214.212 286.373 214.339 286.381 214.202C286.435 213.315 286.209 213.209 286.216 212.247C286.221 211.492 286.447 210.166 286.554 209.32C286.914 209.372 286.911 208.567 286.702 208.212C286.777 207.663 286.842 207.069 286.956 206.543C286.995 206.362 287.081 206.498 287.096 206.477C287.326 206.153 287.124 205.878 287.134 205.759C287.257 204.463 287.648 203.467 287.755 202.224C287.759 202.18 287.529 202.052 287.787 201.773C287.805 201.755 287.818 202.18 287.967 201.616C288.115 201.052 288.531 200.033 288.654 199.228C288.683 199.034 288.633 198.499 288.909 198.169C288.946 198.126 288.997 198.203 289.059 198.143C289.258 197.95 289.058 197.741 289.356 197.537C289.655 197.333 290.001 196.824 290.146 196.017C290.151 195.991 290.029 195.74 290.124 195.503C290.276 195.125 290.532 194.604 290.695 194.213C290.773 194.025 290.607 194.096 290.618 194.063C291.091 192.773 291.604 191.93 292.31 190.646C292.439 190.411 292.647 189.645 293.018 189.254C293.426 188.827 293.674 189.633 294.192 188.435C294.403 187.958 294.078 186.971 294.933 186.385C295.844 184.777 297.003 183.511 298.036 181.979C298.082 181.91 298.076 181.568 298.203 181.417C298.39 181.194 298.571 181.136 298.708 180.981C299.288 180.334 299.747 179.678 300.324 179.068C300.543 178.838 300.545 178.991 300.808 178.718C301.072 178.446 301.145 178.166 301.553 177.846C301.862 177.604 302.336 177.531 302.725 177.199C302.544 176.985 302.799 176.741 303.207 176.258C303.286 176.165 303.124 176.182 303.158 176.134C303.294 175.938 303.508 175.851 303.635 175.662C303.666 175.616 303.603 175.543 303.625 175.502C303.809 175.144 304.417 174.896 304.522 174.856C304.921 174.698 304.985 174.481 305.259 174.323C305.533 174.167 305.223 174.518 305.522 174.312C306.143 173.886 306.886 173.276 307.497 172.821C307.74 172.64 307.498 172.662 307.531 172.634C308.015 172.229 308.611 171.969 308.75 171.561C309.485 171.85 309.022 171.287 309.845 170.891C309.911 170.861 310.157 171.07 309.958 171.259C309.759 171.447 309.365 171.598 309.098 171.872C309.034 171.937 308.79 172.469 308.745 172.523C308.388 172.951 308.052 172.624 308.013 172.621C307.585 172.593 307.277 173.222 307.163 173.339C306.632 173.876 306.098 174.225 305.663 174.68C305.379 174.979 305.547 175.237 305.299 175.437C304.481 176.107 303.915 176.047 303.437 177.003C303.336 177.208 303.718 177.299 302.986 177.644C302.94 177.665 302.365 177.895 302.241 178.237C302.225 178.28 302.295 178.347 302.263 178.392C302.045 178.689 301.82 178.81 301.574 179.124C301.327 179.438 301.044 179.826 300.717 180.141C300.519 180.33 300.152 180.474 300.032 180.544C299.691 180.74 299.593 181.18 299.327 181.256C299.059 181.335 299.17 180.833 298.701 181.24C298.881 181.419 299.047 181.623 299.22 181.812C298.371 182.83 297.514 183.822 296.757 184.92C296.663 185.056 296.871 184.996 296.774 185.144C296.367 185.768 295.925 186.256 295.541 186.93C295.246 187.451 295.026 188.086 294.743 188.642C294.3 188.824 293.925 189.684 293.586 190.266C293.467 190.47 293.406 190.42 293.306 190.558C292.929 191.079 293.294 190.932 293.25 191.105C293.067 191.845 292.52 191.644 292.152 192.452C292.131 192.495 292.171 193.142 292.157 193.221C292.066 193.726 292.025 193.252 291.877 193.528C291.608 194.033 291.382 194.37 291.212 195.024C291.163 195.216 291.167 195.721 290.894 196.02C290.858 196.06 290.773 195.998 290.753 196.033C290.403 196.679 290.698 196.809 290.66 197.234C290.622 197.66 290.211 198.191 290.11 198.297C289.847 198.57 290.125 198.026 290.116 198.004C290.004 197.736 289.884 198.191 289.759 198.528C289.444 198.48 289.31 198.969 289.631 198.878C289.666 198.867 289.723 198.592 289.759 198.528C289.954 198.923 289.829 199.451 289.383 199.955C289.175 200.191 289.094 199.888 288.918 200.741C288.84 201.128 289.088 201.037 289.057 201.387C288.986 202.185 288.557 203.135 288.424 203.944C288.376 204.236 288.549 203.978 288.521 204.178C288.447 204.708 288.273 205.156 288.227 205.696C288.223 205.744 288.365 205.648 288.338 205.812C288.144 207.06 287.92 208.143 287.79 209.46C287.725 210.095 287.711 211.241 287.669 211.899C287.615 212.683 287.504 213.581 287.464 214.395C287.445 214.774 287.44 215.131 287.461 215.443C287.503 216.083 287.625 215.938 287.717 216.208C287.896 216.725 287.658 217.673 287.623 217.804C287.621 217.808 287.558 217.258 287.513 217.556C287.391 217.736 287.622 217.798 287.623 217.804C287.596 217.889 287.653 218.989 287.7 219.203C287.723 219.319 287.834 219.242 287.844 219.303C288.088 220.758 288.317 222.198 288.531 223.673C288.533 223.699 288.397 223.684 288.405 223.745C288.505 224.603 288.777 225.114 289.026 225.784C289.276 226.454 289.381 226.999 289.271 227.465C289.434 227.978 289.548 228.744 289.619 229.186C289.689 229.628 289.953 229.611 289.969 229.647C290.489 230.758 290.576 231.459 291.001 232.649C291.201 233.215 291.683 234.298 291.972 234.88C292.198 235.34 292.272 235.645 292.506 236.056C292.537 236.112 292.613 236.005 292.625 236.021C292.971 236.437 292.614 236.328 292.615 236.448C292.623 236.88 292.644 237.147 293.026 237.713C293.115 237.844 293.678 238.062 293.831 238.299C294.03 238.608 293.838 238.554 294.053 238.876C294.071 238.904 294.145 238.855 294.256 239.065C294.775 240.037 295.347 241.094 295.978 242.052C296.064 242.183 296.072 241.939 296.198 242.126C296.788 243.003 297.449 243.956 298.013 244.821C298.152 245.034 297.978 244.966 297.988 245.028C298.051 245.406 298.549 245.632 298.602 245.691C299.862 247.1 300.634 248.349 302.046 249.672C302.123 249.745 302.881 250.129 302.971 250.547C302.977 250.575 303.062 250.999 303.404 251.1C303.425 251.106 303.352 250.863 303.622 251.141C303.892 251.419 304.402 251.783 304.706 252.24C304.802 252.385 304.941 252.833 305.448 253.019C305.483 253.032 306.351 253.204 306.374 253.609C306.377 253.675 306.138 253.891 306.708 254.146C306.817 254.194 306.699 254.008 306.962 254.163C307.365 254.4 307.797 254.845 308.337 255.074C308.432 255.114 308.896 255.192 309.073 255.522C309.101 255.574 308.957 255.6 309.095 255.714C309.752 256.259 310.528 256.704 311.213 257.233C311.457 257.421 311.232 257.48 311.478 257.691C311.724 257.902 312.253 258.28 312.581 258.384C312.909 258.488 312.734 258.069 313.175 258.303C315.095 259.318 316.94 260.425 318.933 261.299C319.229 261.427 319.02 261.235 319.458 261.415C321.069 262.096 323.95 262.968 325.363 263.548C326.499 264.024 324.98 263.75 325.868 264.055C326.298 264.201 326.846 264.008 326.953 264.023C328.005 264.168 328.699 264.454 329.643 264.585C329.838 264.611 329.671 264.45 329.837 264.474C330.401 264.552 330.991 264.705 331.528 264.772C331.771 264.801 331.74 264.698 331.961 264.736C332.491 264.825 332.959 264.922 333.475 265.069C333.522 265.082 333.185 265.169 333.585 265.216C334.225 265.289 335.02 265.446 335.773 265.397C335.996 265.381 336.019 265.16 336.483 265.336C336.58 265.373 336.442 265.638 337.003 265.426C337.099 265.393 338.031 265.105 338.485 265.308C338.556 265.34 338.694 265.432 338.851 265.493C338.958 265.534 339.073 265.561 339.182 265.547C339.218 265.541 339.072 265.422 339.293 265.408C340.072 265.363 340.881 265.35 341.673 265.269C341.885 265.247 341.562 265.141 341.878 265.111C342.748 265.03 343.819 264.969 344.674 264.91C344.988 264.888 344.784 265.015 344.808 265.024C345.196 265.162 345.382 264.89 345.5 264.86C346.238 264.676 346.823 264.704 347.509 264.556C347.698 264.515 347.543 264.423 347.579 264.406C347.952 264.236 347.698 264.495 347.949 264.474C348.655 264.414 349.424 264.248 350.119 264.076C350.373 264.012 350.056 263.945 350.284 263.889C351.629 263.556 353.026 263.185 354.34 262.844C354.588 262.78 354.466 262.929 354.525 262.935C354.928 262.982 355.368 262.591 355.476 262.53C355.976 262.251 356.209 262.265 356.672 262.075C358.92 261.155 361.662 259.939 363.678 258.841C366.302 257.414 368.295 256.185 370.526 254.398C370.667 254.284 370.437 254.289 370.558 254.189C372.111 252.906 373.626 251.617 375.019 250.152C375.133 250.032 374.872 250.109 375.051 249.913C375.418 249.511 375.897 249.017 376.299 248.639C376.495 248.454 376.336 248.797 376.532 248.609C376.988 248.171 377.441 247.667 377.842 247.157C378.013 246.939 377.642 247.171 377.87 246.896C379.421 245.014 380.799 243.062 382.242 241.054C382.341 240.916 382.654 240.932 382.795 240.595C382.743 240.532 382.665 240.487 382.602 240.435C384.383 237.362 385.954 234.195 387.12 230.818C387.168 230.676 386.947 230.875 387.041 230.6C387.579 229.003 387.983 227.423 388.508 225.78C388.559 225.616 388.791 225.759 388.862 225.255C388.875 225.166 388.997 224.412 388.978 224.209C388.974 224.181 388.831 224.294 388.874 224.054C389.125 222.654 389.369 221.19 389.59 219.778C389.625 219.55 389.727 219.808 389.753 219.645C389.939 218.502 389.926 217.219 390.077 216.121C390.177 215.379 390.389 215.66 390.613 215.265C390.645 215.209 390.655 214.741 390.781 214.717C391.098 214.656 391.444 214.888 391.783 214.796C391.856 214.777 391.779 214.135 391.954 214.515C391.966 214.542 392.022 215.008 392.079 215.124C392.119 215.205 392.25 215.062 392.3 215.226C392.35 215.391 392.24 215.569 392.295 215.841C392.349 216.113 392.5 215.999 392.498 216.54ZM289.976 231.177C289.995 231.608 290.439 231.516 290.192 231.132C290.179 231.113 289.975 231.155 289.976 231.177ZM297.26 183.625C296.778 183.943 296.8 184.415 297.146 184.196C297.492 183.98 297.406 183.529 297.26 183.625ZM300.731 179.208C300.186 179.571 300.592 180.071 300.952 179.487C300.973 179.453 300.762 179.187 300.731 179.208ZM390.612 217.118C390.618 217.111 390.64 216.779 390.635 216.771C390.501 216.587 390.457 217.252 390.612 217.118ZM304.626 175.199C304.419 175.264 304.059 175.719 304.314 175.635C304.518 175.567 304.883 175.117 304.626 175.199ZM300.627 249.858C300.627 249.868 300.787 250.049 300.812 250.019C300.889 249.924 300.635 249.702 300.627 249.858ZM312.318 169.616C311.103 170.315 310.096 170.345 311.439 169.574C311.682 169.436 311.014 170.032 311.342 169.886C311.938 169.619 312.14 169.114 312.805 168.935C312.924 168.903 312.386 169.576 312.316 169.618C312.316 169.617 312.317 169.616 312.318 169.616ZM289.545 231.579C289.542 231.589 289.648 231.907 289.656 231.912C289.85 232.035 289.637 231.397 289.545 231.579ZM311.348 259.027C311.357 259.049 312.019 259.464 312.047 259.466C312.513 259.476 311.182 258.641 311.348 259.027ZM286.565 209.307C286.457 208.929 286.489 208.484 286.702 208.214C286.65 208.575 286.609 208.944 286.565 209.307Z" fill="#00D1FF"/>
<path opacity="0.2" d="M373.404 353.107C457.254 330.639 529.244 295.754 577.855 257.534C602.161 238.424 620.601 218.496 631.764 198.889C642.925 179.285 646.795 160.034 642.027 142.239C637.259 124.444 624.282 109.707 604.814 98.31C585.344 86.9115 559.409 78.8733 528.805 74.4763C467.597 65.6825 387.809 71.4658 303.958 93.9334C220.108 116.401 148.117 151.287 99.5062 189.506C75.2003 208.617 56.7595 228.545 45.5968 248.152C34.4356 267.756 30.5667 287.006 35.335 304.802C40.1032 322.597 53.0789 337.334 72.5468 348.731C92.0174 360.129 117.952 368.167 148.556 372.564C209.764 381.358 289.553 375.575 373.404 353.107Z" stroke="#F4F4F9"/>
<path d="M339.332 268C339.332 267.862 339.22 267.75 339.082 267.75C338.944 267.75 338.832 267.862 338.832 268H339.082H339.332ZM339.082 380.453C338.346 380.453 337.749 381.05 337.749 381.786C337.749 382.523 338.346 383.119 339.082 383.119C339.818 383.119 340.415 382.523 340.415 381.786C340.415 381.05 339.818 380.453 339.082 380.453ZM339.082 268H338.832V381.786H339.082H339.332V268H339.082Z" fill="#00D1FF"/>
<defs>
<filter id="filter0_f_524_324" x="125.082" y="0" width="428.478" height="428.478" filterUnits="userSpaceOnUse" color-interpolation-filters="sRGB">
<feFlood flood-opacity="0" result="BackgroundImageFix"/>
<feBlend mode="normal" in="SourceGraphic" in2="BackgroundImageFix" result="shape"/>
<feGaussianBlur stdDeviation="75" result="effect1_foregroundBlur_524_324"/>
</filter>
<filter id="filter2_f_524_324" x="269.561" y="144.791" width="139.207" height="139.208" filterUnits="userSpaceOnUse" color-interpolation-filters="sRGB">
<feFlood flood-opacity="0" result="BackgroundImageFix"/>
<feBlend mode="normal" in="SourceGraphic" in2="BackgroundImageFix" result="shape"/>
<feGaussianBlur stdDeviation="8.7" result="effect1_foregroundBlur_524_324"/>
</filter>
<filter id="filter3_f_524_324" x="254.937" y="141.931" width="166.389" height="157.714" filterUnits="userSpaceOnUse" color-interpolation-filters="sRGB">
<feFlood flood-opacity="0" result="BackgroundImageFix"/>
<feBlend mode="normal" in="SourceGraphic" in2="BackgroundImageFix" result="shape"/>
<feGaussianBlur stdDeviation="14.7" result="effect1_foregroundBlur_524_324"/>
</filter>
<radialGradient id="paint0_radial_524_324" cx="0" cy="0" r="1" gradientUnits="userSpaceOnUse" gradientTransform="translate(339.321 214.239) rotate(90) scale(59.3954 61.0396)">
<stop stop-color="#00D1FF"/>
<stop offset="0.985577" stop-color="#6339F0" stop-opacity="0.2"/>
</radialGradient>
<linearGradient id="paint1_linear_524_324" x1="339.165" y1="162.191" x2="386.68" y2="193.92" gradientUnits="userSpaceOnUse">
<stop stop-color="#00D1FF"/>
<stop offset="1" stop-color="#0B0B0C"/>
</linearGradient>
</defs>
</svg>
