<svg xmlns="http://www.w3.org/2000/svg" width="678" height="435" fill="none" viewBox="0 0 678 435"><g filter="url(#a)"><circle cx="339.321" cy="214.239" r="64.239" fill="url(#b)"/></g><circle cx="339.165" cy="214.395" r="52.204" fill="url(#c)" fill-opacity=".2"/><g filter="url(#d)"><circle cx="339.165" cy="214.395" r="51.204" stroke="#00d1ff" stroke-width="2"/></g><g filter="url(#e)"><path fill="#6339f0" d="M391.924 219.08c.019 1.285-.182 2.961-.429 4.222-.077.394-.184.177-.245.447-.118.528-.123 1.032-.265 1.548-.048.171-.222-.078-.267.102-.25.985-.371 1.924-.629 2.915-1.275 4.863-3.055 9.485-5.523 13.89-.812 1.457-2.015 3.087-2.906 4.55-.104.171.116.175.107.216-.146.627-.341.252-.604.544-1.045 1.158-2.101 2.501-3.004 3.684-.385.503.305.256-.266.608-.04.025-.083-.224-.212-.107-.291.268-.76.848-.977 1.061-.419.412-.484.484-.867.885-.527.546-1.23 1.115-1.787 1.708-.118.127.187.113.009.329-.177.217-.73.705-.946.835-.215.131-.243-.057-.299-.055-.468.014-.827.885-.906.964-1.403 1.43-2.914 2.281-4.446 3.34-1.164.805-2.408 1.682-3.584 2.345-1.404.791-2.661 1.321-4.064 2.001-.148.071.126.203-.055.291-1.936.928-3.939 1.686-6.015 2.192-.208.05-.01-.231-.222-.193-1.293.247-3.358.375-3.903 1.421-.869.171-1.934.354-2.742.315-.521-.025-.074-.333-.671-.131-.135.044.079.209-.127.261-.873.219-1.835.288-2.703.49-.176.041-.108.211-.156.249-.403.305-1.152-.054-1.308-.072-1.193-.132-2.048.005-3.142.031-.255.006.053.236-.193.249q-.637.032-1.288.03a20 20 0 0 1-2.56-.167c-.274-.037-.011-.227-.141-.256-.578-.124-.731.249-1.286.127-.116-.026-.037-.194-.057-.214-.311-.324-.635.073-.723.075-1.1.027-1.755-.495-2.8-.579-.126-.01.124.248-.228.206a30.9 30.9 0 0 1-7.01-1.705c-.341-.128-.045-.214-.062-.239-.265-.409-.616-.072-.734-.092-.932-.167-1.639-.786-2.406-.525-3.667-1.506-7.38-3.029-10.446-5.535-.039-.032.149-.16.071-.221-.934-.749-.917-.352-1.802-.473-.224-.032-.445-.777-.466-.837-.083-.219.263-.354.224-.413-.318-.474-.855.413-1.446-.028-.017-.015.174-.109.136-.161-.117-.162-.314-.217-.422-.382-.248-.382-.056-.866-.743-1.043-.088-.023-.358.514-.848.076-.197-.173-1.086-.917-1.302-1.162-.218-.243.074-.237.062-.258-.482-.764-.167-.622-.237-1.185-.066-.56-.574.163-.77.113-.198-.05-.517-.638-.577-.798-.062-.159.16-.11.09-.235-.466-.829-.592.027-.906-.088-.742-.278-.665-1.136-1.06-1.654-.107-.142-.118.065-.235-.042-.462-.424-.561-.837-1.166-1.251-.098-.067-.772-.254-.79-.726-.002-.067.218-.055.077-.283-.212-.34-.63-.919-.933-1.223-.224-.224-.215.225-.392-.141-.078-.163.245.002.089-.295-.156-.296-.66-.966-.849-1.224-.19-.257-.253.003-.279-.01-.155-.082-.589-.532-.619-.578-1.581-2.26-2.557-4.622-3.823-6.965-.099-.185-.231.033-.248.006-.391-.61.364-.344.324-.874-.361.249-.417-.05-.668-.491-.121-.212-.219-.023-.244-.036-.381-.227-.18-.592-.144-.678.132-.317-.238-.442-.148-.656.09-.212.456.037.27-.405-.194-.066-.433.42-.633.105-.773-1.192-1.327-3.764-1.598-4.841-.283-1.076-.399-1.42-.508-2.062-.183-1.157-.372-.67-.671-1.352-.293-.688.508-.496.64-.632.134-.134-.049-.209.011-.351.059-.142.221.104.193-.193-.029-.295-.458-1.035-.639-1.112-.386-.158-.688.273-.695-.538 0-.046.216.068.206-.108-.082-1.396-.252-2.829-.237-4.214.002-.191.232-.04.236-.151.049-1.152-.282-.715-.726-1.326.548.111.85-.259.821-1.118-.016-.519-.248-.423-.422-.758-.053-.101.103-.475-.008-.541-.343-.206-.723.1-.632-.632q.008-.066.022-.144c.008-.04.206.088.218-.05.086-.889-.292-.998-.303-1.967-.009-.761.31-2.088.432-2.936.601.075.543-.734.168-1.11.082-.551.138-1.148.276-1.673.047-.18.202-.033.224-.053.348-.306-.015-.606-.011-.728.062-1.311.575-2.284.565-3.558 0-.045-.394-.213-.015-.465.025-.015.113.429.268-.135.155-.566.658-1.562.707-2.391.01-.2-.169-.778.209-1.076.051-.04.148.053.236.001.28-.167-.082-.43.354-.588s.883-.628.934-1.468c.002-.026-.246-.325-.149-.561.155-.378.437-.888.599-1.279.078-.188-.165-.15-.155-.184.43-1.311 1.012-2.126 1.747-3.395.135-.232.242-1.053.693-1.401.495-.379 1.103.626 1.531-.612.173-.491-.596-1.752.488-2.195.854-1.643 2.124-2.825 3.079-4.414.043-.071-.077-.504.052-.654.19-.221.423-.236.564-.388.596-.635 1.011-1.329 1.595-1.933.222-.229.276-.028.541-.298.266-.269.273-.613.713-.903.334-.218.941-.156 1.344-.47-.312-.348-.054-.589.32-1.108.072-.1-.134-.131-.105-.184.113-.221.364-.268.466-.485.025-.052-.08-.172-.065-.222.121-.429.827-.571.948-.592.462-.087.472-.367.771-.496.298-.128.017.259.331.071.65-.39 1.385-1.006 1.997-1.458.243-.181-.05-.227-.018-.256.472-.423 1.119-.608 1.161-1.156.987.649.247-.308 1.122-.633.07-.024.431.358.249.571-.181.213-.611.31-.849.622-.058.074-.187.762-.224.826-.298.5-.818-.078-.867-.095-.537-.176-.718.621-.823.748-.487.587-1.046.899-1.448 1.39-.262.32.038.732-.212.926-.822.646-1.579.377-1.884 1.506-.063.243.471.495-.375.708-.053.012-.738.126-.788.537-.006.052.11.165.082.213-.19.318-.45.401-.676.729-.225.328-.477.736-.817 1.032-.204.178-.66.24-.801.29-.403.138-.394.665-.737.673-.347.012-.356-.591-.876-.227.309.286.609.6.913.896-.844 1.002-1.736 1.95-2.479 3.041-.091.135.189.128.097.276-.391.625-.882 1.07-1.239 1.751-.275.526-.408 1.204-.666 1.763-.606.081-.92.964-1.27 1.53-.123.199-.229.126-.344.254-.428.487.086.42.067.603-.077.783-.967.409-1.324 1.216-.021.044.207.772.206.855-.013.533-.197 0-.358.267-.292.488-.561.803-.673 1.474-.032.197.094.743-.27 1.003-.048.034-.197-.052-.22-.018-.41.616.085.82.117 1.264.032.443-.516.919-.657 1.01-.366.235-.03-.283-.049-.309-.234-.306-.331.152-.466.483-.513-.112-.635.378-.137.344.054-.005.092-.284.137-.344.391.456.294.982-.334 1.426-.294.209-.476-.121-.614.738-.061.389.326.336.334.693.018.812-.539 1.72-.65 2.528-.04.29.21.05.189.25-.051.527-.282.96-.298 1.499-.001.049.222-.032.197.13-.182 1.233-.457 2.295-.587 3.597-.064.628-.032 1.763-.083 2.413-.064.773-.234 1.659-.301 2.465a6 6 0 0 0-.013 1.037c.061.633.265.487.414.752.287.505-.147 1.449-.212 1.582-.003.004-.084-.539-.172-.241-.21.183.171.235.172.241-.046.085-.009 1.175.053 1.385.033.115.221.031.234.091.312 1.43.557 2.844.732 4.305 0 .026-.221.027-.217.088.06.855.436 1.34.744 1.985.31.647.392 1.185.136 1.685.179.501.227 1.276.258 1.726.03.449.456.381.475.415.617 1.063.608 1.784 1.014 2.964.19.562.689 1.621.991 2.187.238.447.273.766.527 1.16.035.053.179-.085.194-.07.425.369-.099.344-.128.476-.102.48-.14.773.29 1.308.099.124.896.215 1.061.439.213.295-.062.288.171.594.019.026.145-.051.252.157.5.961 1.034 2.02 1.66 2.96.085.129.173-.164.299.019.589.855 1.235 1.793 1.754 2.67.127.217-.098.19-.104.262-.033.446.597.563.651.618 1.304 1.333 1.944 2.665 3.39 3.917.08.07.957.314.932.84-.002.035-.033.57.382.589.026 0 .013-.299.272-.02.261.279.8.595 1.037 1.114.074.164.102.729.689.814.04.007 1.085-.051.975.504-.018.09-.391.47.242.635.121.031.035-.189.313-.06.425.197.815.681 1.403.828.104.027.646-.015.754.398.017.065-.167.149-.036.268.624.567 1.414.965 2.061 1.528.23.199-.054.355.172.589.226.235.734.634 1.085.692s.273-.516.714-.298c1.917.94 3.676 2.123 5.632 2.998.29.129.111-.122.541.054 1.586.664 4.429 1.46 5.78 2.166 1.089.578-.431.391.434.736.421.166 1.013-.234 1.119-.226 1.051.076 1.714.451 2.649.551.193.02.045-.224.208-.206.557.063 1.13.251 1.66.31.239.025.217-.143.434-.1.519.098.974.222 1.475.429.046.019-.294.187.099.236.63.077 1.41.293 2.156.181.221-.034.252-.405.703-.126.095.058-.049.502.511.136.096-.06 1.016-.556 1.461-.219.07.053.205.205.36.307.105.069.219.115.326.091.035-.01-.109-.209.109-.23.766-.072 1.563-.075 2.341-.181.208-.029-.114-.218.196-.255.853-.101 1.905-.139 2.748-.171.309-.011.117.184.142.2.396.26.559-.176.674-.215.717-.239 1.303-.133 1.974-.299.185-.046.019-.216.053-.239.354-.235.129.161.379.156.702-.015 1.458-.184 2.138-.364.25-.066-.083-.223.141-.28 1.316-.342 2.687-.697 3.993-.984.246-.054.149.161.211.183.433.155.817-.378.919-.452.468-.338.718-.265 1.169-.463 2.187-.958 4.894-2.113 6.889-3.17 2.595-1.373 4.596-2.527 6.783-4.301.139-.113-.147-.183-.03-.283 1.512-1.278 3.026-2.517 4.375-3.976.11-.12-.211-.108-.039-.304.35-.404.822-.885 1.238-1.236.203-.172.104.217.306.04.47-.411.921-.903 1.304-1.414.163-.217-.272-.049-.049-.32 1.515-1.854 2.851-3.773 4.372-5.684.103-.131.572-.017.68-.369-.095-.088-.225-.164-.335-.243 1.724-3.035 3.327-6.118 4.483-9.438.049-.14-.263.024-.171-.247.53-1.568.9-3.123 1.512-4.716.06-.158.459.021.502-.482.009-.089.106-.838.05-1.045-.009-.028-.23.067-.19-.17a193 193 0 0 1 .76-4.198c.043-.224.229.039.262-.121.229-1.124.151-2.394.378-3.475.152-.732.51-.45.879-.84.053-.056.066-.521.275-.544.529-.06 1.106.174 1.67.084.122-.019-.007-.668.285-.283.02.026.115.498.212.616.067.082.283-.061.369.106.085.168-.097.347-.001.624.097.277.345.164.353.716m-103.169 14.481c-.059.455.667.263.354-.093-.016-.017-.352.069-.354.093m7.195-47.249c-.587.239-.407.823.02.666.426-.154.157-.737-.02-.666m3.378-4.455c-.62.291.102 1.074.394.437.017-.037-.358-.454-.394-.437m89.473 37.749c.011-.007.036-.337.027-.346-.229-.186-.28.474-.027.346m-85.663-41.822c-.245.023-.561.527-.258.496.242-.025.561-.523.258-.496m-4.043 74.546c-.003.013.154.197.197.15.137-.151-.133-.357-.197-.15m11.715-80.121c-1.217.683-2.418.42-1.048-.321.248-.132-.367.555-.023.434.627-.217.718-.912 1.444-.991.129-.013-.304.841-.374.881zm-22.826 61.87c-.007.012.096.33.108.335.283.09.078-.549-.108-.335m21.727 27.571c.004.029.663.452.696.447.545-.123-.777-.972-.696-.447m-24.924-49.863c-.203-.388-.183-.839.15-1.096-.059.362-.101.732-.15 1.096"/></g><path fill="#00d1ff" d="M392.498 216.54c-.007 1.261-.177 2.908-.384 4.151-.064.389-.119.181-.169.448-.096.523-.126 1.014-.243 1.526-.039.17-.13-.063-.169.115-.211.977-.35 1.9-.588 2.882-1.175 4.815-2.905 9.399-5.314 13.775-.792 1.446-1.921 3.1-2.83 4.531-.106.168.051.132.038.168-.219.569-.293.28-.537.581-.973 1.19-2.017 2.529-2.933 3.683-.391.491.183.154-.321.555-.035.028-.02-.169-.142-.047-.275.277-.75.843-.961 1.059-.406.417-.471.488-.851.886-.521.543-1.192 1.135-1.757 1.711-.12.123.128.053-.057.257a9 9 0 0 1-.929.836c-.202.143-.187.003-.234.016-.386.103-.852.844-.932.918-1.435 1.364-2.875 2.281-4.396 3.333-1.156.799-2.406 1.642-3.569 2.303-1.389.789-2.618 1.353-4.013 2.021-.148.07.086.118-.095.203-1.922.91-3.9 1.669-5.939 2.23-.205.056.017-.146-.19-.097-1.262.309-3.285.594-3.908 1.289-.859.183-1.911.378-2.7.41-.509.02-.05-.199-.65-.036-.136.036.063.123-.142.168-.872.189-1.824.284-2.69.443-.176.033-.116.133-.164.158-.41.202-1.136.012-1.29.006-1.177-.04-2.03.061-3.116.089-.253.006.05.141-.194.151q-.632.025-1.278.024a27 27 0 0 1-2.539-.124c-.273-.028-.016-.137-.146-.156-.576-.087-.719.134-1.272.045-.116-.019-.042-.118-.063-.131-.319-.204-.627.024-.714.022-1.087-.022-1.757-.368-2.795-.476-.124-.014.137.157-.213.112a36.7 36.7 0 0 1-6.981-1.628c-.342-.117-.066-.139-.085-.157-.3-.287-.601-.113-.717-.138-.913-.209-1.663-.693-2.359-.621-3.67-1.433-7.303-3.042-10.447-5.383-.04-.03.102-.088.022-.146-.957-.707-.87-.42-1.659-.67-.2-.063-.529-.649-.559-.697-.113-.177.16-.211.116-.262-.365-.41-.659.144-1.246-.294-.017-.014.128-.048.086-.094-.131-.142-.308-.22-.432-.365-.282-.332-.215-.659-.829-.927-.078-.034-.201.32-.695-.107-.199-.168-1.08-.909-1.304-1.142-.226-.231.014-.169 0-.188-.545-.687-.259-.515-.428-.968-.166-.454-.436.012-.605-.065-.17-.078-.544-.605-.625-.744s.108-.056.026-.169c-.54-.753-.469-.096-.743-.25-.646-.368-.752-1.042-1.166-1.543-.112-.136-.08.03-.193-.08-.445-.438-.603-.796-1.151-1.257-.089-.075-.642-.36-.746-.757-.015-.057.155-.004.003-.222a16 16 0 0 0-.942-1.211c-.211-.234-.118.149-.32-.195-.089-.154.183.049.01-.234-.174-.282-.674-.953-.862-1.212-.187-.257-.185-.045-.207-.061-.129-.099-.529-.57-.559-.615-1.564-2.252-2.654-4.54-3.877-6.897-.096-.186-.151-.005-.167-.033-.357-.622.193-.26.084-.758-.205.175-.288-.11-.521-.556-.113-.216-.15-.054-.169-.07-.287-.267-.206-.578-.194-.653.041-.277-.221-.448-.192-.635s.306.099.121-.343c-.137-.09-.226.334-.402.01-.678-1.222-1.347-3.738-1.63-4.809-.295-1.069-.399-1.414-.529-2.049-.222-1.144-.294-.687-.538-1.378-.239-.696.272-.443.343-.565.071-.12-.048-.209-.023-.344s.145.12.104-.175c-.042-.293-.36-1.057-.476-1.145-.247-.183-.403.221-.461-.576-.003-.046.136.081.119-.094-.14-1.382-.315-2.812-.352-4.19-.005-.19.138-.032.137-.142-.006-1.149-.191-.724-.474-1.342.333.124.504-.239.473-1.101-.017-.52-.154-.427-.262-.763-.033-.101.058-.474-.009-.541-.206-.208-.434.096-.381-.632l.014-.143c.005-.04.123.087.131-.05.054-.887-.172-.993-.165-1.955.005-.755.231-2.081.338-2.927.36.052.357-.753.148-1.108.075-.549.14-1.143.254-1.669.039-.181.125-.045.14-.066.23-.324.028-.599.038-.718.123-1.296.514-2.292.621-3.535.004-.044-.226-.172.032-.451.018-.018.031.407.18-.157.148-.564.564-1.583.687-2.388.029-.194-.021-.729.255-1.059.037-.043.088.034.15-.026.199-.193-.001-.402.297-.606.299-.204.645-.713.79-1.52.005-.026-.117-.277-.022-.514.152-.378.408-.899.571-1.29.078-.188-.088-.117-.077-.15.473-1.29.986-2.133 1.692-3.417.129-.235.337-1.001.708-1.392.408-.427.656.379 1.174-.819.211-.477-.114-1.464.741-2.05.911-1.608 2.07-2.874 3.103-4.406.046-.069.04-.411.167-.562.187-.223.368-.281.505-.436.58-.647 1.039-1.303 1.616-1.913.219-.23.221-.077.484-.35.264-.272.337-.552.745-.872.309-.242.783-.315 1.172-.647-.181-.214.074-.458.482-.941.079-.093-.083-.076-.049-.124.136-.196.35-.283.477-.472.031-.046-.032-.119-.01-.16.184-.358.792-.606.897-.646.399-.158.463-.375.737-.533.274-.156-.036.195.263-.011.621-.426 1.364-1.036 1.975-1.491.243-.181.001-.159.034-.187.484-.405 1.08-.665 1.219-1.073.735.289.272-.274 1.095-.67.066-.03.312.179.113.368-.199.188-.593.339-.86.613-.064.065-.308.597-.353.651-.357.428-.693.101-.732.098-.428-.028-.736.601-.85.718-.531.537-1.065.886-1.5 1.341-.284.299-.116.557-.364.757-.818.67-1.384.61-1.862 1.566-.101.205.281.296-.451.641-.046.021-.621.251-.745.593-.016.043.054.11.022.155-.218.297-.443.418-.689.732-.247.314-.53.702-.857 1.017-.198.189-.565.333-.685.403-.341.196-.439.636-.705.712-.268.079-.157-.423-.626-.016.18.179.346.383.519.572-.849 1.018-1.706 2.01-2.463 3.108-.094.136.114.076.017.224-.407.624-.849 1.112-1.233 1.786-.295.521-.515 1.156-.798 1.712-.443.182-.818 1.042-1.157 1.624-.119.204-.18.154-.28.292-.377.521-.012.374-.056.547-.183.74-.73.539-1.098 1.347-.021.043.019.69.005.769-.091.505-.132.031-.28.307-.269.505-.495.842-.665 1.496-.049.192-.045.697-.318.996-.036.04-.121-.022-.141.013-.35.646-.055.776-.093 1.201s-.449.957-.55 1.063c-.263.273.015-.271.006-.293-.112-.268-.232.187-.357.524-.315-.048-.449.441-.128.35.035-.011.092-.286.128-.35.195.395.07.923-.376 1.427-.208.236-.289-.067-.465.786-.078.387.17.296.139.646-.071.798-.5 1.748-.633 2.557-.048.292.125.034.097.234-.074.53-.248.978-.294 1.518-.004.048.138-.048.111.116-.194 1.248-.418 2.331-.548 3.648-.065.635-.079 1.781-.121 2.439-.054.784-.165 1.682-.205 2.496a9 9 0 0 0-.003 1.048c.042.64.164.495.256.765.179.517-.059 1.465-.094 1.596-.002.004-.065-.546-.11-.248-.122.18.109.242.11.248-.027.085.03 1.185.077 1.399.023.116.134.039.144.1.244 1.455.473 2.895.687 4.37.002.026-.134.011-.126.072.1.858.372 1.369.621 2.039.25.67.355 1.215.245 1.681.163.513.277 1.279.348 1.721s.334.425.35.461c.52 1.111.607 1.812 1.032 3.002.2.566.682 1.649.971 2.231.226.46.3.765.534 1.176.031.056.107-.051.119-.035.346.416-.011.307-.01.427.008.432.029.699.411 1.265.089.131.652.349.805.586.199.309.007.255.222.577.018.028.092-.021.203.189.519.972 1.091 2.029 1.722 2.987.086.131.094-.113.22.074.59.877 1.251 1.83 1.815 2.695.139.213-.035.145-.025.207.063.378.561.604.614.663 1.26 1.409 2.032 2.658 3.444 3.981.077.073.835.457.925.875.006.028.091.452.433.553.021.006-.052-.237.218.041s.78.642 1.084 1.099c.096.145.235.593.742.779.035.013.903.185.926.59.003.066-.236.282.334.537.109.048-.009-.138.254.017.403.237.835.682 1.375.911.095.04.559.118.736.448.028.052-.116.078.022.192.657.545 1.433.99 2.118 1.519.244.188.019.247.265.458s.775.589 1.103.693.153-.315.594-.081c1.92 1.015 3.765 2.122 5.758 2.996.296.128.087-.064.525.116 1.611.681 4.492 1.553 5.905 2.133 1.136.476-.383.202.505.507.43.146.978-.047 1.085-.032 1.052.145 1.746.431 2.69.562.195.026.028-.135.194-.111.564.078 1.154.231 1.691.298.243.029.212-.074.433-.036.53.089.998.186 1.514.333.047.013-.29.1.11.147.64.073 1.435.23 2.188.181.223-.016.246-.237.71-.061.097.037-.041.302.52.09.096-.033 1.028-.321 1.482-.118.071.032.209.124.366.185a.7.7 0 0 0 .331.054c.036-.006-.11-.125.111-.139.779-.045 1.588-.058 2.38-.139.212-.022-.111-.128.205-.158.87-.081 1.941-.142 2.796-.201.314-.022.11.105.134.114.388.138.574-.134.692-.164.738-.184 1.323-.156 2.009-.304.189-.041.034-.133.07-.15.373-.17.119.089.37.068.706-.06 1.475-.226 2.17-.398.254-.064-.063-.131.165-.187 1.345-.333 2.742-.704 4.056-1.045.248-.064.126.085.185.091.403.047.843-.344.951-.405.5-.279.733-.265 1.196-.455 2.248-.92 4.99-2.136 7.006-3.234 2.624-1.427 4.617-2.656 6.848-4.443.141-.114-.089-.109.032-.209 1.553-1.283 3.068-2.572 4.461-4.037.114-.12-.147-.043.032-.239.367-.402.846-.896 1.248-1.274.196-.185.037.158.233-.03.456-.438.909-.942 1.31-1.452.171-.218-.2.014.028-.261 1.551-1.882 2.929-3.834 4.372-5.842.099-.138.412-.122.553-.459-.052-.063-.13-.108-.193-.16 1.781-3.073 3.352-6.24 4.518-9.617.048-.142-.173.057-.079-.218.538-1.597.942-3.177 1.467-4.82.051-.164.283-.021.354-.525.013-.089.135-.843.116-1.046-.004-.028-.147.085-.104-.155.251-1.4.495-2.864.716-4.276.035-.228.137.03.163-.133.186-1.143.173-2.426.324-3.524.1-.742.312-.461.536-.856.032-.056.042-.524.168-.548.317-.061.663.171 1.002.079.073-.019-.004-.661.171-.281.012.027.068.493.125.609.04.081.171-.062.221.102.05.165-.06.343-.005.615.054.272.205.158.203.699m-102.522 14.637c.019.431.463.339.216-.045-.013-.019-.217.023-.216.045m7.284-47.552c-.482.318-.46.79-.114.571.346-.216.26-.667.114-.571m3.471-4.417c-.545.363-.139.863.221.279.021-.034-.19-.3-.221-.279m89.881 37.91c.006-.007.028-.339.023-.347-.134-.184-.178.481-.023.347m-85.986-41.919c-.207.065-.567.52-.312.436.204-.068.569-.518.312-.436m-3.999 74.659c0 .01.16.191.185.161.077-.095-.177-.317-.185-.161m11.691-80.242c-1.215.699-2.222.729-.879-.042.243-.138-.425.458-.097.312.596-.267.798-.772 1.463-.951.119-.032-.419.641-.489.683zm-22.773 61.963c-.003.01.103.328.111.333.194.123-.019-.515-.111-.333m21.803 27.448c.009.022.671.437.699.439.466.01-.865-.825-.699-.439m-24.783-49.72c-.108-.378-.076-.823.137-1.093-.052.361-.093.73-.137 1.093"/><path stroke="#f4f4f9" d="M373.404 353.107c83.85-22.468 155.84-57.353 204.451-95.573 24.306-19.11 42.746-39.038 53.909-58.645 11.161-19.604 15.031-38.855 10.263-56.65s-17.745-32.532-37.213-43.929c-19.47-11.398-45.405-19.437-76.009-23.834-61.208-8.793-140.996-3.01-224.847 19.457-83.85 22.468-155.841 57.354-204.452 95.573-24.306 19.111-42.746 39.039-53.91 58.646-11.16 19.604-15.03 38.854-10.261 56.65 4.768 17.795 17.744 32.532 37.212 43.929 19.47 11.398 45.405 19.436 76.009 23.833 61.208 8.794 140.997 3.011 224.848-19.457Z" opacity=".2"/><path fill="#00d1ff" d="M339.332 268a.25.25 0 0 0-.5 0h.5m-.25 112.453a1.333 1.333 0 1 0 0 2.667 1.333 1.333 0 0 0 0-2.667m0-112.453h-.25v113.786h.5V268z"/><defs><filter id="a" width="428.478" height="428.478" x="125.082" y="0" color-interpolation-filters="sRGB" filterUnits="userSpaceOnUse"><feFlood flood-opacity="0" result="BackgroundImageFix"/><feBlend in="SourceGraphic" in2="BackgroundImageFix" result="shape"/><feGaussianBlur result="effect1_foregroundBlur_524_324" stdDeviation="75"/></filter><filter id="d" width="139.207" height="139.208" x="269.561" y="144.791" color-interpolation-filters="sRGB" filterUnits="userSpaceOnUse"><feFlood flood-opacity="0" result="BackgroundImageFix"/><feBlend in="SourceGraphic" in2="BackgroundImageFix" result="shape"/><feGaussianBlur result="effect1_foregroundBlur_524_324" stdDeviation="8.7"/></filter><filter id="e" width="166.389" height="157.714" x="254.937" y="141.931" color-interpolation-filters="sRGB" filterUnits="userSpaceOnUse"><feFlood flood-opacity="0" result="BackgroundImageFix"/><feBlend in="SourceGraphic" in2="BackgroundImageFix" result="shape"/><feGaussianBlur result="effect1_foregroundBlur_524_324" stdDeviation="14.7"/></filter><radialGradient id="b" cx="0" cy="0" r="1" gradientTransform="matrix(0 59.3954 -61.0396 0 339.321 214.239)" gradientUnits="userSpaceOnUse"><stop stop-color="#00d1ff"/><stop offset=".986" stop-color="#6339f0" stop-opacity=".2"/></radialGradient><linearGradient id="c" x1="339.165" x2="386.68" y1="162.191" y2="193.92" gradientUnits="userSpaceOnUse"><stop stop-color="#00d1ff"/><stop offset="1" stop-color="#0b0b0c"/></linearGradient></defs></svg>