<svg xmlns="http://www.w3.org/2000/svg" width="485" height="522" fill="none"><g filter="url(#a)"><path stroke="#00d1ff" stroke-width="2" d="M82.364 289.766c18.563 52.078 68.308 89.359 126.764 89.359 23.211 0 45.051-5.88 64.111-16.23-.119 60.297-49.035 109.141-109.36 109.141-60.4 0-109.363-48.963-109.364-109.362 0-28.011 10.53-53.559 27.849-72.908Zm126.764-177.719c8.402 0 16.621.782 24.588 2.276a131.7 131.7 0 0 1 44.146 16.916c38.255 23.249 63.805 65.315 63.805 113.347 0 33.82-12.667 64.68-33.516 88.098l-.006.006a133.1 133.1 0 0 1-33.19 26.957l-1.211.687c-19.116 10.694-41.153 16.791-64.616 16.791-57.715 0-106.816-36.89-125.005-88.38l-.424-1.22-.426-1.264c-4.337-13.104-6.684-27.114-6.684-41.675q0-.685.007-1.368c.733-72.569 59.789-131.171 132.532-131.171ZM128.562 37c48.416 0 89.484 31.462 103.873 75.059a135.3 135.3 0 0 0-23.307-2.012c-73.279 0-132.875 58.585-134.505 131.473-33.1-18.803-55.423-54.374-55.423-95.158C19.2 85.963 68.163 37 128.562 37Zm215.105 207.586c0-48.155-25.301-90.399-63.328-114.168 15.815-8.887 34.063-13.957 53.499-13.957 60.399 0 109.362 48.964 109.362 109.363s-48.963 109.362-109.362 109.363c-7.919 0-15.641-.844-23.08-2.442 20.498-23.611 32.909-54.436 32.909-88.159Z"/></g><circle cx="128.563" cy="146.363" r="109.863" stroke="#00d1ff"/><circle cx="333.837" cy="225.824" r="109.863" stroke="#00d1ff"/><circle cx="163.879" cy="362.674" r="109.863" stroke="#00d1ff"/><circle cx="209.128" cy="244.586" r="133.039" stroke="#00d1ff"/><path stroke="#00d1ff" stroke-width=".5" d="M161.668 369.296s-29.182-5.703-41.621-27.036m41.621 27.036s-3.165-.924-7.722-2.76m7.722 2.76q2.775.682 5.522 1.27m136.846-218.685c-9.933-9.933-154.508 108.155-180.995 174.373-.761 1.901-1.247 3.741-1.492 5.518m182.487-179.891c-22.074-44.145-205.405 152.301-184.307 189.824q.157.279.318.555m183.989-190.379-15.452-14.347m15.452 14.347c-7.722 45.249-155.992 180.866-175.473 180.995-3.949.026-6.148 0-7.014-1.104m182.487-179.891c-30.298 77.328-149.593 202.889-172.162 195.342-4.51-1.508-8.425-4.415-9.877-7.725m182.039-187.617c-15.846 66.221-117.78 202.127-162.23 204.171-3.528.162-8.093-1.484-9.932-2.227m172.162-201.944c-5.246 60.424-73.94 177.684-132.432 204.171-10.035 4.544-21.337 6.124-27.591 5.875m160.023-210.046c0 61.803-46.349 166.648-102.634 197.549-17.268 9.481-38.627 17.29-47.456 17.106m150.09-214.655c9.936 99.326-57.385 210.046-136.846 218.685m136.846-218.685c19.869 100.43-30.898 203.257-122.499 221.152m122.499-221.152c31.782 83.876-19.862 206.378-104.841 222.473m104.841-222.473c49.667 89.394 16.935 212.255-88.287 221.888m88.287-221.888c31.782 83.876 7.729 187.617-88.287 221.888m88.287-221.888c40.976 105.724 5.522 199.756-88.287 221.888m88.287-221.888c58.496 83.876 29.801 211.077-88.287 221.888m72.835-236.235s-6.792-4.524-11.037-3.311c-46.352 13.243-183.202 168.855-157.5 208.037m168.537-204.726-16.555-11.036M120.047 342.26c-31.425-46.715 113.356-230.11 151.982-215.762m0 0c-2.756-1.282-5.709-2.088-8.828-2.445m0 0c-50.589-5.804-146.781 111.704-148.989 213.237-5.396-98.22 62.042-217.482 143.472-213.682m5.517.445a81 81 0 0 0-5.517-.445m0 0c-84.638-9.522-154.507 80.143-146.783 208.164m-.125-2.207c-21.658-103.702 39.856-210.707 129.251-210.707m17.657 2.121a112.4 112.4 0 0 0-17.657-2.121m0 0a93 93 0 0 0-19.866-1.149M107.59 326.254c-27.13-129.621 50.769-199.756 112.571-208.545m0 0c-3.42-.306-7.528-.171-12.139.447M104.28 322.943c-38.114-144.436 57.776-198.624 103.742-204.787m0 0q-4.91.287-9.617.929m0 0C104.209 131.913 71.03 249.07 99.867 317.425c-49.662-136.85 56.286-199.716 98.538-198.34Zm-76.856 212.687a19.6 19.6 0 0 0 .448 7.726m0 0c1.447 5.54 5.211 10.319 9.877 14.327m0 0c3.713 3.191 7.998 5.893 12.139 8.102m0 0a104 104 0 0 0 9.933 4.609m13.244 4.03a177 177 0 0 0 14.347 2.467m0 0c6.01.777 11.899 1.21 17.658 1.321m0 0c5.647.109 11.168-.092 16.554-.585" opacity=".5"/><circle cx="124.148" cy="139.741" r="6.622" fill="#f4f4f9"/><circle cx="342.666" cy="225.824" r="6.622" fill="#f4f4f9"/><circle cx="163.879" cy="369.296" r="6.622" fill="#f4f4f9"/><path fill="#00d1ff" d="m29.962 69.019-1.79-1.027 2.605-3.83q1.04-1.527 1.136-3.072a5.07 5.07 0 0 0-.72-2.897q-.783-1.36-2.386-2.279-1.582-.907-3.256-.957a6.35 6.35 0 0 0-3.144.706q-1.47.758-2.496 2.265l-2.593 3.81-1.79-1.028 2.62-3.849a9.2 9.2 0 0 1 2.431-2.467 8.8 8.8 0 0 1 3.032-1.35 8.7 8.7 0 0 1 3.29-.155 8.7 8.7 0 0 1 3.237 1.113q1.54.884 2.508 2.183a7.2 7.2 0 0 1 1.304 2.763q.345 1.494.007 3.094-.323 1.58-1.335 3.068zm-.838 1.23L14.677 61.96l1.27-1.865 14.447 8.289zM51.52 49.28a6.56 6.56 0 0 1-2.826 1.564 6.66 6.66 0 0 1-3.165.022q-1.574-.37-2.831-1.52-1.24-1.134-1.667-2.562a5.1 5.1 0 0 1-.005-2.856q.404-1.446 1.621-2.568 1.165-1.074 2.578-1.401a5.6 5.6 0 0 1 2.864.06q1.45.386 2.637 1.471.177.162.372.373.178.195.39.486l-7.076 6.523-1.328-1.215 6.229-5.742-.069 1.007q-.85-.778-1.734-1.036a3.3 3.3 0 0 0-1.768-.061q-.885.196-1.66.912-.812.748-1.076 1.641a2.9 2.9 0 0 0 .04 1.786q.3.891 1.17 1.685.885.81 1.91 1.1 1.009.274 2.034.013 1.007-.278 1.854-1.059.705-.65 1.04-1.414.352-.78.28-1.624l2.068.013q.11 1.2-.402 2.354a6.04 6.04 0 0 1-1.48 2.048M72.115 37.111q-.831.481-1.715.716a7.2 7.2 0 0 1-1.757.188 6.3 6.3 0 0 1-1.719-.305l.417-1.845q.975.32 1.898.229.91-.112 1.783-.617t1.16-1.059q.274-.573-.08-1.087-.352-.515-.937-.563-.578-.081-1.303.09-.738.15-1.545.369a10 10 0 0 1-1.607.239 3.65 3.65 0 0 1-1.554-.235q-.727-.297-1.311-1.148-.585-.852-.57-1.717.003-.885.54-1.667.558-.793 1.66-1.43 1.162-.674 2.328-.794a4.55 4.55 0 0 1 2.283.282l-.417 1.844a3.6 3.6 0 0 0-1.582-.19 3.8 3.8 0 0 0-1.561.516q-.81.47-1.056.999-.24.497.087.972.326.476.876.516t1.275-.13q.746-.182 1.546-.37a7.5 7.5 0 0 1 1.607-.238 3.56 3.56 0 0 1 1.56.286q.762.306 1.36 1.177.91 1.325.442 2.674-.446 1.336-2.108 2.298M95.124 27.99q-1.485.48-2.97.152a6.2 6.2 0 0 1-2.68-1.377q-1.167-1.035-1.766-2.604t-.394-3.046a5.4 5.4 0 0 1 1.134-2.606q.928-1.13 2.436-1.616 1.233-.397 2.39-.19 1.17.176 2.107.882.929.682 1.442 1.827l1.225 3.206q.369 1.165.117 2.253a3.93 3.93 0 0 1-1.013 1.913q-.771.802-2.028 1.207m-.385-2.015q1.53-.493 2.081-1.804.543-1.332-.065-2.924-.42-1.099-1.162-1.766a3.4 3.4 0 0 0-1.677-.896q-.957-.22-1.984.111-1.029.33-1.648 1.06a3.35 3.35 0 0 0-.737 1.697q-.125.947.277 2 .412 1.077 1.163 1.767.765.66 1.744.873a3.8 3.8 0 0 0 2.008-.118m3.909.629-1.097-2.87-.605-2.725-1.373-2.454-.994-2.6 2.079-.67 4.069 10.65zM116.705 24.609l-1.392-11.315 2.149-.223 1.392 11.315zm1.355-6.679-.856-.273q-.267-2.167.578-3.558.844-1.39 2.73-1.585a3.8 3.8 0 0 1 1.59.148q.727.214 1.409.843l-1.23 1.6a2.2 2.2 0 0 0-.855-.467 2.8 2.8 0 0 0-1.023-.063q-1.194.124-1.864.966-.67.84-.479 2.39M141.938 24.936l1.392-11.315 2.149.223-1.392 11.314zm2.943-6.233-.768-.441q.267-2.168 1.428-3.35 1.16-1.184 3.046-.987.86.09 1.514.47.657.359 1.169 1.11l-1.587 1.308a2.1 2.1 0 0 0-.721-.63q-.41-.21-.982-.27-1.194-.125-2.051.559-.858.683-1.048 2.23M169.877 32.045q-1.599-.515-2.596-1.667a5.5 5.5 0 0 1-1.27-2.65q-.266-1.521.334-3.09.59-1.547 1.816-2.537a6.4 6.4 0 0 1 2.796-1.34q1.562-.328 3.161.187 1.576.508 2.572 1.66a5.27 5.27 0 0 1 1.303 2.635q.274 1.499-.317 3.045a6.2 6.2 0 0 1-1.842 2.605 6.36 6.36 0 0 1-2.819 1.333 6.03 6.03 0 0 1-3.138-.18m.745-1.95q1.029.33 2.008.118a3.9 3.9 0 0 0 1.745-.873q.773-.683 1.176-1.736.394-1.032.223-1.993a3.2 3.2 0 0 0-.777-1.66q-.596-.721-1.625-1.052a3.8 3.8 0 0 0-2.007-.118 3.7 3.7 0 0 0-1.736.85q-.765.66-1.16 1.692-.403 1.053-.262 2.03a3.34 3.34 0 0 0 .768 1.683q.62.727 1.647 1.06M191.444 40.315l9.698-14.127 1.869 1.082-9.698 14.127zM211.388 54.844l12.645-11.565 1.589 1.463-12.645 11.566zM226.471 77.61q-.945-1.389-1.014-2.894a5.3 5.3 0 0 1 .651-2.829q.741-1.335 2.198-2.171a6 6 0 0 1 3.027-.826 6.64 6.64 0 0 1 3.054.703 6.2 6.2 0 0 1 2.389 2.105q.932 1.37 1.001 2.875a5.1 5.1 0 0 1-.617 2.836q-.72 1.325-2.156 2.148a6.3 6.3 0 0 1-3.09.862 6.6 6.6 0 0 1-3.068-.723 6.14 6.14 0 0 1-2.375-2.086m1.811-1.039q.608.893 1.518 1.337a4.03 4.03 0 0 0 1.929.41 4.4 4.4 0 0 0 2.019-.606q.958-.55 1.423-1.396.48-.827.423-1.76-.021-.925-.629-1.819a3.9 3.9 0 0 0-1.518-1.336 3.84 3.84 0 0 0-1.908-.422 4.2 4.2 0 0 0-1.977.582q-.978.561-1.479 1.4a3.24 3.24 0 0 0-.444 1.772q.036.945.643 1.838M374.918 110.679l.565-1.985 4.455 1.268q1.778.506 3.333.125a5.7 5.7 0 0 0 2.688-1.556q1.15-1.144 1.655-2.922.5-1.755.125-3.333a5.7 5.7 0 0 0-1.496-2.722q-1.122-1.143-2.876-1.642l-4.432-1.26.564-1.986 4.479 1.274q1.754.5 3.061 1.52a7.9 7.9 0 0 1 2.105 2.42q.8 1.401.986 3.026.21 1.632-.283 3.363a8.4 8.4 0 0 1-1.53 3.008 8 8 0 0 1-2.408 2.06 7.9 7.9 0 0 1-3.064.949q-1.649.18-3.38-.313zm-1.432-.407 4.559-16.02 2.17.618-4.559 16.02zM412.319 133.238l6.618-9.283 1.759 1.254-6.618 9.283zm8.821-10.512q-.489-.348-.579-.884a1.42 1.42 0 0 1 .273-1.044q.334-.468.87-.559.549-.108 1.038.239.488.35.564.904.09.536-.244 1.004a1.42 1.42 0 0 1-.898.598q-.536.09-1.024-.258M441.984 164.201a6.8 6.8 0 0 1-.847-1.633 6.6 6.6 0 0 1-.302-1.691 5.6 5.6 0 0 1 .21-1.669l1.938.345a4.1 4.1 0 0 0-.12 1.84q.172.875.749 1.702.577.826 1.168 1.086.612.247 1.123-.11.512-.357.526-.923.048-.56-.173-1.255a24 24 0 0 0-.478-1.481 9 9 0 0 1-.346-1.544 3.26 3.26 0 0 1 .148-1.508q.264-.711 1.11-1.302t1.745-.603a3.23 3.23 0 0 1 1.761.468q.856.514 1.585 1.557.77 1.102.966 2.223.23 1.128-.152 2.214l-1.938-.345q.237-.75.1-1.533-.123-.763-.631-1.491-.536-.767-1.1-.989a1 1 0 0 0-1.003.115q-.472.33-.481.862-.007.534.213 1.228.235.714.478 1.481.262.753.346 1.544a3.2 3.2 0 0 1-.201 1.515q-.27.746-1.136 1.349-1.318.921-2.746.512-1.413-.39-2.512-1.964M457.878 202.948q-.45-1.644-.071-3.166a5.9 5.9 0 0 1 1.49-2.647q1.088-1.119 2.73-1.569 1.62-.444 3.12-.058a5.8 5.8 0 0 1 2.595 1.479q1.118 1.087 1.556 2.684.419 1.528.041 2.875a4.94 4.94 0 0 1-1.42 2.355q-1.043 1.008-2.594 1.432a7 7 0 0 1-.516.117 6 6 0 0 1-.627.072l-2.542-9.282 1.736-.476 2.238 8.171-.881-.58q1.111-.304 1.767-.907.68-.609.9-1.44.243-.839-.036-1.857-.292-1.065-.976-1.748a3.3 3.3 0 0 0-1.639-.895q-.954-.211-2.088.099-1.157.316-1.91 1.021a3.46 3.46 0 0 0-.981 1.687q-.229.983.076 2.094a4.45 4.45 0 0 0 .786 1.601q.54.698 1.34 1.076l-.998 1.717a5.3 5.3 0 0 1-1.944-1.558 6.3 6.3 0 0 1-1.152-2.297M459.546 247.004l6.63.497q1.292.098 2.191-.654.899-.751.995-2.043.065-.862-.268-1.561a2.8 2.8 0 0 0-.974-1.132q-.642-.433-1.503-.497l.569-.848q1.292.096 2.254.746a4.14 4.14 0 0 1 1.46 1.722q.521 1.074.424 2.366t-.816 2.226a4.63 4.63 0 0 1-1.818 1.452 4.46 4.46 0 0 1-2.245.409l-7.06-.529zm.603-8.041 11.368.852-.162 2.154-11.368-.852zm12.611 7.708q.057-.767.386-1.295.327-.505.626-.964t.344-1.057-.144-.974a2.6 2.6 0 0 0-.594-.742l1.236-1.087q.673.652 1.056 1.331t.314 1.588q-.059.789-.363 1.32-.305.53-.628.988a1.97 1.97 0 0 0-.364 1.008q-.045.598.143.973.213.377.62.72l-1.236 1.087a7.2 7.2 0 0 1-1.078-1.356q-.384-.655-.318-1.54M447.026 283.098q.68-1.536 1.949-2.444a5.93 5.93 0 0 1 2.817-1.089q1.572-.17 3.108.51 1.515.67 2.401 1.93a5.94 5.94 0 0 1 1.088 2.817q.18 1.55-.5 3.086-.671 1.514-1.939 2.423-1.257.94-2.806 1.12t-3.064-.491q-1.536-.68-2.466-1.958a5.9 5.9 0 0 1-1.079-2.84q-.18-1.55.491-3.064m1.909.845q-.437.988-.316 1.96a3.6 3.6 0 0 0 .716 1.761q.618.798 1.649 1.255 1.01.447 2.004.336a3.43 3.43 0 0 0 1.763-.663q.791-.542 1.228-1.529.437-.988.317-1.96a3.44 3.44 0 0 0-.694-1.751q-.597-.789-1.606-1.236-1.03-.456-2.037-.377a3.6 3.6 0 0 0-1.786.653q-.8.564-1.238 1.551M271.83 415.476l15.479 6.152-.833 2.097-15.479-6.152zm-.567 1.428 1.918.762-3.528 8.877-1.918-.763zm7.003 2.783 1.829.727-3.235 8.141-1.829-.727zm6.557 2.606 1.918.763-3.483 8.765-1.918-.763zM250.252 447.53a6.8 6.8 0 0 1 1.319-1.282q.729-.495 1.533-.777a5.6 5.6 0 0 1 1.659-.279l.228 1.955a4.1 4.1 0 0 0-1.797.415q-.789.417-1.414 1.207-.625.792-.704 1.432-.06.657.429 1.044.49.387 1.036.238.55-.115 1.152-.528.62-.396 1.281-.884a9 9 0 0 1 1.378-.776 3.26 3.26 0 0 1 1.487-.293q.757.048 1.567.688t1.08 1.498a3.24 3.24 0 0 1 .059 1.821q-.246.968-1.035 1.966-.834 1.055-1.851 1.566a4.1 4.1 0 0 1-2.163.491l-.229-1.955a3.2 3.2 0 0 0 1.498-.346q.695-.337 1.246-1.033.58-.735.63-1.338a1 1 0 0 0-.399-.928q-.452-.357-.964-.212-.514.146-1.114.557-.616.431-1.281.885-.646.468-1.379.776a3.2 3.2 0 0 1-1.509.244q-.79-.044-1.619-.699-1.261-.998-1.281-2.482-.034-1.465 1.157-2.971M225.137 469.315l9.276 13.252-1.769 1.239-9.277-13.252zm7.709 6.117 1.129 1.612-6.371 4.459-1.128-1.612zM195.776 483.564l3.585 10.822-2.051.679-3.584-10.822zm-.005 6.853.888.086q.686 2.073.137 3.62-.55 1.547-2.349 2.143a3.8 3.8 0 0 1-1.579.195q-.751-.055-1.54-.527l.884-1.835q.462.252.925.275t1.01-.157q1.139-.378 1.627-1.348t-.003-2.452M158.078 489.221q1.559-.045 2.853.686a5.75 5.75 0 0 1 2.077 2.077q.757 1.323.807 3.002.049 1.679-.632 3.043a5.8 5.8 0 0 1-1.93 2.193q-1.248.829-2.832.874-1.294.038-2.319-.485a4.24 4.24 0 0 1-1.698-1.439q-.651-.918-.759-2.163l-.099-3.431a4.4 4.4 0 0 1 .632-2.203 4.26 4.26 0 0 1 1.588-1.559q.992-.556 2.312-.595m-.301 2.05q-1.608.047-2.56 1.154-.951 1.132-.902 2.836.033 1.175.515 2.026a3.14 3.14 0 0 0 1.287 1.331q.83.48 1.909.449t1.905-.559a3.6 3.6 0 0 0 1.255-1.429q.43-.877.398-2.005-.033-1.151-.514-2.026a3.6 3.6 0 0 0-1.359-1.329q-.854-.479-1.934-.448m-3.483-1.7.089 3.071-.327 2.794.487 2.747.081 2.783-2.183.063-.33-11.395zM124.757 484.135l-4.189 15.624-2.086-.559 4.189-15.624zm.27 9.838-.51 1.901-7.511-2.014.51-1.901zM91.817 467.583q1.45.895 2.211 2.267.75 1.392.717 2.952-.031 1.56-.927 3.01-.882 1.43-2.241 2.17a5.8 5.8 0 0 1-2.906.688q-1.56-.031-2.97-.901-1.347-.832-1.99-2.075a4.94 4.94 0 0 1-.568-2.691q.075-1.448.92-2.816.126-.204.297-.437.16-.212.41-.48l8.19 5.053-.945 1.532-7.21-4.449 1.04-.176q-.605.98-.674 1.869a2.9 2.9 0 0 0 .325 1.667q.394.778 1.292 1.333.94.58 1.907.612a3.27 3.27 0 0 0 1.809-.463q.84-.496 1.459-1.497.63-1.02.7-2.049a3.47 3.47 0 0 0-.433-1.903q-.504-.875-1.484-1.48a4.45 4.45 0 0 0-1.667-.634 3.6 3.6 0 0 0-1.714.127l-.441-1.936a5.3 5.3 0 0 1 2.484-.187 6.3 6.3 0 0 1 2.41.894M70.939 441.037q1.164 1.31 1.59 2.762.41 1.436.073 2.826l-1.984-.099q.201-1.11-.096-2.13-.28-1.036-1.157-2.023-1.164-1.308-2.534-1.44-1.367-.164-2.533.873l-2.116 1.882-2.173 1.42-1.646 1.978-2.241 1.994-1.436-1.614 8.177-7.274q1.22-1.085 2.644-1.325 1.41-.258 2.838.302 1.413.542 2.594 1.868m-3.891 3.462q1.037 1.165 1.31 2.592.258 1.41-.232 2.809-.507 1.415-1.726 2.5-1.22 1.085-2.649 1.392a5.4 5.4 0 0 1-2.816-.096q-1.404-.423-2.44-1.588-.893-1.004-1.185-2.126a4.07 4.07 0 0 1 .027-2.208q.284-1.089 1.203-1.97l2.26-2.01q.98-.776 2.112-.947a4.13 4.13 0 0 1 2.178.246q1.08.42 1.958 1.406m-1.811 1.033q-.702-.789-1.57-1.077a3.07 3.07 0 0 0-1.78-.087q-.914.236-1.739.969t-1.131 1.617a3.1 3.1 0 0 0-.155 1.776q.168.91.886 1.718.717.806 1.619 1.097.882.306 1.83.107.912-.202 1.719-.92.807-.717 1.131-1.617a3.54 3.54 0 0 0 .125-1.845q-.218-.931-.935-1.738M48.122 418.159l-10.333 4.816-.912-1.958 10.332-4.816zm-12.855 4.8q.253.544.067 1.054a1.42 1.42 0 0 1-.751.774 1.3 1.3 0 0 1-1.033.058q-.531-.176-.785-.72-.254-.543-.046-1.064.186-.51.708-.754a1.4 1.4 0 0 1 1.076-.077q.51.185.764.729M41.613 380.3q.226 1.544-.35 2.913a5.74 5.74 0 0 1-1.822 2.304q-1.226.907-2.888 1.15-1.662.244-3.096-.274a5.8 5.8 0 0 1-2.402-1.662q-.968-1.144-1.197-2.711-.187-1.283.212-2.36.374-1.098 1.233-1.854.836-.753 2.06-1.005l3.396-.497q1.222-.105 2.262.373a4.24 4.24 0 0 1 1.732 1.396q.669.92.86 2.227m-2.07-.061q-.233-1.591-1.445-2.408-1.235-.815-2.92-.567-1.164.17-1.953.746a3.14 3.14 0 0 0-1.173 1.433q-.38.88-.224 1.949t.776 1.827q.617.734 1.565 1.081.921.326 2.037.162 1.14-.167 1.953-.746.785-.6 1.162-1.504.378-.905.221-1.973m1.283-3.656-3.04.444h-2.813l-2.672.803-2.755.403-.316-2.161 11.28-1.65z"/><defs><filter id="a" width="462.4" height="473.436" x="0" y="17.8" color-interpolation-filters="sRGB" filterUnits="userSpaceOnUse"><feFlood flood-opacity="0" result="BackgroundImageFix"/><feBlend in="SourceGraphic" in2="BackgroundImageFix" result="shape"/><feGaussianBlur result="effect1_foregroundBlur_508_274" stdDeviation="9.1"/></filter></defs></svg>