<svg xmlns="http://www.w3.org/2000/svg" fill="none" viewBox="140 140 60 60"><g filter="url(#a)"><circle cx="167.392" cy="167.392" r="17.392" fill="url(#b)"/></g><circle cx="167.349" cy="167.434" r="14.133" fill="url(#c)" fill-opacity=".2"/><g filter="url(#d)"><circle cx="167.349" cy="167.434" r="13.133" stroke="#6339f0" stroke-width="2"/></g><g filter="url(#e)"><path fill="#6339f0" d="M183.436 168.773c.051.392-.058.901-.199 1.273-.044.117-.168.04-.205.119-.071.154-.028.311-.113.46-.029.049-.226-.049-.251.003-.139.281-.137.565-.244.852-.528 1.401-1.1 2.722-1.876 3.969-.256.414-.718.812-.924 1.264-.024.054.148.128.154.146.093.276-.181.018-.285.082-.415.254-.723.626-.943.997-.094.158.303.257.027.264-.019 0-.137-.162-.185-.138-.109.054-.224.236-.294.29-.136.102-.153.124-.264.237-.153.154-.402.266-.538.457-.029.041.158.141.123.221a.53.53 0 0 1-.286.224c-.085.012-.167-.125-.201-.144-.278-.159-.179.314-.198.344-.32.507-.861.617-1.295.917-.331.23-.656.528-.996.712-.407.218-.801.299-1.194.505-.041.021.108.211.057.238-.548.285-1.137.488-1.766.524-.063.004-.052-.217-.118-.226-.408-.045-1.042-.299-1.048.627-.255.024-.567.051-.819-.088-.162-.09-.064-.336-.219-.211-.036.027.048.214-.008.241-.239.113-.518.087-.756.217-.048.027-.015.201-.026.234-.097.271-.344-.135-.389-.162-.352-.202-.586-.099-.897-.095-.072 0 .02.236-.05.245a3 3 0 0 1-.369.019 2.3 2.3 0 0 1-.728-.124c-.078-.028.004-.227-.032-.25-.158-.103-.218.277-.373.183-.032-.02 0-.191-.005-.211-.07-.305-.186.11-.212.117-.322.099-.471-.363-.767-.342-.037.003.012.231-.089.226a4.3 4.3 0 0 1-1.95-.604c-.091-.054.026-.192.025-.213-.008-.333-.193.054-.23.06-.288.032-.4-.384-.738.033-.985-.54-2.138-.796-2.825-1.776-.009-.012.125-.175.107-.198-.211-.277-.334.03-.746.231-.105.049.032-.443.041-.48.032-.137.259-.357.259-.388-.002-.245-.589.603-.757.477-.005-.005.131-.14.129-.166-.008-.079-.095-.051-.097-.135-.004-.193.275-.61-.045-.494-.041.015-.381.494-.507.354-.051-.055-.307-.26-.35-.349s.129-.189.129-.199c-.014-.347.124-.362.286-.713.165-.348-.407.316-.51.354s-.089-.234-.07-.315c.02-.081.141-.129.142-.185.009-.361-.383.233-.542.272-.377.088-.02-.479-.093-.651-.02-.047-.102.083-.142.06-.156-.092-.073-.303-.342-.329-.043-.003-.447.126-.293-.139.023-.037.173-.109.155-.188-.028-.119-.122-.294-.237-.353-.084-.044-.235.198-.236.06-.001-.061.178-.085.168-.191s-.152-.287-.207-.355-.193.088-.208.09c-.089.011-.267-.074-.276-.087-.459-.626-.515-1.403-.936-2.011-.033-.048-.208.079-.215.073-.168-.143.412-.245.526-.448-.384.201-.347.095-.448-.012-.049-.052-.187.05-.205.051-.274.011-.001-.187.054-.229.201-.159-.096-.11.039-.216.135-.104.398-.105.346-.223-.158.025-.495.271-.594.201-.383-.267-.324-1.068-.374-1.369-.056-.304-.108-.394-.099-.582.021-.336-.242-.15-.423-.319-.179-.173.566-.231.715-.293s-.017-.056.062-.107.199-.002.215-.086c.016-.082-.302-.241-.47-.241-.358.002-.704.169-.614-.074.005-.014.204-.006.215-.057.084-.403.044-.798.144-1.185.014-.053.234-.025.245-.056.114-.317-.241-.179-.657-.331.541.008.863-.106.858-.333-.003-.138-.237-.107-.405-.195-.051-.027.109-.131-.002-.147-.342-.054-.722.034-.629-.172l.022-.04c.008-.011.206.024.218-.014.08-.245-.298-.279-.334-.554-.028-.217.227-.579.288-.811.603.061.486-.164.082-.305.035-.151.034-.32.113-.459.027-.048.196.012.216.009.308-.051-.083-.179-.093-.215-.093-.383.267-.605.052-1.006-.008-.014-.413-.133-.092-.151.022 0 .181.155.234.002.054-.155.349-.383.227-.651-.03-.064-.315-.3-.026-.325.039-.002.149.05.219.051.225.003-.167-.167.201-.126.368.04.673-.014.515-.302-.005-.008-.302-.176-.272-.239.048-.101.172-.22.215-.326.02-.052-.187-.101-.187-.111.04-.393.324-.562.576-.879.046-.057-.108-.38.16-.396.291-.016 1.113.619 1.065.211-.022-.159-1.041-.998-.329-.856.128-.511.673-.679.79-1.21.005-.024-.235-.308-.196-.347.056-.057.216.018.26-.018.19-.148.222-.406.394-.56.065-.058.174.084.251.016.076-.068-.044-.278.134-.3.136-.016.543.246.677.194-.323-.339-.249-.398-.209-.604.008-.04-.129-.135-.131-.16-.01-.105.124-.046.108-.154-.004-.026-.111-.145-.12-.173-.079-.246.289-.092.351-.062.239.106.143-.084.269-.068.125.017.104.188.215.169.229-.039.413-.218.58-.335.066-.047-.106-.184-.099-.195.105-.146.375-.061.208-.463.726.832.023-.147.353-.105.027.004.333.423.317.526-.016.102-.198.03-.211.184-.004.037.171.509.175.542.026.266-.449-.346-.481-.376-.345-.317-.163.203-.173.256-.052.25-.248.269-.297.464-.032.127.29.52.22.56-.23.131-.784-.322-.55.301.051.132.473.495.035.313-.027-.013-.411-.195-.291.042.016.03.131.144.131.163 0 .125-.134.079-.157.193s-.034.261-.149.307c-.069.027-.352-.107-.43-.13-.223-.068-.023.235-.257.113-.237-.12-.461-.465-.694-.446.32.272.645.557.965.833-.218.242-.523.418-.699.701-.021.035.188.13.171.171-.074.169-.297.213-.346.409-.037.151.085.412.062.571-.462-.164-.435.119-.551.243-.04.044-.152-.019-.209-.002-.21.069.202.199.242.267.174.288-.695-.127-.772.09-.005.012.401.357.423.386.139.197-.171-.055-.238 0-.12.102-.273.147-.197.359.022.063.277.286.013.284-.034 0-.19-.067-.203-.062-.22.114.278.304.415.458.136.153-.26.179-.371.178-.287-.006-.091-.099-.115-.112-.286-.154-.272-.024-.325.054-.501-.148-.512-.011-.054.083.05.01.025-.073.054-.083.462.235.487.373-.015.386-.235.007-.469-.132-.437.111.015.109.373.165.445.273.167.246-.217.415-.207.63.004.077.211.046.221.099.026.139-.14.227-.089.372.006.013.213.019.209.06-.027.307-.193.556-.229.881-.017.157.076.445.046.605-.035.19-.188.408-.256.611a.43.43 0 0 0-.021.261c.05.159.256.118.398.179.276.115-.198.365-.271.404-.002.001-.059-.133-.16-.053-.217.056.159.052.16.053-.048.023-.073.3-.028.35.024.028.217-.007.226.007.208.342.304.677.279 1.048-.002.007-.219.037-.223.053-.056.227.234.309.426.439.193.131.173.267-.164.463.079.115-.029.34-.094.475-.064.135.347.024.358.03.345.199.167.43.241.733.034.144.2.388.306.512.084.098.024.207.13.284.014.01.179-.084.188-.083.258.016-.186.16-.249.219-.23.216-.346.346-.143.432.047.022.689-.187.754-.148.085.053-.141.137-.046.191.008.004.136-.068.158-.016.101.241.174.531.335.753.022.03.192-.137.226-.095.158.192.305.417.363.677.013.065-.14.133-.171.173-.185.243.225.076.243.084.434.222.366.734.819.944.027.012.483-.175.266.162-.015.022-.235.369.011.225.015-.009.121-.194.172-.116.052.079.251.076.192.329-.019.079-.212.445.09.284.023-.01.626-.444.357-.021-.045.07-.389.47-.105.353.054-.024.09-.146.192-.158.155-.021.184.181.432.074.045-.019.334-.25.237.015-.015.042-.138.171-.115.211.108.195.348.216.453.429.038.075-.148.295-.123.401s.124.253.261.183c.136-.07.293-.504.412-.476.514.118.834.578 1.296.816.068.035.073-.138.176-.099.384.151 1.083.226 1.336.648.21.342-.202.45-.01.617.096.081.337-.404.364-.414.282-.107.404.157.642.128.049-.007.042-.225.082-.228.138-.013.263.103.391.104.058 0 .071-.163.12-.144.12.045.221.126.33.292.01.015-.089.209.006.226.152.028.336.194.526.049.056-.043.078-.416.177-.153.021.055-.028.502.121.12.027-.063.254-.579.357-.242.016.052.048.204.086.305.026.07.054.116.081.092.008-.009-.028-.209.025-.229.185-.067.378-.052.563-.125.049-.02-.037-.223.036-.246.2-.064.451-.032.657.009.076.016.045.192.052.21.124.292.126-.122.15-.149.156-.165.317.005.472-.073.042-.021-.023-.208-.017-.227.06-.184.054.174.119.202.182.079.363.026.522-.036.058-.023-.06-.229-.008-.246a2.4 2.4 0 0 1 .967-.154c.064.005.082.182.106.217.171.238.173-.165.187-.208.07-.2.169-.071.269-.139.481-.331 1.149-.531 1.652-.742.649-.273 1.207-.45 1.718-.907.033-.029-.146-.184-.12-.211.332-.337.74-.581 1.026-.966.024-.031-.172-.147-.14-.201a.6.6 0 0 1 .318-.265c.067-.023.15.167.215.14a.66.66 0 0 0 .342-.313c.03-.06-.205-.13-.154-.195.346-.451.63-.911 1.182-1.25.038-.023.448.185.418.064-.106-.071-.234-.147-.349-.219.362-.752.853-1.433 1.151-2.23.012-.033-.237-.053-.215-.117.129-.373.165-.748.49-1.087.032-.034.444.08.408-.054-.007-.024-.025-.216-.108-.28-.012-.009-.214-.015-.209-.072.034-.335.13-.671.286-.997.026-.053.231.028.251-.01.141-.27 0-.59.202-.852.135-.179.499-.101.863-.198.051-.013.06-.135.27-.14.529-.015 1.107.053 1.67.031.122-.005-.008-.192.285-.081.019.008.116.146.214.182.069.024.283-.016.371.035.087.051-.093.102.008.186.102.085.347.056.369.224m-29.112 3.636c-.158.168.553-.066.347-.112a4 4 0 0 0-.347.112m1.785-12.237c-.35-.082-.012.28.251.351.261.073-.146-.325-.251-.351m.746-1.278c-.305-.052.466.676.422.407a6 6 0 0 0-.422-.407m23.48 9.927c.01-.001.024-.087.014-.09-.235-.056-.262.114-.014.09m-22.604-11.144c-.135-.073-.139.152.029.242.134.072.137-.15-.029-.242m-1.174 19.975c-.007.009.03.064.075.02.145-.142.043-.168-.075-.02m3.216-21.47c-.336.154-1.013-.45-.593-.597.075-.025.005.326.13.341.224.031.046-.504.354-.341.054.031.128.59.109.598zm-6.277 16.58c-.009.005.013.094.023.093.239-.034.198-.21-.023-.093m5.742 7.687c-.007.021.168.15.184.137.293-.277-.05-.532-.184-.137m-7.005-13.759c-.228-.124-.242-.256.066-.302-.028.099-.041.202-.066.302"/></g><path fill="#6339f0" d="M181.634 168.009a9 9 0 0 1-.097 1.112c-.015.105-.022.05-.034.122-.023.14-.035.272-.062.409-.009.046-.021-.014-.031.034-.051.263-.091.51-.153.774a14.6 14.6 0 0 1-1.406 3.712c-.211.39-.505.841-.754 1.224-.029.045.004.029-.001.038-.07.145-.071.08-.135.163-.251.327-.532.689-.783.997-.106.131.031.026-.095.142-.009.008.005-.037-.027-.004-.072.077-.202.228-.258.287l-.228.24c-.14.146-.317.31-.471.463-.033.033.026.005-.026.059a3 3 0 0 1-.249.226c-.052.041-.042.011-.053.016-.091.041-.234.222-.256.241-.394.359-.772.618-1.182.901-.312.216-.651.439-.964.617-.374.214-.702.372-1.079.551-.04.018.017.018-.032.041-.518.243-1.05.449-1.596.61-.055.016.009-.027-.046-.012-.337.093-.878.195-1.059.328a6 6 0 0 1-.724.126c-.137.013-.01-.032-.173.006-.037.008.015.019-.041.03-.236.047-.492.076-.726.113-.048.008-.033.024-.046.029-.112.038-.305.013-.346.014-.316.003-.547.025-.84.032-.068.002.013.024-.053.026a10 10 0 0 1-1.028-.021c-.074-.006-.005-.023-.04-.027-.156-.017-.193.018-.343-.001-.031-.004-.012-.02-.017-.022-.088-.036-.169-.001-.192-.002-.293-.014-.477-.08-.756-.113-.034-.004.039.028-.056.016a11 11 0 0 1-1.885-.429c-.093-.03-.021-.026-.027-.03-.087-.058-.16-.037-.191-.044-.244-.064-.454-.173-.631-.183-.995-.377-1.966-.826-2.829-1.434-.011-.008.02-.012-.002-.028-.262-.185-.228-.124-.427-.212-.05-.022-.156-.156-.165-.167-.035-.041.027-.035.014-.047-.106-.101-.148-.003-.306-.121-.005-.004.027-.004.015-.015-.037-.036-.082-.061-.118-.096-.082-.083-.083-.147-.238-.233-.019-.011-.03.056-.164-.058a11 11 0 0 1-.354-.306c-.062-.06-.005-.035-.009-.04-.158-.174-.085-.123-.146-.228s-.096-.02-.138-.046a1 1 0 0 1-.176-.193c-.026-.034.02-.006-.004-.035-.157-.192-.108-.045-.175-.093-.16-.113-.218-.267-.333-.4-.031-.036-.015.002-.045-.028-.118-.12-.17-.209-.31-.341-.022-.022-.153-.114-.195-.21-.006-.014.032.007-.01-.051a9 9 0 0 0-.257-.326c-.055-.064-.016.029-.075-.061-.026-.04.04.021-.01-.054-.05-.074-.185-.256-.235-.326-.051-.069-.04-.019-.045-.024a2 2 0 0 1-.142-.173c-.421-.608-.734-1.216-1.058-1.856-.026-.051-.028-.008-.032-.015-.092-.17.025-.058-.015-.187-.031.036-.058-.039-.119-.161-.029-.059-.029-.02-.033-.024-.063-.079-.06-.155-.061-.173-.003-.069-.057-.122-.059-.169s.06.037.01-.083c-.028-.028-.029.077-.073-.012-.169-.336-.368-1.008-.446-1.297a9 9 0 0 1-.147-.553c-.066-.308-.067-.188-.125-.377-.056-.189.037-.111.047-.142.009-.031-.013-.057-.011-.093.001-.035.027.036.014-.044a1.5 1.5 0 0 0-.104-.315c-.045-.053-.065.052-.088-.162-.001-.013.024.024.019-.023a15 15 0 0 1-.114-1.131c-.002-.051.023-.007.022-.037-.01-.311-.038-.197-.089-.366q.085.055.074-.295c-.005-.141-.028-.116-.046-.208-.006-.027.008-.128-.003-.146-.034-.056-.072.025-.064-.171l.003-.039c0-.01.02.024.021-.013.01-.24-.027-.268-.023-.528.004-.203.051-.562.077-.791.06.011.068-.207.037-.299.019-.149.038-.309.066-.452.009-.049.022-.014.024-.02.044-.09.015-.16.018-.192.043-.349.13-.622.177-.954.002-.012-.035-.04.016-.12.004-.005-.004.107.035-.045.039-.153.138-.432.183-.647.011-.051.017-.189.076-.284.008-.012.015.007.028-.011.041-.056.012-.104.071-.167.06-.062.138-.206.191-.42.002-.006-.011-.067.014-.131.041-.103.106-.245.15-.351.022-.051-.011-.027-.008-.036.135-.346.262-.578.449-.928.034-.064.106-.263.194-.376.097-.123.108.065.262-.253.063-.127.045-.352.241-.533.255-.43.551-.785.843-1.192.013-.018.029-.096.063-.137.051-.061.091-.083.128-.126.155-.177.286-.349.441-.514.059-.063.051-.029.122-.104.071-.074.101-.139.207-.231.079-.069.187-.11.29-.203-.029-.037.04-.103.156-.228.022-.024-.015-.012-.005-.024.041-.05.093-.079.131-.126.009-.012-.001-.024.006-.034.059-.086.209-.169.235-.183.098-.054.124-.103.194-.15s-.018.043.061-.016c.163-.121.366-.285.531-.409.066-.049.008-.032.017-.04.133-.107.287-.189.339-.277.16.022.078-.069.293-.187.017-.009.066.02.009.067-.057.048-.158.097-.234.165-.019.016-.103.136-.116.149-.106.105-.168.055-.177.056-.099.016-.202.16-.235.19-.15.138-.291.238-.414.356-.08.077-.055.123-.122.178-.221.186-.344.202-.501.433-.033.05.047.05-.134.164-.011.007-.15.087-.195.169-.006.01.006.021-.003.033-.064.077-.119.116-.189.199-.07.082-.152.184-.238.272-.052.054-.138.105-.167.128-.083.062-.126.167-.186.198-.061.032-.012-.088-.131.029.029.031.053.07.079.104-.23.278-.457.554-.664.852-.026.037.019.012-.008.052-.113.169-.225.308-.333.489-.083.141-.156.306-.236.456-.095.065-.206.294-.296.454-.032.056-.041.047-.066.085-.094.147-.018.094-.034.14-.066.193-.161.166-.262.385-.006.011-.024.174-.03.195-.037.132-.026.013-.064.089-.069.139-.123.234-.179.409-.016.051-.033.181-.093.268-.008.012-.021-.001-.026.008-.086.18-.037.204-.058.316a1 1 0 0 1-.132.296c-.056.079.011-.072.01-.077-.011-.067-.047.056-.08.148-.054-.003-.092.129-.033.096.007-.004.025-.078.033-.096.023.098-.016.241-.108.386-.043.069-.049-.009-.103.221-.023.104.022.074.007.167-.033.214-.129.478-.168.698-.014.079.021.006.012.06-.024.144-.062.268-.079.414-.002.013.024-.015.017.029-.055.34-.108.637-.143.996-.017.173-.028.485-.039.664-.013.214-.033.459-.04.681a4 4 0 0 0 0 .285c.009.175.029.136.046.21.031.141-.003.398-.008.434 0 .001-.014-.149-.02-.068-.019.048.02.066.02.068-.004.023.014.322.025.38.005.032.023.013.025.029.055.398.115.792.179 1.193.001.007-.023.001-.02.017.033.233.091.375.149.561.058.185.09.333.083.454.042.141.083.347.108.466.026.118.072.121.076.131.125.309.164.496.282.819.056.154.183.451.26.611.059.126.085.207.145.321.008.015.018-.008.021-.004.081.12.01.077.016.108a.8.8 0 0 0 .13.335c.022.037.138.116.178.182.051.086.012.064.068.154.004.007.016-.001.047.056.143.265.304.551.476.813.023.036.013-.023.047.028.16.241.341.502.501.734.039.057 0 .032.005.047.033.092.147.17.161.187.334.393.564.718.941 1.088.02.02.207.146.249.242.003.007.044.104.125.144.005.003-.024-.054.051.021s.208.181.301.295c.029.036.084.139.209.205.008.005.216.087.243.174.004.014-.04.047.105.13.028.015-.009-.03.06.016.105.071.229.185.367.26.025.013.138.053.197.129.009.012-.024.01.015.04.183.144.391.272.582.41.068.049.017.05.086.103.07.054.217.153.302.188s.022-.054.142.012c.52.287 1.033.575 1.578.811.081.035.02-.008.14.041.44.187 1.226.435 1.618.572.315.113-.096.026.148.102.118.036.259.016.288.021.285.051.478.114.735.154.053.008.005-.022.05-.015.154.024.316.06.463.079.066.009.057-.009.117 0 .146.023.274.045.416.075.013.003-.078.014.032.026.175.019.392.053.597.049.061-.001.066-.038.193-.006.027.007-.01.05.143.017.025-.005.28-.05.404-.016.02.005.057.021.1.031a.3.3 0 0 0 .09.009c.01-.001-.029-.021.031-.023.213-.009.434-.013.65-.032.058-.004-.029-.02.057-.027.238-.019.531-.039.765-.06.085-.007.028.017.035.018.103.019.157-.03.19-.037.203-.041.361-.045.549-.083.052-.01.012-.023.022-.026.104-.036.03.013.099.005.191-.024.402-.068.592-.114.07-.016-.014-.021.048-.036.369-.088.751-.191 1.108-.292.068-.019.031.011.046.01.105-.004.233-.088.263-.102.14-.066.201-.072.328-.122a18 18 0 0 0 1.915-.886 12.5 12.5 0 0 0 1.864-1.225c.039-.031-.015-.018.018-.045.427-.348.838-.705 1.221-1.102.032-.033-.03-.002.02-.055.102-.108.233-.244.34-.351.052-.052-.001.034.051-.019.122-.123.245-.261.356-.399.047-.059-.043.014.02-.061.425-.514.805-1.048 1.184-1.607.025-.038.086-.049.129-.138-.007-.013-.02-.02-.03-.03.491-.838.912-1.709 1.228-2.631.014-.039-.032.02-.007-.055.147-.437.262-.869.391-1.321.012-.045.049-.012.072-.149.005-.024.041-.229.042-.284 0-.007-.027.026-.015-.039.071-.383.135-.784.187-1.17.009-.062.023.007.029-.038.044-.312.051-.662.08-.962.019-.202.053-.126.091-.234.006-.015.008-.142.029-.149.053-.016.11.046.167.021.012-.005-.001-.178.028-.076.002.007.011.133.021.164.006.021.028-.017.036.027s-.01.092-.002.165.034.042.032.187m-27.655 3.987c.017.113.093.103.037-.005-.003-.005-.038-.001-.037.005m1.986-12.922c-.114.099-.133.209-.052.14s.086-.17.052-.14m.954-1.189c-.136.109-.075.2.033.05.006-.008-.025-.057-.033-.05m24.397 10.288c.001-.002.007-.092.006-.094-.022-.049-.032.131-.006.094m-23.329-11.364c-.05.024-.155.14-.093.109.049-.025.155-.14.093-.109m-1.076 20.23c0 .002.044.051.048.046.012-.017-.055-.08-.048-.046m3.161-21.743c-.328.192-.571.246-.211.032.065-.038-.124.11-.038.066.156-.08.229-.187.399-.251.031-.012-.131.142-.15.154zm-6.157 16.79c0 .003.029.089.031.09.038.039-.021-.134-.031-.09m5.915 7.412c.003.005.182.116.189.118.114.023-.248-.201-.189-.118m-6.688-13.438a.54.54 0 0 1 .035-.296q-.019.147-.035.296"/><defs><filter id="a" x="0" y="0" color-interpolation-filters="sRGB" filterUnits="userSpaceOnUse"><feFlood flood-opacity="0" result="BackgroundImageFix"/><feBlend in="SourceGraphic" in2="BackgroundImageFix" result="shape"/><feGaussianBlur result="effect1_foregroundBlur_92_1449" stdDeviation="75"/></filter><filter id="d" width="63.067" height="63.067" x="135.816" y="135.901" color-interpolation-filters="sRGB" filterUnits="userSpaceOnUse"><feFlood flood-opacity="0" result="BackgroundImageFix"/><feBlend in="SourceGraphic" in2="BackgroundImageFix" result="shape"/><feGaussianBlur result="effect1_foregroundBlur_92_1449" stdDeviation="8.7"/></filter><filter id="e" x="122.527" y="126.154" color-interpolation-filters="sRGB" filterUnits="userSpaceOnUse"><feFlood flood-opacity="0" result="BackgroundImageFix"/><feBlend in="SourceGraphic" in2="BackgroundImageFix" result="shape"/><feGaussianBlur result="effect1_foregroundBlur_92_1449" stdDeviation="14.7"/></filter><radialGradient id="b" cx="0" cy="0" r="1" gradientTransform="rotate(90 0 167.392)scale(16.0803 16.5255)" gradientUnits="userSpaceOnUse"><stop stop-color="#00d1ff"/><stop offset=".986" stop-color="#6339f0" stop-opacity=".2"/></radialGradient><linearGradient id="c" x1="167.349" x2="180.213" y1="153.301" y2="161.891" gradientUnits="userSpaceOnUse"><stop stop-color="#6339f0"/><stop offset="1" stop-color="#0b0b0c"/></linearGradient></defs></svg>