<svg xmlns="http://www.w3.org/2000/svg" fill="none" viewBox="140 140 75 75"><g filter="url(#a)"><circle cx="177.537" cy="177.537" r="27.537" fill="url(#b)"/></g><circle cx="177.47" cy="177.604" r="22.378" fill="url(#c)" fill-opacity=".2"/><g filter="url(#d)"><circle cx="177.47" cy="177.604" r="21.378" stroke="#00d1ff" stroke-width="2"/></g><g filter="url(#e)"><path fill="#6339f0" d="M201.498 179.668c.044.585-.085 1.346-.25 1.911-.051.177-.171.07-.213.19-.081.235-.048.467-.146.695-.033.076-.225-.054-.255.025-.162.434-.187.859-.327 1.299-.69 2.15-1.523 4.186-2.665 6.118-.377.639-.999 1.304-1.354 1.975-.041.079.141.139.144.161.042.352-.215.069-.354.182-.552.45-1.022 1.032-1.39 1.579-.156.233.304.256-.036.338-.023.006-.125-.175-.191-.131-.148.101-.34.369-.442.457-.197.17-.224.202-.394.377-.234.239-.581.45-.808.728-.049.06.163.135.098.245s-.316.318-.429.356-.184-.11-.222-.124c-.319-.122-.32.437-.351.477-.555.707-1.307.978-1.978 1.443-.511.354-1.035.778-1.557 1.065-.622.342-1.203.521-1.815.829-.065.032.112.21.033.25-.849.424-1.744.747-2.686.885-.095.014-.043-.221-.141-.219-.599.018-1.543-.153-1.667.798-.387.057-.862.118-1.234 0-.24-.076-.067-.335-.318-.194-.057.031.055.213-.033.245-.377.137-.804.131-1.178.277-.076.03-.035.203-.054.237-.164.279-.519-.117-.588-.143-.535-.187-.903-.076-1.383-.067-.112.001.027.235-.081.245a6 6 0 0 1-.568.022 5 5 0 0 1-1.125-.133c-.12-.03.001-.227-.056-.252-.249-.107-.329.271-.57.171-.051-.021-.008-.191-.016-.211-.123-.309-.284.102-.323.108-.491.083-.749-.392-1.208-.394-.056 0 .036.235-.119.222a8.9 8.9 0 0 1-3.046-.842c-.144-.071.011-.197.007-.219-.064-.35-.285.027-.34.027-.427-.011-.667-.471-1.099-.088-1.565-.749-3.273-1.28-4.475-2.59-.015-.016.13-.172.099-.203-.367-.379-.46-.052-.974.079-.131.031-.072-.516-.069-.557.007-.155.26-.357.251-.394-.07-.295-.646.562-.906.368-.007-.007.14-.134.13-.165-.031-.097-.142-.087-.167-.189-.056-.234.203-.666-.196-.612-.051.006-.376.497-.581.293-.082-.08-.475-.402-.556-.525s.117-.199.115-.212c-.116-.437.06-.418.173-.815.114-.394-.444.283-.567.302-.124.018-.182-.321-.18-.419s.145-.126.131-.196c-.094-.463-.429.188-.621.193-.456.009-.16-.621-.303-.868-.039-.067-.105.079-.162.038-.222-.164-.178-.418-.52-.528-.055-.017-.517.043-.401-.266.018-.044.183-.098.138-.209-.067-.167-.232-.429-.387-.542-.115-.083-.231.204-.27.017-.017-.084.192-.066.151-.214-.042-.147-.262-.433-.346-.543-.085-.109-.206.07-.224.069-.103-.01-.336-.174-.35-.194-.702-.98-.957-2.1-1.561-3.083-.047-.079-.213.069-.222.058-.216-.244.402-.267.482-.541-.379.212-.362.064-.496-.115-.064-.087-.193.034-.213.032-.297-.04-.04-.275.011-.327.186-.192-.127-.181-.001-.31.125-.128.41-.075.329-.263-.166.005-.481.303-.603.18-.467-.467-.54-1.651-.639-2.12-.105-.472-.17-.617-.187-.903-.023-.514-.27-.263-.476-.543-.204-.284.553-.288.698-.367.146-.076-.024-.088.051-.159.074-.071.204.021.21-.109.007-.128-.335-.413-.507-.43-.363-.033-.7.191-.631-.175.004-.02.207.011.213-.067.049-.619-.02-1.238.062-1.841.011-.083.233-.028.242-.076.1-.499-.249-.296-.671-.547.542.03.86-.14.85-.504-.006-.22-.24-.175-.409-.317-.051-.042.108-.204-.003-.232-.342-.087-.722.048-.63-.271l.022-.063c.008-.017.206.038.218-.021.082-.385-.297-.436-.327-.861-.024-.334.245-.905.319-1.271.603.065.499-.287.101-.479.045-.238.056-.499.148-.722.031-.076.197.002.217-.005.318-.106-.067-.271-.075-.325-.059-.585.334-.969.163-1.559-.006-.021-.408-.15-.075-.219.023-.004.166.214.242-.028.075-.244.416-.638.33-1.028-.021-.093-.283-.403.025-.487.042-.011.149.05.223.04.237-.034-.149-.224.234-.227.383-.002.719-.146.606-.553-.003-.013-.29-.209-.245-.31.071-.16.229-.364.298-.532.032-.081-.182-.111-.18-.126.124-.593.473-.902.829-1.425.065-.094-.032-.525.275-.613.336-.095 1.111.62 1.166.032.021-.23-.944-1.16-.152-1.145.286-.756.988-1.144 1.286-1.904.013-.034-.2-.35-.142-.414.085-.092.26-.037.326-.098.278-.253.393-.605.654-.857.099-.095.196.059.313-.052.118-.111.026-.351.26-.431.179-.059.629.16.821.05-.32-.34-.206-.439-.094-.713.022-.053-.13-.134-.126-.165.017-.13.177-.094.186-.226.002-.031-.104-.15-.108-.183-.036-.285.406-.195.48-.177.288.065.215-.145.378-.161.162-.014.085.204.24.148.321-.115.624-.389.887-.578.105-.076-.094-.193-.082-.208.185-.206.537-.18.415-.613.783.792.071-.182.52-.219.036-.003.354.408.302.535s-.287.09-.349.279c-.016.045.093.564.089.604-.045.316-.53-.289-.566-.315-.386-.287-.282.293-.313.362-.146.323-.421.405-.546.665-.082.168.235.566.126.639-.358.242-.956-.171-.839.561.026.157.473.496-.054.399-.032-.007-.482-.125-.398.15.011.034.126.148.12.173-.041.167-.202.149-.269.309s-.13.364-.294.464c-.098.06-.419-.031-.51-.039-.262-.023-.103.328-.361.235-.261-.092-.438-.492-.733-.399.317.275.636.567.953.847-.353.406-.785.749-1.084 1.207-.036.057.188.13.154.194-.142.268-.423.399-.539.699-.088.233-.022.584-.096.83-.493-.111-.54.302-.706.522-.058.077-.169.012-.238.053-.258.16.176.247.203.34.12.395-.753-.011-.891.333-.008.02.359.447.376.488.107.27-.177-.043-.263.058-.158.185-.336.289-.301.6.01.092.237.385-.048.44-.037.007-.192-.064-.207-.052-.261.222.237.415.35.632.114.216-.315.339-.432.358-.304.047-.078-.138-.101-.154-.275-.187-.285.014-.356.147-.503-.141-.538.073-.071.139.051.007.039-.118.071-.139.447.283.446.505-.084.611-.248.05-.47-.129-.475.247-.001.17.363.202.421.364.135.368-.287.697-.303 1.041-.005.123.211.046.214.131.01.223-.171.386-.134.617.004.02.215.008.207.074-.061.508-.251.934-.307 1.47-.027.259.053.73.018.996-.041.316-.198.679-.266 1.013a1.1 1.1 0 0 0-.019.429c.053.261.258.198.402.303.278.2-.187.6-.259.659-.002.002-.064-.221-.163-.094-.215.084.162.092.163.094-.047.037-.059.49-.01.575.026.046.217 0 .227.025a5 5 0 0 1 .378 1.753c-.002.011-.22.034-.222.06-.031.363.278.532.495.774.218.243.22.466-.099.727.1.199.026.543-.018.747s.37.101.383.113c.404.386.263.723.408 1.216.068.235.306.655.455.875.117.174.078.328.216.473.019.02.179-.084.189-.08.294.093-.167.2-.223.275-.202.273-.301.438-.049.622.059.044.734-.1.821-.021.112.105-.124.17 0 .278.011.009.139-.064.179.022.187.397.36.853.622 1.23.035.052.188-.142.242-.07.251.336.506.716.664 1.109.038.098-.131.145-.157.192-.152.287.306.181.331.2.623.462.708 1.152 1.377 1.588.038.024.585-.07.41.308-.013.025-.192.413.091.304.017-.007.098-.217.194-.095.097.122.37.189.375.499.001.097-.144.506.22.399.026-.006.725-.359.49.092-.039.074-.389.47-.03.414.069-.011.078-.155.219-.137.213.027.32.29.642.238.058-.009.402-.199.349.098-.008.047-.144.166-.098.224.22.275.579.378.801.666.08.102-.127.308-.059.442.069.134.256.336.439.293.183-.042.289-.506.478-.437.818.296 1.45.912 2.235 1.289.116.055.081-.135.255-.066.644.261 1.808.492 2.298.976.401.393-.251.437.086.643.167.099.484-.367.528-.374.449-.067.688.221 1.077.22.08-.001.042-.225.109-.223.228.003.45.135.666.149.097.005.102-.159.188-.134.206.056.384.146.577.321.018.015-.133.204.027.228.255.038.568.216.879.078.092-.042.116-.414.291-.147.037.055-.033.501.205.123.042-.062.419-.574.596-.237.028.052.083.204.146.306.043.069.09.115.133.091.015-.009-.045-.209.044-.229.311-.068.634-.057.948-.137.084-.022-.053-.222.071-.248.341-.072.765-.056 1.109-.03.127.01.061.19.072.208.183.285.219-.134.263-.164.278-.181.531-.024.797-.122.073-.026-.013-.21-.001-.229.124-.195.07.171.175.192.295.058.6-.02.872-.107.099-.032-.065-.228.024-.254a7.7 7.7 0 0 1 1.622-.333c.104-.008.097.178.129.209.228.22.313-.211.346-.261.156-.229.288-.113.464-.209.851-.466 1.96-.873 2.786-1.268 1.07-.511 1.941-.899 2.815-1.641.055-.047-.146-.184-.101-.227.588-.541 1.235-1.001 1.752-1.618.042-.05-.181-.138-.119-.223.126-.176.32-.363.518-.475.096-.056.14.177.235.118.221-.138.411-.331.55-.551.058-.094-.22-.113-.131-.223.599-.755 1.111-1.53 1.872-2.21.052-.046.475.141.475-.03-.103-.074-.232-.15-.346-.224.657-1.246 1.389-2.448 1.872-3.79.021-.057-.242-.037-.205-.146.216-.631.324-1.262.712-1.873.038-.061.447.068.428-.147-.004-.038.003-.351-.074-.445-.011-.013-.217.003-.205-.094a10 10 0 0 1 .389-1.69c.029-.089.23.03.253-.034.16-.455.033-.98.24-1.419.139-.299.502-.178.866-.337.052-.023.062-.219.272-.228.529-.024 1.107.079 1.67.042.122-.007-.008-.295.284-.124.02.012.116.222.215.275.068.038.283-.025.37.051.086.076-.094.155.006.281.101.126.346.079.366.331m-45.15 5.984c-.136.23.577.005.349-.108a2.5 2.5 0 0 0-.349.108m2.957-19.819c-.402-.013-.098.397.201.419.296.024-.081-.414-.201-.419m1.316-1.966c-.374.022.387.762.415.414.002-.02-.394-.416-.415-.414m37.771 15.952a.4.4 0 0 0 .017-.145c-.234-.085-.267.191-.017.145m-36.26-17.788c-.159-.052-.23.234-.034.297.158.052.229-.231.034-.297m-1.795 31.793c-.007.01.057.093.101.048.143-.144.005-.209-.101-.048m5.056-34.171c-.526.268-1.317-.262-.691-.537.112-.049-.076.375.097.361.311-.023.191-.592.59-.482.07.022.033.644.004.659zm-9.861 26.388a.4.4 0 0 0 .041.145c.25-.007.172-.283-.041-.145m9.204 11.993c-.005.022.275.215.295.204.347-.244-.207-.628-.295-.204m-10.885-21.578c-.223-.181-.229-.382.083-.474-.034.156-.053.317-.083.474"/></g><path fill="#00d1ff" d="M199.942 178.508a17 17 0 0 1-.146 1.751c-.023.165-.026.08-.043.193-.033.221-.055.428-.095.645-.014.072-.02-.021-.034.055-.075.415-.142.805-.236 1.222a22.8 22.8 0 0 1-2.196 5.859 27 27 0 0 1-1.184 1.936c-.046.07-.003.039-.01.053-.123.221-.107.131-.204.263a42 42 0 0 1-1.23 1.579c-.169.206.032.026-.159.216-.013.014.017-.05-.033.004-.111.122-.317.36-.405.453l-.359.38c-.221.232-.496.495-.741.735-.053.051.031-.001-.051.082a9 9 0 0 1-.392.359c-.08.066-.058.024-.074.034-.133.079-.375.346-.41.376-.628.559-1.216.978-1.864 1.426-.493.34-1.031.688-1.525.971-.589.337-1.105.592-1.7.874-.063.029.021.016-.056.052a19 19 0 0 1-2.516.971c-.087.027.017-.029-.069-.004-.529.157-1.38.341-1.677.5a12 12 0 0 1-1.141.213c-.214.027-.012-.032-.271.023-.058.012.022.019-.066.035-.373.07-.778.12-1.148.172-.075.011-.053.026-.074.032-.178.046-.48.031-.546.033-.498.019-.863.048-1.325.061-.108.002.02.023-.084.026q-.27.008-.543.008c-.367 0-.732-.013-1.081-.036-.117-.008-.008-.023-.064-.028-.247-.023-.304.012-.54-.013-.05-.005-.02-.021-.029-.023-.14-.041-.266-.009-.303-.012-.46-.029-.754-.108-1.196-.164-.053-.007.064.032-.085.012a19 19 0 0 1-2.981-.667c-.147-.046-.037-.031-.046-.036-.142-.075-.252-.064-.301-.077-.383-.106-.722-.261-.992-.304-1.575-.586-3.1-1.309-4.479-2.248-.018-.012.026-.009-.009-.033-.42-.287-.355-.207-.656-.364-.076-.04-.26-.228-.276-.245-.06-.059.029-.034.007-.052-.174-.151-.205-.044-.455-.231-.007-.006.037.004.017-.014-.061-.053-.13-.096-.189-.149-.135-.123-.155-.202-.389-.352-.029-.019-.025.061-.238-.118-.086-.07-.46-.387-.56-.482s-.017-.045-.024-.052c-.259-.265-.147-.18-.259-.331-.11-.152-.132-.053-.194-.098a3 3 0 0 1-.287-.297c-.042-.052.026-.003-.014-.047-.26-.293-.153-.089-.254-.171-.239-.192-.357-.409-.542-.617-.05-.057-.019-.001-.066-.05-.184-.192-.275-.324-.488-.541-.034-.035-.223-.196-.302-.337-.012-.02.041.019-.028-.071-.104-.133-.291-.373-.407-.514-.085-.104-.012.034-.109-.105-.043-.062.054.039-.027-.076s-.295-.403-.374-.515c-.08-.11-.053-.038-.06-.046a5 5 0 0 1-.217-.278c-.663-.962-1.176-1.914-1.683-2.93-.04-.08-.033-.017-.04-.029-.139-.272.015-.079-.058-.28-.026.047-.073-.07-.166-.264-.045-.094-.037-.035-.042-.043-.087-.13-.099-.242-.104-.27-.018-.104-.088-.194-.099-.264s.072.067-.007-.123c-.036-.047-.016.109-.081-.033-.253-.536-.585-1.591-.712-2.049-.13-.455-.171-.604-.235-.873-.11-.485-.095-.301-.178-.6-.081-.302.024-.17.03-.217s-.02-.089-.022-.144c-.003-.055.032.058.009-.068a4 4 0 0 0-.14-.504c-.051-.088-.061.074-.106-.262-.002-.02.027.039.017-.035a23 23 0 0 1-.196-1.786c-.005-.081.022-.011.02-.058-.025-.491-.047-.313-.104-.581q.087.088.065-.465c-.007-.224-.029-.185-.049-.33-.006-.043.007-.203-.004-.231-.035-.09-.073.039-.064-.271l.002-.061c.001-.017.02.037.022-.022.01-.379-.027-.423-.017-.833.008-.322.068-.889.109-1.252.059.014.079-.33.055-.473.029-.235.061-.489.101-.715.013-.077.023-.023.026-.033.053-.146.029-.253.036-.304.076-.549.196-.985.288-1.506.003-.018-.031-.057.033-.188.004-.008-.02.166.042-.075.061-.242.205-.687.287-1.023.019-.081.049-.293.127-.447.01-.02.014.007.031-.022.053-.093.03-.161.104-.267.075-.105.183-.339.282-.672.004-.011.001-.1.041-.201.064-.163.163-.39.233-.558.034-.08-.007-.037-.001-.051.219-.545.411-.917.703-1.473.053-.102.181-.409.309-.594.141-.201.106.066.363-.432.105-.199.141-.515.417-.822.413-.675.866-1.251 1.34-1.886.021-.028.063-.139.116-.204.08-.096.136-.138.194-.205.243-.283.456-.549.701-.813.093-.099.073-.052.185-.171.112-.117.17-.212.332-.362.122-.112.273-.196.435-.346-.027-.039.082-.145.27-.338.036-.037-.015-.011.001-.029.067-.074.144-.127.208-.198.016-.017.006-.029.018-.044.103-.125.326-.273.364-.298.147-.096.195-.164.303-.243s-.037.059.086-.037c.255-.197.577-.456.838-.652.104-.078.021-.041.035-.053.213-.167.448-.307.545-.428.217-.017.127-.103.459-.301.027-.015.087.007-.005.078s-.247.157-.373.259c-.03.024-.18.191-.202.211-.176.155-.248.113-.26.117-.141.046-.323.25-.376.296-.245.211-.464.374-.663.556-.13.12-.11.17-.216.258-.349.297-.516.353-.79.694-.058.074.046.049-.222.249-.017.012-.221.157-.303.277-.01.015.001.025-.014.043-.105.119-.187.186-.301.315s-.248.287-.383.43c-.082.086-.205.18-.248.218-.121.107-.206.26-.289.32-.085.06.011-.116-.17.076.026.034.045.079.067.118-.366.443-.72.885-1.049 1.358-.041.059.019.012-.024.076-.182.267-.351.493-.526.779-.135.222-.263.477-.395.714-.125.118-.31.477-.451.733-.05.09-.058.078-.095.14-.141.237-.044.142-.072.212-.121.301-.22.283-.382.629-.009.019-.066.264-.077.297-.07.205-.031.025-.09.147-.106.223-.185.376-.281.65-.028.08-.074.28-.155.424-.011.019-.023.002-.03.018-.127.288-.078.315-.122.49a3 3 0 0 1-.194.476c-.073.132.024-.111.024-.119 0-.1-.06.094-.11.241-.057.005-.119.213-.051.152.007-.007.039-.123.051-.152.007.145-.058.372-.178.612-.055.112-.05-.008-.141.356-.04.165.012.111-.017.258-.065.337-.198.76-.264 1.108-.024.126.02.008.005.094-.04.227-.092.426-.124.657-.003.021.026-.026.014.045-.088.541-.165 1.013-.22 1.584-.028.275-.052.77-.067 1.056-.019.34-.043.729-.05 1.082-.003.164-.003.318.002.453.011.277.031.216.049.333.034.227.008.634.005.69 0 .001-.019-.237-.022-.109-.018.075.022.106.022.109-.003.036.028.511.042.605.007.05.024.02.027.047.078.633.17 1.261.277 1.898.002.011-.023-.002-.018.025.058.368.134.598.217.895.084.297.139.532.149.719.063.224.138.55.184.736.046.187.095.199.101.215.184.496.259.789.449 1.302.09.245.29.718.409.974.092.202.139.328.231.511.013.024.018-.009.022-.002.118.197.029.118.042.164.047.167.079.27.224.525.033.059.183.203.244.309.08.139.03.097.115.241.008.012.019.003.068.093.23.421.491.874.763 1.291.037.057.009-.028.063.054.253.384.542.799.802 1.165.064.09.01.044.02.066.065.136.227.276.249.303.523.634.905 1.136 1.498 1.731.032.033.309.252.393.39.006.009.088.147.206.222.007.005-.048-.077.072.042.12.118.327.293.484.465.049.055.152.201.339.32.012.008.315.172.376.287.01.019-.04.047.18.191.042.028-.021-.038.086.038.164.118.366.293.578.423.037.023.205.104.309.212.016.017-.03.005.032.053.295.224.622.433.93.647.11.076.037.063.151.144.113.082.348.235.48.298.131.064.018-.056.207.051.824.465 1.648.909 2.518 1.283.128.055.028-.004.218.074.701.299 1.951.703 2.581.902.505.164-.146.012.244.127.188.055.405.053.452.062.451.09.761.178 1.169.246.084.013.006-.023.077-.011.245.04.504.092.738.123.105.015.088-.004.185.01.232.034.437.066.664.105.021.004-.122.009.051.028.279.03.626.074.951.078.096 0 .103-.036.307 0 .043.007-.014.05.227.02.041-.004.445-.045.643-.011.032.005.092.021.16.031a1 1 0 0 0 .143.009c.016-.001-.047-.021.049-.023.339-.01.69-.019 1.035-.044.093-.007-.046-.02.092-.029.38-.027.846-.062 1.217-.099.136-.013.044.015.055.016.162.011.251-.042.303-.051.325-.057.575-.076.875-.132.083-.016.021-.025.037-.029.167-.047.046.01.155-.006.304-.043.639-.113.942-.184.111-.026-.019-.02.081-.043a33 33 0 0 0 1.763-.472c.107-.032.045.006.069.003.161-.023.371-.134.421-.156.226-.096.32-.113.523-.192a26 26 0 0 0 3.049-1.411c1.136-.633 1.987-1.189 2.961-1.96.062-.049-.015-.018.038-.061a22 22 0 0 0 1.946-1.754c.05-.052-.038.007.042-.077.164-.171.371-.389.538-.561.082-.084-.01.045.072-.041.19-.198.385-.419.564-.637.076-.093-.058.031.042-.089a28 28 0 0 0 1.875-2.566c.04-.062.113-.093.186-.232-.005-.017-.018-.024-.027-.036a22.7 22.7 0 0 0 1.95-4.192c.021-.062-.038.037.003-.083.234-.696.421-1.383.611-2.107.019-.072.053-.025.093-.242.008-.038.07-.363.076-.449.001-.011-.03.044-.01-.06.113-.609.213-1.248.289-1.863.012-.1.023.009.032-.062.062-.498.082-1.053.117-1.53.023-.322.055-.202.095-.374.006-.024.009-.225.03-.236.053-.026.11.072.166.032.013-.008 0-.281.029-.119.003.011.011.209.02.258.006.034.029-.027.036.042.008.069-.011.145-.004.26.007.114.034.065.028.293m-43.692 6.336c.038.175.118.175.038-.001-.004-.009-.04-.008-.038.001m3.157-20.504c-.165.168-.218.327-.102.208.117-.117.153-.259.102-.208m1.524-1.878c-.204.184-.154.287.027.057.011-.013-.015-.067-.027-.057m38.689 16.314c.001-.003.009-.146.008-.15-.02-.077-.035.21-.008.15m-36.985-18.008c-.074.045-.246.221-.155.164.072-.046.246-.22.155-.164m-1.697 32.049a.5.5 0 0 0 .074.073c.01-.019-.093-.121-.074-.073m5.001-34.445c-.519.306-.875.434-.31.092.103-.061-.204.159-.071.086.244-.134.374-.276.635-.392.047-.022-.224.196-.255.215zm-9.741 26.598c0 .004.047.139.049.142.049.066-.046-.207-.049-.142m9.377 11.718c.005.007.29.181.3.185.169.057-.405-.296-.3-.185m-10.568-21.257a1.3 1.3 0 0 1 .053-.468q-.03.234-.053.468"/><defs><filter id="a" x="0" y="0" color-interpolation-filters="sRGB" filterUnits="userSpaceOnUse"><feFlood flood-opacity="0" result="BackgroundImageFix"/><feBlend in="SourceGraphic" in2="BackgroundImageFix" result="shape"/><feGaussianBlur result="effect1_foregroundBlur_530_325" stdDeviation="75"/></filter><filter id="d" width="79.556" height="79.555" x="137.692" y="137.826" color-interpolation-filters="sRGB" filterUnits="userSpaceOnUse"><feFlood flood-opacity="0" result="BackgroundImageFix"/><feBlend in="SourceGraphic" in2="BackgroundImageFix" result="shape"/><feGaussianBlur result="effect1_foregroundBlur_530_325" stdDeviation="8.7"/></filter><filter id="e" x="124.114" y="129.581" color-interpolation-filters="sRGB" filterUnits="userSpaceOnUse"><feFlood flood-opacity="0" result="BackgroundImageFix"/><feBlend in="SourceGraphic" in2="BackgroundImageFix" result="shape"/><feGaussianBlur result="effect1_foregroundBlur_530_325" stdDeviation="14.7"/></filter><radialGradient id="b" cx="0" cy="0" r="1" gradientTransform="rotate(90 0 177.537)scale(25.4605 26.1653)" gradientUnits="userSpaceOnUse"><stop stop-color="#00d1ff"/><stop offset=".986" stop-color="#6339f0" stop-opacity=".2"/></radialGradient><linearGradient id="c" x1="177.47" x2="197.837" y1="155.226" y2="168.827" gradientUnits="userSpaceOnUse"><stop stop-color="#00d1ff"/><stop offset="1" stop-color="#0b0b0c"/></linearGradient></defs></svg>