<svg xmlns="http://www.w3.org/2000/svg" width="1105" height="674" fill="none" viewBox="0 0 1105 674"><g filter="url(#a)" opacity=".5"><circle cx="532.54" cy="558.753" r="515.341" stroke="#00d1ff" stroke-width="2"/></g><g filter="url(#b)"><path fill="#6339f0" d="M577.748 1065.19c12.18-.37 28.098-1.68 40.182-3.23 3.782-.48 1.85-.38 4.455-.73 5.094-.69 9.817-1.29 14.822-2.13 1.665-.28-.443-.16 1.302-.46 9.571-1.61 18.501-3.21 28.091-5.32 47.075-10.38 91.949-26.9 134.875-50 14.18-7.594 30.839-17.837 44.618-27.075 1.611-1.076.757-.277 1.071-.471 4.915-3.068 3.114-2.292 6.187-4.488 12.181-8.727 25.379-18.908 36.449-28.143 4.704-3.939.255.325 4.819-3.846.316-.291-.992.577.27-.537 2.866-2.517 8.296-7.299 10.464-9.309a657 657 0 0 0 8.779-8.224c5.333-5.083 11.472-11.334 16.961-17.019 1.172-1.214-.223.543 1.656-1.384 1.888-1.922 6.717-7.166 8.284-8.988 1.575-1.815.771-1.161 1.029-1.501 2.123-2.79 7.843-8.729 8.531-9.539 12.68-14.602 22.564-27.953 32.882-42.877 7.825-11.33 15.749-23.78 22.265-35.138 7.78-13.563 13.78-25.357 20.25-39.078.68-1.449.1.35.93-1.421 8.78-18.855 16.3-38.112 22.53-57.836.63-1.982-.39.502.22-1.482 3.81-12.095 8.59-31.607 11.11-38.72 1.96-8.367 4.04-18.624 5.23-26.201.76-4.899-.3-.195.83-6.18.25-1.352.15.444.51-1.587 1.51-8.6 2.75-17.897 3.82-26.448.22-1.736.34-1.242.42-1.732.73-4.139.95-11.024 1.04-12.533.73-11.443 1.27-19.861 1.58-30.512.06-2.481.22.458.29-1.93.11-4.123.17-8.308.16-12.511 0-8.431-.24-16.841-.69-24.886-.16-2.681-.24-.205-.32-1.485-.4-5.691-.09-6.979-.57-12.417-.1-1.146-.22-.486-.26-.694-.54-3.248-.37-6.115-.44-6.955-.83-10.587-2.08-17.417-3.45-27.586-.17-1.218.45 1.495-.04-1.927-3.29-22.921-8.56-46.77-15.14-68.714-1.03-3.401-.47-.922-.56-1.131-1.32-3.402-1.61-5.771-1.94-6.881-2.58-8.79-5.7-16.755-7.32-22.756-13.29-36.367-30.27-71.308-51.388-103.388-.268-.408.028.441-.506-.373-6.491-9.759-5.005-8.031-9.058-14.675-1.024-1.674-4.851-6.256-5.191-6.657-1.222-1.482-.317.315-.711-.192-3.267-4.185-1.908-4.102-6.197-9.849-.136-.178.278.689-.099.219-1.17-1.459-2.231-2.981-3.397-4.391-2.679-3.223-3.975-4.096-7.743-9.259-.483-.649.77-.072-3.31-5.002-1.609-1.983-8.923-10.595-11.07-12.921-2.122-2.344-.825-.593-.981-.757-5.854-6.185-3.786-3.702-6.928-6.604-3.158-2.882-1.718-2.607-2.832-3.946-1.112-1.346-5.57-5.721-6.696-6.764-1.12-1.048.127.405-.852-.543-6.518-6.256-2.472-3.131-4.471-5.344-4.744-5.195-9.146-8.519-13.891-12.847-1.287-1.17-.145-.314-1.273-1.375-4.483-4.191-7.358-6.503-12.508-11.215-.839-.772-4.877-4.74-7.879-6.847-.426-.298.604.763-1.434-.874-3.04-2.449-8.55-6.818-11.839-9.426-2.427-1.928.55.03-2.594-2.283-1.4-1.024 1.059 1.05-1.565-.881-2.606-1.932-9.258-6.85-11.827-8.676-2.556-1.833-1.038-.997-1.237-1.156-1.202-.964-6.101-4.501-6.547-4.798-22.184-15.263-43.892-27.46-67.4-39.036-1.85-.905-.522-.5-.804-.64-6.307-3.118-1.544-.22-6.066-2.144.825-.088-1.824-1.264-6.324-3.349-2.171-1.001-.915-.62-1.107-.725-3.133-1.683-5.537-2.36-6.147-2.552-2.255-.706-4.496-1.972-6.03-2.432s1.758 1.168-2.624-.65c-1.173-.65 2.244.315-1.069-1.114-12.469-5.536-36.65-13.572-47.19-16.527-10.48-3.06-13.924-3.955-20.107-5.498-11.164-2.675-7.011-1.948-13.946-3.693-6.98-1.689-3.731-.204-4.772-.272-1.022-.058-2.07-.448-3.322-.62-1.248-.17 1.393.488-1.507-.079-2.88-.578-10.723-2.356-11.728-2.692-2.115-.732 1.539-.485-6.189-1.684-.444-.067.963.367-.739.101-13.502-2.11-27.609-3.875-41.164-4.897-1.866-.14-.217.216-1.303.139-11.329-.743-7.257-.781-13.468-1.577 1.375.632-2.12.697-10.682.373-5.166-.175-4.27-.374-7.618-.623-1.005-.075-4.681.026-5.347-.09-2.071-.357.906-.735-6.251-.665q-.647.009-1.409.025c-.391.008.856.203-.497.219-8.74.147-9.758-.22-19.193.073-7.402.226-20.5 1.316-28.857 2.192.238.576-7.676 1.235-10.927 1.215-5.422.65-11.252 1.409-16.474 2.253-1.793.29-.586.286-.81.339-3.425.82-5.823.806-6.986.982-12.628 1.954-22.763 4.328-34.681 6.829-.424.091-1.196-.167-4.297.911-.199.072 3.758-.71-1.81.684-5.571 1.388-15.932 4.422-23.601 6.558-1.856.507-6.609 1.614-10.253 3.083-.484.196.095.134-.599.431-2.243.96-3.638.973-6.224 2.233-2.579 1.262-8.109 3.444-15.69 6.038-.241.084-2.136.437-4.483 1.353-3.758 1.461-9.035 3.665-12.905 5.293-1.854.778-.75.086-1.073.218-12.509 5.195-21.191 9.41-34.075 16.043-2.367 1.214-9.271 4.507-13.662 7.195-4.815 2.972.707.97-10.65 7.213-4.552 2.544-10.949 4.821-18.52 10.454-15.462 9.705-29.011 19.808-43.487 30.992-.651.503-2.912 1.845-4.412 3.071-2.225 1.82-3.331 2.957-4.9 4.277-6.57 5.546-12.583 10.621-18.68 16.24-2.309 2.139-1.385 1.518-4.12 4.087-2.723 2.576-4.699 4.13-8.256 7.764-2.681 2.75-5.063 5.793-8.57 9.479-.467-.183-2.916 2.316-7.256 6.772-.834.857-.078-.191-.478.209-1.633 1.627-2.977 3.285-4.516 4.841-.374.379-.509.29-.821.594-2.666 2.577-6.421 7.396-7.054 8.23-2.447 3.184-3.815 4.478-5.723 6.892-1.899 2.414 1.134-1.032-1.12 1.756-4.674 5.779-10.625 13.236-15.158 19.27-1.809 2.404-.744.637-1.007.978-3.787 4.942-7.273 10.196-9.603 12.775-1.57 4.17-2.274 2.99-7.068 10.505-.375.594-.44 1.621 1.12-.572s3.725-5.654 5.966-8.639c.524-.712 3.852-4.552 4.284-5.091 3.351-4.244 3.201-5.305 3.333-5.564 1.553-2.891 5.719-7.5 6.749-8.76 4.69-5.791 8.588-10.774 12.675-15.48 2.679-3.072 3.327-3.042 5.397-5.476 6.924-8.05 8.905-11.279 16.214-18.157 1.58-1.461.483.443 5.521-5.38.313-.368 4.035-4.721 6.568-6.855.317-.268.422-.144.82-.518 2.674-2.502 4.339-4.293 7.276-6.993 2.938-2.697 6.519-5.885 9.869-8.968 2.017-1.861 4.46-4.412 5.403-5.331 2.656-2.603 5.916-4.916 7.512-6.589 1.615-1.687-2.126.915 2.449-3.106.442.18 1.116.183 1.664.28 10.271-8.471 20.629-16.523 31.576-24.182 1.359-.948.1.208 1.561-.801 6.172-4.249 11.521-8.009 18.114-12.13 5.097-3.182 10.853-6.419 16.305-9.537 3.056-2.365 11.267-6.84 17.224-10.05 2.088-1.13 1.889-1.167 3.364-1.99 5.583-3.083 3.131-1.321 4.714-2.063 6.809-3.13 6.941-4.288 14.946-8.068.426-.208 5.829-2.144 6.562-2.433 4.647-1.868.679-.507 3.524-1.821 5.206-2.383 8.813-4.068 15.084-6.469 1.827-.7 6.314-2.15 9.769-3.734.455-.21.137-.269.509-.422 6.753-2.734 7.131-2.275 11.109-3.515 3.981-1.239 9.939-3.632 11.156-4.138 3.168-1.331-2.53.711-2.711.752-2.166.393 2.293-1.063 5.703-2.187.331-.663 5.136-2.149 3.539-1.157-.183.11-2.861.91-3.539 1.157 3.163-.485 8.411-2.073 14.124-4.235 2.678-.998.009-.55 8.382-2.77 3.801-.983 2.428-.243 5.804-1.029 7.727-1.796 17.64-4.459 25.677-6.047 2.9-.574.117.195 2.101-.188 5.265-1.006 9.902-2.02 15.242-2.857.482-.075-.657.328.992.05 12.527-2.07 23.497-3.67 36.717-4.952 6.371-.639 17.836-1.351 24.464-1.663 7.885-.41 16.914-.78 25.073-.842 3.796-.032 7.368-.004 10.495.082 6.421.192 5.003.38 7.742.605 5.261.43 14.678.485 15.953.51.04-.007-5.488-.39-2.53-.317 1.73-.116 2.467.312 2.53.316.841-.022 11.845.78 14.007 1.052 1.179.132.5.265 1.115.33a649 649 0 0 1 44.033 6.245c.259.043-.091-.243.518-.138 8.514 1.482 13.903 2.895 20.837 4.623 6.932 1.742 12.384 3.074 16.588 3.79 5.216 1.407 12.697 3.358 16.978 4.549 4.283 1.186 4.74 1.79 5.114 1.912 11.594 3.94 18.29 5.988 30.177 10.438 5.658 2.105 16.655 6.66 22.616 9.356 4.705 2.106 7.571 3.3 11.841 5.363.577.28-.09.177.084.266 4.686 2.46 2.585.961 3.607 1.354 3.699 1.445 5.998 2.364 11.988 5.563 1.384.737 5.124 3.423 7.615 4.799 3.243 1.79 2.121.912 5.506 2.822.288.165.159.257 2.26 1.412 9.746 5.364 20.189 11.508 29.887 17.802 1.323.859-.5-.046 1.407 1.201 8.94 5.846 18.573 12.569 26.975 18.715 2.071 1.514.881.42 1.356.715 2.918 1.816 6.498 5.123 7.121 5.623 14.884 11.926 26.216 21.191 40.177 34.747.769.732 6.283 6.741 9.107 9.057.194.157 3.015 2.431 5.026 4.914.124.154-1.578-1.317 1.149 1.486 2.727 2.805 6.93 7.491 10.697 11.334 1.192 1.214 4.186 3.941 7.27 7.993.212.259 4.75 6.684 6.904 8.53.348.3.474-.417 4.09 4.457.687.934-.723-.629 1.133 1.792 2.84 3.712 6.766 8.507 10.028 13.246.572.827 2.83 4.451 5.053 7.061.349.408-.105-.52.969.933 5.105 6.91 10.092 14.411 14.925 21.666 1.709 2.575 1.097 1.089 2.892 3.769 1.798 2.676 5.277 8.181 6.885 11.141 1.613 2.963-.651.026 1.883 4.392 10.97 19.035 20.97 38.334 29.6 58.522 1.28 2.995.09.569 1.92 4.988 6.94 16.252 16.52 45.236 20.7 59.974 3.45 11.818-.34-3.211 2.18 5.862 1.21 4.38 1.84 9.251 2.08 10.321 2.29 10.425 4.03 17.681 5.7 27.126.33 1.956-.22.078.07 1.742.98 5.675 2.04 11.712 2.8 17.13.34 2.444.12 2.016.44 4.265.75 5.385 1.4 10.163 2.11 15.45.06.482-.08-2.8.35 1.226.68 6.464 1.5 14.511 1.79 22.045.08 2.227-.27 2.37.21 7.108.09.998.5-.301.33 5.274-.02.937-.28 10.302.07 14.919.05.724.21 2.118.31 3.698.07 1.075.12 2.235.09 3.324-.02.365-.21-1.098-.24 1.131-.13 7.858-.36 16.012-.86 24.026-.14 2.15-.17-1.064-.37 2.138-.56 8.826-1.44 19.653-2.37 28.262-.34 3.157.08.997.07 1.228-.13 3.728-.82 5.852-1 7.068-1.14 7.56-1.83 13.337-3.06 20.307-.35 1.918-.31.523-.39.902-.86 3.93 0 1.042-.41 3.554-1.15 7.029-2.74 14.807-4.36 21.85-.6 2.581-.16-.372-.69 1.944-3.18 13.661-7.05 27.809-11.11 40.899-.76 2.472-.1.975-.23 1.501-.87 3.631-2.98 8.665-3.43 9.833-2.02 5.322-2.62 7.426-4.41 12.147-8.61 22.993-21.41 50.569-32.78 70.767-14.792 26.33-27.862 45.928-45.706 68.555-1.142 1.432-.174-.157-1.161 1.074-12.754 15.888-26.122 30.896-40.685 45.207-1.196 1.173.369-.678-1.558 1.196a1056 1056 0 0 1-13.085 12.466c-1.986 1.859.838-.46-1.166 1.407a366 366 0 0 1-14.842 13.044c-2.146 1.78.933-1.094-1.847 1.229-18.965 15.772-38.684 29.935-59.759 43.266-1.447.912-2.488 2.093-5.651 3.884-.3.031-.364-.105-.536-.16-30.887 18.331-63.258 33.491-97.362 45.131-1.438.48.971-.59-1.815.35-16.153 5.43-32.09 9.86-48.973 13.97-1.681.4-.716.64-5.716 1.67-.882.19-8.416 1.69-10.37 1.96-.267.04 1.066-.42-1.356.04a587 587 0 0 1-43.251 6.54c-2.31.26.174.22-1.472.4-11.542 1.31-24.394 1.99-35.472 2.54-7.469.35-4.694.63-8.673 1.07-.563.07-5.219.12-5.461.33-.617.53 1.65 1.1.726 1.67-.194.13-6.469.01-2.753.29.26.03 4.806.09 5.925.17.779.06-.621.3.969.36s3.331-.15 5.96-.11c2.627.03 1.484.32 6.718.15M724.494 58.81c3.963 1.154 4.287 2.061.138.433-.2-.079-.343-.492-.138-.433m-474.247 73.174c4.143-3.477 7.433-5.217 4.498-2.79-2.924 2.436-5.756 3.852-4.498 2.79m-43.213 35.479c4.472-4.457 5.919-4.332.797.062-.296.256-1.058.199-.797-.062m377.065 894.347c-.067.01-3.375.18-3.457.17-1.778-.15 4.856-.49 3.457-.17M168.137 207.067c1.182-1.585 5.083-5.706 3.587-3.761-1.21 1.559-5.066 5.725-3.587 3.761m740.096-39.033c.056.035 1.815 1.662 1.736 1.676-.256.035-2.657-2.276-1.736-1.676M112.8 283.401c7.126-11.974 11.028-19.556 3.031-6.604-1.43 2.354 3.355-4.904 1.579-1.88-3.243 5.526-5.9 8.902-8.915 14.727-.552 1.048 3.89-5.567 4.319-6.263zM727.032 58.738c.083.015 3.209 1.107 3.28 1.145 1.61.82-4.684-1.38-3.28-1.145m270.069 216.679c.127.14 4.139 6.712 4.239 6.943 1.75 3.631-6.35-9.65-4.239-6.943M506.916 31.946c-3.608.104-7.953.547-10.781 1.183 3.57-.435 7.199-.824 10.781-1.183"/></g><path fill="#00d1ff" d="M552.924 1063.22c12.132-.43 27.99-1.68 40.039-3.15 3.771-.45 1.859-.25 4.457-.57 5.083-.66 9.783-1.3 14.779-2.09 1.661-.26-.414.02 1.328-.26a523 523 0 0 0 28.022-5.24c46.983-10.19 91.78-26.6 134.646-49.58 14.159-7.559 30.866-17.653 44.582-26.929 1.604-1.081.669-.405.976-.609 4.799-3.214 3.169-2.195 6.259-4.354 12.247-8.582 25.436-18.739 36.449-28.001 4.68-3.951.05.083 4.71-3.955.323-.281-.88.703.39-.396 2.886-2.485 8.289-7.28 10.461-9.278a504 504 0 0 0 8.782-8.191c5.326-5.072 11.512-11.259 16.966-16.96 1.164-1.217-.344.426 1.512-1.516 1.865-1.937 6.694-7.162 8.286-8.955 1.6-1.786.892-1.05 1.17-1.37 2.303-2.624 7.762-8.778 8.441-9.591 12.549-14.667 22.565-27.873 32.868-42.776 7.811-11.313 15.668-23.777 22.185-35.11 7.773-13.533 13.843-25.269 20.288-38.976.67-1.447-.07.269.75-1.499a505 505 0 0 0 22.61-57.686c.64-1.975-.22.557.41-1.418 3.93-12.031 9.03-31.461 10.84-38.729 1.99-8.346 4.1-18.577 5.42-26.117.85-4.876-.03-.147 1.03-6.139.23-1.354-.02.414.32-1.617 1.45-8.596 2.74-17.873 3.73-26.421.2-1.735.18-1.257.24-1.749.52-4.153 1.07-10.99 1.19-12.496.91-11.41 1.38-19.825 1.69-30.461.07-2.477.04.453.1-1.932.1-4.116.15-8.293.15-12.489 0-8.416-.21-16.812-.61-24.847-.13-2.677-.05-.213-.12-1.492-.32-5.689-.32-6.957-.73-12.39-.09-1.145-.07-.497-.09-.706-.31-3.263-.47-6.099-.55-6.937-.93-10.56-1.83-17.421-3.25-27.575-.17-1.216.27 1.519-.22-1.898-3.33-22.881-8.55-46.697-14.99-68.656-1-3.404-.32-.964-.39-1.177-1.08-3.472-1.7-5.742-2.03-6.847-2.67-8.75-5.52-16.803-7.52-22.661-13.14-36.375-30.29-71.154-51.083-103.391-.264-.41.173.348-.355-.469-6.408-9.806-5.142-7.938-9.451-14.392-1.087-1.626-4.596-6.423-4.913-6.842-1.137-1.541-.03.11-.408-.409-3.139-4.277-2.447-3.709-6.729-9.446-.135-.18.4.596.036.117-1.132-1.486-2.24-2.97-3.364-4.411-2.579-3.292-3.561-4.414-7.51-9.43-.506-.63.381.239-3.676-4.697-1.6-1.987-8.91-10.581-11.031-12.925-2.097-2.361-.69-.712-.84-.88-5.701-6.312-3.573-3.887-6.498-6.988-2.942-3.083-2.016-2.33-3.186-3.615-1.168-1.291-5.504-5.776-6.589-6.858-1.078-1.088.237.298-.718-.673-6.368-6.403-2.719-2.886-4.796-5.018-4.922-5.002-8.957-8.694-13.668-13.06-1.277-1.179-.216-.237-1.351-1.289-4.508-4.156-7.275-6.589-12.519-11.186-.855-.754-5.09-4.479-7.942-6.76-.404-.323.708.637-1.311-1.021a651 651 0 0 0-11.815-9.444c-2.445-1.901.399.224-2.702-2.14-1.381-1.046 1.153.928-1.443-1.038-2.577-1.968-9.23-6.88-11.801-8.702-2.558-1.829-1.134-.86-1.339-1.011-1.238-.912-6.178-4.383-6.622-4.678-22.17-15.23-43.727-27.656-67.264-39.145-1.852-.899-.599-.34-.882-.477-6.332-3.051-1.378-.565-5.833-2.626.677.226-1.944-1.007-6.457-3.055-2.177-.984-.977-.48-1.174-.574-3.213-1.494-5.508-2.412-6.097-2.653-2.175-.888-4.507-1.937-5.988-2.519-1.483-.58 1.884.867-2.5-.949-1.22-.534 2.072.73-1.258-.65-12.53-5.346-36.597-13.612-47.127-16.592-10.465-3.083-13.912-3.955-20.08-5.541-11.139-2.752-7.046-1.791-13.997-3.428-6.996-1.579-3.625-.673-4.639-.866-.996-.182-2.071-.444-3.309-.684-1.233-.239 1.426.334-1.47-.258-2.877-.604-10.766-2.16-11.794-2.366-2.164-.454 1.435.083-6.267-1.217-.443-.073.989.208-.709-.074-13.474-2.227-27.574-3.999-41.117-5.126-1.864-.154-.2.03-1.286-.059-11.322-.853-7.273-.6-13.499-1.072 1.4.201-2.079.003-10.647-.324-5.169-.177-4.279-.188-7.629-.303-1.005-.036-4.68-.064-5.346-.09-2.074-.085.898-.16-6.251-.163q-.646 0-1.407.006c-.391.003.854.039-.497.045-8.737.084-9.748.02-19.17.35-7.39.254-20.485 1.159-28.839 2.004.193.093-7.714.863-10.923 1.174a497 497 0 0 0-16.466 2.21c-1.795.276-.61.132-.836.17-3.46.586-5.807.893-6.967 1.08-12.597 2.076-22.777 4.208-34.633 6.941-.422.1-1.114.17-4.271 1.007-.203.056 3.716-.874-1.852.507-5.568 1.376-15.975 4.235-23.596 6.519-1.845.543-6.511 1.91-10.217 3.174-.493.168.056.015-.654.26-2.296.796-3.582 1.133-6.26 2.118-2.671.988-8.281 2.968-15.796 5.751-.239.09-2.039.694-4.386 1.606a539 539 0 0 0-12.928 5.236c-1.854.78-.684.242-1.006.377-12.467 5.279-21.205 9.355-34.119 15.93-2.373 1.204-9.167 4.697-13.644 7.226-4.91 2.799.214.076-11.063 6.499-4.524 2.619-10.375 5.786-18.232 10.96-15.39 9.818-29.106 19.7-43.471 31.04-.646.51-2.725 2.079-4.225 3.301-2.229 1.814-3.421 2.846-4.996 4.16-6.597 5.514-12.532 10.676-18.64 16.281-2.314 2.133-1.485 1.409-4.225 3.972-2.73 2.571-4.577 4.259-8.196 7.829-2.728 2.7-5.38 5.476-8.923 9.136-.199.077-2.653 2.571-6.922 7.095-.82.871.032-.089-.357.322-1.583 1.672-3.006 3.257-4.49 4.861-.361.391-.402.388-.698.706-2.525 2.701-6.49 7.325-7.162 8.127-2.59 3.058-3.832 4.46-5.796 6.825-1.956 2.366 1.005-1.14-1.284 1.619-4.747 5.721-10.685 13.194-15.224 19.226-1.811 2.405-.609.739-.869 1.082-3.752 4.968-7.387 10.117-9.439 12.892-2.289 3.666-2.204 3.038-7.141 10.45-.386.586-.797 1.384.714-.845s3.784-5.618 5.948-8.66c.507-.724 3.521-4.795 3.935-5.349 3.208-4.361 3.558-5.055 3.717-5.294 1.849-2.672 5.681-7.534 6.691-8.815 4.589-5.879 8.56-10.813 12.579-15.584 2.634-3.114 2.973-3.349 5.057-5.779 6.973-8.043 9.371-10.888 16.332-18.114 1.507-1.536.086.063 5.387-5.53.33-.354 4.287-4.489 6.681-6.77.3-.288.314-.255.706-.637 2.63-2.559 4.371-4.28 7.28-7.021 2.91-2.74 6.45-5.99 9.838-9.048 2.04-1.846 4.648-4.222 5.632-5.098 2.772-2.478 5.856-5.007 7.588-6.526 1.75-1.529-1.791 1.316 2.872-2.605.227-.079.682-.342 1.015-.507 10.304-8.482 20.75-16.464 31.711-24.151 1.36-.952-.006.058 1.455-.96 6.172-4.283 11.605-7.945 18.186-12.119 5.087-3.223 10.757-6.632 16.201-9.802 3.261-2.037 11.423-6.637 17.413-9.823 2.098-1.122 1.947-1.068 3.441-1.864 5.651-2.978 3.038-1.515 4.6-2.307 6.725-3.343 7.202-3.813 15.209-7.615.425-.208 5.666-2.522 6.391-2.835 4.59-2.025.74-.378 3.604-1.667 5.24-2.337 8.891-3.935 15.128-6.452 1.817-.733 6.221-2.427 9.756-3.83.465-.185.195-.117.57-.263 6.812-2.616 7.043-2.556 10.983-3.936 3.946-1.379 10.016-3.5 11.261-3.925 3.244-1.126-2.505.801-2.68.862-2.088.638 2.364-.863 5.787-1.968.46-.266 5.261-1.776 3.551-1.139-.196.07-2.867.91-3.551 1.139 3.041-.877 8.293-2.521 14.125-4.318 2.732-.827.117-.177 8.479-2.473 3.796-1.018 2.347-.555 5.71-1.419 7.699-1.974 17.696-4.38 25.736-6.012 2.902-.59.083.025 2.068-.374 5.269-1.05 9.937-1.95 15.279-2.849.482-.08-.689.16.965-.12 12.556-2.095 23.568-3.593 36.818-4.875 6.385-.64 17.871-1.444 24.517-1.738 7.906-.39 16.959-.643 25.135-.65 3.803-.007 7.382.033 10.516.1 6.435.156 5.019.177 7.769.292 5.285.213 14.709.658 15.98.743.04-.004-5.502-.349-2.543-.192 1.722.06 2.48.188 2.543.192.841.017 11.865.857 14.034 1.1 1.184.114.518.091 1.135.15a538 538 0 0 1 44.162 6.156c.259.046-.124-.068.487.042 8.517 1.563 13.961 2.768 20.944 4.377 6.98 1.623 12.443 3.001 16.58 4.01 5.239 1.374 12.704 3.458 16.97 4.729 4.268 1.266 4.826 1.545 5.204 1.661 11.691 3.745 18.348 5.985 30.253 10.475 5.667 2.124 16.711 6.644 22.704 9.314 4.731 2.085 7.571 3.355 11.874 5.377.582.275-.022.033.155.118 4.778 2.303 2.51 1.135 3.507 1.59 3.605 1.665 5.849 2.7 11.902 5.805 1.398.715 5.395 2.933 7.91 4.286 3.271 1.761 2.055 1.05 5.472 2.924.291.162.219.15 2.323 1.314 9.768 5.401 20.207 11.623 29.941 17.927 1.328.861-.399-.205 1.518 1.042a545 545 0 0 1 27.024 18.837c2.064 1.538.792.545 1.245.872 2.784 2.009 6.582 5.053 7.211 5.55 15.038 11.837 26.203 21.367 40.306 34.855.775.726 6.568 6.495 9.179 9.042.18.173 2.778 2.68 4.954 5.016.134.145-1.454-1.447 1.27 1.378 2.723 2.825 7.023 7.453 10.666 11.43 1.155 1.258 3.915 4.205 7.201 8.1.224.246 5.222 6.319 7.077 8.429.298.343.098-.107 3.892 4.642.721.911-.62-.717 1.288 1.676 2.92 3.667 6.768 8.546 10.192 13.188.601.809 3.099 4.276 5.155 7.025.322.43-.248-.418.817 1.048 5.059 6.977 10.141 14.449 14.908 21.781 1.686 2.602.879 1.236 2.627 3.955 1.751 2.716 5.187 8.264 6.889 11.177 1.707 2.918-.251-.214 2.315 4.152 11.118 19.041 20.974 38.511 29.598 58.774 1.28 3.006.2.522 2.05 4.955 6.96 16.302 16.7 45.364 20.62 60.225 3.25 11.912-.71-3.117 1.73 6.002 1.17 4.4 2.21 9.183 2.46 10.254 2.44 10.427 4 17.747 5.72 27.209.36 1.959-.03.045.27 1.713 1.01 5.69 2 11.76 2.78 17.194.35 2.451.25 2.004.56 4.262.74 5.408 1.33 10.211 1.92 15.527.05.485-.25-2.79.17 1.249.67 6.484 1.38 14.561 1.79 22.108.12 2.231.06 2.359.34 7.123.05 1.002.11-.285.24 5.293.04.935.19 10.325.27 14.961.01.726.05 2.125.07 3.71.02 1.078.02 2.241.01 3.333 0 .366-.03-1.1-.05 1.135-.08 7.883-.33 16.062-.78 24.104-.13 2.158.01-1.058-.17 2.157-.52 8.86-1.45 19.724-2.44 28.357-.36 3.166-.07.982-.09 1.213-.38 3.71-.74 5.881-.91 7.104-1.02 7.601-1.87 13.376-3.07 20.375-.33 1.927-.14.554-.21.937-.73 3.969-.14 1.021-.58 3.536-1.24 7.037-2.83 14.841-4.43 21.912-.59 2.592.03-.33-.51 1.994a527 527 0 0 1-11.22 41.025c-.79 2.475-.26.929-.42 1.447-1.08 3.572-2.91 8.718-3.33 9.9-1.91 5.385-2.63 7.456-4.4 12.2-8.54 23.115-21.459 50.762-32.914 71.001-14.896 26.389-28.115 45.968-45.984 68.684-1.144 1.438-.027-.04-1.014 1.198-12.763 15.971-26.231 30.982-40.806 45.38-1.197 1.18.498-.552-1.427 1.338a588 588 0 0 1-13.162 12.485c-2.012 1.846.72-.594-1.308 1.261a480 480 0 0 1-14.918 13.057c-2.146 1.795 1.061-.949-1.728 1.383-19.021 15.843-38.805 30.091-60.076 43.267-1.461.902-2.695 1.772-5.831 3.629-.248.119-.251.085-.368.123-30.964 18.445-63.502 33.545-97.719 45.195-1.443.49 1.037-.4-1.759.54-16.21 5.45-32.197 9.95-49.181 13.88-1.691.39-.798.29-5.8 1.37-.883.2-8.428 1.76-10.374 2.1-.265.05 1.102-.26-1.326.21a528 528 0 0 1-43.406 6.45c-2.318.25.156.04-1.496.21-11.58 1.21-24.458 2.03-35.57 2.42-7.49.25-4.716.24-8.706.39-.563.02-5.225.08-5.467.12-.62.11 1.642.21.715.32-.194.04-6.456.02-2.748.07.26.01 4.795 0 5.909 0 .777 0-.622.07.962.06s3.322-.07 5.941-.12c2.616-.06 1.472.04 6.685-.14M699.982 58.127c3.915 1.31 4.439 1.653.234.157-.204-.072-.436-.224-.234-.157M225.127 131.48c4.304-3.268 7.37-5.325 4.311-3.059-3.051 2.275-5.619 4.058-4.311 3.059m-43.135 35.663c4.616-4.306 5.497-4.812.481-.283-.291.264-.749.536-.481.283M559.379 1062.3c-.068.01-3.379.17-3.461.17-1.772.04 4.871-.28 3.461-.17M143.221 206.918c1.269-1.509 5.072-5.719 3.469-3.869-1.297 1.485-5.056 5.741-3.469 3.869m740.323-38.945c.05.042 1.803 1.674 1.759 1.651-.145-.083-2.578-2.362-1.759-1.651M87.869 283.291c7.159-11.967 11.646-19.163 3.589-6.265-1.44 2.345 3.164-5.019 1.335-2.03-3.342 5.467-5.619 9.065-8.836 14.768-.59 1.027 3.493-5.797 3.925-6.494zM702.287 58.734c.08.023 3.204 1.122 3.277 1.153 1.675.64-4.617-1.574-3.277-1.153m269.825 216.834c.112.148 4.108 6.724 4.22 6.948 2.014 3.472-6.053-9.827-4.22-6.948m-489.9-243.19c-3.587.294-7.921.758-10.776 1.156 3.569-.422 7.195-.81 10.776-1.156"/><defs><filter id="a" width="1065.08" height="1065.08" x="-.001" y="26.212" color-interpolation-filters="sRGB" filterUnits="userSpaceOnUse"><feFlood flood-opacity="0" result="BackgroundImageFix"/><feBlend in="SourceGraphic" in2="BackgroundImageFix" result="shape"/><feGaussianBlur result="effect1_foregroundBlur_749_16590" stdDeviation="8.1"/></filter><filter id="b" width="1025.02" height="1094.64" x="79.045" y="0" color-interpolation-filters="sRGB" filterUnits="userSpaceOnUse"><feFlood flood-opacity="0" result="BackgroundImageFix"/><feBlend in="SourceGraphic" in2="BackgroundImageFix" result="shape"/><feGaussianBlur result="effect1_foregroundBlur_749_16590" stdDeviation="14.7"/></filter></defs></svg>