<svg width="1105" height="674" viewBox="0 0 1105 674" fill="none" xmlns="http://www.w3.org/2000/svg">
<g opacity="0.5" filter="url(#filter0_f_749_16590)">
<circle cx="532.54" cy="558.753" r="515.341" stroke="#00D1FF" stroke-width="2"/>
</g>
<g filter="url(#filter1_f_749_16590)">
<path d="M577.748 1065.19C589.928 1064.82 605.846 1063.51 617.93 1061.96C621.712 1061.48 619.78 1061.58 622.385 1061.23C627.479 1060.54 632.202 1059.94 637.207 1059.1C638.872 1058.82 636.764 1058.94 638.509 1058.64C648.08 1057.03 657.01 1055.43 666.6 1053.32C713.675 1042.94 758.549 1026.42 801.475 1003.32C815.655 995.726 832.314 985.483 846.093 976.245C847.704 975.169 846.85 975.968 847.164 975.774C852.079 972.706 850.278 973.482 853.351 971.286C865.532 962.559 878.73 952.378 889.8 943.143C894.504 939.204 890.055 943.468 894.619 939.297C894.935 939.006 893.627 939.874 894.889 938.76C897.755 936.243 903.185 931.461 905.353 929.451C909.536 925.582 910.225 924.938 914.132 921.227C919.465 916.144 925.604 909.893 931.093 904.208C932.265 902.994 930.87 904.751 932.749 902.824C934.637 900.902 939.466 895.658 941.033 893.836C942.608 892.021 941.804 892.675 942.062 892.335C944.185 889.545 949.905 883.606 950.593 882.796C963.273 868.194 973.157 854.843 983.475 839.919C991.3 828.589 999.224 816.139 1005.74 804.781C1013.52 791.218 1019.52 779.424 1025.99 765.703C1026.67 764.254 1026.09 766.053 1026.92 764.282C1035.7 745.427 1043.22 726.17 1049.45 706.446C1050.08 704.464 1049.06 706.948 1049.67 704.964C1053.48 692.869 1058.26 673.357 1060.78 666.244C1062.74 657.877 1064.82 647.62 1066.01 640.043C1066.77 635.144 1065.71 639.848 1066.84 633.863C1067.09 632.511 1066.99 634.307 1067.35 632.276C1068.86 623.676 1070.1 614.379 1071.17 605.828C1071.39 604.092 1071.51 604.586 1071.59 604.096C1072.32 599.957 1072.54 593.072 1072.63 591.563C1073.36 580.12 1073.9 571.702 1074.21 561.051C1074.27 558.57 1074.43 561.509 1074.5 559.121C1074.61 554.998 1074.67 550.813 1074.66 546.61C1074.66 538.179 1074.42 529.769 1073.97 521.724C1073.81 519.043 1073.73 521.519 1073.65 520.239C1073.25 514.548 1073.56 513.26 1073.08 507.822C1072.98 506.676 1072.86 507.336 1072.82 507.128C1072.28 503.88 1072.45 501.013 1072.38 500.173C1071.55 489.586 1070.3 482.756 1068.93 472.587C1068.76 471.369 1069.38 474.082 1068.89 470.66C1065.6 447.739 1060.33 423.89 1053.75 401.946C1052.72 398.545 1053.28 401.024 1053.19 400.815C1051.87 397.413 1051.58 395.044 1051.25 393.934C1048.67 385.144 1045.55 377.179 1043.93 371.178C1030.64 334.811 1013.66 299.87 992.542 267.79C992.274 267.382 992.57 268.231 992.036 267.417C985.545 257.658 987.031 259.386 982.978 252.742C981.954 251.068 978.127 246.486 977.787 246.085C976.565 244.603 977.47 246.4 977.076 245.893C973.809 241.708 975.168 241.791 970.879 236.044C970.743 235.866 971.157 236.733 970.78 236.263C969.61 234.804 968.549 233.282 967.383 231.872C964.704 228.649 963.408 227.776 959.64 222.613C959.157 221.964 960.41 222.541 956.33 217.611C954.721 215.628 947.407 207.016 945.26 204.69C943.138 202.346 944.435 204.097 944.279 203.933C938.425 197.748 940.493 200.231 937.351 197.329C934.193 194.447 935.633 194.722 934.519 193.383C933.407 192.037 928.949 187.662 927.823 186.619C926.703 185.571 927.95 187.024 926.971 186.076C920.453 179.82 924.499 182.945 922.5 180.732C917.756 175.537 913.354 172.213 908.609 167.885C907.322 166.715 908.464 167.571 907.336 166.51C902.853 162.319 899.978 160.007 894.828 155.295C893.989 154.523 889.951 150.555 886.949 148.448C886.523 148.15 887.553 149.211 885.515 147.574C882.475 145.125 876.965 140.756 873.676 138.148C871.249 136.22 874.226 138.178 871.082 135.865C869.682 134.841 872.141 136.915 869.517 134.984C866.911 133.052 860.259 128.134 857.69 126.308C855.134 124.475 856.652 125.311 856.453 125.152C855.251 124.188 850.352 120.651 849.906 120.354C827.722 105.091 806.014 92.8933 782.506 81.3184C780.656 80.4127 781.984 80.8187 781.702 80.6785C775.395 77.5595 780.158 80.4573 775.636 78.5339C776.461 78.4458 773.812 77.2697 769.312 75.1853C767.141 74.1837 768.397 74.565 768.205 74.4597C765.072 72.7771 762.668 72.0994 762.058 71.9081C759.803 71.2016 757.562 69.9362 756.028 69.4761C754.494 69.0163 757.786 70.6443 753.404 68.8262C752.231 68.1768 755.648 69.1414 752.335 67.7116C739.866 62.176 715.685 54.1402 705.145 51.1849C694.665 48.125 691.221 47.23 685.038 45.6865C673.874 43.0116 678.027 43.7394 671.092 41.994C664.112 40.3054 667.361 41.7901 666.32 41.7221C665.298 41.6643 664.25 41.274 662.998 41.1021C661.75 40.9321 664.391 41.5899 661.491 41.0232C658.611 40.4453 650.768 38.6672 649.763 38.3307C647.648 37.5995 651.302 37.8459 643.574 36.6472C643.13 36.5803 644.537 37.014 642.835 36.7481C629.333 34.6376 615.226 32.8726 601.671 31.8505C599.805 31.711 601.454 32.0674 600.368 31.9896C589.039 31.2465 593.111 31.2089 586.9 30.4128C588.275 31.0449 584.78 31.1103 576.218 30.7864C571.052 30.6113 571.948 30.4118 568.6 30.1635C567.595 30.0877 563.919 30.1892 563.253 30.0738C561.182 29.7164 564.159 29.3377 557.002 29.4085C556.57 29.4141 556.102 29.422 555.593 29.4326C555.202 29.4414 556.449 29.6359 555.096 29.652C546.356 29.799 545.338 29.4314 535.903 29.725C528.501 29.9511 515.403 31.0414 507.046 31.9172C507.284 32.4927 499.37 33.1521 496.119 33.1315C490.697 33.7826 484.867 34.5406 479.645 35.3845C477.852 35.675 479.059 35.6706 478.835 35.7235C475.41 36.5448 473.012 36.5298 471.849 36.7058C459.221 38.6602 449.086 41.0344 437.168 43.5348C436.744 43.6261 435.972 43.3683 432.871 44.4461C432.672 44.5181 436.629 43.7366 431.061 45.1301C425.49 46.5183 415.129 49.5523 407.46 51.6879C405.604 52.1949 400.851 53.3019 397.207 54.7712C396.723 54.9669 397.302 54.9052 396.608 55.2021C394.365 56.1613 392.97 56.1748 390.384 57.435C387.805 58.6974 382.275 60.8791 374.694 63.4734C374.453 63.5569 372.558 63.9095 370.211 64.8257C366.453 66.2873 361.176 68.491 357.306 70.1187C355.452 70.8973 356.556 70.2053 356.233 70.3372C343.724 75.5323 335.042 79.7473 322.158 86.3801C319.791 87.5944 312.887 90.8869 308.496 93.5753C303.681 96.5473 309.203 94.5453 297.846 100.788C293.294 103.332 286.897 105.609 279.326 111.242C263.864 120.947 250.315 131.05 235.839 142.234C235.188 142.737 232.927 144.079 231.427 145.305C229.202 147.125 228.096 148.262 226.527 149.582C219.957 155.128 213.944 160.203 207.847 165.822C205.538 167.961 206.462 167.34 203.727 169.909C201.004 172.485 199.028 174.039 195.471 177.673C192.79 180.423 190.408 183.466 186.901 187.152C186.434 186.969 183.985 189.468 179.645 193.924C178.811 194.781 179.567 193.733 179.167 194.133C177.534 195.76 176.19 197.418 174.651 198.974C174.277 199.353 174.142 199.264 173.83 199.568C171.164 202.145 167.409 206.964 166.776 207.798C164.329 210.982 162.961 212.276 161.053 214.69C159.154 217.104 162.187 213.658 159.933 216.446C155.259 222.225 149.308 229.682 144.775 235.716C142.966 238.12 144.031 236.353 143.768 236.694C139.981 241.636 136.495 246.89 134.165 249.469C132.595 253.639 131.891 252.459 127.097 259.974C126.722 260.568 126.657 261.595 128.217 259.402C129.778 257.21 131.942 253.748 134.183 250.763C134.707 250.051 138.035 246.211 138.467 245.672C141.818 241.428 141.668 240.367 141.8 240.108C143.353 237.217 147.519 232.608 148.549 231.348C153.239 225.557 157.137 220.574 161.224 215.868C163.903 212.796 164.551 212.826 166.621 210.392C173.545 202.342 175.526 199.113 182.835 192.235C184.415 190.774 183.318 192.678 188.356 186.855C188.669 186.487 192.391 182.134 194.924 180C195.241 179.732 195.346 179.856 195.744 179.482C198.418 176.98 200.083 175.189 203.02 172.489C205.958 169.792 209.539 166.604 212.889 163.521C214.906 161.66 217.349 159.109 218.292 158.19C220.948 155.587 224.208 153.274 225.804 151.601C227.419 149.914 223.678 152.516 228.253 148.495C228.695 148.675 229.369 148.678 229.917 148.775C240.188 140.304 250.546 132.252 261.493 124.593C262.852 123.645 261.593 124.801 263.054 123.792C269.226 119.543 274.575 115.783 281.168 111.662C286.265 108.48 292.021 105.243 297.473 102.125C300.529 99.7604 308.74 95.2842 314.697 92.075C316.785 90.9453 316.586 90.9078 318.061 90.0843C323.644 87.0022 321.192 88.7639 322.775 88.0217C329.584 84.8919 329.716 83.7341 337.721 79.9544C338.147 79.7463 343.55 77.8099 344.283 77.5214C348.93 75.6531 344.962 77.0143 347.807 75.6998C353.013 73.3174 356.62 71.6319 362.891 69.2315C364.718 68.5318 369.205 67.0809 372.66 65.4967C373.115 65.2878 372.797 65.2282 373.169 65.0753C379.922 62.3407 380.3 62.7999 384.278 61.5596C388.259 60.321 394.217 57.9278 395.434 57.4223C398.602 56.0906 392.904 58.133 392.723 58.1735C390.557 58.5672 395.016 57.1108 398.426 55.9866C398.757 55.3242 403.562 53.8384 401.965 54.8305C401.782 54.9395 399.104 55.7403 398.426 55.9866C401.589 55.5018 406.837 53.9136 412.55 51.7524C415.228 50.754 412.559 51.2016 420.932 48.9826C424.733 47.9991 423.36 48.739 426.736 47.9532C434.463 46.1569 444.376 43.4944 452.413 41.9061C455.313 41.3322 452.53 42.1008 454.514 41.7182C459.779 40.7121 464.416 39.698 469.756 38.8612C470.238 38.7865 469.099 39.1887 470.748 38.9118C483.275 36.8407 494.245 35.2418 507.465 33.9591C513.836 33.3205 525.301 32.6078 531.929 32.2964C539.814 31.8861 548.843 31.5165 557.002 31.4544C560.798 31.4225 564.37 31.4504 567.497 31.5362C573.918 31.7285 572.5 31.9151 575.239 32.1415C580.5 32.5717 589.917 32.626 591.192 32.6503C591.232 32.6443 585.704 32.2615 588.662 32.3336C590.392 32.2181 591.129 32.6457 591.192 32.6503C592.033 32.6282 603.037 33.4292 605.199 33.7024C606.378 33.8341 605.699 33.9668 606.314 34.0324C621.011 35.606 635.587 37.6678 650.347 40.2766C650.606 40.3202 650.256 40.0337 650.865 40.1392C659.379 41.6215 664.768 43.0336 671.702 44.7622C678.634 46.5042 684.086 47.8357 688.29 48.5515C693.506 49.9589 700.987 51.9099 705.268 53.1009C709.551 54.2872 710.008 54.8912 710.382 55.0131C721.976 58.9531 728.672 61.0009 740.559 65.451C746.217 67.5559 757.214 72.1104 763.175 74.8066C767.88 76.9131 770.746 78.1069 775.016 80.1702C775.593 80.45 774.926 80.3465 775.1 80.4361C779.786 82.8963 777.685 81.3974 778.707 81.7902C782.406 83.2346 784.705 84.1541 790.695 87.3531C792.079 88.0904 795.819 90.7763 798.31 92.152C801.553 93.9422 800.431 93.0644 803.816 94.9744C804.104 95.1391 803.975 95.2313 806.076 96.386C815.822 101.75 826.265 107.894 835.963 114.188C837.286 115.047 835.463 114.142 837.37 115.389C846.31 121.235 855.943 127.958 864.345 134.104C866.416 135.618 865.226 134.524 865.701 134.819C868.619 136.635 872.199 139.942 872.822 140.442C887.706 152.368 899.038 161.633 912.999 175.189C913.768 175.921 919.282 181.93 922.106 184.246C922.3 184.403 925.121 186.677 927.132 189.16C927.256 189.314 925.554 187.843 928.281 190.646C931.008 193.451 935.211 198.137 938.978 201.98C940.17 203.194 943.164 205.921 946.248 209.973C946.46 210.232 950.998 216.657 953.152 218.503C953.5 218.803 953.626 218.086 957.242 222.96C957.929 223.894 956.519 222.331 958.375 224.752C961.215 228.464 965.141 233.259 968.403 237.998C968.975 238.825 971.233 242.449 973.456 245.059C973.805 245.467 973.351 244.539 974.425 245.992C979.53 252.902 984.517 260.403 989.35 267.658C991.059 270.233 990.447 268.747 992.242 271.427C994.04 274.103 997.519 279.608 999.127 282.568C1000.74 285.531 998.476 282.594 1001.01 286.96C1011.98 305.995 1021.98 325.294 1030.61 345.482C1031.89 348.477 1030.7 346.051 1032.53 350.47C1039.47 366.722 1049.05 395.706 1053.23 410.444C1056.68 422.262 1052.89 407.233 1055.41 416.306C1056.62 420.686 1057.25 425.557 1057.49 426.627C1059.78 437.052 1061.52 444.308 1063.19 453.753C1063.52 455.709 1062.97 453.831 1063.26 455.495C1064.24 461.17 1065.3 467.207 1066.06 472.625C1066.4 475.069 1066.18 474.641 1066.5 476.89C1067.25 482.275 1067.9 487.053 1068.61 492.34C1068.67 492.822 1068.53 489.54 1068.96 493.566C1069.64 500.03 1070.46 508.077 1070.75 515.611C1070.83 517.838 1070.48 517.981 1070.96 522.719C1071.05 523.717 1071.46 522.418 1071.29 527.993C1071.27 528.93 1071.01 538.295 1071.36 542.912C1071.41 543.636 1071.57 545.03 1071.67 546.61C1071.74 547.685 1071.79 548.845 1071.76 549.934C1071.74 550.299 1071.55 548.836 1071.52 551.065C1071.39 558.923 1071.16 567.077 1070.66 575.091C1070.52 577.241 1070.49 574.027 1070.29 577.229C1069.73 586.055 1068.85 596.882 1067.92 605.491C1067.58 608.648 1068 606.488 1067.99 606.719C1067.86 610.447 1067.17 612.571 1066.99 613.787C1065.85 621.347 1065.16 627.124 1063.93 634.094C1063.58 636.012 1063.62 634.617 1063.54 634.996C1062.68 638.926 1063.54 636.038 1063.13 638.55C1061.98 645.579 1060.39 653.357 1058.77 660.4C1058.17 662.981 1058.61 660.028 1058.08 662.344C1054.9 676.005 1051.03 690.153 1046.97 703.243C1046.21 705.715 1046.87 704.218 1046.74 704.744C1045.87 708.375 1043.76 713.409 1043.31 714.577C1041.29 719.899 1040.69 722.003 1038.9 726.724C1030.29 749.717 1017.49 777.293 1006.12 797.491C991.328 823.821 978.258 843.419 960.414 866.046C959.272 867.478 960.24 865.889 959.253 867.12C946.499 883.008 933.131 898.016 918.568 912.327C917.372 913.5 918.937 911.649 917.01 913.523C913.056 917.365 907.996 922.178 903.925 925.989C901.939 927.848 904.763 925.529 902.759 927.396C898.089 931.736 892.954 936.251 887.917 940.44C885.771 942.22 888.85 939.346 886.07 941.669C867.105 957.441 847.386 971.604 826.311 984.935C824.864 985.847 823.823 987.028 820.66 988.819C820.36 988.85 820.296 988.714 820.124 988.659C789.237 1006.99 756.866 1022.15 722.762 1033.79C721.324 1034.27 723.733 1033.2 720.947 1034.14C704.794 1039.57 688.857 1044 671.974 1048.11C670.293 1048.51 671.258 1048.75 666.258 1049.78C665.376 1049.97 657.842 1051.47 655.888 1051.74C655.621 1051.78 656.954 1051.32 654.532 1051.78C640.425 1054.46 625.577 1056.71 611.281 1058.32C608.971 1058.58 611.455 1058.54 609.809 1058.72C598.267 1060.03 585.415 1060.71 574.337 1061.26C566.868 1061.61 569.643 1061.89 565.664 1062.33C565.101 1062.4 560.445 1062.45 560.203 1062.66C559.586 1063.19 561.853 1063.76 560.929 1064.33C560.735 1064.46 554.46 1064.34 558.176 1064.62C558.436 1064.65 562.982 1064.71 564.101 1064.79C564.88 1064.85 563.48 1065.09 565.07 1065.15C566.66 1065.21 568.401 1065 571.03 1065.04C573.657 1065.07 572.514 1065.36 577.748 1065.19ZM724.494 58.8101C728.457 59.9642 728.781 60.8713 724.632 59.2434C724.432 59.1642 724.289 58.7506 724.494 58.8101ZM250.247 131.984C254.39 128.507 257.68 126.767 254.745 129.194C251.821 131.63 248.989 133.046 250.247 131.984ZM207.034 167.463C211.506 163.006 212.953 163.131 207.831 167.525C207.535 167.781 206.773 167.724 207.034 167.463ZM584.099 1061.81C584.032 1061.82 580.724 1061.99 580.642 1061.98C578.864 1061.83 585.498 1061.49 584.099 1061.81ZM168.137 207.067C169.319 205.482 173.22 201.361 171.724 203.306C170.514 204.865 166.658 209.031 168.137 207.067ZM908.233 168.034C908.289 168.069 910.048 169.696 909.969 169.71C909.713 169.745 907.312 167.434 908.233 168.034ZM112.8 283.401C119.926 271.427 123.828 263.845 115.831 276.797C114.401 279.151 119.186 271.893 117.41 274.917C114.167 280.443 111.51 283.819 108.495 289.644C107.943 290.692 112.385 284.077 112.814 283.381C112.809 283.388 112.805 283.395 112.8 283.401ZM727.032 58.7378C727.115 58.7533 730.241 59.8449 730.312 59.8831C731.922 60.703 725.628 58.503 727.032 58.7378ZM997.101 275.417C997.228 275.557 1001.24 282.129 1001.34 282.36C1003.09 285.991 994.99 272.71 997.101 275.417ZM506.916 31.946C503.308 32.0499 498.963 32.4929 496.135 33.1293C499.705 32.6944 503.334 32.3049 506.916 31.946Z" fill="#6339F0"/>
</g>
<path d="M552.924 1063.22C565.056 1062.79 580.914 1061.54 592.963 1060.07C596.734 1059.62 594.822 1059.82 597.42 1059.5C602.503 1058.84 607.203 1058.2 612.199 1057.41C613.86 1057.15 611.785 1057.43 613.527 1057.15C623.082 1055.62 631.98 1053.97 641.549 1051.91C688.532 1041.72 733.329 1025.31 776.195 1002.33C790.354 994.771 807.061 984.677 820.777 975.401C822.381 974.32 821.446 974.996 821.753 974.792C826.552 971.578 824.922 972.597 828.012 970.438C840.259 961.856 853.448 951.699 864.461 942.437C869.141 938.486 864.511 942.52 869.171 938.482C869.494 938.201 868.291 939.185 869.561 938.086C872.447 935.601 877.85 930.806 880.022 928.808C884.215 924.964 884.902 924.32 888.804 920.617C894.13 915.545 900.316 909.358 905.77 903.657C906.934 902.44 905.426 904.083 907.282 902.141C909.147 900.204 913.976 894.979 915.568 893.186C917.168 891.4 916.46 892.136 916.738 891.816C919.041 889.192 924.5 883.038 925.179 882.225C937.728 867.558 947.744 854.352 958.047 839.449C965.858 828.136 973.715 815.672 980.232 804.339C988.005 790.806 994.075 779.07 1000.52 765.363C1001.19 763.916 1000.45 765.632 1001.27 763.864C1010.01 745.035 1017.54 725.83 1023.88 706.178C1024.52 704.203 1023.66 706.735 1024.29 704.76C1028.22 692.729 1033.32 673.299 1035.13 666.031C1037.12 657.685 1039.23 647.454 1040.55 639.914C1041.4 635.038 1040.52 639.767 1041.58 633.775C1041.81 632.421 1041.56 634.189 1041.9 632.158C1043.35 623.562 1044.64 614.285 1045.63 605.737C1045.83 604.002 1045.81 604.48 1045.87 603.988C1046.39 599.835 1046.94 592.998 1047.06 591.492C1047.97 580.082 1048.44 571.667 1048.75 561.031C1048.82 558.554 1048.79 561.484 1048.85 559.099C1048.95 554.983 1049 550.806 1049 546.61C1049 538.194 1048.79 529.798 1048.39 521.763C1048.26 519.086 1048.34 521.55 1048.27 520.271C1047.95 514.582 1047.95 513.314 1047.54 507.881C1047.45 506.736 1047.47 507.384 1047.45 507.175C1047.14 503.912 1046.98 501.076 1046.9 500.238C1045.97 489.678 1045.07 482.817 1043.65 472.663C1043.48 471.447 1043.92 474.182 1043.43 470.765C1040.1 447.884 1034.88 424.068 1028.44 402.109C1027.44 398.705 1028.12 401.145 1028.05 400.932C1026.97 397.46 1026.35 395.19 1026.02 394.085C1023.35 385.335 1020.5 377.282 1018.5 371.424C1005.36 335.049 988.21 300.27 967.417 268.033C967.153 267.623 967.59 268.381 967.062 267.564C960.654 257.758 961.92 259.626 957.611 253.172C956.524 251.546 953.015 246.749 952.698 246.33C951.561 244.789 952.668 246.44 952.29 245.921C949.151 241.644 949.843 242.212 945.561 236.475C945.426 236.295 945.961 237.071 945.597 236.592C944.465 235.106 943.357 233.622 942.233 232.181C939.654 228.889 938.672 227.767 934.723 222.751C934.217 222.121 935.104 222.99 931.047 218.054C929.447 216.067 922.137 207.473 920.016 205.129C917.919 202.768 919.326 204.417 919.176 204.249C913.475 197.937 915.603 200.362 912.678 197.261C909.736 194.178 910.662 194.931 909.492 193.646C908.324 192.355 903.988 187.87 902.903 186.788C901.825 185.7 903.14 187.086 902.185 186.115C895.817 179.712 899.466 183.229 897.389 181.097C892.467 176.095 888.432 172.403 883.721 168.037C882.444 166.858 883.505 167.8 882.37 166.748C877.862 162.592 875.095 160.159 869.851 155.562C868.996 154.808 864.761 151.083 861.909 148.802C861.505 148.479 862.617 149.439 860.598 147.781C857.588 145.3 852.097 140.911 848.783 138.337C846.338 136.436 849.182 138.561 846.081 136.197C844.7 135.151 847.234 137.125 844.638 135.159C842.061 133.191 835.408 128.279 832.837 126.457C830.279 124.628 831.703 125.597 831.498 125.446C830.26 124.534 825.32 121.063 824.876 120.768C802.706 105.538 781.149 93.1121 757.612 81.6231C755.76 80.7243 757.013 81.2836 756.73 81.146C750.398 78.0946 755.352 80.5807 750.897 78.5201C751.574 78.7457 748.953 77.5134 744.44 75.4647C742.263 74.4807 743.463 74.9842 743.266 74.8914C740.053 73.3966 737.758 72.4791 737.169 72.2383C734.994 71.3504 732.662 70.3008 731.181 69.7191C729.698 69.1381 733.065 70.5863 728.681 68.7703C727.461 68.2359 730.753 69.4994 727.423 68.1193C714.893 62.7737 690.826 54.5084 680.296 51.5283C669.831 48.4451 666.384 47.5728 660.216 45.9869C649.077 43.2349 653.17 44.1957 646.219 42.5594C639.223 40.9801 642.594 41.8855 641.58 41.6933C640.584 41.5112 639.509 41.2489 638.271 41.0086C637.038 40.77 639.697 41.3434 636.801 40.7507C633.924 40.1467 626.035 38.5901 625.007 38.3847C622.843 37.9309 626.442 38.468 618.74 37.1684C618.297 37.0954 619.729 37.3755 618.031 37.0943C604.557 34.867 590.457 33.0952 576.914 31.9679C575.05 31.8137 576.714 31.9975 575.628 31.9092C564.306 31.0556 568.355 31.309 562.129 30.8369C563.529 31.0382 560.05 30.84 551.482 30.5133C546.313 30.3365 547.203 30.3253 543.853 30.2098C542.848 30.174 539.173 30.1462 538.507 30.1194C536.433 30.0352 539.405 29.9604 532.256 29.9567C531.825 29.9578 531.357 29.9598 530.849 29.963C530.458 29.9657 531.703 30.0017 530.352 30.0082C521.615 30.0922 520.604 30.0276 511.182 30.3574C503.792 30.612 490.697 31.5169 482.343 32.3622C482.536 32.4546 474.629 33.2249 471.42 33.5361C466.001 34.1732 460.179 34.9492 454.954 35.7469C453.159 36.0216 454.344 35.8784 454.118 35.9163C450.658 36.5022 448.311 36.8086 447.151 36.9969C434.554 39.0718 424.374 41.2037 412.518 43.9372C412.096 44.0369 411.404 44.1064 408.247 44.9443C408.044 44.9999 411.963 44.0701 406.395 45.4512C400.827 46.8265 390.42 49.6858 382.799 51.97C380.954 52.5129 376.288 53.8793 372.582 55.1441C372.089 55.312 372.638 55.1586 371.928 55.4042C369.632 56.2004 368.346 56.5367 365.668 57.5225C362.997 58.5104 357.387 60.4904 349.872 63.2732C349.633 63.3623 347.833 63.9674 345.486 64.8793C341.726 66.3342 336.428 68.4857 332.558 70.115C330.704 70.8945 331.874 70.3569 331.552 70.4916C319.085 75.771 310.347 79.8472 297.433 86.4223C295.06 87.6261 288.266 91.119 283.789 93.648C278.879 96.4469 284.003 93.7242 272.726 100.147C268.202 102.766 262.351 105.933 254.494 111.107C239.104 120.925 225.388 130.807 211.023 142.147C210.377 142.657 208.298 144.226 206.798 145.448C204.569 147.262 203.377 148.294 201.802 149.608C195.205 155.122 189.27 160.284 183.162 165.889C180.848 168.022 181.677 167.298 178.937 169.861C176.207 172.432 174.36 174.12 170.741 177.69C168.013 180.39 165.361 183.166 161.818 186.826C161.619 186.903 159.165 189.397 154.896 193.921C154.076 194.792 154.928 193.832 154.539 194.243C152.956 195.915 151.533 197.5 150.049 199.104C149.688 199.495 149.647 199.492 149.351 199.81C146.826 202.511 142.861 207.135 142.189 207.937C139.599 210.995 138.357 212.397 136.393 214.762C134.437 217.128 137.398 213.622 135.109 216.381C130.362 222.102 124.424 229.575 119.885 235.607C118.074 238.012 119.276 236.346 119.016 236.689C115.264 241.657 111.629 246.806 109.577 249.581C107.288 253.247 107.373 252.619 102.436 260.031C102.05 260.617 101.639 261.415 103.15 259.186C104.661 256.958 106.934 253.568 109.098 250.526C109.605 249.802 112.619 245.731 113.033 245.177C116.241 240.816 116.591 240.122 116.75 239.883C118.599 237.211 122.431 232.349 123.441 231.068C128.03 225.189 132.001 220.255 136.02 215.484C138.654 212.37 138.993 212.135 141.077 209.705C148.05 201.662 150.448 198.817 157.409 191.591C158.916 190.055 157.495 191.654 162.796 186.061C163.126 185.707 167.083 181.572 169.477 179.291C169.777 179.003 169.791 179.036 170.183 178.654C172.813 176.095 174.554 174.374 177.463 171.633C180.373 168.893 183.913 165.643 187.301 162.585C189.341 160.739 191.949 158.363 192.933 157.487C195.705 155.009 198.789 152.48 200.521 150.961C202.271 149.432 198.73 152.277 203.393 148.356C203.62 148.277 204.075 148.014 204.408 147.849C214.712 139.367 225.158 131.385 236.119 123.698C237.479 122.746 236.113 123.756 237.574 122.738C243.746 118.455 249.179 114.793 255.76 110.619C260.847 107.396 266.517 103.987 271.961 100.817C275.222 98.7795 283.384 94.1804 289.374 90.9939C291.472 89.8723 291.321 89.9258 292.815 89.1304C298.466 86.1523 295.853 87.6147 297.415 86.8229C304.14 83.4795 304.617 83.0101 312.624 79.2084C313.049 78.9998 318.29 76.6862 319.015 76.3732C323.605 74.3479 319.755 75.9954 322.619 74.7058C327.859 72.3689 331.51 70.7713 337.747 68.2545C339.564 67.5207 343.968 65.8275 347.503 64.4245C347.968 64.2394 347.698 64.3067 348.073 64.1609C354.885 61.5455 355.116 61.6052 359.056 60.2249C363.002 58.846 369.072 56.7252 370.317 56.2997C373.561 55.174 367.812 57.1011 367.637 57.1622C365.549 57.7998 370.001 56.299 373.424 55.1936C373.884 54.9284 378.685 53.4177 376.975 54.0555C376.779 54.1258 374.108 54.9651 373.424 55.1936C376.465 54.3174 381.717 52.6729 387.549 50.8762C390.281 50.0488 387.666 50.6987 396.028 48.4034C399.824 47.3853 398.375 47.8479 401.738 46.9845C409.437 45.0105 419.434 42.604 427.474 40.9719C430.376 40.3818 427.557 40.9972 429.542 40.5981C434.811 39.5477 439.479 38.6479 444.821 37.7495C445.303 37.669 444.132 37.9092 445.786 37.6295C458.342 35.5341 469.354 34.0363 482.604 32.7536C488.989 32.1148 500.475 31.3095 507.121 31.0155C515.027 30.6252 524.08 30.3734 532.256 30.3659C536.059 30.3593 539.638 30.3988 542.772 30.4663C549.207 30.6216 547.791 30.6434 550.541 30.7577C555.826 30.9709 565.25 31.4162 566.521 31.5008C566.561 31.4968 561.019 31.1521 563.978 31.309C565.7 31.3697 566.458 31.497 566.521 31.5008C567.362 31.5177 578.386 32.3578 580.555 32.6002C581.739 32.715 581.073 32.692 581.69 32.7517C596.436 34.1896 611.065 36.2184 625.852 38.9065C626.111 38.9533 625.728 38.8385 626.339 38.9494C634.856 40.5116 640.3 41.7166 647.283 43.3262C654.263 44.9491 659.726 46.3271 663.863 47.3357C669.102 48.71 676.567 50.7941 680.833 52.0647C685.101 53.3305 685.659 53.6101 686.037 53.726C697.728 57.4709 704.385 59.7111 716.29 64.2005C721.957 66.3249 733.001 70.8453 738.994 73.5149C743.725 75.5998 746.565 76.8697 750.868 78.8921C751.45 79.1666 750.846 78.9251 751.023 79.0098C755.801 81.3132 753.533 80.1454 754.53 80.5991C758.135 82.2649 760.379 83.3001 766.432 86.4046C767.83 87.1196 771.827 89.3378 774.342 90.6911C777.613 92.4522 776.397 91.7404 779.814 93.6153C780.105 93.7772 780.033 93.7658 782.137 94.9289C791.905 100.33 802.344 106.552 812.078 112.856C813.406 113.717 811.679 112.651 813.596 113.898C822.578 119.746 832.242 126.499 840.62 132.735C842.684 134.273 841.412 133.28 841.865 133.607C844.649 135.616 848.447 138.66 849.076 139.157C864.114 150.994 875.279 160.524 889.382 174.012C890.157 174.738 895.95 180.507 898.561 183.054C898.741 183.227 901.339 185.734 903.515 188.07C903.649 188.215 902.061 186.623 904.785 189.448C907.508 192.273 911.808 196.901 915.451 200.878C916.606 202.136 919.366 205.083 922.652 208.978C922.876 209.224 927.874 215.297 929.729 217.407C930.027 217.75 929.827 217.3 933.621 222.049C934.342 222.96 933.001 221.332 934.909 223.725C937.829 227.392 941.677 232.271 945.101 236.913C945.702 237.722 948.2 241.189 950.256 243.938C950.578 244.368 950.008 243.52 951.073 244.986C956.132 251.963 961.214 259.435 965.981 266.767C967.667 269.369 966.86 268.003 968.608 270.722C970.359 273.438 973.795 278.986 975.497 281.899C977.204 284.817 975.246 281.685 977.812 286.051C988.93 305.092 998.786 324.562 1007.41 344.825C1008.69 347.831 1007.61 345.347 1009.46 349.78C1016.42 366.082 1026.16 395.144 1030.08 410.005C1033.33 421.917 1029.37 406.888 1031.81 416.007C1032.98 420.407 1034.02 425.19 1034.27 426.261C1036.71 436.688 1038.27 444.008 1039.99 453.47C1040.35 455.429 1039.96 453.515 1040.26 455.183C1041.27 460.873 1042.26 466.943 1043.04 472.377C1043.39 474.828 1043.29 474.381 1043.6 476.639C1044.34 482.047 1044.93 486.85 1045.52 492.166C1045.57 492.651 1045.27 489.376 1045.69 493.415C1046.36 499.899 1047.07 507.976 1047.48 515.523C1047.6 517.754 1047.54 517.882 1047.82 522.646C1047.87 523.648 1047.93 522.361 1048.06 527.939C1048.1 528.874 1048.25 538.264 1048.33 542.9C1048.34 543.626 1048.38 545.025 1048.4 546.61C1048.42 547.688 1048.42 548.851 1048.41 549.943C1048.41 550.309 1048.38 548.843 1048.36 551.078C1048.28 558.961 1048.03 567.14 1047.58 575.182C1047.45 577.34 1047.59 574.124 1047.41 577.339C1046.89 586.199 1045.96 597.063 1044.97 605.696C1044.61 608.862 1044.9 606.678 1044.88 606.909C1044.5 610.619 1044.14 612.79 1043.97 614.013C1042.95 621.614 1042.1 627.389 1040.9 634.388C1040.57 636.315 1040.76 634.942 1040.69 635.325C1039.96 639.294 1040.55 636.346 1040.11 638.861C1038.87 645.898 1037.28 653.702 1035.68 660.773C1035.09 663.365 1035.71 660.443 1035.17 662.767C1032.02 676.486 1028.12 690.686 1023.95 703.792C1023.16 706.267 1023.69 704.721 1023.53 705.239C1022.45 708.811 1020.62 713.957 1020.2 715.139C1018.29 720.524 1017.57 722.595 1015.8 727.339C1007.26 750.454 994.341 778.101 982.886 798.34C967.99 824.729 954.771 844.308 936.902 867.024C935.758 868.462 936.875 866.984 935.888 868.222C923.125 884.193 909.657 899.204 895.082 913.602C893.885 914.782 895.58 913.05 893.655 914.94C889.704 918.816 884.617 923.642 880.493 927.425C878.481 929.271 881.213 926.831 879.185 928.686C874.462 932.999 869.303 937.519 864.267 941.743C862.121 943.538 865.328 940.794 862.539 943.126C843.518 958.969 823.734 973.217 802.463 986.393C801.002 987.295 799.768 988.165 796.632 990.022C796.384 990.141 796.381 990.107 796.264 990.145C765.3 1008.59 732.762 1023.69 698.545 1035.34C697.102 1035.83 699.582 1034.94 696.786 1035.88C680.576 1041.33 664.589 1045.83 647.605 1049.76C645.914 1050.15 646.807 1050.05 641.805 1051.13C640.922 1051.33 633.377 1052.89 631.431 1053.23C631.166 1053.28 632.533 1052.97 630.105 1053.44C615.955 1056.16 601.049 1058.37 586.699 1059.89C584.381 1060.14 586.855 1059.93 585.203 1060.1C573.623 1061.31 560.745 1062.13 549.633 1062.52C542.143 1062.77 544.917 1062.76 540.927 1062.91C540.364 1062.93 535.702 1062.99 535.46 1063.03C534.84 1063.14 537.102 1063.24 536.175 1063.35C535.981 1063.39 529.719 1063.37 533.427 1063.42C533.687 1063.43 538.222 1063.42 539.336 1063.42C540.113 1063.42 538.714 1063.49 540.298 1063.48C541.882 1063.47 543.62 1063.41 546.239 1063.36C548.855 1063.3 547.711 1063.4 552.924 1063.22ZM699.982 58.127C703.897 59.437 704.421 59.7803 700.216 58.2845C700.012 58.2124 699.78 58.0598 699.982 58.127ZM225.127 131.48C229.431 128.212 232.497 126.155 229.438 128.421C226.387 130.696 223.819 132.479 225.127 131.48ZM181.992 167.143C186.608 162.837 187.489 162.331 182.473 166.86C182.182 167.124 181.724 167.396 181.992 167.143ZM559.379 1062.3C559.311 1062.31 556 1062.47 555.918 1062.47C554.146 1062.51 560.789 1062.19 559.379 1062.3ZM143.221 206.918C144.49 205.409 148.293 201.199 146.69 203.049C145.393 204.534 141.634 208.79 143.221 206.918ZM883.544 167.973C883.594 168.015 885.347 169.647 885.303 169.624C885.158 169.541 882.725 167.262 883.544 167.973ZM87.8688 283.291C95.0277 271.324 99.5149 264.128 91.4578 277.026C90.0173 279.371 94.6216 272.007 92.7926 274.996C89.4514 280.463 87.1743 284.061 83.9569 289.764C83.3675 290.791 87.4495 283.967 87.8816 283.27C87.8773 283.277 87.8731 283.284 87.8688 283.291ZM702.287 58.7343C702.367 58.7573 705.491 59.8559 705.564 59.8867C707.239 60.5279 700.947 58.3127 702.287 58.7343ZM972.112 275.568C972.224 275.716 976.22 282.292 976.332 282.516C978.346 285.988 970.279 272.689 972.112 275.568ZM482.212 32.378C478.625 32.6718 474.291 33.1363 471.436 33.5341C475.005 33.1122 478.631 32.7249 482.212 32.378Z" fill="#00D1FF"/>
<defs>
<filter id="filter0_f_749_16590" x="-0.000782013" y="26.2121" width="1065.08" height="1065.08" filterUnits="userSpaceOnUse" color-interpolation-filters="sRGB">
<feFlood flood-opacity="0" result="BackgroundImageFix"/>
<feBlend mode="normal" in="SourceGraphic" in2="BackgroundImageFix" result="shape"/>
<feGaussianBlur stdDeviation="8.1" result="effect1_foregroundBlur_749_16590"/>
</filter>
<filter id="filter1_f_749_16590" x="79.0453" y="-9.72748e-05" width="1025.02" height="1094.64" filterUnits="userSpaceOnUse" color-interpolation-filters="sRGB">
<feFlood flood-opacity="0" result="BackgroundImageFix"/>
<feBlend mode="normal" in="SourceGraphic" in2="BackgroundImageFix" result="shape"/>
<feGaussianBlur stdDeviation="14.7" result="effect1_foregroundBlur_749_16590"/>
</filter>
</defs>
</svg>
