<svg xmlns="http://www.w3.org/2000/svg" width="50" height="50" fill="none" viewBox="0 0 50 50"><path fill="#f4f4f9" d="M34.6 24a1 1 0 1 1 0 2v-2m-17.28 1v-1zm5.056-10.31a1 1 0 0 1 1.408 1.42l-.704-.71zm-2.68 4.065.703.71zm0 12.49.703-.71zm4.088 2.645a1 1 0 0 1-1.408 1.42l.704-.71zm-8.346-9.492-.992-.126zm0 1.204-.992.126zM15.4 25h-1zM1 25h1c0 12.703 10.297 23 23 23v2C11.193 50 0 38.807 0 25zm24 24v-1c12.703 0 23-10.297 23-23h2c0 13.807-11.193 25-25 25zm24-24h-1C48 12.298 37.703 2 25 2V0c13.807 0 25 11.193 25 25zM25 1v1C12.297 2 2 12.298 2 25H0C0 11.193 11.193 0 25 0zm9.6 24v1H17.32v-2H34.6zm-11.52-9.6.704.71-3.385 3.355-.704-.71-.704-.71 3.385-3.355zm-3.385 15.845.704-.71 3.385 3.355-.704.71-.704.71-3.385-3.355zm0-12.49.704.71c-1.366 1.354-2.33 2.312-2.987 3.13-.644.802-.91 1.373-.982 1.93l-.992-.127-.992-.126c.137-1.073.65-1.987 1.407-2.93.744-.927 1.805-1.976 3.138-3.297zm0 12.49-.704.71c-1.333-1.32-2.394-2.37-3.138-3.297-.758-.943-1.27-1.857-1.407-2.93l.992-.126.992-.127c.071.557.338 1.128.982 1.93.657.818 1.62 1.776 2.987 3.13zm-4.257-6.847.992.127q-.03.237-.03.475h-2q0-.365.046-.728zM15.4 25h1q0 .238.03.475l-.992.127-.992.126A6 6 0 0 1 14.4 25zm1.92 0v1H15.4v-2h1.92z"/></svg>