<svg xmlns="http://www.w3.org/2000/svg" width="115" height="115" fill="none" viewBox="0 0 115 115"><g fill-rule="evenodd" clip-rule="evenodd" opacity=".75"><path fill="#f4f4f9" d="M70.807 54.002a1.484 1.484 0 0 0 1.293-1.677 11 11 0 0 1 1.917-6.272 38.7 38.7 0 0 1 4.025-5.075 89 89 0 0 1 6.843-7.087q2.203.489 4.456.576a1.342 1.342 0 0 0 0-2.636c-8.53-.862-12.262-6.411-11.783-11.917A11.79 11.79 0 0 1 90.294 9.617a10.54 10.54 0 0 1 10.729 10.058 10.93 10.93 0 0 1-8.625 12.832 1.497 1.497 0 1 0 .383 2.97 13.1 13.1 0 0 0 4.792-1.39 32 32 0 0 1 3.21 4.26 38 38 0 0 1 1.582 2.588 67 67 0 0 1 1.528 2.727 47 47 0 0 1 2.923 7.039 1.44 1.44 0 0 0 1.725 1.15 1.486 1.486 0 0 0 1.193-1.725 35 35 0 0 0-1.485-8.285 17.8 17.8 0 0 0-1.39-3.498 19 19 0 0 0-2.204-3.062 21 21 0 0 0-4.063-3.21 16.24 16.24 0 0 0 4.787-12.876A14.984 14.984 0 0 0 90.151 4.35a16.23 16.23 0 0 0-16.709 15.325A13.9 13.9 0 0 0 81.44 32.65a33.5 33.5 0 0 0-5.75 3.781 22 22 0 0 0-4.355 5.031 14.66 14.66 0 0 0-2.204 11.246 1.437 1.437 0 0 0 1.677 1.294M40.356 94.89a19 19 0 0 0-2.013-3.018 20 20 0 0 0-4.068-3.35 16.2 16.2 0 0 0 4.792-12.784 14.936 14.936 0 0 0-15.425-14.883 16.15 16.15 0 0 0-16.708 15.27 13.9 13.9 0 0 0 7.944 12.976 33.5 33.5 0 0 0-5.745 3.785 22 22 0 0 0-4.308 5.027 14.66 14.66 0 0 0-2.204 11.299 1.44 1.44 0 0 0 .57.984 1.45 1.45 0 0 0 1.107.262 1.48 1.48 0 0 0 1.258-1.093c.05-.191.063-.389.036-.585a11 11 0 0 1 1.917-6.272 39 39 0 0 1 4.02-5.079 97 97 0 0 1 6.847-7.082q2.19.555 4.456.575a1.342 1.342 0 0 0 0-2.635c-8.433-.863-12.07-6.417-11.59-11.922A11.787 11.787 0 0 1 23.978 65.88 10.54 10.54 0 0 1 34.51 76.125a10.926 10.926 0 0 1-8.568 12.832 1.485 1.485 0 0 0-1.317 1.653 1.486 1.486 0 0 0 1.653 1.318 13 13 0 0 0 4.787-1.39 32 32 0 0 1 3.21 4.265 28 28 0 0 1 1.577 2.63 49 49 0 0 1 1.533 2.684 47.6 47.6 0 0 1 2.923 7.034 1.487 1.487 0 0 0 2.466.322c.215-.251.34-.566.356-.897a35 35 0 0 0-1.485-8.28 19 19 0 0 0-1.294-3.402M8.616 49.21a32.1 32.1 0 0 0 19.53 5.99A264 264 0 0 0 57.5 52.708a1.294 1.294 0 0 0 1.246-1.437 1.295 1.295 0 0 0-1.39-1.198 270 270 0 0 1-28.73 1.677 28.08 28.08 0 0 1-16.853-5.745A22.67 22.67 0 0 1 4.83 28.769a25.68 25.68 0 0 1 5.846-17.57 16.68 16.68 0 0 1 10.58-4.793c4.182-.483 8.418.11 12.305 1.725a14.38 14.38 0 0 1 8.184 8.817c2.3 6.603 1.725 14.6 4.409 21.016a16.3 16.3 0 0 0 5.122 6.608 48 48 0 0 0 10.149 5.89 1.485 1.485 0 0 0 2.012-.672 1.58 1.58 0 0 0-.67-1.868 47 47 0 0 1-9.58-5.746 13.7 13.7 0 0 1-3.972-5.366c-2.73-8.04-1.293-17.615-5.079-24.845a18.4 18.4 0 0 0-8.85-8.045 29.7 29.7 0 0 0-14.36-2.396A22.04 22.04 0 0 0 6.99 7.705 30.57 30.57 0 0 0 .043 28.769 27.2 27.2 0 0 0 8.615 49.21m99.393 16.905a21.56 21.56 0 0 0-13.785-6.176 29.2 29.2 0 0 0-14.366 2.396 18.1 18.1 0 0 0-8.86 7.992c-3.972 7.284-2.348 17.001-5.266 24.754a13.6 13.6 0 0 1-4.116 5.51 47 47 0 0 1-9.574 5.794 1.53 1.53 0 0 0-.67 2.012 1.58 1.58 0 0 0 2.012.666 49.8 49.8 0 0 0 10.149-5.937 16.6 16.6 0 0 0 5.122-6.56c2.684-6.463 2.109-14.365 4.409-21.068a14.37 14.37 0 0 1 8.375-9A24.7 24.7 0 0 1 93.6 64.822a16.68 16.68 0 0 1 10.58 4.791 25.73 25.73 0 0 1 5.984 17.476 22.8 22.8 0 0 1-6.416 17.091 28.03 28.03 0 0 1-16.852 5.698c-9.6-.005-19.19-.565-28.726-1.677a1.339 1.339 0 0 0-1.466 1.889 1.34 1.34 0 0 0 1.466.746 263 263 0 0 0 29.205 2.731 32.1 32.1 0 0 0 19.536-5.989 27.2 27.2 0 0 0 8.04-20.394 30.37 30.37 0 0 0-6.943-21.069"/><path fill="#00d1ff" d="M21.49 22.21h10.97a1.529 1.529 0 0 0 .479-3.02c-2.013-.622-3.977-1.24-6.038-1.672a16.3 16.3 0 0 0-2.683-.335 17 17 0 0 0-2.726 0 32 32 0 0 0-6.225 1.485 1.294 1.294 0 0 0-.862 1.725 1.34 1.34 0 0 0 1.485 1.15c1.773.048 3.642.48 5.606.671M82.541 80.72h10.963c1.965 0 3.829-.623 5.89-.718a1.344 1.344 0 0 0 1.681-1.126 1.34 1.34 0 0 0-1.346-1.51 31.6 31.6 0 0 0-6.23-1.485 17 17 0 0 0-2.726 0q-1.351.092-2.683.335a55 55 0 0 0-6.028 1.725 1.533 1.533 0 0 0-1.246 1.725 1.486 1.486 0 0 0 1.725 1.054M13.163 35.473a1.29 1.29 0 0 0 1.58.958h9.623l2.875-.287 6.842-.863a1.487 1.487 0 0 0 .096-2.97 69 69 0 0 0-7.04-.911 24 24 0 0 0-3.061 0c-1.016.03-2.027.159-3.019.383a36.4 36.4 0 0 0-6.65 2.108 1.34 1.34 0 0 0-1.246 1.582m66.216 56.69a1.486 1.486 0 0 0 1.58 1.437l6.8.863 2.875.287h9.622a1.341 1.341 0 0 0 1.433-1.998 1.3 1.3 0 0 0-.815-.59 36.4 36.4 0 0 0-6.89-2.203c-1.007 0-2.013-.288-3.067-.384-1.054-.095-2.013 0-3.019 0q-3.54.264-7.034.91a1.534 1.534 0 0 0-1.485 1.678"/></g></svg>