<svg xmlns="http://www.w3.org/2000/svg" width="115" height="79" fill="none" viewBox="0 0 115 79"><g fill-rule="evenodd" clip-rule="evenodd" opacity=".75"><path fill="#00d1ff" d="M10.423 40.69c4.518 3.945 7.725.26 4.246-4.1l-.36-.416q-1.12-1.215-2.35-2.279c-.858-.726-1.762-1.35-2.665-1.972a36.5 36.5 0 0 0-6.862-3.478 1.49 1.49 0 0 0-1.288-.096c-.424.165-.773.517-.97.979a2.2 2.2 0 0 0-.084 1.48c.144.487.45.888.852 1.115 1.942 1.505 3.568 3.426 5.42 5.19a41 41 0 0 0 3.75 3.375z"/><path fill="#f4f4f9" d="M57.678 65.805a1.8 1.8 0 0 0-.908-1.022 1.74 1.74 0 0 0-1.352-.068 1.78 1.78 0 0 0-1.003.925 1.84 1.84 0 0 0-.068 1.377 5.5 5.5 0 0 1-.828 4.066 5.32 5.32 0 0 1-3.406 2.28 5.15 5.15 0 0 1-2.427-.534 6.6 6.6 0 0 1-2.188-1.405 19 19 0 0 1-1.19-1.406 4 4 0 0 1-.476-1.115 4.04 4.04 0 0 1 .38-2.715c.334-.339.572-.678.857-1.018a5.3 5.3 0 0 1 1.475-1.406 6.34 6.34 0 0 1 3.521-1.07c1.251 0 2.475.372 3.521 1.07a1.55 1.55 0 0 0 2.122-.114 1.62 1.62 0 0 0 .067-2.164 9.5 9.5 0 0 0-4.247-2.565 9.35 9.35 0 0 0-4.936-.052 8.4 8.4 0 0 0-.333-2.225 1.84 1.84 0 0 0-.621-.844 1.79 1.79 0 0 0-1.98-.113c-.306.18-.552.447-.71.768a1.82 1.82 0 0 0-.062 1.4c.261.82.261 1.702 0 2.521a9.6 9.6 0 0 0-3.521 3.587q-.286.03-.571 0a4.7 4.7 0 0 1-2.38-.533 6.6 6.6 0 0 1-2.521-1.212 9.7 9.7 0 0 1-1.142-1.406 2.9 2.9 0 0 1-.523-1.114 4.93 4.93 0 0 1 .488-2.983 4.8 4.8 0 0 1 2.128-2.107 6.25 6.25 0 0 1 3.521-1.09 6.24 6.24 0 0 1 3.521 1.09 1.567 1.567 0 0 0 2.17-.113 1.63 1.63 0 0 0 .441-1.103 1.63 1.63 0 0 0-.422-1.111 9 9 0 0 0-3.478-2.328 8.84 8.84 0 0 0-4.135-.484 7.6 7.6 0 0 0-.57-3.975 1.8 1.8 0 0 0-.917-.966 1.74 1.74 0 0 0-1.319-.052c-.43.156-.783.475-.987.89a1.83 1.83 0 0 0-.108 1.34c.164.712.168 1.452.011 2.166a4.9 4.9 0 0 1-.915 1.955 11 11 0 0 0-2.517 1.89q-.412.212-.857.34a5.6 5.6 0 0 1-2.379-.534 6.7 6.7 0 0 1-2.188-1.406 11 11 0 0 1-1.19-1.405 2.74 2.74 0 0 1-.476-1.164 4.63 4.63 0 0 1 .462-3.037 4.5 4.5 0 0 1 2.25-2.048 6.34 6.34 0 0 1 3.521-1.07 6.34 6.34 0 0 1 3.521 1.07 1.545 1.545 0 0 0 1.94-.286 1.62 1.62 0 0 0 .153-1.992 10.96 10.96 0 0 0-5.322-2.661 10.85 10.85 0 0 0-5.906.528 8.74 8.74 0 0 0-4.758 3.83 9.83 9.83 0 0 0-1.708 6.738 9.2 9.2 0 0 0 .999 2.908 16.5 16.5 0 0 0 2.379 2.957 11.5 11.5 0 0 0 4.806 2.516 8.7 8.7 0 0 0 2.236.388 10 10 0 0 0 0 2.375 8.3 8.3 0 0 0 1.046 2.86 13 13 0 0 0 2.375 3.005 11.9 11.9 0 0 0 8.231 2.904 1 1 0 0 1 0 .388 8 8 0 0 0 1.047 2.908 13 13 0 0 0 2.374 2.957 11.16 11.16 0 0 0 4.758 2.52 9.6 9.6 0 0 0 5.324 0 9.9 9.9 0 0 0 3.48-1.931 10.2 10.2 0 0 0 2.468-3.158 8.9 8.9 0 0 0-.048-7.416"/><path fill="#00d1ff" d="M51.023 12.113q.935.206 1.825.567c3.149 1.443 4.883-2.32 2.601-3.97a12.9 12.9 0 0 0-3.65-1.7 21.5 21.5 0 0 0-8.672-.31 29.5 29.5 0 0 1-7.617-.412L26.16 2.32A32.3 32.3 0 0 0 19.45 0a1.3 1.3 0 0 0-.554.189 1.5 1.5 0 0 0-.441.424c-.12.174-.206.375-.254.589a1.8 1.8 0 0 0-.023.654c.03.384.18.745.421 1.018.242.273.561.442.902.476 0 0 .548.31 1.05.619 2.83 1.65 8.803 5.876 12.865 8.195a12.6 12.6 0 0 0 5.43 1.959L44 12.937a21.5 21.5 0 0 1 7.028-.824"/><path fill="#f4f4f9" d="M114.856.844a1.8 1.8 0 0 0-1.113-.792 1.87 1.87 0 0 0-1.369.195l-8.493 4.595a29 29 0 0 1-4.768 2.115c-.97.3-1.987.439-3.006.413a40 40 0 0 1-4.772-.367 35 35 0 0 1-4.146-.966c-2.005-.643-3.913-1.47-5.918-2.022a16.3 16.3 0 0 0-4.767-.643q-1.941.083-3.77.735a20 20 0 0 0-4.771 2.252c-1.193.69-12.16 10.47-13.209 11.527a27.8 27.8 0 0 0-4.772 5.653 11.2 11.2 0 0 0-1.527 5.1 6.7 6.7 0 0 0 .416 3.092c.38.986.989 1.876 1.78 2.603a9.7 9.7 0 0 0 3.825 1.758 9.9 9.9 0 0 0 4.239-.011 15.9 15.9 0 0 0 6.723-3.034 45 45 0 0 0 5.44-4.917 25.6 25.6 0 0 0 7.63 1.792q1.862.207 3.723 0a16.4 16.4 0 0 0 3.578-.919 21.5 21.5 0 0 0 7.01-4.596 1.5 1.5 0 0 0 .439-.422 1.42 1.42 0 0 0-.057-1.692 1.6 1.6 0 0 0-.445-.409 1.6 1.6 0 0 0-1.188-.199 1.6 1.6 0 0 0-.562.24 26.6 26.6 0 0 1-6.871 1.793l-4.152.69c-.954 0-1.813.32-2.763.367a30 30 0 0 1-4.486 0 .9.9 0 0 0 0-.506 1.5 1.5 0 0 0-.501-.331 1.58 1.58 0 0 0-1.694.331 60.5 60.5 0 0 1-7.248 5.929 12.2 12.2 0 0 1-5.154 1.93 5.9 5.9 0 0 1-3.722-.643 2.34 2.34 0 0 1-1.019-1.052 2.22 2.22 0 0 1-.169-1.43 7.7 7.7 0 0 1 1.24-2.941 26 26 0 0 1 4.105-4.367c2.338-2.247 4.771-4.59 7.248-6.838a38 38 0 0 1 5.01-3.769 20 20 0 0 1 2.911-1.562 9.24 9.24 0 0 1 5.96-.414c1.957.414 3.818 1.103 5.774 1.655q2.563.62 5.197.873a48 48 0 0 0 5.154 0 14.9 14.9 0 0 0 4.48-.828 35 35 0 0 0 5.44-2.757l8.251-5.01c.411-.19.73-.525.89-.936s.149-.862-.031-1.265"/><path fill="#00d1ff" d="M89.876 49.202a18 18 0 0 0-1.109-2.383 36.3 36.3 0 0 0-5.035-6.303l-5.394-5.7a1.7 1.7 0 0 0-1.07-.51 1.76 1.76 0 0 0-1.16.293 1.53 1.53 0 0 0-.644.94c-.081.378-.007.77.208 1.099l3.982 6.635a43.6 43.6 0 0 1 3.427 6.074 11.9 11.9 0 0 1 1.21 3.738c.16.816.13 1.655-.087 2.46a5.7 5.7 0 0 1-1.173 2.208 6.25 6.25 0 0 1-2.621 1.635 5 5 0 0 0-.252-.514 38 38 0 0 0-3.529-4.159L69.371 47.1a1.8 1.8 0 0 0-.524-.48 2.01 2.01 0 0 0-2.097.012 1.75 1.75 0 0 0-.795 1.12c-.095.455.01.927.29 1.31l5.646 8.925a45 45 0 0 1 2.672 3.879 9 9 0 0 1 1.008 2.196c.28.534.363 1.14.235 1.722a2.67 2.67 0 0 1-.94 1.502 5.25 5.25 0 0 1-2.521 1.023v-.42a15.7 15.7 0 0 0-1.966-2.991c-1.21-1.355-2.37-2.663-3.68-3.925s-2.52-2.476-3.876-3.64a1.7 1.7 0 0 0-1.108-.556 1.76 1.76 0 0 0-1.21.322 1.56 1.56 0 0 0-.606 1.051c-.047.41.08.82.353 1.146a49 49 0 0 1 2.218 3.364 99 99 0 0 1 2.873 5.186l1.412 3.173-.706 1.121a4.5 4.5 0 0 1-1.317 1.278 4.9 4.9 0 0 1-1.758.685 5.4 5.4 0 0 1-3.629-.374 2 2 0 0 0-1.41-.214 1.9 1.9 0 0 0-.664.28 1.8 1.8 0 0 0-.497.495 1.67 1.67 0 0 0-.235 1.33c.114.454.415.85.84 1.1 1.62 1.301 3.704 2 5.847 1.962 1.932.048 3.838-.42 5.492-1.348 1.653-.927 2.984-2.276 3.834-3.885q.225-.692.302-1.402a10.8 10.8 0 0 0 5.035-.888c1.484-.77 2.673-1.947 3.405-3.37a7.12 7.12 0 0 0 .678-4.573 11.16 11.16 0 0 0 5.041-2.243 10.8 10.8 0 0 0 2.72-3.45 10.1 10.1 0 0 0 1.055-4.161 16.2 16.2 0 0 0-.907-4.159"/><path fill="#f4f4f9" d="M114.946 43.518a1.4 1.4 0 0 0-.292-.536 1.7 1.7 0 0 0-.509-.398 2 2 0 0 0-.647-.2 2 2 0 0 0-.686.03c-2.893.287-5.692.368-8.49.777a37.6 37.6 0 0 0-5.592 1.226 30.3 30.3 0 0 0-5.928 2.655c-3.89 1.39-1.565 4.086 2.087 3.187l4.41-.776 3.32-.695 3.273-.899c2.608-.776 5.165-1.634 7.773-2.533a1.9 1.9 0 0 0 .622-.251 1.6 1.6 0 0 0 .462-.439c.119-.17.198-.36.232-.557a1.3 1.3 0 0 0-.035-.591"/></g></svg>