<svg xmlns="http://www.w3.org/2000/svg" width="1157" height="711" fill="none" viewBox="0 0 1157 711"><g fill-rule="evenodd" clip-rule="evenodd" opacity=".05"><path fill="#00d1ff" d="M303.475 149.953a163.8 163.8 0 0 0 15.658 32.133 1.72 1.72 0 0 0 3.096-1.484 146.8 146.8 0 0 0-15.815-32.094 1.65 1.65 0 0 0-.94-.826 1.62 1.62 0 0 0-1.249.08 1.63 1.63 0 0 0-.827.94 1.6 1.6 0 0 0-.084.632c.014.215.066.426.161.619m15.505-22.652c16.241 46.195 18.933 33.663 18.234 32.36a241.4 241.4 0 0 0-15.262-33.69 1.626 1.626 0 0 0-2.151-.821 1.62 1.62 0 0 0-.856.906c-.154.403-.142.851.035 1.245m26.948-2.603a79.6 79.6 0 0 0 11.402 24.083 1.717 1.717 0 0 0 3.075-1.529 95.1 95.1 0 0 0-11.522-23.922 1.63 1.63 0 0 0-2.162-.793 1.627 1.627 0 0 0-.793 2.161m22.884-6.522a1.7 1.7 0 0 0 .985.869 1.72 1.72 0 0 0 1.312-.082 1.717 1.717 0 0 0 .786-2.297c-4.162-17.622-15.812-14.494-3.083 1.51m-39.867 82.762a77.5 77.5 0 0 0 10.717 22.843 1.718 1.718 0 0 0 3.12-1.421 76.6 76.6 0 0 0-10.879-22.783 1.62 1.62 0 0 0-.91-.909 1.62 1.62 0 0 0-1.285.034 1.62 1.62 0 0 0-.944 1.605c.017.221.078.435.181.631m14.24-23.627a114.2 114.2 0 0 0 13.684 27.243 1.719 1.719 0 0 0 3.07-1.532 110.2 110.2 0 0 0-13.844-27.179 1.65 1.65 0 0 0-.384-.524 1.64 1.64 0 0 0-1.828-.249 1.64 1.64 0 0 0-.824.971 1.6 1.6 0 0 0-.066.645c.021.218.088.433.192.625m23.386-9.252a106.5 106.5 0 0 0 13.819 29.025 1.71 1.71 0 0 0 1.69.887 1.7 1.7 0 0 0 1.155-.628 1.72 1.72 0 0 0 .174-1.902 166 166 0 0 0-13.908-28.795 1.63 1.63 0 0 0-2.932 1.419m14.574-26.05a398 398 0 0 0 24.016 51.685 1.718 1.718 0 0 0 3.12-1.421 370 370 0 0 0-24.16-51.628 1.64 1.64 0 0 0-2.972 1.362"/><path fill="#f4f4f9" d="M381.195 129.562a96 96 0 0 0-6.326 2.278 1.64 1.64 0 0 1-1.293.118 1.66 1.66 0 0 1-.978-.853 1.64 1.64 0 0 1-.06-1.296 1.66 1.66 0 0 1 .895-.94 134 134 0 0 1 17.689-8.908c3.475-1.602 5.276 4.223 7.736 12.171a219 219 0 0 0 2.428 7.506 1.715 1.715 0 0 1-.798 2.383 1.71 1.71 0 0 1-1.948-.37 1.7 1.7 0 0 1-.374-.592c-2.893-5.383-3.749-7.383-4.783-9.795-.322-.756-.66-1.551-1.089-2.502-.705 1.334-1.662 3.064-2.921 5.346a1264 1264 0 0 0-10.068 18.563c-6.874 12.926-8.219 18.517-10.888 19.24-2.273.621-5.509-2.308-13.954-7.239-9.227 15.656-13.446 22.307-17.522 28.727-2.793 4.404-5.522 8.705-9.751 15.73a1.635 1.635 0 0 1-2.834-1.611 901 901 0 0 1 16.988-30.75c7.104-12.35 8.887-17.556 11.684-18.171 2.414-.533 5.593 2.371 13.624 7.062 7.573-14.759 13.425-24.135 22.35-38.442l.412-.662c-3.412 1.407-5.88 2.227-8.219 3.007"/></g><g filter="url(#a)" opacity=".08"><path fill="url(#b)" d="m552.9 344.27-233.5 99.667L85.9 344.27 319.4 245z"/></g><g filter="url(#c)" opacity=".08"><circle cx="287.4" cy="562.5" r="4.5" fill="#00d1ff"/></g><g filter="url(#d)" opacity=".08"><circle cx="85.9" cy="512" r="6" fill="#00d1ff"/></g><circle cx="507.9" cy="397" r="6" fill="#00d1ff" opacity=".08"/><g filter="url(#e)" opacity=".08"><circle cx="976.9" cy="353" r="4" fill="#00d1ff"/></g><g filter="url(#f)" opacity=".08"><ellipse cx="795.9" cy="615.5" fill="#00d1ff" rx="6" ry="5.5"/></g><path fill="#00d1ff" d="m635.9 399 1.565 7.434L644.9 408l-7.435 1.566L635.9 417l-1.566-7.434L626.9 408l7.434-1.566zM1148.9 399l1.44 6.148 6.56 1.352-6.56 1.352-1.44 6.148-1.44-6.148-6.56-1.352 6.56-1.352zM1010.4 170l1.12 6.376 6.38 1.124-6.38 1.124-1.12 6.376-1.12-6.376-6.38-1.124 6.38-1.124zM1144.4 77l1.48 6.02 6.02 1.48-6.02 1.48-1.48 6.02-1.48-6.02-6.02-1.48 6.02-1.48zM145.4 85l2.821 4.679L152.9 92.5l-4.679 2.821L145.4 100l-2.821-4.679L137.9 92.5l4.679-2.821z" opacity=".08"/><g filter="url(#g)"><path fill="#00d1ff" d="m152.421 212 1.19 5.31 5.31 1.19-5.31 1.19-1.19 5.31-1.191-5.31-5.309-1.19 5.309-1.19z"/></g><g filter="url(#h)"><path fill="#00d1ff" d="m641.42 414 1.191 5.31 5.309 1.19-5.309 1.19-1.191 5.31-1.19-5.31-5.31-1.19 5.31-1.19z"/></g><g filter="url(#i)"><path fill="#00d1ff" d="m605.9 241 3.846 17.154L626.9 262l-17.154 3.846L605.9 283l-3.846-17.154L584.9 262l17.154-3.846z"/></g><path fill="#00d1ff" d="m605.9 241 1.901 19.099L626.9 262l-19.099 1.901L605.9 283l-1.901-19.099L584.9 262l19.099-1.901z"/><g filter="url(#j)"><path fill="#00d1ff" d="m237.4 538 2.289 10.211L249.9 550.5l-10.211 2.289L237.4 563l-2.289-10.211L224.9 550.5l10.211-2.289z"/></g><path fill="#00d1ff" d="m237.4 538 1.131 11.369L249.9 550.5l-11.369 1.131L237.4 563l-1.131-11.369L224.9 550.5l11.369-1.131z"/><g filter="url(#k)"><path fill="#00d1ff" d="m488.42 174 1.374 6.126 6.126 1.374-6.126 1.374L488.42 189l-1.373-6.126-6.127-1.374 6.127-1.374z"/></g><g filter="url(#l)"><circle cx="380.4" cy="355.5" r="205.5" fill="url(#m)"/></g><circle cx="379.9" cy="356" r="167" fill="url(#n)" fill-opacity=".2"/><g filter="url(#o)"><circle cx="379.9" cy="356" r="166" stroke="#00d1ff" stroke-width="2"/></g><g filter="url(#p)"><path fill="#6339f0" d="M543.242 370.774c-.08 3.978-.554 9.175-1.123 13.112-.176 1.232-.233.591-.364 1.438-.261 1.657-.413 3.204-.727 4.83-.106.541-.207-.168-.314.398-.586 3.108-1.074 6.023-1.789 9.14-3.528 15.299-8.95 29.873-16.519 43.802-2.49 4.603-5.928 9.949-8.882 14.456-.345.528.018.32-.036.428-.869 1.687-.824.96-1.565 1.939-2.944 3.883-6.256 8.158-9.219 11.785-1.264 1.541.31.256-1.151 1.649-.102.097.08-.414-.293-.014-.841.911-2.376 2.69-3.037 3.386-1.272 1.345-1.479 1.569-2.685 2.837-1.653 1.729-3.729 3.676-5.553 5.479-.39.385.274.03-.336.657-.608.63-2.321 2.192-2.934 2.677-.611.488-.47.148-.597.213-1.042.535-2.78 2.605-3.04 2.835-4.666 4.211-9.105 7.295-13.947 10.644-3.678 2.541-7.693 5.159-11.386 7.271-4.409 2.518-8.272 4.401-12.721 6.512-.47.221.182.178-.393.448-6.118 2.869-12.387 5.3-18.826 7.221-.647.192.116-.272-.534-.092-3.964 1.129-10.342 2.406-12.511 3.818-2.723.613-6.061 1.266-8.542 1.529-1.603.168-.104-.324-2.033.108-.436.095.169.194-.488.322-2.784.538-5.807.896-8.574 1.313-.562.084-.388.243-.545.292-1.327.411-3.594.193-4.084.201-3.727.082-6.452.32-9.909.415-.805.02.154.233-.622.259-1.339.044-2.698.065-4.063.063-2.738-.003-5.47-.103-8.079-.297-.87-.066-.06-.23-.474-.272-1.842-.191-2.276.165-4.038-.044-.371-.045-.148-.202-.215-.226-1.037-.378-1.989-.037-2.263-.052-3.446-.186-5.628-.887-8.928-1.289-.396-.049.463.297-.649.144a136.6 136.6 0 0 1-22.265-5.027c-1.098-.349-.262-.277-.326-.316-1.041-.637-1.891-.454-2.254-.549-2.875-.765-5.376-2.001-7.438-2.207-11.751-4.418-23.185-9.762-33.424-16.871-.131-.09.221-.113-.039-.292-3.117-2.168-2.676-1.502-4.985-2.595-.582-.277-1.881-1.784-1.997-1.913-.429-.467.276-.346.122-.487-1.274-1.164-1.658-.161-3.524-1.553-.057-.045.301-.014.156-.146-.448-.411-.973-.715-1.403-1.128-.983-.949-1.055-1.634-2.848-2.699-.227-.137-.287.577-1.876-.761-.638-.528-3.436-2.896-4.174-3.612-.744-.707-.091-.382-.141-.437-1.892-2.022-1.04-1.404-1.81-2.604-.763-1.203-1.077-.303-1.556-.615-.481-.313-1.803-1.858-2.107-2.257-.305-.397.221-.051-.066-.387-1.897-2.236-1.22-.591-2.003-1.172-1.844-1.382-2.607-3.116-3.975-4.68-.37-.424-.166.014-.517-.345-1.383-1.429-2.029-2.45-3.65-4.035-.265-.258-1.753-1.397-2.287-2.494-.075-.156.352.108-.159-.568-.764-1.007-2.159-2.805-3.032-3.847-.646-.77-.155.305-.86-.748-.311-.469.444.263-.151-.609-.595-.867-2.19-3.016-2.784-3.846-.596-.825-.437-.254-.496-.313-.355-.359-1.556-1.909-1.652-2.054-4.964-7.185-8.714-14.331-12.529-21.907-.298-.596-.297-.104-.344-.194-1.066-2.018.219-.64-.287-2.158-.294.392-.626-.489-1.33-1.932-.339-.697-.319-.244-.364-.301-.703-.946-.719-1.815-.739-2.03-.075-.797-.667-1.445-.713-1.985-.046-.539.633.462.043-.954-.307-.339-.248.871-.752-.185-1.951-3.98-4.355-11.895-5.289-15.312-.97-3.4-1.279-4.511-1.742-6.523-.799-3.631-.761-2.238-1.418-4.466-.638-2.244.332-1.296.415-1.655.086-.354-.148-.669-.146-1.086.003-.415.287.423.126-.518-.165-.934-.927-3.43-1.147-3.736-.471-.642-.637.585-.939-1.935-.017-.145.254.289.181-.264-.584-4.39-1.149-8.956-1.39-13.35-.033-.605.228-.084.212-.436-.147-3.668-.405-2.332-.937-4.328.569.424.813-.719.711-3.483-.055-1.667-.279-1.373-.472-2.453-.058-.325.084-1.515-.028-1.729-.347-.668-.726.299-.64-2.022q.008-.21.022-.457c.008-.126.206.278.219-.16.101-2.83-.275-3.164-.21-6.226.049-2.403.558-6.641.867-9.345.595.115.714-2.45.427-3.537.222-1.755.452-3.646.764-5.332.107-.579.223-.17.253-.241.465-1.077.188-1.895.234-2.275.53-4.109 1.503-7.347 2.114-11.252.023-.139-.338-.456.214-1.413.037-.061-.09 1.252.371-.549.46-1.803 1.588-5.115 2.153-7.635.134-.609.272-2.22.92-3.345.087-.15.145.063.284-.147.448-.681.179-1.224.819-1.982.64-.756 1.516-2.477 2.195-4.984.023-.079-.077-.773.223-1.531.478-1.213 1.235-2.902 1.76-4.153.251-.6-.104-.298-.063-.404 1.608-4.079 3.088-6.839 5.282-10.98.401-.76 1.296-3.085 2.3-4.433 1.108-1.476 1.07.646 2.936-3.094.759-1.495.743-4.025 2.952-6.23 3.042-5.06 6.496-9.3 9.98-14.075.157-.214.398-1.1.798-1.583.593-.717 1.05-1.001 1.483-1.504 1.819-2.102 3.386-4.111 5.216-6.073.695-.744.582-.364 1.417-1.243.837-.875 1.227-1.623 2.457-2.721.93-.827 2.14-1.369 3.354-2.473-.28-.377.532-1.164 1.916-2.628.266-.281-.148-.117-.028-.256.488-.57 1.086-.938 1.548-1.482.113-.132.011-.255.098-.37.728-.982 2.451-2.017 2.748-2.19 1.135-.67 1.462-1.219 2.284-1.788.822-.566-.242.476.684-.224 1.918-1.449 4.315-3.384 6.267-4.845.778-.583.12-.354.229-.442 1.577-1.254 3.363-2.255 4.032-3.244 1.774.101.926-.794 3.442-2.224.199-.111.725.161.046.707s-1.857 1.154-2.775 1.943c-.219.186-1.266 1.526-1.427 1.681-1.274 1.205-1.927.733-2.028.753-1.119.252-2.395 1.881-2.786 2.232-1.798 1.601-3.451 2.8-4.917 4.179-.957.904-.724 1.374-1.513 2.032-2.609 2.198-3.978 2.485-5.907 5.143-.41.573.463.491-1.614 1.897-.13.087-1.722 1.093-2.287 2.029-.071.117.047.228-.067.362-.761.901-1.4 1.375-2.237 2.348s-1.815 2.166-2.833 3.217c-.614.633-1.587 1.283-1.921 1.554-.947.761-1.511 1.963-2.184 2.364-.678.408-.042-.97-1.427.435.277.324.504.727.756 1.086-2.729 3.293-5.391 6.568-7.844 10.095-.303.438.194.122-.126.594-1.344 1.996-2.643 3.654-3.931 5.797-.994 1.656-1.894 3.589-2.859 5.358-1.041.816-2.384 3.512-3.441 5.411-.372.665-.461.561-.751 1.022-1.085 1.747-.262 1.091-.46 1.62-.831 2.272-1.788 2.024-2.991 4.61-.067.138-.374 2.022-.447 2.266-.471 1.55-.273.168-.719 1.072-.809 1.655-1.428 2.784-2.106 4.839-.197.6-.461 2.121-1.127 3.17-.087.139-.214-.005-.269.112-.985 2.134-.499 2.381-.782 3.699-.281 1.318-1.286 3.149-1.517 3.518-.604.961.153-.838.149-.902-.079-.766-.512.681-.892 1.773-.55-.003-1.009 1.555-.389 1.134.068-.049.295-.921.389-1.134.175 1.126-.291 2.819-1.298 4.566-.468.819-.494-.089-1.147 2.627-.289 1.233.185.854-.003 1.957-.431 2.522-1.508 5.656-1.985 8.251-.172.936.206.067.097.708-.288 1.699-.713 3.171-.931 4.897-.019.156.248-.187.161.343-.65 4.025-1.252 7.537-1.667 11.786-.206 2.048-.358 5.736-.474 7.864-.149 2.532-.368 5.431-.434 8.055a50 50 0 0 0 .01 3.375c.094 2.065.293 1.604.461 2.481.323 1.68.01 4.72-.033 5.134-.004.014-.16-1.762-.208-.806-.187.566.206.787.208.806-.04.273.186 3.814.3 4.507.057.377.231.147.258.344a467 467 0 0 0 2.094 14.127c.011.084-.226-.002-.197.195.412 2.748 1.044 4.445 1.703 6.645.664 2.201 1.055 3.954 1.039 5.37.483 1.667 1.001 4.1 1.319 5.496.316 1.398.786 1.459.831 1.578 1.438 3.666 1.938 5.864 3.343 9.692.664 1.821 2.166 5.337 3.06 7.238.699 1.5 1.021 2.448 1.723 3.8.095.183.178-.086.211-.032.928 1.437.163.898.239 1.25.28 1.276.479 2.066 1.593 3.949.257.436 1.521 1.428 1.985 2.213.604 1.024.18.741.827 1.808.055.091.173.002.539.677 1.703 3.134 3.623 6.513 5.65 9.618.277.424.12-.247.523.362 1.889 2.854 4.037 5.942 5.947 8.679.47.675.031.361.099.533.423 1.057 1.715 2.03 1.88 2.226 3.93 4.683 6.702 8.488 11.143 12.882.241.242 2.387 1.789 2.94 2.883.037.074.577 1.174 1.503 1.686.058.031-.316-.615.572.269.89.885 2.454 2.162 3.582 3.484.356.418 1.052 1.583 2.495 2.41.095.057 2.47 1.136 2.844 2.086.06.154-.398.471 1.283 1.49.322.192-.129-.322.679.234 1.238.85 2.717 2.185 4.332 3.103.282.161 1.586.688 2.313 1.549.114.135-.254.086.203.441 2.179 1.689 4.628 3.222 6.908 4.84.81.573.229.539 1.062 1.159.831.621 2.575 1.782 3.571 2.222.997.442.212-.549 1.623.241 6.15 3.42 12.245 6.785 18.709 9.577.958.412.224-.071 1.64.515 5.213 2.215 14.519 5.183 19.179 6.747 3.742 1.289-1.118.212 1.776 1.095 1.4.422 3.05.278 3.395.342 3.368.625 5.661 1.337 8.7 1.824.629.099.053-.223.587-.137 1.823.289 3.747.694 5.485.926.784.104.662-.078 1.381.033 1.722.261 3.246.513 4.93.844.154.03-.914.123.378.265 2.072.226 4.649.592 7.074.578.717-.006.775-.372 2.286-.042.318.067-.111.503 1.688.183.304-.048 3.312-.487 4.788-.148.232.055.679.209 1.186.31.345.069.717.114 1.067.089.117-.01-.353-.207.362-.232 2.52-.086 5.135-.146 7.702-.349.689-.056-.349-.205.676-.282 2.825-.214 6.294-.462 9.057-.716 1.013-.093.334.159.41.169 1.22.164 1.868-.335 2.255-.41 2.409-.461 4.278-.551 6.507-.982.613-.12.143-.238.263-.276 1.238-.39.354.122 1.164.017 2.265-.296 4.758-.817 7.011-1.353.826-.197-.154-.206.586-.382 4.369-1.042 8.899-2.266 13.118-3.485.797-.231.354.095.531.08 1.223-.099 2.757-1.022 3.122-1.188 1.668-.755 2.377-.848 3.883-1.439 7.332-2.852 16.187-6.885 22.682-10.493 8.464-4.689 14.816-8.789 22.056-14.537.459-.367-.149-.18.243-.5 5.066-4.115 9.916-8.353 14.47-13.052.374-.385-.326.011.266-.614a306 306 0 0 1 4.015-4.165c.612-.621-.036.37.578-.258a72 72 0 0 0 4.207-4.734c.562-.694-.476.194.267-.698 5.039-6.084 9.547-12.404 13.987-19.053.304-.456.949-.628 1.473-1.675-.064-.141-.195-.213-.292-.316 5.83-9.921 10.784-20.245 14.532-31.176.157-.461-.342.258-.04-.634 1.74-5.174 3.114-10.285 4.591-15.658.145-.535.504-.162.79-1.777.054-.285.499-2.711.523-3.35.003-.087-.277.314-.133-.463.84-4.525 1.589-9.277 2.189-13.854.097-.739.226.072.297-.455.494-3.7.605-7.833.911-11.386.201-2.397.54-1.499.927-2.777.055-.18.08-1.682.289-1.759.529-.198 1.103.539 1.668.243.125-.062-.003-2.102.288-.894.021.084.109 1.564.202 1.929.065.254.285-.2.366.319.079.52-.11 1.085-.029 1.943.08.859.339.491.305 2.201m-326.48 47.181c.241 1.323 1.012 1.259.374-.036-.032-.062-.386-.032-.374.036m23.508-152.819c-1.302 1.204-1.596 2.457-.675 1.613.923-.839 1.071-1.978.675-1.613m11.315-14.038c-1.569 1.325-.995 2.272.311.526.077-.101-.22-.603-.311-.526m288.468 121.641c.012-.021.073-1.088.064-1.114-.21-.58-.332 1.556-.064 1.114M264.244 238.416c-.576.309-1.832 1.653-1.124 1.26.568-.318 1.838-1.646 1.124-1.26m-12.693 239.096c.006.023.526.596.562.541.111-.176-.663-.925-.562-.541m37.341-256.974c-3.877 2.275-6.655 3.042-2.421.507.768-.453-1.49 1.247-.482.717 1.837-.965 2.741-2.145 4.728-2.95.356-.146-1.606 1.595-1.831 1.731zm-72.728 198.435c-.001.029.346 1.042.364 1.063.417.466-.282-1.572-.364-1.063m69.927 87.526c.037.053 2.159 1.363 2.24 1.384 1.309.339-2.97-2.301-2.24-1.384m-78.958-158.728c-.127-1.184-.002-2.598.406-3.491-.152 1.156-.279 2.331-.406 3.491"/></g><path fill="#00d1ff" d="M547.253 362.735c-.105 3.954-.549 9.121-1.077 13.041-.164 1.226-.168.595-.289 1.439-.239 1.651-.416 3.186-.704 4.808-.097.539-.116-.154-.215.411-.548 3.1-1.055 5.999-1.749 9.106-3.428 15.253-8.801 29.788-16.311 43.688-2.47 4.592-5.833 9.961-8.806 14.438-.347.523-.046.275-.105.379-.942 1.63-.775.988-1.498 1.976-2.871 3.916-6.171 8.186-9.148 11.784-1.269 1.53.189.154-1.206 1.596-.097.1.143-.359-.222.046-.825.92-2.367 2.685-3.021 3.384-1.259 1.349-1.467 1.573-2.67 2.838-1.647 1.726-3.69 3.695-5.523 5.481-.391.382.216-.03-.402.586-.616.618-2.318 2.18-2.917 2.677-.597.501-.414.208-.531.284-.959.625-2.805 2.565-3.066 2.79-4.699 4.145-9.065 7.295-13.898 10.636-3.669 2.535-7.69 5.12-11.37 7.23-4.396 2.515-8.229 4.433-12.671 6.532-.469.22.142.092-.432.36a146 146 0 0 1-18.751 7.26c-.644.197.143-.187-.501.003-3.933 1.19-10.27 2.625-12.516 3.685-2.713.625-6.038 1.29-8.5 1.624-1.592.214-.08-.189-2.013.204-.437.087.154.108-.503.229-2.782.509-5.795.891-8.56 1.266-.562.076-.397.164-.554.201-1.334.308-3.577.259-4.065.279-3.711.174-6.434.375-9.883.472-.804.02.15.139-.624.162-1.335.039-2.691.058-4.052.057a129 129 0 0 1-8.06-.254c-.868-.057-.063-.139-.477-.173-1.841-.153-2.265.05-4.024-.126-.371-.038-.154-.126-.221-.142-1.045-.259-1.982-.086-2.255-.105-3.432-.236-5.629-.761-8.922-1.187-.395-.052.475.207-.634.051a147 147 0 0 1-22.236-4.95c-1.099-.338-.284-.202-.35-.234-1.076-.515-1.876-.495-2.237-.596-2.855-.807-5.4-1.907-7.39-2.302-11.755-4.346-23.108-9.776-33.426-16.719-.131-.088.175-.041-.087-.216-3.14-2.127-2.629-1.571-4.843-2.793-.558-.309-1.965-1.656-2.089-1.774-.459-.424.173-.202.013-.335-1.321-1.1-1.462-.43-3.323-1.819-.057-.045.255.047.106-.079-.463-.392-.968-.719-1.413-1.11-1.018-.901-1.214-1.428-2.934-2.584-.217-.148-.132.384-1.723-.944-.64-.523-3.43-2.889-4.177-3.592-.752-.695-.15-.314-.202-.366-1.955-1.946-1.133-1.298-2.002-2.389-.863-1.095-.939-.452-1.39-.793-.454-.34-1.831-1.824-2.154-2.202-.326-.377.167.003-.132-.322-1.971-2.159-1.097-.714-1.84-1.333-1.746-1.472-2.694-3.022-4.08-4.569-.375-.419-.128-.022-.475-.384-1.366-1.441-2.072-2.408-3.635-4.04-.256-.266-1.623-1.504-2.244-2.526-.088-.145.29.16-.232-.506-.781-.993-2.186-2.781-3.042-3.836-.632-.778-.057.23-.787-.802-.323-.459.382.311-.23-.548-.613-.852-2.205-3.002-2.797-3.832-.594-.826-.369-.303-.424-.365-.329-.376-1.496-1.947-1.592-2.091-4.947-7.178-8.811-14.248-12.584-21.839-.295-.597-.217-.142-.263-.233-1.032-2.03.048-.557-.527-2.041-.137.317-.497-.549-1.184-1.999-.33-.7-.249-.275-.287-.335-.609-.985-.745-1.8-.79-2.005-.166-.756-.649-1.45-.756-1.964-.107-.513.482.525-.107-.891-.25-.363-.041.785-.52-.28-1.856-4.011-4.375-11.869-5.322-15.28-.981-3.393-1.278-4.505-1.763-6.51-.838-3.618-.683-2.255-1.285-4.491-.584-2.252.097-1.243.117-1.589.025-.34-.146-.669-.178-1.079-.031-.408.211.439.037-.5-.178-.932-.829-3.452-.984-3.769-.332-.667-.353.534-.705-1.974-.02-.144.173.302.093-.249-.642-4.376-1.211-8.939-1.505-13.326-.04-.604.135-.076.114-.427-.202-3.665-.315-2.341-.685-4.344.354.436.466-.699.362-3.466-.056-1.669-.185-1.377-.312-2.459-.038-.324.04-1.514-.028-1.729-.21-.669-.438.296-.389-2.021q.005-.21.014-.456c.005-.127.122.277.131-.161.069-2.827-.154-3.158-.072-6.213.063-2.398.48-6.634.774-9.336.353.092.528-2.469.406-3.535.216-1.754.454-3.641.743-5.329.1-.579.146-.181.168-.253.347-1.095.231-1.888.284-2.265.59-4.094 1.442-7.355 2.17-11.23.026-.137-.17-.415.261-1.399.029-.062-.172 1.231.282-.57s1.495-5.136 2.134-7.632c.152-.604.42-2.171.966-3.328.073-.153.084.044.198-.174.367-.707.259-1.196.762-2 .503-.802 1.278-2.563 2.051-5.037.026-.078.052-.724.35-1.482.475-1.215 1.205-2.914 1.731-4.165.251-.6-.026-.265.016-.37 1.651-4.059 3.061-6.847 5.226-11.002.396-.763 1.391-3.033 2.316-4.424 1.02-1.524.622.399 2.578-3.3.797-1.482 1.226-3.739 3.206-6.087 3.098-5.024 6.441-9.348 10.003-14.066.16-.213.516-1.007.914-1.491.59-.718.994-1.046 1.423-1.551 1.804-2.115 3.415-4.086 5.237-6.054.693-.745.528-.413 1.36-1.295.835-.879 1.291-1.562 2.489-2.691.906-.85 1.982-1.527 3.183-2.649-.149-.244.66-1.033 2.077-2.461.273-.275-.097-.063.029-.196.51-.546 1.072-.953 1.558-1.469.119-.126.06-.202.154-.308.79-.912 2.416-2.052 2.696-2.244 1.073-.742 1.454-1.228 2.252-1.825.797-.594-.297.411.615-.305 1.889-1.486 4.294-3.415 6.245-4.879.778-.584.171-.287.28-.373 1.59-1.236 3.324-2.312 4.091-3.162 1.522-.258.95-.759 3.415-2.26.195-.117.606-.018-.091.504-.696.521-1.84 1.183-2.785 1.934-.226.176-1.388 1.36-1.557 1.506-1.332 1.133-1.802.912-1.893.945-1.01.4-2.412 1.862-2.813 2.202-1.842 1.551-3.47 2.787-4.969 4.132-.978.881-.877 1.198-1.665 1.862-2.605 2.222-3.782 2.718-5.886 5.202-.446.536.275.293-1.688 1.831-.123.095-1.606 1.218-2.245 2.084-.08.109-.008.174-.126.305-.79.88-1.393 1.392-2.251 2.351s-1.867 2.131-2.873 3.201c-.606.645-1.492 1.377-1.804 1.668-.885.819-1.558 1.934-2.152 2.403-.6.475.158-.803-1.178.646.148.217.241.51.363.761-2.735 3.31-5.362 6.629-7.829 10.163-.305.439.119.069-.204.541-1.362 1.996-2.612 3.696-3.926 5.833-1.015 1.651-2.001 3.541-2.992 5.307-.877.918-2.282 3.589-3.327 5.504-.368.671-.412.59-.688 1.061-1.033 1.781-.359 1.044-.582 1.563-.938 2.23-1.551 2.154-2.765 4.742-.067.138-.563 1.94-.648 2.18-.549 1.522-.208.199-.642 1.112-.786 1.672-1.361 2.823-2.097 4.862-.215.594-.6 2.073-1.175 3.163-.076.143-.139.024-.191.143-.925 2.163-.638 2.336-.991 3.635-.352 1.3-1.22 3.187-1.411 3.571-.502.998.198-.826.204-.887.043-.727-.412.716-.782 1.815-.352.062-.823 1.617-.38 1.14.048-.055.294-.923.38-1.14-.022 1.065-.516 2.76-1.34 4.566-.382.847-.308-.034-.999 2.676-.306 1.231.029.814-.198 1.91-.519 2.508-1.468 5.684-1.967 8.281-.18.937.122.05.004.691-.31 1.701-.678 3.189-.927 4.915-.022.156.164-.202.075.33-.661 4.04-1.213 7.573-1.627 11.836-.207 2.055-.405 5.755-.512 7.892-.14 2.542-.3 5.453-.339 8.085a70 70 0 0 0 .02 3.386c.075 2.071.193 1.612.305 2.494.214 1.692.096 4.735.083 5.148-.003.013-.14-1.769-.146-.813-.098.562.144.793.146.813-.021.272.225 3.823.324 4.52.048.38.145.155.168.354a271 271 0 0 0 2.05 14.191c.013.084-.139-.018-.107.179.452 2.751.98 4.475 1.58 6.7.605 2.224 1.019 3.983 1.149 5.365.467 1.679 1.051 4.104 1.409 5.493.356 1.39.663 1.502.705 1.622 1.341 3.715 1.937 5.894 3.362 9.731.674 1.826 2.158 5.365 3.039 7.281.689 1.513 1.048 2.448 1.73 3.817.092.185.106-.052.137.003.85 1.483.25.861.356 1.201.391 1.228.648 1.991 1.715 3.905.246.443 1.276 1.564 1.729 2.361.589 1.038.247.708.877 1.791.054.093.12.032.49.709 1.722 3.144 3.681 6.521 5.713 9.645.277.426.04-.197.443.417a267 267 0 0 0 6.009 8.704c.481.672.093.316.177.477.52.99 1.68 2.072 1.843 2.271 3.887 4.759 6.791 8.481 11.197 12.946.239.246 2.265 1.932 2.933 2.919.046.068.701 1.057 1.554 1.65.053.037-.381-.553.518.33.9.883 2.435 2.208 3.631 3.469.378.398 1.183 1.447 2.548 2.374.088.064 2.287 1.373 2.793 2.173.082.13-.243.283 1.376 1.391.31.21-.173-.27.62.312 1.216.891 2.737 2.187 4.303 3.185.274.176 1.499.823 2.295 1.599.125.122-.203.016.262.366 2.211 1.666 4.646 3.246 6.965 4.832.823.56.302.43 1.154 1.026.852.598 2.617 1.737 3.59 2.225.974.489.092-.349 1.503.458 6.152 3.494 12.333 6.783 18.834 9.574.965.411.201-.013 1.624.577 5.238 2.231 14.582 5.276 19.305 6.714 3.788 1.187-1.071.022 1.846.865 1.41.403 3.015.465 3.361.536 3.369.695 5.694 1.318 8.741 1.835.631.106.037-.132.574-.042 1.829.305 3.77.675 5.516.915.788.107.656-.01 1.38.097 1.733.251 3.27.477 4.968.748.155.024-.908.036.389.175 2.083.223 4.674.53 7.106.579.719.013.77-.204 2.293.023.321.045-.103.302 1.698.138.304-.023 3.324-.252 4.809-.048.234.033.682.127 1.192.188.346.041.72.068 1.072.051.117-.006-.354-.123.364-.14 2.532-.06 5.16-.128 7.741-.307.692-.049-.346-.115.685-.186 2.842-.193 6.329-.464 9.104-.746 1.018-.102.328.081.403.084 1.211.042 1.882-.294 2.273-.359 2.429-.407 4.298-.575 6.541-.988.618-.114.159-.155.28-.186 1.257-.324.344.051 1.155-.071 2.27-.341 4.776-.858 7.043-1.387.831-.195-.134-.115.611-.289a224 224 0 0 0 13.181-3.547c.798-.241.331.019.503-.011 1.195-.207 2.784-.988 3.156-1.141 1.7-.696 2.392-.849 3.91-1.431 7.392-2.813 16.283-6.908 22.799-10.557 8.493-4.744 14.835-8.918 22.121-14.679.461-.368-.092-.107.304-.426 5.108-4.12 9.959-8.408 14.557-13.112.376-.387-.263.074.337-.549 1.231-1.28 2.782-2.907 4.024-4.204.606-.633-.102.311.505-.329a93 93 0 0 0 4.213-4.772c.57-.694-.403.258.344-.638 5.075-6.113 9.625-12.465 13.989-19.212.298-.463.787-.732 1.344-1.765-.02-.115-.1-.156-.15-.231 5.887-9.96 10.811-20.368 14.566-31.355.158-.464-.251.291.053-.606 1.748-5.203 3.157-10.339 4.547-15.763.136-.54.328-.202.641-1.818.059-.286.528-2.718.589-3.352.009-.087-.194.332-.047-.449a216 216 0 0 0 2.146-13.931c.089-.743.134.063.198-.467.451-3.719.627-7.865.856-11.435.15-2.407.342-1.51.584-2.793.036-.181.057-1.685.182-1.763.318-.198.66.536 1 .238.076-.062.001-2.096.175-.892.013.085.062 1.559.115 1.922.037.253.172-.201.217.315.045.517-.072 1.08-.033 1.934s.2.484.155 2.184m-325.832 47.337c.319 1.299.807 1.334.235.012-.028-.064-.252-.079-.235-.012m23.597-153.123c-1.197 1.284-1.65 2.425-.809 1.519.842-.901 1.173-1.908.809-1.519m11.407-13.999c-1.494 1.397-1.235 2.061.139.368.08-.098-.052-.449-.139-.368m288.876 121.802c.008-.021.066-1.09.06-1.116-.115-.577-.229 1.564-.06 1.116M269.17 230.331c-.538.352-1.84 1.647-1.178 1.201.53-.362 1.845-1.642 1.178-1.201M256.52 469.54c.009.021.533.591.55.553.052-.121-.706-.885-.55-.553m37.317-257.095c-3.873 2.292-6.459 3.352-2.252.786.764-.458-1.546 1.152-.556.596 1.807-1.015 2.822-2.005 4.747-2.91.346-.166-1.72 1.395-1.945 1.533zm-72.675 198.529a32 32 0 0 0 .368 1.061c.327.498-.379-1.538-.368-1.061m70.004 87.403c.042.046 2.165 1.349 2.243 1.376 1.229.473-3.059-2.154-2.243-1.376m-78.817-158.585c-.032-1.174.104-2.582.392-3.488a169 169 0 0 0-.392 3.488"/><path fill="#00d1ff" d="M172.814 416.084c1.985 3.427 5.404 7.246 8.43 9.726.92.76.51.308 1.157.822 1.265.99 2.532 1.97 3.839 2.807.444.283-.031-.186.434.111 2.594 1.65 5.032 3.047 7.877 4.39 13.755 6.345 28.534 8.93 43.597 10.177 4.996.403 11.056.554 16.216.653.608.012.245.119.36.129 1.813.154 1.237-.074 2.388-.101a908 908 0 0 0 14.281-.443c1.922-.079.005.241 1.938.014.134-.016-.362-.106.167-.148 1.178-.092 3.391-.212 4.309-.287 1.763-.143 2.057-.164 3.74-.299 2.316-.189 4.945-.487 7.413-.712.524-.047-.157.144.681.078a80 80 0 0 0 3.781-.429c.73-.112.407-.171.535-.207 1.045-.302 3.611-.361 3.942-.398 6.017-.653 11.061-1.551 16.598-2.471 4.207-.7 8.735-1.479 12.71-2.266 4.806-.954 8.727-1.851 13.368-2.883.488-.109-.053.159.544.025a356 356 0 0 0 18.673-4.693c.622-.176-.215-.082.405-.264 3.826-1.116 9.674-3.022 12.104-3.172 2.579-.771 5.628-1.708 7.889-2.516 1.452-.52-.019-.208 1.809-.713.412-.114-.084.164.532-.017 2.616-.769 5.353-1.683 7.912-2.456.518-.157.411-.01.563-.039 1.275-.255 3.24-1.18 3.68-1.348 3.334-1.267 5.788-2.056 8.929-3.167.728-.259-.086.18.617-.064a282 282 0 0 0 10.867-4.028c.781-.309.015-.151.386-.304 1.03-.427 1.59-.557 2.255-.757.392-.118.82-.26 1.402-.503.331-.138.105-.163.162-.197.889-.534 1.807-.618 2.054-.708 3.123-1.134 4.976-2.156 7.953-3.32.358-.14-.397.309.608-.093a388 388 0 0 0 20.035-8.689c1.003-.47.242-.235.3-.275.96-.642 1.734-.714 2.067-.855 2.623-1.119 4.928-2.43 6.791-2.972 10.842-5.228 21.585-10.525 31.858-16.548.132-.077-.168-.054.095-.207 3.159-1.846 2.637-1.334 4.847-2.315.557-.247 2.003-1.412 2.131-1.511.472-.363-.151-.219.012-.33 1.354-.922 1.452-.262 3.379-1.392.059-.037-.252.014-.096-.091.485-.326 1.004-.581 1.473-.904 1.071-.742 1.316-1.236 3.094-2.104.224-.11.083.388 1.755-.648.679-.418 3.69-2.269 4.504-2.81.819-.539.188-.278.245-.319 2.152-1.53 1.272-1.051 2.264-1.942.987-.89.962-.252 1.444-.49.488-.242 2.068-1.41 2.442-1.706.378-.297-.161-.032.182-.284 2.266-1.673 1.175-.458 1.995-.897 1.936-1.041 3.079-2.277 4.738-3.451.445-.315.127.009.532-.258 1.602-1.056 2.478-1.808 4.306-2.953.304-.191 1.837-.985 2.677-1.798.118-.115-.314.075.341-.421.978-.74 2.739-2.045 3.801-2.79.785-.549-.002.232.937-.524.415-.336-.435.178.35-.447.768-.61 2.844-2.171 3.627-2.769.782-.594.429-.171.497-.213.412-.254 1.929-1.355 2.058-1.457 6.603-5.133 12.367-10.247 18.404-15.725.473-.431.247-.047.32-.112 1.635-1.449.146-.525 1.175-1.646.018.339.643-.308 1.755-1.335.549-.508.326-.154.382-.194.914-.667 1.327-1.35 1.441-1.518.421-.62 1.108-1.055 1.388-1.475.28-.419-.625.281.414-.757.355-.227-.24.718.573-.045 3.1-2.861 8.319-8.872 10.443-11.5 2.13-2.582 2.869-3.513 4.036-5.071 2.078-2.83 1.465-1.728 2.847-3.481 1.369-1.774.37-1.144.479-1.46.101-.311.377-.533.553-.881.175-.346-.35.302.145-.453.482-.723 2.031-2.771 2.28-2.989.545-.468.143.606 1.354-1.49.068-.12-.266.201.001-.257 2.133-3.655 4.222-7.595 5.8-11.489.214-.529-.106-.111.017-.419 1.271-3.331.985-2.074 1.882-3.805-.453.275-.261-.695.522-3.316.443-1.548.497-1.242.85-2.217.107-.29.266-1.405.375-1.607.345-.629.407.48.81-2.28.015-.121-.166.24-.104-.174.349-2.64.636-3.018.798-5.935.139-2.326-.287-6.441-.896-9.006-.331.122-.803-2.284-.89-3.318a37 37 0 0 0-.719-2.058 29 29 0 0 0-1.222-2.768c-.26-.504-.191-.123-.232-.182-.643-.897-.794-1.652-.969-1.978-1.929-3.502-4.145-5.92-6.74-8.698-.093-.096-.07-.437-.952-.991-.058-.034.803.896-.541-.3-1.329-1.19-4.068-3.138-6.108-4.569-.476-.346-1.665-1.329-2.815-1.797-.15-.061-.034.089-.255.01-.713-.255-.95-.678-1.841-.903-.911-.233-2.566-.909-4.809-2.057-.07-.035-.52-.454-1.243-.753-1.158-.481-2.833-1.085-4.054-1.523-.589-.212-.17-.195-.271-.234-3.951-1.462-6.864-2.196-11.25-3.211-.792-.185-3.106-.882-4.678-1.054-1.746-.186-.112.729-4.026-.121-1.571-.33-3.509-1.439-6.452-1.416-5.598-.828-10.87-1.054-16.526-1.463-.261-.019-1.056-.273-1.651-.292-.885-.03-1.378.057-2.016.044-2.704-.05-5.086-.17-7.698-.156-.98.006-.631.11-1.791.123-1.159.015-1.936-.116-3.526-.019-1.207.076-2.358.388-3.943.474-.066-.277-1.166-.239-3.098-.228-.369.001.021-.113-.153-.118-.711-.018-1.365.094-2.045.074-.166-.005-.178-.1-.314-.109-1.15-.083-3.058.247-3.365.305-1.223.22-1.811.135-2.759.258-.948.125.48.092-.63.206-2.326.239-5.231.469-7.589.699-.937.091-.31-.097-.444-.087-1.924.152-3.842.493-4.943.358-1.264.804-1.184.062-3.897.518-.214.036-.45.378.381.324s2.069-.295 3.241-.354c.277-.014 1.873.107 2.087.103 1.68-.037 1.865-.52 1.951-.555.958-.374 2.933-.243 3.433-.265 2.313-.108 4.254-.328 6.202-.397 1.266-.044 1.409.252 2.393.178 3.285-.236 4.432-.721 7.54-.484.674.053.026.406 2.407.063.15-.023 1.911-.315 2.927-.185.131.017.129.114.3.118 1.148.029 1.909-.06 3.145-.036 1.232.025 2.711.076 4.138.052.855-.015 1.946-.183 2.352-.22 1.136-.111 2.386.128 3.104-.006.726-.134-.677-.413 1.217-.455.062.254.214.518.317.776 4.109.132 8.212.299 12.303.688.509.049-.027.135.526.193 2.344.246 4.31.369 6.728.728 1.834.274 3.841.72 5.748 1.082 1.188-.096 4.073.535 6.082.949.73.149.698.064 1.217.154 1.951.351.987.394 1.503.556 2.17.705 2.564.202 5.169.947.129.034 1.757.837 1.981.93 1.44.58.279-.027 1.206.243 1.658.493 2.906.842 4.78 1.649.543.234 1.851.955 2.97 1.274.148.042.11-.084.226-.041 2.087.802 2.029 1.146 3.122 1.788 1.074.634 2.956 1.392 3.322 1.53.992.364-.665-.451-.713-.489-.503-.486.765.221 1.713.754.302-.194 1.634.625 1.005.574-.069-.008-.801-.475-1.005-.574.712.765 2.097 1.637 3.818 2.47.793.398.232-.239 2.33 1.399.948.769.446.647 1.231 1.363 1.786 1.629 4.185 3.697 5.734 5.653.564.712-.084.1.294.589.987 1.295 1.892 2.436 2.699 3.859.072.129-.219-.118.04.32a37 37 0 0 1 2.518 5.157 32 32 0 0 1 1.569 5.252c.433 1.906.707 5.365.684 7.407.056 3.476-.411 7.819-1.198 10.758-.501 1.88-.528 1.437-.835 2.224-.599 1.557-1.268 4.305-1.378 4.697.002.011.604-1.567.358-.698-.055.539-.352.681-.358.698-.042.253-1.311 3.446-1.616 4.016-.16.326-.184.093-.266.264-1.993 4.151-4.228 8.069-6.665 11.965-.042.07.135.037.033.202-1.455 2.35-2.498 3.561-3.889 5.329-1.409 1.781-2.402 3.118-3.038 4.297-1.042 1.291-2.521 3.257-3.336 4.313-.835 1.083-1.16 1.064-1.241 1.152-2.629 2.793-3.932 4.444-6.654 7.34-1.317 1.405-3.873 3.931-5.38 5.351-1.184 1.121-1.82 1.81-2.909 2.784-.147.132-.08-.087-.127-.049-1.283 1.018-.523.684-.735.951-.778.968-1.27 1.558-2.913 2.929-.393.328-1.679.943-2.358 1.51-.877.732-.457.555-1.386 1.32-.08.065-.121-.015-.682.475-2.648 2.314-5.427 4.694-8.274 6.968-.387.31.021-.197-.54.248-2.594 2.054-5.455 4.273-8.037 6.291-.62.485-.167.268-.286.393-.734.771-2.093 1.456-2.296 1.599-4.886 3.431-8.418 6.191-13.529 9.498-.272.177-2.518 1.344-3.337 2.161-.056.056-.86.872-1.785 1.276-.058.025.463-.461-.557.216-1.032.685-2.706 1.66-4.039 2.663-.423.317-1.349 1.187-2.796 1.86-.094.044-2.405.963-3.002 1.676-.096.115.193.313-1.489 1.143-.322.158.197-.238-.632.211-1.271.688-2.879 1.747-4.498 2.536-.282.137-1.541.627-2.389 1.307-.131.106.192.041-.283.33-2.26 1.376-4.723 2.695-7.072 4.088-.833.493-.317.402-1.179.932-.866.533-2.588 1.528-3.549 1.96-.956.43-.08-.354-1.47.373-6.089 3.177-12.01 6.4-18.112 9.424-.905.447-.195-.008-1.534.644-4.964 2.432-13.587 6.331-17.867 8.442-3.417 1.696 1.022-.131-1.617 1.11-1.275.598-2.803.918-3.12 1.044-3.109 1.238-5.162 2.262-7.936 3.374-.573.23-.064-.122-.551.075-1.666.669-3.394 1.44-4.998 2.079-.719.286-.626.142-1.275.413-1.557.645-2.93 1.236-4.433 1.926-.137.063.853-.195-.312.268-1.651.655-3.638 1.501-5.605 2.203q-.421.15-.838.29c-.661.221-.766.022-2.11.693-.282.14.186.253-1.523.643-.289.068-3.129.785-4.398 1.459-.335.179-1.162.713-1.953.961-.108.033.276-.233-.376-.011-2.318.791-4.725 1.652-7.095 2.43-.633.207.264-.234-.678.079-2.575.853-5.828 1.977-8.358 2.844-.933.32-.253.207-.318.239-1.04.532-1.764.506-2.132.61-2.283.644-3.972 1.299-6.093 1.925-.583.172-.206-.068-.325-.042-1.228.272-.273.198-1.025.454-2.105.716-4.469 1.417-6.608 2.03-.797.228.059-.165-.657.041-4.251 1.22-8.553 2.437-12.699 3.621-.777.222-.259.193-.416.259-1.078.461-2.774.668-3.156.744-1.736.347-2.375.605-3.885.968-7.469 1.802-16.626 3.932-23.691 5.376-9.187 1.878-16.365 3.21-25.25 4.45-.56.077-.015-.14-.498-.076-6.295.845-12.484 1.618-18.789 2.139-.514.043.214-.154-.61-.091-1.677.127-3.902.311-5.615.473-.841.079.296.114-.55.191a122 122 0 0 1-6.117.394c-.871.033.435-.166-.695-.113-7.563.345-15.23.406-22.882.289-.538-.009-1.023.248-2.156.142-.082-.081-.073-.17-.106-.253-11.115-.591-22.136-1.805-32.873-4.523-.45-.115.378-.051-.517-.283-5.147-1.352-9.84-2.943-14.851-5.019-.481-.204-.354.147-1.722-.543-.263-.122-2.379-1.222-2.873-1.564-.068-.047.362.051-.296-.31-3.842-2.111-7.66-4.706-10.869-7.635-.52-.477-.064.133-.434-.207-2.6-2.381-4.967-5.516-6.723-8.399-1.159-1.945-.945-1.113-1.681-2.111-.108-.14-.688-1.443-.827-1.468-.368-.057-.415.728-.838.592-.102-.023-.749-1.901-.487-.742.013.084.514 1.436.615 1.781.065.243-.239-.111-.074.372.168.483.506.939.844 1.71.349.768.022.524.87 1.983m403.228-104.416c-.757 1.016-1.214.851-.218-.085.049-.045.257.033.218.085m-44.536-99.339c1.699-.076 2.808.314 1.622.369-1.187.059-2.14-.345-1.622-.369m-17.351-.717c1.968-.157 2.28.481.168.351-.12-.007-.281-.341-.168-.351M175.491 416.799c-.018-.01-.595-.864-.6-.889-.183-.532.962 1.169.6.889m321.424-204.78c.613-.125 2.386-.125 1.629.025-.609.119-2.383.128-1.629-.025m28.481 143.043c-.013.017-.632.444-.641.404-.025-.129.858-.688.641-.404M467.77 215.019c4.284-.626 6.805-1.472 2.152-.794-.842.125 1.84-.08.773.112-1.951.351-3.308.209-5.31.683-.36.085 2.143.034 2.393-.001zm108.182 97.55c-.011.022-.696.778-.718.792-.478.31.902-1.211.718-.792m-87.457 65.332a77 77 0 0 1-2.199 1.215c-1.2.389 3.008-1.935 2.199-1.215m114.131-126.933c-.086-1.135-.426-2.468-.87-3.275.344 1.072.631 2.173.87 3.275"/><path fill="#00d1ff" d="M442.933 162.827c3.525 1.804 7.516 5.021 10.149 7.915.807.879.335.493.881 1.113 1.054 1.212 2.098 2.426 3.002 3.688.305.429-.188-.021.134.428 1.781 2.505 3.303 4.868 4.791 7.64 7.048 13.408 10.394 28.033 12.419 43.012.661 4.968 1.126 11.012 1.491 16.16.044.607.132.238.148.353.248 1.803-.01 1.239.023 2.389.127 4.599.246 9.811.296 14.286.02 1.923.241-.008.114 1.934-.009.135-.124-.356-.139.174-.031 1.182-.036 3.398-.064 4.319-.051 1.768-.057 2.062-.105 3.751-.069 2.322-.23 4.963-.327 7.439-.02.526.135-.164.113.676-.021.84-.158 3.079-.233 3.798-.074.736-.149.416-.179.545-.248 1.06-.173 3.625-.193 3.957-.341 6.043-.977 11.127-1.609 16.704-.482 4.237-1.025 8.8-1.606 12.81-.704 4.85-1.397 8.812-2.187 13.499-.083.494.156-.06.053.543a355 355 0 0 1-3.721 18.891c-.143.63-.092-.211-.242.417-.917 3.879-2.517 9.818-2.542 12.252-.636 2.616-1.414 5.71-2.104 8.009-.445 1.477-.209-.008-.618 1.843-.093.418.159-.092.01.533-.632 2.652-1.404 5.433-2.044 8.028-.129.526.012.411-.01.564-.187 1.287-1.01 3.297-1.155 3.746-1.092 3.395-1.753 5.886-2.701 9.08-.22.741.176-.095-.031.62a282 282 0 0 1-3.461 11.06c-.268.796-.149.023-.284.402-.372 1.051-.473 1.616-.638 2.291-.098.398-.218.833-.431 1.426-.12.337-.157.113-.188.172-.487.916-.524 1.837-.601 2.088-.971 3.177-1.896 5.081-2.903 8.114-.122.365.287-.412-.063.612a388 388 0 0 1-7.64 20.458c-.417 1.026-.222.253-.259.313-.591.993-.623 1.769-.747 2.109-.981 2.677-2.171 5.048-2.617 6.936-4.659 11.098-9.394 22.101-14.877 32.671-.07.136-.063-.165-.202.106-1.68 3.25-1.195 2.703-2.061 4.961-.218.568-1.306 2.072-1.399 2.206-.338.489-.226-.14-.329.029-.851 1.399-.186 1.463-1.215 3.446-.034.061.001-.252-.096-.091-.3.501-.528 1.033-.827 1.518-.685 1.108-1.166 1.378-1.941 3.198-.098.23.393.064-.556 1.787-.382.7-2.074 3.802-2.573 4.643-.496.846-.268.203-.306.261-1.417 2.229-.983 1.325-1.822 2.361-.838 1.032-.202.975-.415 1.468-.216.499-1.301 2.138-1.578 2.528-.277.392-.04-.16-.274.195-1.553 2.35-.396 1.198-.792 2.039-.94 1.988-2.114 3.192-3.201 4.91-.292.461.015.127-.23.546-.972 1.654-1.678 2.567-2.727 4.452-.175.314-.888 1.886-1.657 2.767-.108.123.059-.318-.402.362a159 159 0 0 0-2.59 3.941c-.508.812.232-.015-.475.962-.314.432.156-.444-.428.373-.57.798-2.021 2.953-2.577 3.765-.553.812-.149.437-.187.507-.233.425-1.254 1.997-1.349 2.131-4.785 6.859-9.594 12.88-14.752 19.193-.405.494-.034.249-.095.325-1.363 1.709-.517.174-1.583 1.259.339 0-.275.658-1.243 1.822-.479.575-.137.333-.173.391-.62.947-1.28 1.396-1.442 1.518-.598.452-.996 1.161-1.401 1.463-.404.301.248-.64-.735.452-.208.367.704-.277-.015.575-2.697 3.244-8.429 8.766-10.944 11.024-2.469 2.26-3.36 3.047-4.856 4.293-2.719 2.221-1.65 1.552-3.329 3.023-1.701 1.458-1.123.428-1.433.553-.305.118-.513.405-.851.599-.337.192.283-.365-.445.168-.697.519-2.663 2.171-2.867 2.432-.439.568.612.11-1.418 1.428-.117.075.187-.275-.256.015-3.54 2.32-7.367 4.609-11.174 6.387-.518.24-.116-.1-.418.038-3.261 1.442-2.02 1.091-3.703 2.076.252-.466-.707-.224-3.284.693-1.523.523-1.215.561-2.169.965-.285.121-1.39.337-1.586.456-.61.378.5.383-2.236.927-.119.022.232-.178-.179-.094-2.618.485-2.98.791-5.886 1.104-2.315.259-6.447.046-9.039-.429.104-.337-2.323-.684-3.36-.717a38 38 0 0 1-2.093-.611 29 29 0 0 1-2.827-1.078c-.517-.233-.132-.184-.194-.222-.93-.596-1.69-.708-2.026-.866-3.597-1.745-6.126-3.833-9.034-6.28-.101-.088-.44-.048-1.039-.9-.037-.056.936.756-.328-.524-1.257-1.266-3.344-3.901-4.879-5.864-.37-.457-1.414-1.594-1.94-2.719-.068-.146.087-.038-.003-.254-.292-.699-.726-.914-.998-1.792-.28-.898-1.04-2.516-2.302-4.697-.039-.067-.481-.495-.817-1.202-.54-1.132-1.23-2.772-1.731-3.969-.242-.578-.203-.16-.247-.259-1.665-3.87-2.548-6.741-3.789-11.069-.226-.781-1.042-3.056-1.295-4.617-.276-1.734.722-.149-.329-4.014-.411-1.552-1.619-3.43-1.748-6.371-1.116-5.548-1.615-10.8-2.316-16.427-.032-.26-.327-1.041-.377-1.634-.075-.883-.015-1.379-.06-2.015-.19-2.699-.433-5.072-.555-7.681-.044-.979.078-.636.031-1.794-.046-1.158-.217-1.928-.201-3.521.013-1.209.265-2.375.269-3.962-.281-.052-.299-1.152-.389-3.082-.017-.368-.111.027-.125-.147-.055-.709.023-1.368-.032-2.046-.013-.165-.109-.173-.125-.308-.143-1.144.088-3.066.13-3.376.156-1.233.042-1.815.116-2.769.075-.953.116.475.173-.639.118-2.336.197-5.249.305-7.615.042-.941-.113-.305-.11-.44.052-1.929.293-3.862.102-4.955.737-1.303.001-1.185.315-3.918.026-.216.355-.469.344.364s-.188 2.081-.186 3.254c0 .278.203 1.866.211 2.079.05 1.68-.423 1.89-.453 1.978-.324.976-.092 2.942-.088 3.442.012 2.315-.107 4.265-.076 6.214.022 1.267.326 1.394.303 2.38-.067 3.294-.491 4.465-.094 7.556.088.67.407.005.187 2.4-.014.152-.215 1.925-.032 2.933.023.13.12.123.133.294.089 1.145.038 1.908.127 3.142.088 1.229.215 2.704.265 4.13.029.854-.081 1.952-.098 2.36-.052 1.14.251 2.376.155 3.1-.096.733-.448-.655-.391 1.239.257.049.529.187.791.276.345 4.097.724 8.186 1.324 12.252.075.505.133-.035.219.514.368 2.329.593 4.286 1.076 6.682.368 1.818.918 3.798 1.378 5.684-.034 1.192.745 4.04 1.262 6.026.187.72.1.692.217 1.207.452 1.93.444.964.633 1.472.816 2.13.334 2.549 1.213 5.113.041.127.926 1.711 1.031 1.93.655 1.408-.013.28.306 1.192.578 1.63.991 2.858 1.894 4.688.261.531 1.049 1.799 1.426 2.9.05.146-.079.115-.03.228.909 2.043 1.25 1.967 1.948 3.025.688 1.04 1.543 2.881 1.699 3.239.416.971-.485-.641-.525-.687-.511-.477.261.752.841 1.671-.177.312.71 1.6.626.974-.012-.068-.516-.775-.626-.974.801.672 1.744 2.01 2.665 3.686.438.771-.227.244 1.517 2.254.817.907.67.412 1.425 1.159 1.72 1.699 3.909 3.988 5.943 5.433.739.527.095-.088.603.264 1.344.918 2.53 1.763 3.993 2.495.133.066-.129-.212.322.024a37 37 0 0 0 5.28 2.248 32 32 0 0 0 5.326 1.295c1.926.334 5.395.429 7.433.3 3.475-.124 7.788-.815 10.682-1.753 1.852-.598 1.407-.602 2.178-.949 1.523-.679 4.233-1.489 4.619-1.62.011.002-1.534.685-.679.394.536-.083.662-.386.679-.394.25-.054 3.373-1.487 3.927-1.82.318-.177.083-.189.25-.28 4.042-2.205 7.84-4.64 11.604-7.275.068-.046.044.132.203.023 2.272-1.575 3.427-2.68 5.121-4.16 1.705-1.5 2.99-2.56 4.134-3.257 1.236-1.107 3.122-2.686 4.135-3.554 1.038-.89 1.002-1.214 1.086-1.3 2.653-2.769 4.234-4.156 6.986-7.024 1.334-1.388 3.725-4.071 5.065-5.649 1.058-1.242 1.713-1.912 2.63-3.05.124-.154-.091-.075-.056-.124.95-1.335.656-.558.912-.784.927-.827 1.49-1.348 2.774-3.06.308-.409.855-1.726 1.386-2.433.687-.914.531-.485 1.247-1.453.061-.083-.021-.119.44-.705 2.173-2.765 4.406-5.662 6.53-8.624.289-.402-.196.032.219-.552 1.918-2.697 3.985-5.668 5.867-8.352.452-.644.259-.18.378-.305.732-.773 1.346-2.166 1.478-2.376 3.173-5.057 5.747-8.727 8.785-14.002.163-.281 1.212-2.585 1.986-3.445.052-.058.826-.904 1.182-1.849.022-.058-.437.487.187-.567.63-1.066 1.517-2.788 2.45-4.172.295-.438 1.115-1.408 1.713-2.888.039-.095.837-2.451 1.518-3.085.11-.101.323.177 1.065-1.545.141-.33-.228.209.178-.643.621-1.305 1.595-2.965 2.299-4.623.123-.289.547-1.571 1.182-2.453.099-.136.051.19.315-.3 1.257-2.329 2.447-4.856 3.716-7.274.45-.857.385-.337.87-1.225.488-.893 1.392-2.664 1.774-3.646.38-.978-.357-.062.297-1.488 2.858-6.245 5.77-12.324 8.474-18.575.4-.927-.018-.195.563-1.565 2.173-5.084 5.62-13.896 7.507-18.28 1.517-3.5-.078 1.027 1.025-1.672.531-1.304.771-2.847.881-3.17 1.076-3.169 1.992-5.273 2.959-8.1.199-.585-.125-.058.046-.554.582-1.698 1.263-3.465 1.818-5.099.248-.733.11-.633.346-1.295.564-1.588 1.083-2.99 1.694-4.526.056-.14-.151.861.252-.326.569-1.683 1.311-3.711 1.91-5.712q.128-.428.246-.852c.186-.671-.018-.766.583-2.142.125-.289.262.172.563-1.555.053-.291.622-3.165 1.23-4.467.161-.344.652-1.197.858-2 .027-.11-.218.288-.03-.375.67-2.356 1.405-4.804 2.059-7.212.174-.643-.219.276.044-.681.719-2.616 1.673-5.922 2.408-8.493.272-.949.193-.264.223-.33.477-1.067.414-1.788.498-2.161.525-2.314 1.092-4.034 1.607-6.184.142-.592-.078-.203-.059-.323.209-1.241.184-.283.401-1.047.606-2.139 1.184-4.537 1.685-6.705.187-.807-.162.068.007-.657.999-4.309 1.992-8.668 2.96-12.87.181-.787.179-.269.237-.428.404-1.101.523-2.806.579-3.191.257-1.752.482-2.404.766-3.93 1.413-7.552 3.066-16.807 4.143-23.937 1.4-9.272 2.359-16.51 3.137-25.447.048-.563-.14-.008-.101-.493.518-6.331.969-12.551 1.164-18.875.016-.515-.143.222-.123-.604.041-1.681.109-3.913.182-5.632.036-.844.129.29.162-.559.077-1.979.103-4.055.077-6.13-.012-.871-.143.444-.148-.688-.048-7.57-.383-15.23-.896-22.866-.037-.537.195-1.035.03-2.161-.084-.077-.173-.064-.258-.093-1.165-11.069-2.948-22.012-6.217-32.595-.138-.442-.032.381-.309-.501-1.617-5.07-3.449-9.675-5.782-14.571-.228-.47.129-.361-.63-1.692-.136-.256-1.345-2.313-1.712-2.788-.05-.065.07.359-.324-.279-2.307-3.729-5.096-7.406-8.188-10.46-.503-.495.13-.071-.229-.423-2.512-2.473-5.765-4.675-8.735-6.28-2.003-1.056-1.161-.886-2.196-1.568-.145-.102-1.476-.613-1.508-.75-.076-.365.705-.452.548-.869-.029-.1-1.938-.649-.766-.447.084.009 1.46.439 1.81.521.246.054-.123-.232.368-.092.491.143.963.456 1.751.755.785.308.524-.006 2.025.766m-83.412 408.09c.976-.808.787-1.256-.097-.213-.042.051.047.255.097.213m-101.51-39.336c.012 1.7.458 2.787.452 1.6-.003-1.188-.455-2.119-.452-1.6m-1.614-17.291c-.055 1.974.598 2.252.359.149-.013-.119-.356-.263-.359-.149m187.388-348.827c-.01-.018-.893-.55-.918-.553-.541-.155 1.217.9.918.553M255.911 497.052c-.093.619-.001 2.389.109 1.626.088-.615.005-2.387-.109-1.626m144.325 21.041c.016-.014.411-.653.371-.66-.131-.019-.644.892-.371.66m-142.837-50.302c-.404 4.31-1.117 6.872-.682 2.19.081-.847.015 1.842.152.767.25-1.967.038-3.316.408-5.339.066-.364.145 2.138.123 2.39zm103.016 102.99c.022-.013.742-.736.755-.759.285-.493-1.163.964-.755.759m60.72-90.721a74 74 0 0 0 1.099-2.259c.327-1.218-1.776 3.104-1.099 2.259M300.277 600.606c-1.137-.028-2.486-.298-3.315-.7 1.089.288 2.203.518 3.315.7"/><path fill="#00d1ff" d="M593.291 397.033c-1.805 3.525-5.021 7.516-7.915 10.149-.879.807-.493.335-1.113.882-1.212 1.053-2.427 2.097-3.688 3.001-.429.306.02-.187-.428.134-2.506 1.781-4.868 3.303-7.64 4.791-13.408 7.048-28.033 10.395-43.012 12.42-4.968.66-11.012 1.125-16.16 1.491-.607.043-.238.131-.353.147-1.803.248-1.239-.01-2.39.023-4.598.127-9.811.247-14.285.296-1.923.02.008.241-1.934.114-.135-.009.355-.124-.175-.139-1.181-.031-3.397-.036-4.318-.063-1.768-.052-2.063-.058-3.751-.106-2.323-.069-4.963-.23-7.439-.327-.526-.02.164.136-.676.113a79 79 0 0 1-3.798-.233c-.736-.074-.416-.149-.545-.179-1.06-.248-3.626-.173-3.957-.193-6.043-.341-11.127-.977-16.704-1.609-4.238-.482-8.8-1.025-12.811-1.606-4.849-.704-8.811-1.396-13.499-2.187-.493-.083.061.156-.542.053a355 355 0 0 1-18.891-3.721c-.63-.143.21-.092-.418-.242-3.878-.917-9.817-2.517-12.251-2.542-2.616-.636-5.71-1.414-8.009-2.104-1.478-.444.008-.208-1.844-.618-.417-.093.093.159-.532.01-2.652-.632-5.433-1.404-8.028-2.043-.526-.13-.411.011-.565-.01-1.286-.188-3.296-1.01-3.745-1.156-3.395-1.092-5.886-1.753-9.08-2.701-.741-.22.094.176-.62-.031a285 285 0 0 1-11.061-3.46c-.796-.269-.023-.15-.401-.285-1.051-.372-1.616-.473-2.291-.638a14 14 0 0 1-1.426-.43c-.338-.121-.113-.158-.172-.189-.916-.487-1.837-.524-2.088-.601-3.177-.971-5.081-1.895-8.114-2.903-.365-.122.412.287-.612-.063a388 388 0 0 1-20.458-7.64c-1.026-.417-.253-.222-.314-.259-.992-.591-1.769-.623-2.108-.747-2.678-.981-5.048-2.171-6.937-2.617-11.097-4.659-22.1-9.394-32.67-14.877-.136-.07.165-.063-.106-.202-3.25-1.68-2.703-1.195-4.961-2.061-.569-.218-2.073-1.306-2.206-1.399-.49-.338.14-.226-.029-.329-1.4-.851-1.463-.186-3.446-1.215-.061-.033.252.001.09-.095-.5-.301-1.032-.528-1.517-.827-1.108-.686-1.378-1.166-3.198-1.941-.23-.098-.064.392-1.787-.557-.7-.382-3.802-2.074-4.643-2.572-.846-.497-.203-.268-.262-.307-2.228-1.417-1.324-.983-2.36-1.822-1.032-.838-.975-.202-1.468-.415-.5-.216-2.138-1.301-2.528-1.578-.392-.277.16-.039-.195-.274-2.351-1.553-1.198-.396-2.039-.792-1.988-.94-3.193-2.114-4.911-3.201-.46-.291-.126.015-.545-.23-1.654-.972-2.567-1.677-4.452-2.727-.314-.174-1.886-.888-2.767-1.657-.123-.108.318.059-.362-.402a158 158 0 0 0-3.941-2.589c-.812-.508.014.231-.962-.476-.432-.314.443.156-.373-.428-.798-.57-2.953-2.021-3.766-2.577-.811-.553-.437-.149-.507-.187-.424-.233-1.996-1.254-2.13-1.349-6.86-4.785-12.881-9.594-19.193-14.752-.495-.405-.249-.034-.326-.095-1.708-1.362-.173-.517-1.259-1.583 0 .339-.657-.275-1.821-1.243-.575-.479-.333-.137-.391-.173-.948-.62-1.396-1.28-1.518-1.442-.453-.598-1.161-.996-1.463-1.401-.301-.404.639.248-.452-.735-.367-.208.276.705-.575-.015-3.244-2.697-8.767-8.429-11.024-10.944-2.26-2.469-3.047-3.36-4.293-4.856-2.221-2.719-1.552-1.65-3.023-3.329-1.458-1.701-.429-1.123-.554-1.433-.117-.305-.404-.513-.598-.851-.192-.336.365.283-.168-.445-.519-.697-2.171-2.662-2.432-2.867-.568-.439-.111.613-1.429-1.418-.074-.117.276.187-.014-.256-2.32-3.54-4.609-7.367-6.387-11.174-.241-.518.1-.116-.038-.418-1.442-3.261-1.092-2.02-2.076-3.703.466.252.224-.707-.694-3.284-.522-1.523-.56-1.215-.964-2.169-.121-.285-.338-1.39-.457-1.586-.377-.61-.382.5-.926-2.236-.022-.119.177.232.094-.179-.485-2.618-.791-2.98-1.104-5.886-.259-2.315-.047-6.447.429-9.039.336.104.683-2.323.717-3.36.18-.687.383-1.393.611-2.093.319-.984.685-1.948 1.078-2.827.233-.517.184-.132.222-.194.596-.929.708-1.69.865-2.026 1.745-3.597 3.834-6.126 6.281-9.034.088-.101.047-.44.899-1.039.057-.037-.755.936.525-.328 1.266-1.257 3.901-3.344 5.864-4.879.457-.37 1.594-1.414 2.719-1.94.146-.068.038.087.254-.003.699-.291.914-.726 1.792-.997.898-.281 2.516-1.041 4.697-2.303.067-.039.495-.481 1.202-.817 1.131-.54 2.772-1.23 3.969-1.731.578-.242.16-.203.259-.247 3.87-1.664 6.741-2.548 11.068-3.789.782-.226 3.056-1.042 4.617-1.295 1.735-.276.15.723 4.015-.329 1.552-.41 3.43-1.619 6.371-1.748 5.547-1.116 10.8-1.615 16.427-2.316.26-.032 1.041-.327 1.634-.377.883-.075 1.379-.015 2.015-.06 2.699-.19 5.071-.433 7.68-.555.979-.044.636.078 1.795.031 1.158-.045 1.928-.217 3.52-.201 1.21.013 2.376.265 3.963.269.052-.28 1.151-.299 3.082-.389.368-.017-.027-.111.147-.125.708-.055 1.368.023 2.046-.032.165-.013.173-.109.308-.125 1.144-.143 3.066.088 3.376.13 1.233.157 1.815.042 2.769.116.953.075-.475.116.639.173 2.336.118 5.248.197 7.615.305.941.042.305-.113.439-.11 1.93.052 3.863.293 4.955.102 1.304.737 1.186.001 3.919.315.216.026.469.355-.364.344-.833-.01-2.081-.188-3.255-.186-.277 0-1.865.203-2.078.211-1.68.05-1.89-.423-1.978-.453-.976-.324-2.942-.092-3.442-.088-2.315.012-4.265-.107-6.214-.075-1.267.021-1.394.325-2.38.302-3.294-.067-4.465-.491-7.556-.094-.67.089-.005.407-2.4.187-.152-.014-1.925-.215-2.933-.032-.13.023-.123.12-.294.133-1.145.089-1.909.038-3.142.127-1.23.088-2.704.216-4.13.265-.855.029-1.953-.081-2.36-.098-1.14-.052-2.376.251-3.101.155-.732-.096.655-.448-1.239-.391-.048.257-.186.529-.275.791-4.097.345-8.186.724-12.252 1.324-.505.075.034.133-.515.219-2.328.368-4.285.593-6.681 1.076-1.818.369-3.799.918-5.684 1.378-1.192-.034-4.04.745-6.026 1.262-.72.187-.693.1-1.207.217-1.93.452-.965.445-1.472.633-2.13.816-2.55.334-5.113 1.213-.127.041-1.711.927-1.93 1.031-1.408.655-.28-.013-1.192.306-1.631.578-2.858.991-4.689 1.894-.53.261-1.798 1.049-2.899 1.426-.146.05-.115-.079-.228-.03-2.043.909-1.967 1.25-3.025 1.948-1.04.688-2.881 1.543-3.239 1.699-.971.416.641-.485.687-.525.477-.511-.753.261-1.672.841-.311-.177-1.599.71-.974.626.069-.012.776-.516.974-.626-.671.801-2.009 1.744-3.685 2.665-.771.438-.244-.227-2.254 1.517-.908.818-.412.67-1.159 1.425-1.7 1.72-3.988 3.909-5.434 5.943-.526.74.089.095-.263.603-.918 1.345-1.763 2.531-2.496 3.994-.065.133.213-.13-.023.321a37 37 0 0 0-2.248 5.28 32 32 0 0 0-1.296 5.326c-.333 1.926-.428 5.395-.299 7.433.124 3.475.815 7.788 1.753 10.682.598 1.852.602 1.407.949 2.178.679 1.524 1.489 4.233 1.619 4.619-.001.011-.684-1.533-.393-.678.083.535.386.661.393.678.055.25 1.487 3.373 1.821 3.927.177.318.189.083.28.25 2.205 4.042 4.64 7.84 7.275 11.604.046.068-.132.044-.023.203 1.575 2.272 2.679 3.427 4.16 5.121 1.499 1.706 2.56 2.99 3.256 4.134 1.108 1.236 2.686 3.122 3.555 4.135.89 1.038 1.214 1.002 1.3 1.086 2.769 2.653 4.156 4.235 7.024 6.986 1.388 1.335 4.071 3.725 5.649 5.065 1.241 1.059 1.911 1.713 3.05 2.63.154.124.075-.091.124-.056 1.334.95.557.656.784.912.827.927 1.348 1.49 3.06 2.774.409.308 1.725.856 2.432 1.386.914.687.486.531 1.454 1.247.083.061.119-.021.705.44 2.765 2.173 5.662 4.407 8.623 6.53.403.289-.031-.196.553.219 2.697 1.918 5.668 3.985 8.352 5.867.644.452.179.259.305.378.773.732 2.166 1.346 2.376 1.478 5.057 3.173 8.727 5.747 14.002 8.785.281.163 2.584 1.212 3.444 1.986.059.052.904.826 1.849 1.182.059.022-.487-.436.568.187 1.066.63 2.788 1.517 4.171 2.45.438.295 1.409 1.115 2.889 1.713.095.039 2.451.837 3.084 1.518.102.111-.176.323 1.546 1.065.33.141-.209-.228.642.178 1.305.621 2.966 1.595 4.624 2.299.289.123 1.571.547 2.453 1.182.136.099-.19.051.3.315 2.328 1.257 4.856 2.447 7.274 3.717.857.449.337.385 1.225.869.893.488 2.664 1.392 3.646 1.774.977.38.062-.357 1.488.297 6.245 2.858 12.324 5.77 18.575 8.474.926.4.194-.018 1.565.563 5.084 2.173 13.896 5.62 18.28 7.507 3.5 1.517-1.027-.078 1.672 1.025 1.304.531 2.847.771 3.17.881 3.169 1.076 5.272 1.992 8.1 2.959.584.199.057-.125.554.046 1.698.582 3.464 1.263 5.099 1.818.733.248.632.11 1.295.346 1.588.564 2.989 1.083 4.526 1.694.14.056-.861-.151.326.252 1.683.569 3.71 1.311 5.711 1.91q.429.128.852.246c.672.186.766-.017 2.143.583.289.125-.173.262 1.555.564.291.052 3.165.622 4.467 1.229.344.161 1.197.652 2 .858.109.028-.288-.218.375-.03 2.356.67 4.804 1.405 7.212 2.059.642.175-.276-.219.68.044 2.616.719 5.922 1.673 8.494 2.408.948.272.264.193.33.223 1.067.477 1.788.414 2.161.498 2.314.526 4.034 1.092 6.184 1.607.592.142.203-.078.323-.059 1.24.209.283.184 1.047.401 2.139.606 4.536 1.184 6.704 1.685.808.187-.067-.161.658.007 4.309.999 8.668 1.992 12.87 2.96.787.181.269.179.428.237 1.101.404 2.806.523 3.191.579 1.751.257 2.403.482 3.93.766 7.552 1.413 16.806 3.066 23.937 4.143 9.272 1.4 16.51 2.359 25.447 3.137.563.048.008-.14.493-.101 6.331.518 12.551.969 18.875 1.164.515.016-.222-.143.604-.123 1.681.041 3.913.109 5.632.182.843.036-.29.129.559.162 1.979.077 4.054.103 6.129.077.872-.012-.443-.143.689-.148 7.57-.047 15.23-.383 22.866-.896.537-.037 1.035.195 2.16.03.078-.084.064-.173.093-.258 11.069-1.165 22.013-2.948 32.595-6.217.443-.138-.38-.032.502-.309 5.07-1.617 9.674-3.448 14.571-5.781.47-.229.361.128 1.692-.631.256-.136 2.313-1.344 2.788-1.712.065-.049-.359.07.279-.324 3.728-2.307 7.406-5.096 10.46-8.188.495-.503.071.13.423-.229 2.472-2.512 4.674-5.765 6.279-8.735 1.057-2.003.887-1.161 1.569-2.195.101-.146.613-1.477.75-1.509.365-.076.452.706.868.548.101-.029.649-1.938.448-.766-.009.084-.439 1.46-.522 1.81-.053.246.232-.123.093.368-.143.491-.456.963-.755 1.751-.308.785.006.524-.766 2.025m-408.09-83.412c.808.976 1.256.787.213-.097-.051-.042-.255.047-.213.097m39.336-101.51c-1.701.012-2.787.458-1.6.452 1.188-.003 2.119-.455 1.6-.452m17.291-1.614c-1.974-.055-2.252.598-.15.359.12-.013.263-.356.15-.359m348.827 187.388c.018-.01.549-.892.553-.918.155-.541-.9 1.218-.553.918M259.066 210.011c-.619-.093-2.389-.001-1.626.109.615.088 2.387.005 1.626-.109m-21.041 144.325c.013.016.653.411.66.371.019-.131-.893-.644-.66-.371M288.327 211.5c-4.31-.405-6.872-1.118-2.19-.683.847.081-1.842.015-.767.152 1.967.25 3.316.038 5.338.408.365.066-2.137.145-2.389.123zm-102.99 103.016c.013.022.736.741.759.754.493.285-.964-1.163-.759-.754m90.72 60.719a77 77 0 0 0 2.259 1.099c1.219.327-3.104-1.775-2.259-1.099M155.512 254.378c.027-1.138.298-2.487.7-3.316a35 35 0 0 0-.7 3.316"/><g stroke-linecap="round" stroke-linejoin="round" opacity=".35"><path stroke="#344054" d="M523.778 592.567c-2.06 4.318-5.183 8.1-9.09 11.007a30.75 30.75 0 0 1-13.297 5.65 30.24 30.24 0 0 1-14.327-1.056c-4.584-1.495-8.685-4.076-11.936-7.51a27.4 27.4 0 0 1-6.692-12.17 27.6 27.6 0 0 1 .15-13.923c1.24-4.585 3.63-8.828 6.956-12.35a30.5 30.5 0 0 1 12.1-7.826"/><path stroke="#00d1ff" d="m496.552 582.157-13.266-41.333c11.424-3.602 23.748-2.733 34.297 2.417s18.469 14.167 22.043 25.092c3.103 9.685 2.564 20.199-1.522 29.707z"/></g><defs><filter id="a" width="638.8" height="370.737" x="0" y="159.1" color-interpolation-filters="sRGB" filterUnits="userSpaceOnUse"><feFlood flood-opacity="0" result="BackgroundImageFix"/><feBlend in="SourceGraphic" in2="BackgroundImageFix" result="shape"/><feGaussianBlur result="effect1_foregroundBlur_16_168" stdDeviation="42.95"/></filter><filter id="c" width="16.2" height="16.2" x="279.3" y="554.4" color-interpolation-filters="sRGB" filterUnits="userSpaceOnUse"><feFlood flood-opacity="0" result="BackgroundImageFix"/><feColorMatrix in="SourceAlpha" result="hardAlpha" values="0 0 0 0 0 0 0 0 0 0 0 0 0 0 0 0 0 0 127 0"/><feOffset/><feGaussianBlur stdDeviation=".9"/><feColorMatrix values="0 0 0 0 1 0 0 0 0 1 0 0 0 0 1 0 0 0 1 0"/><feBlend in2="BackgroundImageFix" result="effect1_dropShadow_16_168"/><feColorMatrix in="SourceAlpha" result="hardAlpha" values="0 0 0 0 0 0 0 0 0 0 0 0 0 0 0 0 0 0 127 0"/><feOffset/><feGaussianBlur stdDeviation="1.8"/><feColorMatrix values="0 0 0 0 1 0 0 0 0 1 0 0 0 0 1 0 0 0 1 0"/><feBlend in2="effect1_dropShadow_16_168" result="effect2_dropShadow_16_168"/><feBlend in="SourceGraphic" in2="effect2_dropShadow_16_168" result="shape"/></filter><filter id="d" width="19.2" height="19.2" x="76.3" y="502.4" color-interpolation-filters="sRGB" filterUnits="userSpaceOnUse"><feFlood flood-opacity="0" result="BackgroundImageFix"/><feColorMatrix in="SourceAlpha" result="hardAlpha" values="0 0 0 0 0 0 0 0 0 0 0 0 0 0 0 0 0 0 127 0"/><feOffset/><feGaussianBlur stdDeviation=".9"/><feColorMatrix values="0 0 0 0 1 0 0 0 0 1 0 0 0 0 1 0 0 0 1 0"/><feBlend in2="BackgroundImageFix" result="effect1_dropShadow_16_168"/><feColorMatrix in="SourceAlpha" result="hardAlpha" values="0 0 0 0 0 0 0 0 0 0 0 0 0 0 0 0 0 0 127 0"/><feOffset/><feGaussianBlur stdDeviation="1.8"/><feColorMatrix values="0 0 0 0 1 0 0 0 0 1 0 0 0 0 1 0 0 0 1 0"/><feBlend in2="effect1_dropShadow_16_168" result="effect2_dropShadow_16_168"/><feBlend in="SourceGraphic" in2="effect2_dropShadow_16_168" result="shape"/></filter><filter id="e" width="24.38" height="24.38" x="964.71" y="340.81" color-interpolation-filters="sRGB" filterUnits="userSpaceOnUse"><feFlood flood-opacity="0" result="BackgroundImageFix"/><feColorMatrix in="SourceAlpha" result="hardAlpha" values="0 0 0 0 0 0 0 0 0 0 0 0 0 0 0 0 0 0 127 0"/><feOffset/><feGaussianBlur stdDeviation=".585"/><feColorMatrix values="0 0 0 0 1 0 0 0 0 1 0 0 0 0 1 0 0 0 1 0"/><feBlend in2="BackgroundImageFix" result="effect1_dropShadow_16_168"/><feColorMatrix in="SourceAlpha" result="hardAlpha" values="0 0 0 0 0 0 0 0 0 0 0 0 0 0 0 0 0 0 127 0"/><feOffset/><feGaussianBlur stdDeviation="1.17"/><feColorMatrix values="0 0 0 0 1 0 0 0 0 1 0 0 0 0 1 0 0 0 1 0"/><feBlend in2="effect1_dropShadow_16_168" result="effect2_dropShadow_16_168"/><feColorMatrix in="SourceAlpha" result="hardAlpha" values="0 0 0 0 0 0 0 0 0 0 0 0 0 0 0 0 0 0 127 0"/><feOffset/><feGaussianBlur stdDeviation="4.095"/><feColorMatrix values="0 0 0 0 1 0 0 0 0 1 0 0 0 0 1 0 0 0 1 0"/><feBlend in2="effect2_dropShadow_16_168" result="effect3_dropShadow_16_168"/><feBlend in="SourceGraphic" in2="effect3_dropShadow_16_168" result="shape"/></filter><filter id="f" width="37.2" height="36.2" x="777.3" y="597.4" color-interpolation-filters="sRGB" filterUnits="userSpaceOnUse"><feFlood flood-opacity="0" result="BackgroundImageFix"/><feColorMatrix in="SourceAlpha" result="hardAlpha" values="0 0 0 0 0 0 0 0 0 0 0 0 0 0 0 0 0 0 127 0"/><feOffset/><feGaussianBlur stdDeviation=".9"/><feColorMatrix values="0 0 0 0 1 0 0 0 0 1 0 0 0 0 1 0 0 0 1 0"/><feBlend in2="BackgroundImageFix" result="effect1_dropShadow_16_168"/><feColorMatrix in="SourceAlpha" result="hardAlpha" values="0 0 0 0 0 0 0 0 0 0 0 0 0 0 0 0 0 0 127 0"/><feOffset/><feGaussianBlur stdDeviation="1.8"/><feColorMatrix values="0 0 0 0 1 0 0 0 0 1 0 0 0 0 1 0 0 0 1 0"/><feBlend in2="effect1_dropShadow_16_168" result="effect2_dropShadow_16_168"/><feColorMatrix in="SourceAlpha" result="hardAlpha" values="0 0 0 0 0 0 0 0 0 0 0 0 0 0 0 0 0 0 127 0"/><feOffset/><feGaussianBlur stdDeviation="6.3"/><feColorMatrix values="0 0 0 0 1 0 0 0 0 1 0 0 0 0 1 0 0 0 1 0"/><feBlend in2="effect2_dropShadow_16_168" result="effect3_dropShadow_16_168"/><feBlend in="SourceGraphic" in2="effect3_dropShadow_16_168" result="shape"/></filter><filter id="g" width="93" height="93" x="105.921" y="176" color-interpolation-filters="sRGB" filterUnits="userSpaceOnUse"><feFlood flood-opacity="0" result="BackgroundImageFix"/><feColorMatrix in="SourceAlpha" result="hardAlpha" values="0 0 0 0 0 0 0 0 0 0 0 0 0 0 0 0 0 0 127 0"/><feOffset dy="4"/><feGaussianBlur stdDeviation="12.5"/><feComposite in2="hardAlpha" operator="out"/><feColorMatrix values="0 0 0 0 0 0 0 0 0 0.819608 0 0 0 0 1 0 0 0 0.6 0"/><feBlend in2="BackgroundImageFix" result="effect1_dropShadow_16_168"/><feColorMatrix in="SourceAlpha" result="hardAlpha" values="0 0 0 0 0 0 0 0 0 0 0 0 0 0 0 0 0 0 127 0"/><feOffset dy="4"/><feGaussianBlur stdDeviation="20"/><feComposite in2="hardAlpha" operator="out"/><feColorMatrix values="0 0 0 0 0 0 0 0 0 0.819608 0 0 0 0 1 0 0 0 0.6 0"/><feBlend in2="effect1_dropShadow_16_168" result="effect2_dropShadow_16_168"/><feBlend in="SourceGraphic" in2="effect2_dropShadow_16_168" result="shape"/></filter><filter id="h" width="99" height="99" x="591.92" y="375" color-interpolation-filters="sRGB" filterUnits="userSpaceOnUse"><feFlood flood-opacity="0" result="BackgroundImageFix"/><feColorMatrix in="SourceAlpha" result="hardAlpha" values="0 0 0 0 0 0 0 0 0 0 0 0 0 0 0 0 0 0 127 0"/><feOffset dy="4"/><feGaussianBlur stdDeviation="9.5"/><feComposite in2="hardAlpha" operator="out"/><feColorMatrix values="0 0 0 0 0 0 0 0 0 0.819608 0 0 0 0 1 0 0 0 0.6 0"/><feBlend in2="BackgroundImageFix" result="effect1_dropShadow_16_168"/><feColorMatrix in="SourceAlpha" result="hardAlpha" values="0 0 0 0 0 0 0 0 0 0 0 0 0 0 0 0 0 0 127 0"/><feOffset dy="4"/><feGaussianBlur stdDeviation="21.5"/><feComposite in2="hardAlpha" operator="out"/><feColorMatrix values="0 0 0 0 0 0 0 0 0 0.819608 0 0 0 0 1 0 0 0 0.6 0"/><feBlend in2="effect1_dropShadow_16_168" result="effect2_dropShadow_16_168"/><feBlend in="SourceGraphic" in2="effect2_dropShadow_16_168" result="shape"/></filter><filter id="i" width="122" height="122" x="544.9" y="205" color-interpolation-filters="sRGB" filterUnits="userSpaceOnUse"><feFlood flood-opacity="0" result="BackgroundImageFix"/><feColorMatrix in="SourceAlpha" result="hardAlpha" values="0 0 0 0 0 0 0 0 0 0 0 0 0 0 0 0 0 0 127 0"/><feOffset dy="4"/><feGaussianBlur stdDeviation="12.5"/><feComposite in2="hardAlpha" operator="out"/><feColorMatrix values="0 0 0 0 0 0 0 0 0 0.819608 0 0 0 0 1 0 0 0 0.6 0"/><feBlend in2="BackgroundImageFix" result="effect1_dropShadow_16_168"/><feColorMatrix in="SourceAlpha" result="hardAlpha" values="0 0 0 0 0 0 0 0 0 0 0 0 0 0 0 0 0 0 127 0"/><feOffset dy="4"/><feGaussianBlur stdDeviation="20"/><feComposite in2="hardAlpha" operator="out"/><feColorMatrix values="0 0 0 0 0 0 0 0 0 0.819608 0 0 0 0 1 0 0 0 0.6 0"/><feBlend in2="effect1_dropShadow_16_168" result="effect2_dropShadow_16_168"/><feBlend in="SourceGraphic" in2="effect2_dropShadow_16_168" result="shape"/></filter><filter id="j" width="105" height="105" x="184.9" y="502" color-interpolation-filters="sRGB" filterUnits="userSpaceOnUse"><feFlood flood-opacity="0" result="BackgroundImageFix"/><feColorMatrix in="SourceAlpha" result="hardAlpha" values="0 0 0 0 0 0 0 0 0 0 0 0 0 0 0 0 0 0 127 0"/><feOffset dy="4"/><feGaussianBlur stdDeviation="12.5"/><feComposite in2="hardAlpha" operator="out"/><feColorMatrix values="0 0 0 0 0 0 0 0 0 0.819608 0 0 0 0 1 0 0 0 0.6 0"/><feBlend in2="BackgroundImageFix" result="effect1_dropShadow_16_168"/><feColorMatrix in="SourceAlpha" result="hardAlpha" values="0 0 0 0 0 0 0 0 0 0 0 0 0 0 0 0 0 0 127 0"/><feOffset dy="4"/><feGaussianBlur stdDeviation="20"/><feComposite in2="hardAlpha" operator="out"/><feColorMatrix values="0 0 0 0 0 0 0 0 0 0.819608 0 0 0 0 1 0 0 0 0.6 0"/><feBlend in2="effect1_dropShadow_16_168" result="effect2_dropShadow_16_168"/><feBlend in="SourceGraphic" in2="effect2_dropShadow_16_168" result="shape"/></filter><filter id="k" width="95" height="95" x="440.92" y="138" color-interpolation-filters="sRGB" filterUnits="userSpaceOnUse"><feFlood flood-opacity="0" result="BackgroundImageFix"/><feColorMatrix in="SourceAlpha" result="hardAlpha" values="0 0 0 0 0 0 0 0 0 0 0 0 0 0 0 0 0 0 127 0"/><feOffset dy="4"/><feGaussianBlur stdDeviation="12.5"/><feComposite in2="hardAlpha" operator="out"/><feColorMatrix values="0 0 0 0 0 0 0 0 0 0.819608 0 0 0 0 1 0 0 0 0.6 0"/><feBlend in2="BackgroundImageFix" result="effect1_dropShadow_16_168"/><feColorMatrix in="SourceAlpha" result="hardAlpha" values="0 0 0 0 0 0 0 0 0 0 0 0 0 0 0 0 0 0 127 0"/><feOffset dy="4"/><feGaussianBlur stdDeviation="20"/><feComposite in2="hardAlpha" operator="out"/><feColorMatrix values="0 0 0 0 0 0 0 0 0 0.819608 0 0 0 0 1 0 0 0 0.6 0"/><feBlend in2="effect1_dropShadow_16_168" result="effect2_dropShadow_16_168"/><feBlend in="SourceGraphic" in2="effect2_dropShadow_16_168" result="shape"/></filter><filter id="l" width="711" height="711" x="24.9" y="0" color-interpolation-filters="sRGB" filterUnits="userSpaceOnUse"><feFlood flood-opacity="0" result="BackgroundImageFix"/><feBlend in="SourceGraphic" in2="BackgroundImageFix" result="shape"/><feGaussianBlur result="effect1_foregroundBlur_16_168" stdDeviation="75"/></filter><filter id="o" width="368.8" height="368.8" x="195.5" y="171.6" color-interpolation-filters="sRGB" filterUnits="userSpaceOnUse"><feFlood flood-opacity="0" result="BackgroundImageFix"/><feBlend in="SourceGraphic" in2="BackgroundImageFix" result="shape"/><feGaussianBlur result="effect1_foregroundBlur_16_168" stdDeviation="8.7"/></filter><filter id="p" width="395.842" height="372.142" x="176.802" y="189.404" color-interpolation-filters="sRGB" filterUnits="userSpaceOnUse"><feFlood flood-opacity="0" result="BackgroundImageFix"/><feBlend in="SourceGraphic" in2="BackgroundImageFix" result="shape"/><feGaussianBlur result="effect1_foregroundBlur_16_168" stdDeviation="14.7"/></filter><linearGradient id="b" x1="15.84" x2="397.911" y1="337.458" y2="456.139" gradientUnits="userSpaceOnUse"><stop offset=".245" stop-color="#6339f0"/><stop offset="1" stop-color="#00d1ff"/></linearGradient><linearGradient id="n" x1="379.9" x2="531.9" y1="189" y2="290.5" gradientUnits="userSpaceOnUse"><stop stop-color="#00d1ff"/><stop offset="1" stop-color="#0b0b0c"/></linearGradient><radialGradient id="m" cx="0" cy="0" r="1" gradientTransform="matrix(0 190.006 -195.266 0 380.4 355.5)" gradientUnits="userSpaceOnUse"><stop stop-color="#00d1ff"/><stop offset=".986" stop-color="#6339f0" stop-opacity=".2"/></radialGradient></defs></svg>