<svg width="711" height="711" viewBox="0 0 711 711" fill="none" xmlns="http://www.w3.org/2000/svg">
<g opacity="0.05">
<path fill-rule="evenodd" clip-rule="evenodd" d="M278.575 149.953C282.608 161.204 287.855 171.976 294.233 182.086C294.442 182.475 294.793 182.77 295.214 182.907C295.634 183.044 296.091 183.014 296.49 182.823C296.889 182.632 297.198 182.294 297.355 181.881C297.511 181.467 297.502 181.009 297.329 180.602C293.386 169.299 288.075 158.521 281.514 148.508C281.419 148.315 281.287 148.143 281.126 148.001C280.965 147.86 280.777 147.751 280.574 147.682C280.37 147.612 280.156 147.584 279.941 147.598C279.727 147.611 279.517 147.667 279.325 147.762C279.132 147.857 278.96 147.988 278.818 148.15C278.676 148.311 278.568 148.499 278.498 148.702C278.429 148.905 278.4 149.12 278.414 149.334C278.428 149.549 278.48 149.76 278.575 149.953ZM294.08 127.301C310.321 173.496 313.013 160.964 312.314 159.661C308.096 148.057 302.994 136.794 297.052 125.971C296.876 125.577 296.55 125.269 296.146 125.115C295.947 125.038 295.734 125.002 295.52 125.008C295.306 125.014 295.096 125.063 294.901 125.15C294.506 125.326 294.199 125.652 294.045 126.056C293.891 126.459 293.903 126.907 294.08 127.301ZM321.028 124.698C323.449 133.309 327.304 141.451 332.43 148.781C332.642 149.172 332.998 149.466 333.423 149.6C333.847 149.734 334.307 149.698 334.706 149.5C335.104 149.302 335.41 148.957 335.559 148.537C335.708 148.118 335.689 147.657 335.505 147.252C332.802 138.778 328.923 130.726 323.983 123.33C323.801 122.938 323.472 122.634 323.066 122.485C322.661 122.337 322.213 122.355 321.821 122.537C321.429 122.718 321.126 123.048 320.977 123.453C320.828 123.859 320.847 124.307 321.028 124.698ZM343.912 118.176C344.011 118.379 344.149 118.56 344.318 118.709C344.487 118.858 344.684 118.972 344.897 119.045C345.111 119.118 345.336 119.149 345.561 119.135C345.786 119.12 346.006 119.062 346.209 118.963C346.411 118.864 346.592 118.726 346.741 118.557C346.891 118.387 347.005 118.191 347.078 117.977C347.151 117.764 347.181 117.538 347.167 117.313C347.153 117.088 347.095 116.868 346.996 116.666C342.833 99.0442 331.183 102.172 343.912 118.176ZM304.045 200.938C306.346 209.086 309.966 216.803 314.762 223.781C314.969 224.163 315.314 224.452 315.727 224.59C316.139 224.728 316.589 224.705 316.984 224.525C317.38 224.344 317.693 224.021 317.86 223.619C318.026 223.217 318.034 222.767 317.882 222.36C315.54 214.215 311.864 206.518 307.003 199.577C306.921 199.372 306.798 199.185 306.641 199.029C306.485 198.873 306.299 198.75 306.093 198.668C305.888 198.586 305.668 198.547 305.447 198.553C305.226 198.559 305.009 198.609 304.808 198.702C304.607 198.794 304.427 198.926 304.279 199.09C304.131 199.254 304.018 199.447 303.946 199.656C303.875 199.865 303.847 200.087 303.864 200.307C303.881 200.528 303.942 200.742 304.045 200.938ZM318.285 177.311C321.608 186.961 326.212 196.129 331.97 204.554C332.188 204.933 332.544 205.215 332.963 205.341C333.382 205.467 333.834 205.429 334.225 205.233C334.617 205.038 334.92 204.7 335.071 204.289C335.222 203.878 335.211 203.425 335.039 203.022C331.706 193.365 327.047 184.217 321.195 175.843C321.103 175.644 320.973 175.466 320.811 175.319C320.649 175.173 320.459 175.06 320.253 174.988C320.046 174.916 319.827 174.886 319.609 174.9C319.391 174.914 319.178 174.972 318.983 175.07C318.787 175.169 318.614 175.305 318.472 175.472C318.331 175.638 318.224 175.832 318.159 176.041C318.094 176.249 318.071 176.469 318.093 176.686C318.114 176.904 318.181 177.119 318.285 177.311ZM341.671 168.059C344.782 178.378 349.441 188.164 355.49 197.084C355.707 197.484 356.075 197.781 356.512 197.91C356.729 197.974 356.956 197.995 357.18 197.971C357.405 197.948 357.622 197.88 357.82 197.772C358.019 197.664 358.194 197.518 358.336 197.343C358.477 197.167 358.583 196.966 358.647 196.749C358.711 196.533 358.732 196.306 358.708 196.081C358.684 195.857 358.617 195.639 358.509 195.441C354.811 185.418 350.153 175.775 344.601 166.646C344.402 166.277 344.068 165.999 343.668 165.87C343.269 165.741 342.835 165.771 342.457 165.954C342.08 166.137 341.787 166.458 341.64 166.851C341.493 167.245 341.504 167.679 341.669 168.065M356.243 142.015C363.004 159.795 371.029 177.068 380.259 193.7C380.466 194.082 380.811 194.372 381.223 194.51C381.636 194.648 382.085 194.624 382.481 194.444C382.877 194.264 383.19 193.94 383.356 193.538C383.523 193.136 383.531 192.686 383.379 192.279C376.665 174.475 368.586 157.214 359.219 140.651C359.02 140.287 358.69 140.013 358.297 139.883C357.903 139.753 357.475 139.776 357.099 139.949C356.722 140.122 356.425 140.431 356.267 140.814C356.109 141.197 356.102 141.625 356.247 142.013" fill="#00D1FF"/>
<path fill-rule="evenodd" clip-rule="evenodd" d="M356.295 129.562C354.161 130.247 352.051 131.007 349.969 131.84C349.773 131.946 349.557 132.011 349.335 132.031C349.113 132.051 348.889 132.027 348.677 131.958C348.464 131.889 348.268 131.778 348.1 131.632C347.932 131.485 347.795 131.306 347.698 131.105C347.601 130.905 347.545 130.686 347.535 130.463C347.525 130.24 347.56 130.018 347.638 129.809C347.716 129.6 347.835 129.409 347.989 129.247C348.143 129.086 348.328 128.957 348.533 128.869C354.202 125.468 360.114 122.49 366.222 119.961C369.697 118.359 371.499 124.184 373.958 132.132C374.722 134.648 375.532 137.151 376.386 139.638C376.499 139.845 376.568 140.073 376.588 140.308C376.609 140.543 376.581 140.78 376.506 141.003C376.431 141.227 376.311 141.432 376.153 141.608C375.995 141.783 375.803 141.924 375.588 142.021C375.374 142.119 375.142 142.172 374.906 142.176C374.67 142.18 374.436 142.135 374.218 142.045C374 141.955 373.804 141.821 373.64 141.651C373.476 141.481 373.349 141.28 373.267 141.059C370.373 135.676 369.517 133.676 368.483 131.264C368.161 130.508 367.823 129.713 367.394 128.762C366.689 130.096 365.732 131.826 364.473 134.108C362.2 138.229 358.944 144.133 354.405 152.671C347.531 165.597 346.186 171.188 343.518 171.911C341.244 172.532 338.008 169.603 329.564 164.672C320.336 180.328 316.117 186.979 312.041 193.399C309.248 197.803 306.519 202.104 302.29 209.129C302.06 209.47 301.709 209.712 301.308 209.806C300.907 209.9 300.485 209.839 300.127 209.635C299.769 209.432 299.501 209.101 299.377 208.708C299.253 208.315 299.281 207.89 299.456 207.518C304.919 197.158 310.582 186.906 316.444 176.768C323.549 164.418 325.332 159.212 328.128 158.597C330.542 158.064 333.721 160.968 341.752 165.659C349.325 150.9 355.177 141.524 364.102 127.217L364.514 126.555C361.102 127.962 358.634 128.782 356.295 129.562Z" fill="#F4F4F9"/>
</g>
<g filter="url(#filter0_dd_585_247)">
<path d="M127.521 212L128.711 217.31L134.021 218.5L128.711 219.69L127.521 225L126.331 219.69L121.021 218.5L126.331 217.31L127.521 212Z" fill="#00D1FF"/>
</g>
<g filter="url(#filter1_dd_585_247)">
<path d="M660.5 414L661.69 419.31L667 420.5L661.69 421.69L660.5 427L659.31 421.69L654 420.5L659.31 419.31L660.5 414Z" fill="#00D1FF"/>
</g>
<g filter="url(#filter2_dd_585_247)">
<path d="M67.5 390L68.6904 395.31L74 396.5L68.6904 397.69L67.5 403L66.3096 397.69L61 396.5L66.3096 395.31L67.5 390Z" fill="#00D1FF"/>
</g>
<g filter="url(#filter3_dd_585_247)">
<path d="M581 241L584.846 258.154L602 262L584.846 265.846L581 283L577.154 265.846L560 262L577.154 258.154L581 241Z" fill="#00D1FF"/>
</g>
<path d="M581 241L582.901 260.099L602 262L582.901 263.901L581 283L579.099 263.901L560 262L579.099 260.099L581 241Z" fill="#00D1FF"/>
<g filter="url(#filter4_dd_585_247)">
<path d="M212.5 538L214.789 548.211L225 550.5L214.789 552.789L212.5 563L210.211 552.789L200 550.5L210.211 548.211L212.5 538Z" fill="#00D1FF"/>
</g>
<path d="M212.5 538L213.631 549.369L225 550.5L213.631 551.631L212.5 563L211.369 551.631L200 550.5L211.369 549.369L212.5 538Z" fill="#00D1FF"/>
<g filter="url(#filter5_dd_585_247)">
<path d="M463.521 174L464.894 180.126L471.021 181.5L464.894 182.874L463.521 189L462.147 182.874L456.021 181.5L462.147 180.126L463.521 174Z" fill="#00D1FF"/>
</g>
<g filter="url(#filter6_f_585_247)">
<circle cx="355.5" cy="355.5" r="205.5" fill="url(#paint0_radial_585_247)"/>
</g>
<circle cx="355" cy="356" r="167" fill="url(#paint1_linear_585_247)" fill-opacity="0.2"/>
<g filter="url(#filter8_f_585_247)">
<circle cx="355" cy="356" r="166" stroke="#00D1FF" stroke-width="2"/>
</g>
<g filter="url(#filter9_f_585_247)">
<path d="M518.342 370.774C518.262 374.752 517.788 379.949 517.219 383.886C517.043 385.118 516.986 384.477 516.855 385.324C516.594 386.981 516.442 388.528 516.128 390.154C516.022 390.695 515.921 389.986 515.814 390.552C515.228 393.66 514.74 396.575 514.025 399.692C510.497 414.991 505.075 429.565 497.506 443.494C495.016 448.097 491.578 453.443 488.624 457.95C488.28 458.478 488.642 458.27 488.588 458.378C487.719 460.065 487.764 459.338 487.024 460.317C484.079 464.2 480.767 468.475 477.804 472.102C476.54 473.643 478.114 472.358 476.653 473.751C476.551 473.848 476.733 473.337 476.36 473.737C475.519 474.648 473.984 476.427 473.323 477.123C472.052 478.468 471.844 478.692 470.638 479.96C468.985 481.689 466.909 483.636 465.085 485.439C464.695 485.824 465.359 485.469 464.749 486.096C464.141 486.726 462.428 488.288 461.815 488.773C461.204 489.261 461.345 488.921 461.219 488.986C460.176 489.521 458.438 491.591 458.179 491.821C453.512 496.032 449.074 499.116 444.231 502.465C440.553 505.006 436.538 507.624 432.846 509.736C428.436 512.254 424.573 514.137 420.124 516.248C419.655 516.469 420.306 516.426 419.731 516.696C413.613 519.565 407.344 521.996 400.905 523.917C400.258 524.109 401.021 523.645 400.372 523.825C396.407 524.954 390.029 526.231 387.86 527.643C385.137 528.256 381.799 528.909 379.318 529.172C377.715 529.34 379.214 528.848 377.285 529.28C376.849 529.375 377.454 529.474 376.797 529.602C374.014 530.14 370.99 530.498 368.223 530.915C367.661 530.999 367.835 531.158 367.678 531.207C366.351 531.618 364.084 531.4 363.594 531.408C359.867 531.49 357.143 531.728 353.685 531.823C352.88 531.843 353.839 532.056 353.063 532.082C351.724 532.126 350.365 532.147 349 532.145C346.262 532.142 343.53 532.042 340.921 531.848C340.051 531.782 340.862 531.618 340.447 531.576C338.605 531.385 338.171 531.741 336.409 531.532C336.038 531.487 336.261 531.33 336.194 531.306C335.157 530.928 334.205 531.269 333.931 531.254C330.485 531.068 328.303 530.367 325.003 529.965C324.607 529.916 325.466 530.262 324.355 530.109C316.911 529.083 309.172 527.332 302.089 525.082C300.991 524.733 301.827 524.805 301.763 524.766C300.722 524.129 299.872 524.312 299.509 524.217C296.634 523.452 294.133 522.216 292.071 522.01C280.32 517.592 268.886 512.248 258.647 505.139C258.516 505.049 258.868 505.026 258.608 504.847C255.492 502.679 255.932 503.345 253.624 502.252C253.041 501.975 251.742 500.468 251.626 500.339C251.197 499.872 251.902 499.993 251.748 499.852C250.474 498.688 250.09 499.691 248.224 498.299C248.167 498.254 248.525 498.285 248.381 498.153C247.932 497.742 247.407 497.438 246.977 497.025C245.994 496.076 245.922 495.391 244.129 494.326C243.902 494.189 243.842 494.903 242.254 493.565C241.615 493.037 238.817 490.669 238.079 489.953C237.335 489.246 237.988 489.571 237.938 489.516C236.046 487.494 236.898 488.112 236.128 486.912C235.366 485.709 235.051 486.609 234.572 486.297C234.091 485.984 232.769 484.439 232.465 484.04C232.16 483.643 232.686 483.989 232.399 483.653C230.502 481.417 231.179 483.062 230.396 482.481C228.553 481.099 227.789 479.365 226.422 477.801C226.052 477.377 226.255 477.815 225.905 477.456C224.521 476.027 223.875 475.006 222.254 473.421C221.989 473.163 220.501 472.024 219.967 470.927C219.892 470.771 220.319 471.035 219.808 470.359C219.044 469.352 217.649 467.554 216.776 466.512C216.13 465.742 216.621 466.817 215.916 465.764C215.605 465.295 216.36 466.027 215.766 465.155C215.17 464.288 213.575 462.139 212.981 461.309C212.385 460.484 212.544 461.055 212.485 460.996C212.13 460.637 210.929 459.087 210.834 458.942C205.87 451.757 202.119 444.611 198.304 437.035C198.006 436.439 198.007 436.931 197.96 436.841C196.894 434.823 198.179 436.201 197.673 434.683C197.38 435.075 197.047 434.194 196.343 432.751C196.004 432.054 196.024 432.507 195.979 432.45C195.276 431.504 195.26 430.635 195.24 430.42C195.165 429.623 194.573 428.975 194.528 428.435C194.481 427.896 195.16 428.897 194.57 427.481C194.263 427.142 194.322 428.352 193.818 427.296C191.867 423.316 189.463 415.401 188.529 411.984C187.559 408.584 187.251 407.473 186.787 405.461C185.988 401.83 186.026 403.223 185.369 400.995C184.731 398.751 185.701 399.699 185.784 399.34C185.87 398.986 185.636 398.671 185.638 398.254C185.641 397.839 185.925 398.677 185.764 397.736C185.599 396.802 184.837 394.306 184.618 394C184.146 393.358 183.98 394.585 183.678 392.065C183.662 391.92 183.932 392.354 183.859 391.801C183.275 387.411 182.71 382.845 182.469 378.451C182.436 377.846 182.697 378.367 182.681 378.015C182.534 374.347 182.276 375.683 181.744 373.687C182.313 374.111 182.557 372.968 182.455 370.204C182.4 368.537 182.176 368.831 181.983 367.751C181.925 367.426 182.067 366.236 181.955 366.022C181.608 365.354 181.229 366.321 181.315 364C181.32 363.86 181.328 363.708 181.338 363.543C181.346 363.417 181.543 363.821 181.556 363.383C181.657 360.553 181.282 360.219 181.346 357.157C181.395 354.754 181.904 350.516 182.213 347.812C182.808 347.927 182.927 345.362 182.64 344.275C182.862 342.52 183.092 340.629 183.404 338.943C183.511 338.364 183.627 338.773 183.657 338.702C184.122 337.625 183.845 336.807 183.892 336.427C184.422 332.318 185.394 329.08 186.005 325.175C186.028 325.036 185.668 324.719 186.219 323.762C186.256 323.701 186.129 325.014 186.59 323.213C187.05 321.41 188.178 318.098 188.743 315.578C188.877 314.969 189.015 313.358 189.663 312.233C189.75 312.083 189.808 312.296 189.947 312.086C190.395 311.405 190.126 310.862 190.766 310.104C191.406 309.348 192.282 307.627 192.962 305.12C192.984 305.041 192.884 304.347 193.184 303.589C193.662 302.376 194.419 300.687 194.944 299.436C195.195 298.836 194.841 299.138 194.881 299.032C196.489 294.953 197.969 292.193 200.163 288.052C200.564 287.292 201.459 284.967 202.463 283.619C203.571 282.143 203.533 284.265 205.399 280.525C206.158 279.03 206.142 276.5 208.351 274.295C211.394 269.235 214.847 264.995 218.331 260.22C218.488 260.006 218.729 259.12 219.129 258.637C219.722 257.92 220.179 257.636 220.612 257.133C222.431 255.031 223.998 253.022 225.828 251.06C226.523 250.316 226.41 250.696 227.245 249.817C228.082 248.942 228.472 248.194 229.702 247.096C230.633 246.269 231.842 245.727 233.056 244.623C232.777 244.246 233.588 243.459 234.972 241.995C235.238 241.714 234.824 241.878 234.944 241.739C235.432 241.169 236.03 240.801 236.492 240.257C236.605 240.125 236.504 240.002 236.59 239.887C237.319 238.905 239.041 237.87 239.338 237.697C240.474 237.027 240.8 236.478 241.622 235.909C242.444 235.343 241.38 236.385 242.306 235.685C244.224 234.236 246.621 232.301 248.574 230.84C249.351 230.257 248.694 230.486 248.802 230.398C250.379 229.144 252.165 228.143 252.834 227.154C254.608 227.255 253.76 226.36 256.276 224.93C256.475 224.819 257.001 225.091 256.322 225.637C255.644 226.183 254.465 226.791 253.547 227.58C253.328 227.766 252.281 229.106 252.12 229.261C250.846 230.466 250.193 229.994 250.092 230.014C248.973 230.266 247.697 231.895 247.306 232.246C245.508 233.847 243.855 235.046 242.389 236.425C241.432 237.329 241.665 237.799 240.876 238.457C238.267 240.655 236.898 240.942 234.969 243.6C234.559 244.173 235.433 244.091 233.355 245.497C233.225 245.584 231.633 246.59 231.068 247.526C230.997 247.643 231.115 247.754 231.001 247.888C230.24 248.789 229.601 249.263 228.764 250.236C227.927 251.209 226.949 252.402 225.931 253.453C225.317 254.086 224.344 254.736 224.01 255.007C223.063 255.768 222.499 256.97 221.827 257.371C221.149 257.779 221.785 256.401 220.399 257.806C220.676 258.13 220.903 258.533 221.155 258.892C218.426 262.185 215.764 265.46 213.311 268.987C213.008 269.425 213.505 269.109 213.185 269.581C211.841 271.577 210.542 273.235 209.254 275.378C208.26 277.034 207.36 278.967 206.395 280.736C205.354 281.552 204.011 284.248 202.954 286.147C202.582 286.812 202.493 286.708 202.203 287.169C201.119 288.916 201.941 288.26 201.743 288.789C200.912 291.061 199.955 290.813 198.752 293.399C198.685 293.537 198.378 295.421 198.305 295.665C197.834 297.215 198.032 295.833 197.586 296.737C196.777 298.392 196.158 299.521 195.48 301.576C195.283 302.176 195.019 303.697 194.353 304.746C194.266 304.885 194.139 304.741 194.084 304.858C193.099 306.992 193.585 307.239 193.302 308.557C193.021 309.875 192.017 311.706 191.785 312.075C191.181 313.036 191.938 311.237 191.934 311.173C191.855 310.407 191.422 311.854 191.042 312.946C190.492 312.943 190.033 314.501 190.653 314.08C190.721 314.031 190.948 313.159 191.042 312.946C191.217 314.072 190.751 315.765 189.744 317.512C189.276 318.331 189.25 317.423 188.597 320.139C188.308 321.372 188.782 320.993 188.594 322.096C188.163 324.618 187.086 327.752 186.609 330.347C186.438 331.283 186.816 330.414 186.706 331.055C186.418 332.754 185.994 334.226 185.775 335.952C185.756 336.108 186.023 335.765 185.936 336.295C185.287 340.32 184.684 343.832 184.269 348.081C184.063 350.129 183.911 353.817 183.796 355.945C183.646 358.477 183.427 361.376 183.361 364C183.329 365.221 183.328 366.37 183.371 367.375C183.465 369.44 183.665 368.979 183.833 369.856C184.155 371.536 183.842 374.576 183.799 374.99C183.795 375.004 183.639 373.228 183.591 374.184C183.404 374.75 183.797 374.971 183.799 374.99C183.759 375.263 183.985 378.804 184.099 379.497C184.156 379.874 184.331 379.644 184.357 379.841C184.98 384.55 185.675 389.219 186.451 393.968C186.463 394.052 186.225 393.966 186.254 394.163C186.666 396.911 187.298 398.608 187.957 400.808C188.621 403.009 189.012 404.762 188.996 406.178C189.479 407.845 189.997 410.278 190.315 411.674C190.631 413.072 191.101 413.133 191.146 413.252C192.584 416.918 193.084 419.116 194.489 422.944C195.153 424.765 196.655 428.281 197.549 430.182C198.248 431.682 198.57 432.63 199.272 433.982C199.367 434.165 199.45 433.896 199.483 433.95C200.411 435.387 199.647 434.848 199.722 435.2C200.002 436.476 200.201 437.266 201.315 439.149C201.573 439.585 202.837 440.577 203.3 441.362C203.904 442.386 203.48 442.103 204.127 443.17C204.182 443.261 204.3 443.172 204.666 443.847C206.369 446.981 208.289 450.36 210.317 453.465C210.593 453.889 210.436 453.218 210.839 453.827C212.728 456.681 214.876 459.769 216.786 462.506C217.256 463.181 216.817 462.867 216.885 463.039C217.308 464.096 218.601 465.069 218.765 465.265C222.695 469.948 225.467 473.753 229.908 478.147C230.149 478.389 232.295 479.936 232.848 481.03C232.886 481.104 233.425 482.204 234.351 482.716C234.409 482.747 234.035 482.101 234.923 482.985C235.813 483.87 237.377 485.147 238.505 486.469C238.862 486.887 239.558 488.052 241 488.879C241.095 488.936 243.47 490.015 243.844 490.965C243.904 491.119 243.446 491.436 245.127 492.455C245.449 492.647 244.998 492.133 245.806 492.689C247.044 493.539 248.523 494.874 250.138 495.792C250.42 495.953 251.724 496.48 252.451 497.341C252.565 497.476 252.197 497.427 252.655 497.782C254.833 499.471 257.282 501.004 259.562 502.622C260.372 503.195 259.791 503.161 260.624 503.781C261.455 504.402 263.199 505.563 264.195 506.003C265.192 506.445 264.407 505.454 265.819 506.244C271.968 509.664 278.063 513.029 284.527 515.821C285.485 516.233 284.751 515.75 286.167 516.336C291.38 518.551 300.686 521.519 305.346 523.083C309.088 524.372 304.228 523.295 307.123 524.178C308.522 524.6 310.172 524.456 310.517 524.52C313.885 525.145 316.178 525.857 319.217 526.344C319.846 526.443 319.27 526.121 319.805 526.207C321.627 526.496 323.551 526.901 325.289 527.133C326.073 527.237 325.951 527.055 326.67 527.166C328.392 527.427 329.917 527.679 331.6 528.01C331.754 528.04 330.687 528.133 331.978 528.275C334.05 528.501 336.627 528.867 339.052 528.853C339.769 528.847 339.827 528.481 341.338 528.811C341.656 528.878 341.227 529.314 343.026 528.994C343.331 528.946 346.338 528.507 347.814 528.846C348.046 528.901 348.493 529.055 349 529.156C349.345 529.225 349.718 529.27 350.067 529.245C350.184 529.235 349.714 529.038 350.429 529.013C352.949 528.927 355.564 528.867 358.132 528.664C358.82 528.608 357.782 528.459 358.807 528.382C361.632 528.168 365.101 527.92 367.864 527.666C368.877 527.573 368.199 527.825 368.274 527.835C369.494 527.999 370.142 527.5 370.529 527.425C372.938 526.964 374.807 526.874 377.036 526.443C377.649 526.323 377.179 526.205 377.299 526.167C378.537 525.777 377.653 526.289 378.463 526.184C380.728 525.888 383.221 525.367 385.474 524.831C386.3 524.634 385.32 524.625 386.06 524.449C390.429 523.407 394.959 522.183 399.178 520.964C399.975 520.733 399.532 521.059 399.709 521.044C400.932 520.945 402.466 520.022 402.831 519.856C404.499 519.101 405.208 519.008 406.714 518.417C414.046 515.565 422.901 511.532 429.397 507.924C437.86 503.235 444.212 499.135 451.452 493.387C451.911 493.02 451.303 493.207 451.695 492.887C456.761 488.772 461.611 484.534 466.165 479.835C466.539 479.45 465.839 479.846 466.432 479.221C467.645 477.94 469.191 476.327 470.446 475.056C471.058 474.435 470.411 475.426 471.024 474.798C472.45 473.334 473.906 471.694 475.231 470.064C475.793 469.37 474.755 470.258 475.498 469.366C480.538 463.282 485.045 456.962 489.485 450.313C489.789 449.857 490.434 449.685 490.958 448.638C490.894 448.497 490.763 448.425 490.666 448.322C496.496 438.401 501.451 428.077 505.198 417.146C505.355 416.685 504.856 417.404 505.158 416.512C506.898 411.338 508.272 406.227 509.749 400.854C509.894 400.319 510.253 400.692 510.539 399.077C510.594 398.792 511.038 396.366 511.062 395.727C511.065 395.64 510.785 396.041 510.929 395.264C511.769 390.739 512.518 385.987 513.118 381.41C513.215 380.671 513.345 381.482 513.415 380.955C513.909 377.255 514.02 373.122 514.326 369.569C514.527 367.172 514.866 368.07 515.253 366.792C515.308 366.612 515.333 365.11 515.542 365.033C516.072 364.835 516.645 365.572 517.21 365.276C517.335 365.214 517.207 363.174 517.499 364.382C517.519 364.466 517.607 365.946 517.7 366.311C517.765 366.565 517.985 366.111 518.066 366.63C518.146 367.15 517.956 367.715 518.037 368.573C518.117 369.432 518.376 369.064 518.342 370.774ZM191.862 417.955C192.104 419.278 192.874 419.214 192.236 417.919C192.204 417.857 191.85 417.887 191.862 417.955ZM215.37 265.136C214.068 266.34 213.774 267.593 214.696 266.749C215.618 265.91 215.766 264.771 215.37 265.136ZM226.685 251.098C225.116 252.423 225.69 253.37 226.996 251.624C227.073 251.523 226.776 251.021 226.685 251.098ZM515.153 372.739C515.165 372.718 515.226 371.651 515.217 371.625C515.007 371.045 514.885 373.181 515.153 372.739ZM239.344 238.416C238.769 238.725 237.512 240.069 238.22 239.676C238.788 239.358 240.058 238.03 239.344 238.416ZM226.651 477.512C226.657 477.535 227.177 478.108 227.213 478.053C227.324 477.877 226.55 477.128 226.651 477.512ZM263.993 220.538C260.115 222.813 257.337 223.58 261.571 221.045C262.339 220.592 260.081 222.292 261.089 221.762C262.926 220.797 263.83 219.617 265.817 218.812C266.173 218.666 264.211 220.407 263.986 220.543C263.988 220.541 263.99 220.539 263.993 220.538ZM191.264 418.973C191.263 419.002 191.61 420.015 191.628 420.036C192.045 420.502 191.346 418.464 191.264 418.973ZM261.191 506.499C261.229 506.552 263.35 507.862 263.432 507.883C264.74 508.222 260.461 505.582 261.191 506.499ZM182.233 347.771C182.106 346.587 182.231 345.173 182.639 344.28C182.487 345.436 182.36 346.611 182.233 347.771Z" fill="#6339F0"/>
</g>
<path d="M522.353 362.735C522.248 366.689 521.804 371.856 521.276 375.776C521.112 377.002 521.108 376.371 520.987 377.215C520.748 378.866 520.571 380.401 520.283 382.023C520.186 382.562 520.167 381.869 520.068 382.434C519.52 385.534 519.014 388.433 518.319 391.54C514.891 406.793 509.518 421.328 502.008 435.228C499.539 439.82 496.175 445.189 493.202 449.666C492.855 450.189 493.156 449.941 493.097 450.045C492.155 451.675 492.322 451.033 491.6 452.021C488.728 455.937 485.428 460.207 482.451 463.805C481.182 465.335 482.64 463.959 481.245 465.401C481.148 465.501 481.388 465.042 481.023 465.447C480.198 466.367 478.657 468.132 478.002 468.831C476.743 470.18 476.535 470.404 475.332 471.669C473.685 473.395 471.642 475.364 469.809 477.15C469.418 477.532 470.025 477.12 469.408 477.736C468.791 478.354 467.089 479.916 466.49 480.413C465.893 480.914 466.076 480.621 465.959 480.697C465 481.322 463.154 483.262 462.893 483.487C458.194 487.632 453.828 490.782 448.996 494.123C445.326 496.658 441.305 499.243 437.625 501.353C433.229 503.868 429.396 505.786 424.955 507.885C424.486 508.105 425.096 507.977 424.522 508.245C418.417 511.096 412.173 513.528 405.771 515.505C405.127 515.702 405.914 515.318 405.27 515.508C401.337 516.698 395 518.133 392.754 519.193C390.041 519.818 386.716 520.483 384.254 520.817C382.662 521.031 384.174 520.628 382.241 521.021C381.804 521.108 382.395 521.129 381.738 521.25C378.957 521.759 375.943 522.141 373.178 522.516C372.616 522.592 372.782 522.68 372.624 522.717C371.29 523.025 369.048 522.976 368.559 522.996C364.848 523.17 362.125 523.371 358.676 523.468C357.872 523.488 358.826 523.607 358.052 523.63C356.717 523.669 355.362 523.688 354 523.687C351.269 523.685 348.545 523.599 345.94 523.433C345.072 523.376 345.877 523.294 345.463 523.26C343.622 523.107 343.198 523.31 341.439 523.134C341.068 523.096 341.285 523.008 341.218 522.992C340.173 522.733 339.236 522.906 338.963 522.887C335.531 522.651 333.334 522.126 330.041 521.7C329.646 521.648 330.516 521.907 329.407 521.751C321.983 520.703 314.261 518.98 307.171 516.801C306.072 516.463 306.887 516.599 306.821 516.567C305.745 516.052 304.945 516.072 304.584 515.971C301.729 515.164 299.184 514.064 297.194 513.669C285.439 509.323 274.086 503.893 263.768 496.95C263.637 496.862 263.943 496.909 263.681 496.734C260.541 494.607 261.052 495.163 258.838 493.941C258.28 493.632 256.873 492.285 256.749 492.167C256.291 491.743 256.922 491.965 256.762 491.832C255.441 490.732 255.3 491.402 253.439 490.013C253.382 489.968 253.694 490.06 253.545 489.934C253.083 489.542 252.577 489.215 252.132 488.824C251.114 487.923 250.918 487.396 249.198 486.24C248.981 486.092 249.066 486.624 247.475 485.296C246.835 484.773 244.045 482.407 243.298 481.704C242.547 481.009 243.148 481.39 243.097 481.338C241.141 479.392 241.963 480.04 241.094 478.949C240.231 477.854 240.156 478.497 239.704 478.156C239.25 477.816 237.873 476.332 237.55 475.954C237.224 475.577 237.717 475.957 237.419 475.632C235.447 473.473 236.321 474.918 235.578 474.299C233.832 472.827 232.884 471.277 231.498 469.73C231.123 469.311 231.37 469.708 231.024 469.346C229.657 467.905 228.951 466.938 227.388 465.306C227.132 465.04 225.765 463.802 225.144 462.78C225.056 462.635 225.434 462.94 224.912 462.274C224.131 461.281 222.726 459.493 221.871 458.438C221.238 457.66 221.813 458.668 221.083 457.636C220.76 457.177 221.465 457.947 220.853 457.088C220.24 456.236 218.648 454.086 218.056 453.256C217.462 452.43 217.687 452.953 217.632 452.891C217.303 452.515 216.136 450.944 216.04 450.8C211.093 443.622 207.229 436.552 203.457 428.961C203.161 428.364 203.24 428.819 203.193 428.728C202.162 426.698 203.241 428.171 202.666 426.687C202.529 427.004 202.169 426.138 201.482 424.688C201.152 423.988 201.233 424.413 201.195 424.353C200.586 423.368 200.45 422.553 200.405 422.348C200.24 421.592 199.756 420.898 199.649 420.384C199.542 419.871 200.131 420.909 199.542 419.493C199.293 419.13 199.501 420.278 199.022 419.213C197.166 415.202 194.647 407.344 193.7 403.933C192.719 400.54 192.422 399.428 191.938 397.423C191.099 393.805 191.254 395.168 190.652 392.932C190.068 390.68 190.749 391.689 190.77 391.343C190.794 391.003 190.623 390.674 190.592 390.264C190.56 389.856 190.802 390.703 190.628 389.764C190.45 388.832 189.799 386.312 189.644 385.995C189.312 385.328 189.291 386.529 188.939 384.021C188.919 383.877 189.112 384.323 189.032 383.772C188.39 379.396 187.821 374.833 187.527 370.446C187.487 369.842 187.662 370.37 187.641 370.019C187.439 366.354 187.326 367.678 186.957 365.675C187.31 366.111 187.422 364.976 187.318 362.209C187.262 360.54 187.133 360.832 187.007 359.75C186.968 359.426 187.046 358.236 186.978 358.021C186.768 357.352 186.54 358.317 186.589 356C186.592 355.86 186.597 355.709 186.603 355.544C186.608 355.417 186.725 355.821 186.734 355.383C186.803 352.556 186.58 352.225 186.662 349.17C186.725 346.772 187.142 342.536 187.436 339.834C187.789 339.926 187.964 337.365 187.842 336.299C188.058 334.545 188.296 332.658 188.585 330.97C188.685 330.391 188.731 330.789 188.754 330.717C189.1 329.622 188.984 328.829 189.037 328.452C189.627 324.358 190.479 321.097 191.207 317.222C191.233 317.085 191.037 316.807 191.468 315.823C191.497 315.761 191.296 317.054 191.75 315.253C192.204 313.451 193.245 310.117 193.884 307.621C194.036 307.017 194.304 305.45 194.85 304.293C194.923 304.14 194.934 304.337 195.048 304.119C195.415 303.412 195.307 302.923 195.81 302.119C196.313 301.317 197.088 299.556 197.862 297.082C197.887 297.004 197.913 296.358 198.211 295.6C198.686 294.385 199.416 292.686 199.942 291.435C200.194 290.835 199.916 291.17 199.958 291.065C201.609 287.006 203.019 284.218 205.184 280.063C205.58 279.3 206.575 277.03 207.5 275.639C208.52 274.115 208.122 276.038 210.078 272.339C210.875 270.857 211.304 268.6 213.284 266.252C216.382 261.228 219.725 256.904 223.287 252.186C223.448 251.973 223.803 251.179 224.201 250.695C224.791 249.977 225.195 249.649 225.624 249.144C227.428 247.029 229.039 245.058 230.861 243.09C231.554 242.345 231.389 242.677 232.221 241.795C233.056 240.916 233.512 240.233 234.71 239.104C235.616 238.254 236.692 237.577 237.893 236.455C237.744 236.211 238.553 235.422 239.97 233.994C240.243 233.719 239.873 233.931 239.999 233.798C240.51 233.252 241.071 232.845 241.557 232.329C241.676 232.203 241.617 232.127 241.711 232.021C242.501 231.109 244.127 229.969 244.407 229.777C245.48 229.035 245.861 228.549 246.659 227.952C247.456 227.358 246.362 228.363 247.274 227.647C249.163 226.161 251.568 224.232 253.519 222.768C254.297 222.184 253.69 222.481 253.8 222.395C255.389 221.159 257.123 220.083 257.89 219.233C259.412 218.975 258.84 218.474 261.305 216.973C261.5 216.856 261.911 216.955 261.214 217.477C260.518 217.998 259.374 218.66 258.429 219.411C258.203 219.587 257.041 220.771 256.872 220.917C255.54 222.05 255.07 221.829 254.979 221.862C253.969 222.262 252.567 223.724 252.166 224.064C250.324 225.615 248.696 226.851 247.197 228.196C246.219 229.077 246.32 229.394 245.532 230.058C242.927 232.28 241.75 232.776 239.646 235.26C239.2 235.796 239.921 235.553 237.959 237.091C237.835 237.186 236.352 238.309 235.713 239.175C235.633 239.284 235.705 239.349 235.587 239.48C234.797 240.36 234.194 240.872 233.336 241.831C232.478 242.79 231.469 243.962 230.463 245.032C229.857 245.677 228.971 246.409 228.659 246.7C227.774 247.519 227.101 248.634 226.507 249.103C225.907 249.578 226.665 248.3 225.329 249.749C225.477 249.966 225.571 250.259 225.692 250.51C222.957 253.82 220.33 257.139 217.863 260.673C217.558 261.112 217.982 260.742 217.659 261.214C216.297 263.21 215.047 264.91 213.733 267.047C212.719 268.698 211.732 270.588 210.741 272.354C209.864 273.272 208.459 275.943 207.414 277.858C207.046 278.529 207.002 278.448 206.726 278.919C205.694 280.7 206.367 279.963 206.144 280.482C205.206 282.712 204.593 282.636 203.379 285.224C203.312 285.362 202.816 287.164 202.731 287.404C202.182 288.926 202.523 287.603 202.089 288.516C201.303 290.188 200.728 291.339 199.992 293.378C199.777 293.972 199.392 295.451 198.817 296.541C198.742 296.684 198.678 296.565 198.626 296.684C197.701 298.847 197.988 299.02 197.635 300.319C197.283 301.619 196.415 303.506 196.224 303.89C195.722 304.888 196.423 303.064 196.429 303.003C196.471 302.276 196.016 303.719 195.646 304.818C195.294 304.88 194.823 306.435 195.266 305.958C195.315 305.903 195.56 305.035 195.646 304.818C195.625 305.883 195.131 307.578 194.306 309.384C193.924 310.231 193.998 309.35 193.307 312.06C193.001 313.291 193.337 312.874 193.109 313.97C192.59 316.478 191.641 319.654 191.142 322.251C190.962 323.188 191.264 322.301 191.146 322.942C190.836 324.643 190.468 326.131 190.219 327.857C190.197 328.013 190.383 327.655 190.295 328.187C189.633 332.227 189.081 335.76 188.667 340.023C188.46 342.078 188.262 345.778 188.155 347.915C188.016 350.457 187.855 353.368 187.816 356C187.797 357.225 187.802 358.377 187.836 359.386C187.911 361.457 188.029 360.998 188.141 361.88C188.355 363.572 188.237 366.615 188.224 367.028C188.222 367.041 188.085 365.259 188.079 366.215C187.98 366.777 188.222 367.008 188.224 367.028C188.203 367.3 188.449 370.851 188.548 371.548C188.596 371.928 188.693 371.703 188.716 371.902C189.272 376.636 189.95 381.331 190.766 386.093C190.779 386.177 190.627 386.075 190.659 386.272C191.111 389.023 191.639 390.747 192.239 392.972C192.844 395.196 193.258 396.955 193.388 398.337C193.855 400.016 194.44 402.441 194.797 403.83C195.153 405.22 195.461 405.332 195.502 405.452C196.843 409.167 197.439 411.346 198.864 415.183C199.538 417.009 201.022 420.548 201.903 422.464C202.592 423.977 202.952 424.912 203.633 426.281C203.725 426.466 203.739 426.229 203.77 426.284C204.62 427.767 204.021 427.145 204.126 427.485C204.517 428.713 204.774 429.476 205.841 431.39C206.087 431.833 207.117 432.954 207.57 433.751C208.159 434.789 207.818 434.459 208.447 435.542C208.501 435.635 208.567 435.574 208.938 436.251C210.659 439.395 212.618 442.772 214.65 445.896C214.927 446.322 214.69 445.699 215.093 446.313C216.983 449.188 219.146 452.292 221.102 455.017C221.583 455.689 221.195 455.333 221.279 455.494C221.799 456.484 222.96 457.566 223.122 457.765C227.009 462.524 229.913 466.246 234.319 470.711C234.558 470.957 236.584 472.643 237.252 473.63C237.298 473.698 237.953 474.687 238.806 475.28C238.859 475.317 238.425 474.727 239.324 475.61C240.224 476.493 241.759 477.818 242.955 479.079C243.333 479.477 244.138 480.526 245.503 481.453C245.591 481.517 247.79 482.826 248.296 483.626C248.378 483.756 248.053 483.909 249.672 485.017C249.982 485.227 249.499 484.747 250.292 485.329C251.508 486.22 253.029 487.516 254.595 488.514C254.869 488.69 256.094 489.337 256.89 490.113C257.015 490.235 256.687 490.129 257.152 490.479C259.363 492.145 261.798 493.725 264.117 495.311C264.94 495.871 264.419 495.741 265.272 496.337C266.123 496.935 267.888 498.074 268.861 498.562C269.835 499.051 268.953 498.213 270.364 499.02C276.516 502.514 282.697 505.803 289.198 508.594C290.163 509.005 289.399 508.581 290.822 509.171C296.06 511.402 305.404 514.447 310.127 515.885C313.915 517.072 309.056 515.907 311.973 516.75C313.383 517.153 314.988 517.215 315.334 517.286C318.703 517.981 321.028 518.604 324.076 519.121C324.706 519.227 324.112 518.989 324.649 519.079C326.478 519.384 328.419 519.754 330.165 519.994C330.953 520.101 330.821 519.984 331.545 520.091C333.278 520.342 334.815 520.568 336.513 520.839C336.669 520.863 335.605 520.875 336.902 521.014C338.985 521.237 341.576 521.544 344.008 521.593C344.727 521.606 344.778 521.389 346.301 521.616C346.622 521.661 346.198 521.918 347.999 521.754C348.303 521.731 351.323 521.502 352.808 521.706C353.042 521.739 353.491 521.833 354 521.894C354.347 521.935 354.721 521.962 355.072 521.945C355.189 521.939 354.718 521.822 355.436 521.805C357.968 521.745 360.596 521.677 363.177 521.498C363.869 521.449 362.831 521.383 363.862 521.312C366.704 521.119 370.191 520.848 372.966 520.566C373.984 520.464 373.294 520.647 373.369 520.65C374.58 520.692 375.251 520.356 375.642 520.291C378.071 519.884 379.94 519.716 382.183 519.303C382.801 519.189 382.342 519.148 382.463 519.117C383.721 518.793 382.807 519.168 383.618 519.046C385.888 518.705 388.394 518.188 390.661 517.659C391.492 517.464 390.527 517.544 391.272 517.37C395.67 516.338 400.226 515.097 404.453 513.823C405.251 513.582 404.784 513.842 404.957 513.812C406.151 513.605 407.74 512.824 408.112 512.671C409.812 511.975 410.504 511.822 412.022 511.24C419.414 508.427 428.305 504.332 434.821 500.683C443.314 495.939 449.657 491.765 456.942 486.004C457.403 485.636 456.85 485.897 457.246 485.578C462.354 481.458 467.206 477.17 471.803 472.466C472.18 472.079 471.54 472.54 472.14 471.917C473.371 470.637 474.922 469.01 476.164 467.713C476.77 467.08 476.062 468.024 476.669 467.384C478.082 465.894 479.54 464.242 480.882 462.612C481.452 461.918 480.479 462.87 481.226 461.974C486.302 455.861 490.851 449.509 495.215 442.762C495.513 442.299 496.003 442.03 496.559 440.997C496.539 440.882 496.459 440.841 496.409 440.766C502.296 430.806 507.22 420.398 510.976 409.411C511.133 408.947 510.724 409.702 511.028 408.805C512.776 403.602 514.185 398.466 515.575 393.042C515.711 392.502 515.903 392.84 516.216 391.224C516.275 390.938 516.744 388.506 516.806 387.872C516.814 387.785 516.611 388.204 516.758 387.423C517.615 382.877 518.35 378.096 518.904 373.492C518.993 372.749 519.038 373.555 519.102 373.025C519.553 369.306 519.729 365.16 519.958 361.59C520.108 359.183 520.3 360.08 520.542 358.797C520.578 358.616 520.599 357.112 520.724 357.034C521.042 356.836 521.384 357.57 521.724 357.272C521.8 357.21 521.725 355.176 521.899 356.38C521.912 356.465 521.961 357.939 522.014 358.302C522.051 358.555 522.186 358.101 522.232 358.617C522.276 359.134 522.159 359.697 522.198 360.551C522.236 361.404 522.398 361.035 522.353 362.735ZM196.521 410.072C196.84 411.371 197.328 411.406 196.756 410.084C196.728 410.02 196.504 410.005 196.521 410.072ZM220.118 256.949C218.921 258.233 218.468 259.374 219.309 258.468C220.151 257.567 220.483 256.56 220.118 256.949ZM231.525 242.95C230.031 244.347 230.29 245.011 231.664 243.318C231.744 243.22 231.612 242.869 231.525 242.95ZM520.401 364.752C520.409 364.731 520.467 363.662 520.461 363.636C520.346 363.059 520.232 365.2 520.401 364.752ZM244.27 230.331C243.732 230.683 242.43 231.978 243.092 231.532C243.622 231.17 244.937 229.89 244.27 230.331ZM231.62 469.54C231.629 469.561 232.153 470.131 232.17 470.093C232.222 469.972 231.464 469.208 231.62 469.54ZM268.938 212.445C265.064 214.737 262.478 215.797 266.685 213.231C267.449 212.773 265.139 214.383 266.129 213.827C267.936 212.812 268.951 211.822 270.877 210.917C271.223 210.751 269.156 212.312 268.931 212.45C268.933 212.448 268.935 212.446 268.938 212.445ZM196.262 410.974C196.265 411.001 196.615 412.013 196.63 412.035C196.957 412.533 196.251 410.497 196.262 410.974ZM266.266 498.377C266.308 498.423 268.432 499.726 268.509 499.753C269.738 500.226 265.45 497.599 266.266 498.377ZM187.449 339.792C187.417 338.618 187.553 337.21 187.841 336.304C187.696 337.459 187.57 338.633 187.449 339.792Z" fill="#00D1FF"/>
<path d="M147.914 416.084C149.899 419.511 153.318 423.33 156.344 425.81C157.264 426.57 156.854 426.118 157.502 426.632C158.766 427.622 160.033 428.602 161.34 429.439C161.784 429.722 161.309 429.253 161.774 429.55C164.368 431.2 166.806 432.597 169.651 433.94C183.406 440.285 198.185 442.87 213.249 444.117C218.244 444.52 224.304 444.671 229.464 444.77C230.072 444.782 229.709 444.889 229.824 444.899C231.637 445.053 231.061 444.825 232.212 444.798C236.811 444.687 242.022 444.537 246.493 444.355C248.415 444.276 246.498 444.596 248.431 444.369C248.565 444.353 248.069 444.263 248.598 444.221C249.776 444.129 251.989 444.009 252.908 443.934C254.67 443.791 254.964 443.77 256.648 443.635C258.964 443.446 261.592 443.148 264.06 442.923C264.584 442.876 263.903 443.067 264.741 443.001C265.579 442.937 267.808 442.683 268.522 442.572C269.253 442.46 268.929 442.401 269.057 442.365C270.102 442.063 272.668 442.004 272.999 441.967C279.016 441.314 284.06 440.416 289.597 439.496C293.804 438.796 298.332 438.017 302.307 437.23C307.114 436.276 311.034 435.379 315.675 434.347C316.163 434.238 315.622 434.506 316.219 434.372C322.474 432.972 328.726 431.415 334.892 429.679C335.514 429.503 334.677 429.597 335.297 429.415C339.123 428.299 344.971 426.393 347.401 426.243C349.98 425.472 353.03 424.535 355.29 423.727C356.742 423.207 355.271 423.519 357.099 423.014C357.511 422.9 357.015 423.178 357.631 422.997C360.247 422.228 362.984 421.314 365.543 420.541C366.061 420.384 365.954 420.531 366.106 420.502C367.381 420.247 369.346 419.322 369.786 419.154C373.12 417.887 375.574 417.098 378.715 415.987C379.443 415.728 378.629 416.167 379.332 415.923C382.995 414.647 386.677 413.288 390.199 411.895C390.98 411.586 390.214 411.744 390.585 411.591C391.615 411.164 392.175 411.034 392.84 410.834C393.232 410.716 393.661 410.574 394.242 410.331C394.573 410.193 394.347 410.168 394.404 410.134C395.293 409.6 396.211 409.516 396.458 409.426C399.581 408.292 401.434 407.27 404.411 406.106C404.769 405.966 404.014 406.415 405.019 406.013C411.691 403.343 418.664 400.318 425.054 397.324C426.057 396.854 425.296 397.089 425.354 397.049C426.314 396.407 427.088 396.335 427.421 396.194C430.044 395.075 432.35 393.764 434.213 393.222C445.054 387.994 455.797 382.697 466.07 376.674C466.202 376.597 465.902 376.62 466.165 376.467C469.324 374.621 468.803 375.133 471.012 374.152C471.569 373.905 473.015 372.74 473.143 372.641C473.615 372.278 472.992 372.422 473.155 372.311C474.509 371.389 474.607 372.049 476.534 370.919C476.593 370.882 476.283 370.933 476.438 370.828C476.923 370.502 477.443 370.247 477.911 369.924C478.982 369.182 479.227 368.688 481.005 367.82C481.229 367.71 481.088 368.208 482.761 367.172C483.439 366.754 486.45 364.903 487.264 364.362C488.083 363.823 487.453 364.084 487.509 364.043C489.661 362.513 488.781 362.992 489.773 362.101C490.76 361.211 490.736 361.849 491.217 361.611C491.705 361.369 493.285 360.201 493.66 359.905C494.037 359.608 493.498 359.873 493.841 359.621C496.107 357.948 495.017 359.163 495.836 358.724C497.772 357.683 498.915 356.447 500.574 355.273C501.019 354.958 500.701 355.282 501.107 355.015C502.708 353.959 503.584 353.207 505.412 352.062C505.717 351.871 507.249 351.077 508.089 350.264C508.207 350.149 507.775 350.339 508.43 349.843C509.408 349.103 511.169 347.798 512.232 347.053C513.016 346.504 512.229 347.285 513.168 346.529C513.583 346.193 512.733 346.707 513.518 346.082C514.286 345.472 516.363 343.911 517.145 343.313C517.927 342.719 517.574 343.142 517.642 343.1C518.054 342.846 519.571 341.745 519.7 341.643C526.303 336.51 532.067 331.396 538.104 325.918C538.577 325.487 538.351 325.871 538.424 325.806C540.06 324.357 538.57 325.281 539.599 324.16C539.617 324.499 540.242 323.852 541.354 322.825C541.903 322.317 541.68 322.671 541.736 322.631C542.65 321.964 543.063 321.281 543.177 321.113C543.598 320.493 544.285 320.058 544.566 319.638C544.845 319.219 543.94 319.919 544.979 318.881C545.335 318.654 544.739 319.599 545.552 318.836C548.652 315.975 553.871 309.964 555.995 307.336C558.125 304.754 558.864 303.823 560.031 302.265C562.109 299.435 561.496 300.537 562.878 298.784C564.247 297.01 563.248 297.64 563.357 297.324C563.459 297.013 563.734 296.791 563.91 296.443C564.085 296.097 563.56 296.745 564.056 295.99C564.537 295.267 566.086 293.219 566.336 293.001C566.88 292.533 566.478 293.607 567.689 291.511C567.757 291.391 567.423 291.712 567.69 291.254C569.823 287.599 571.912 283.659 573.49 279.765C573.704 279.236 573.385 279.654 573.507 279.346C574.778 276.015 574.492 277.272 575.389 275.541C574.936 275.816 575.128 274.846 575.911 272.225C576.354 270.677 576.408 270.983 576.762 270.008C576.868 269.718 577.027 268.603 577.136 268.401C577.481 267.772 577.544 268.881 577.946 266.121C577.961 266 577.78 266.361 577.842 265.947C578.191 263.307 578.478 262.929 578.64 260.012C578.779 257.686 578.353 253.571 577.744 251.006C577.413 251.128 576.941 248.722 576.854 247.688C576.639 247.012 576.399 246.317 576.135 245.63C575.766 244.664 575.351 243.72 574.913 242.862C574.653 242.358 574.722 242.739 574.681 242.68C574.038 241.783 573.887 241.028 573.712 240.702C571.783 237.2 569.567 234.782 566.972 232.004C566.879 231.908 566.902 231.567 566.02 231.013C565.962 230.979 566.823 231.909 565.479 230.713C564.151 229.523 561.411 227.575 559.371 226.144C558.895 225.798 557.706 224.815 556.556 224.347C556.406 224.286 556.522 224.436 556.301 224.357C555.588 224.102 555.351 223.679 554.46 223.454C553.549 223.221 551.894 222.545 549.651 221.397C549.581 221.362 549.131 220.943 548.408 220.644C547.25 220.163 545.575 219.559 544.354 219.121C543.765 218.909 544.184 218.926 544.083 218.887C540.132 217.425 537.219 216.691 532.833 215.676C532.041 215.491 529.728 214.794 528.155 214.622C526.409 214.436 528.043 215.351 524.129 214.501C522.558 214.171 520.62 213.062 517.677 213.085C512.079 212.257 506.807 212.031 501.151 211.622C500.89 211.603 500.095 211.349 499.501 211.33C498.615 211.3 498.122 211.387 497.485 211.374C494.78 211.324 492.398 211.204 489.786 211.218C488.806 211.224 489.155 211.328 487.995 211.341C486.836 211.356 486.059 211.225 484.469 211.322C483.262 211.398 482.111 211.71 480.526 211.796C480.46 211.519 479.361 211.557 477.428 211.568C477.059 211.569 477.45 211.455 477.275 211.45C476.564 211.432 475.91 211.544 475.23 211.524C475.064 211.519 475.052 211.424 474.916 211.415C473.766 211.332 471.858 211.662 471.551 211.72C470.328 211.94 469.74 211.855 468.792 211.978C467.844 212.103 469.272 212.07 468.163 212.184C465.836 212.423 462.931 212.653 460.573 212.883C459.636 212.974 460.263 212.786 460.129 212.796C458.205 212.948 456.287 213.289 455.186 213.154C453.922 213.958 454.002 213.216 451.289 213.672C451.075 213.708 450.839 214.05 451.671 213.996C452.501 213.943 453.739 213.701 454.911 213.642C455.188 213.628 456.784 213.749 456.998 213.745C458.678 213.708 458.863 213.225 458.949 213.19C459.907 212.816 461.883 212.947 462.382 212.925C464.695 212.817 466.636 212.597 468.584 212.528C469.85 212.484 469.993 212.78 470.977 212.706C474.262 212.47 475.41 211.985 478.517 212.222C479.191 212.275 478.543 212.628 480.924 212.285C481.074 212.262 482.835 211.97 483.852 212.1C483.982 212.117 483.98 212.214 484.151 212.218C485.3 212.247 486.06 212.158 487.296 212.182C488.528 212.207 490.007 212.258 491.434 212.234C492.289 212.219 493.38 212.051 493.786 212.014C494.922 211.903 496.172 212.142 496.89 212.008C497.617 211.874 496.213 211.595 498.108 211.553C498.169 211.807 498.321 212.071 498.424 212.329C502.533 212.461 506.636 212.628 510.727 213.017C511.236 213.066 510.7 213.152 511.253 213.21C513.597 213.456 515.563 213.579 517.981 213.938C519.815 214.212 521.822 214.658 523.729 215.02C524.918 214.924 527.802 215.555 529.812 215.969C530.541 216.118 530.509 216.033 531.029 216.123C532.979 216.474 532.015 216.517 532.531 216.679C534.701 217.384 535.095 216.881 537.701 217.626C537.829 217.66 539.457 218.463 539.681 218.556C541.121 219.136 539.96 218.529 540.887 218.799C542.545 219.292 543.793 219.641 545.667 220.448C546.21 220.682 547.518 221.403 548.637 221.722C548.785 221.764 548.747 221.638 548.863 221.681C550.95 222.483 550.892 222.827 551.985 223.469C553.059 224.103 554.941 224.861 555.307 224.999C556.299 225.363 554.642 224.548 554.594 224.51C554.091 224.024 555.359 224.731 556.307 225.264C556.609 225.07 557.941 225.889 557.312 225.838C557.243 225.83 556.511 225.363 556.307 225.264C557.019 226.029 558.404 226.901 560.125 227.734C560.918 228.132 560.358 227.495 562.455 229.133C563.403 229.902 562.901 229.78 563.686 230.496C565.472 232.125 567.871 234.193 569.42 236.149C569.984 236.861 569.336 236.249 569.714 236.738C570.701 238.033 571.606 239.174 572.413 240.597C572.485 240.726 572.194 240.479 572.453 240.917C573.461 242.642 574.276 244.31 574.971 246.074C575.616 247.717 576.147 249.429 576.54 251.326C576.973 253.232 577.248 256.691 577.224 258.733C577.28 262.209 576.813 266.552 576.026 269.491C575.525 271.371 575.498 270.928 575.191 271.715C574.592 273.272 573.923 276.02 573.813 276.412C573.815 276.423 574.417 274.845 574.171 275.714C574.116 276.253 573.82 276.395 573.813 276.412C573.771 276.665 572.502 279.858 572.198 280.428C572.037 280.754 572.013 280.521 571.932 280.692C569.938 284.843 567.703 288.761 565.266 292.657C565.224 292.727 565.401 292.694 565.3 292.859C563.845 295.209 562.801 296.42 561.41 298.188C560.001 299.969 559.009 301.306 558.372 302.485C557.33 303.776 555.851 305.742 555.036 306.798C554.201 307.881 553.876 307.862 553.795 307.95C551.166 310.743 549.863 312.394 547.142 315.29C545.824 316.695 543.269 319.221 541.762 320.641C540.577 321.762 539.942 322.451 538.852 323.425C538.705 323.557 538.772 323.338 538.725 323.376C537.442 324.394 538.202 324.06 537.99 324.327C537.212 325.295 536.721 325.885 535.077 327.256C534.684 327.584 533.398 328.199 532.72 328.766C531.842 329.498 532.262 329.321 531.333 330.086C531.253 330.151 531.212 330.071 530.651 330.561C528.003 332.875 525.225 335.255 522.377 337.529C521.99 337.839 522.398 337.332 521.837 337.777C519.243 339.831 516.382 342.05 513.8 344.068C513.18 344.553 513.634 344.336 513.514 344.461C512.78 345.232 511.421 345.917 511.218 346.06C506.332 349.491 502.8 352.251 497.689 355.558C497.417 355.735 495.171 356.902 494.352 357.719C494.296 357.775 493.492 358.591 492.567 358.995C492.509 359.02 493.031 358.534 492.01 359.211C490.978 359.896 489.304 360.871 487.971 361.874C487.549 362.191 486.622 363.061 485.175 363.734C485.081 363.778 482.77 364.697 482.173 365.41C482.077 365.525 482.366 365.723 480.685 366.553C480.362 366.711 480.882 366.315 480.052 366.764C478.781 367.452 477.174 368.511 475.554 369.3C475.272 369.437 474.013 369.927 473.165 370.607C473.034 370.713 473.357 370.648 472.882 370.937C470.622 372.313 468.159 373.632 465.81 375.025C464.977 375.518 465.493 375.427 464.632 375.957C463.765 376.49 462.043 377.485 461.083 377.917C460.126 378.347 461.002 377.563 459.612 378.29C453.523 381.467 447.602 384.69 441.5 387.714C440.595 388.161 441.305 387.706 439.966 388.358C435.002 390.79 426.379 394.689 422.099 396.8C418.682 398.496 423.121 396.669 420.482 397.91C419.207 398.508 417.679 398.828 417.362 398.954C414.253 400.192 412.2 401.216 409.426 402.328C408.853 402.558 409.362 402.206 408.875 402.403C407.21 403.072 405.481 403.843 403.877 404.482C403.158 404.768 403.251 404.624 402.602 404.895C401.045 405.54 399.672 406.131 398.169 406.821C398.032 406.884 399.022 406.626 397.857 407.089C396.206 407.744 394.219 408.59 392.252 409.292C391.972 409.392 391.692 409.489 391.414 409.582C390.753 409.803 390.648 409.604 389.304 410.275C389.022 410.415 389.49 410.528 387.781 410.918C387.493 410.986 384.652 411.703 383.383 412.377C383.048 412.556 382.221 413.09 381.43 413.338C381.322 413.371 381.707 413.105 381.054 413.327C378.736 414.118 376.329 414.979 373.959 415.757C373.326 415.964 374.223 415.523 373.281 415.836C370.706 416.689 367.454 417.813 364.923 418.68C363.99 419 364.67 418.887 364.606 418.919C363.565 419.451 362.841 419.425 362.473 419.529C360.19 420.173 358.501 420.828 356.38 421.454C355.797 421.626 356.174 421.386 356.055 421.412C354.827 421.684 355.782 421.61 355.03 421.866C352.925 422.582 350.561 423.283 348.422 423.896C347.625 424.124 348.481 423.731 347.766 423.937C343.514 425.157 339.212 426.374 335.066 427.558C334.289 427.78 334.807 427.751 334.65 427.817C333.572 428.278 331.876 428.485 331.494 428.561C329.758 428.908 329.119 429.166 327.609 429.529C320.14 431.331 310.984 433.461 303.918 434.905C294.731 436.783 287.553 438.115 278.668 439.355C278.108 439.432 278.653 439.215 278.17 439.279C271.875 440.124 265.686 440.897 259.381 441.418C258.867 441.461 259.595 441.264 258.771 441.327C257.094 441.454 254.869 441.638 253.156 441.8C252.316 441.879 253.452 441.914 252.607 441.991C250.634 442.169 248.563 442.303 246.489 442.385C245.618 442.418 246.924 442.219 245.794 442.272C238.231 442.617 230.564 442.678 222.912 442.561C222.374 442.552 221.889 442.809 220.756 442.703C220.674 442.622 220.683 442.533 220.65 442.45C209.535 441.859 198.515 440.645 187.777 437.927C187.327 437.812 188.155 437.876 187.26 437.644C182.113 436.292 177.42 434.701 172.409 432.625C171.928 432.421 172.055 432.772 170.687 432.082C170.424 431.96 168.308 430.86 167.814 430.518C167.747 430.471 168.176 430.569 167.518 430.208C163.676 428.097 159.859 425.502 156.649 422.573C156.129 422.096 156.585 422.706 156.215 422.366C153.616 419.985 151.248 416.85 149.492 413.967C148.333 412.022 148.547 412.854 147.812 411.856C147.703 411.716 147.123 410.413 146.984 410.388C146.617 410.331 146.569 411.116 146.146 410.98C146.044 410.957 145.397 409.079 145.659 410.238C145.672 410.322 146.173 411.674 146.274 412.019C146.339 412.262 146.035 411.908 146.2 412.391C146.368 412.874 146.706 413.33 147.045 414.101C147.393 414.869 147.066 414.625 147.914 416.084ZM551.142 311.668C550.385 312.684 549.928 312.519 550.924 311.583C550.973 311.538 551.182 311.616 551.142 311.668ZM506.606 212.329C508.305 212.253 509.414 212.643 508.228 212.698C507.041 212.757 506.088 212.353 506.606 212.329ZM489.255 211.612C491.223 211.455 491.535 212.093 489.423 211.963C489.303 211.956 489.142 211.622 489.255 211.612ZM150.591 416.799C150.573 416.789 149.996 415.935 149.991 415.91C149.808 415.378 150.953 417.079 150.591 416.799ZM472.015 212.019C472.629 211.894 474.401 211.894 473.644 212.044C473.035 212.163 471.261 212.172 472.015 212.019ZM500.496 355.062C500.483 355.079 499.864 355.506 499.856 355.466C499.83 355.337 500.714 354.778 500.496 355.062ZM442.87 215.019C447.154 214.393 449.675 213.547 445.022 214.225C444.18 214.35 446.862 214.145 445.796 214.337C443.844 214.688 442.487 214.546 440.486 215.02C440.125 215.105 442.628 215.054 442.878 215.019C442.875 215.019 442.873 215.019 442.87 215.019ZM551.053 312.569C551.041 312.591 550.356 313.347 550.334 313.361C549.856 313.671 551.236 312.15 551.053 312.569ZM463.595 377.901C463.554 377.94 461.472 379.089 461.396 379.116C460.196 379.505 464.404 377.181 463.595 377.901ZM577.726 250.968C577.64 249.833 577.3 248.5 576.856 247.693C577.2 248.765 577.487 249.866 577.726 250.968Z" fill="#00D1FF"/>
<path d="M418.033 162.827C421.558 164.632 425.549 167.848 428.182 170.742C428.989 171.622 428.517 171.235 429.064 171.856C430.117 173.067 431.161 174.282 432.065 175.543C432.371 175.972 431.878 175.523 432.199 175.971C433.98 178.477 435.502 180.839 436.99 183.611C444.038 197.019 447.385 211.644 449.41 226.623C450.07 231.591 450.535 237.636 450.901 242.784C450.944 243.39 451.032 243.022 451.048 243.136C451.296 244.939 451.038 244.376 451.071 245.526C451.198 250.125 451.318 255.337 451.367 259.811C451.387 261.734 451.608 259.803 451.481 261.746C451.472 261.881 451.357 261.39 451.342 261.92C451.311 263.101 451.306 265.318 451.279 266.239C451.227 268.006 451.221 268.301 451.173 269.989C451.104 272.312 450.943 274.952 450.846 277.428C450.826 277.955 450.982 277.264 450.959 278.104C450.938 278.944 450.801 281.183 450.726 281.902C450.652 282.638 450.577 282.318 450.547 282.447C450.299 283.507 450.374 286.073 450.354 286.405C450.013 292.447 449.377 297.532 448.745 303.109C448.263 307.346 447.72 311.909 447.139 315.919C446.435 320.768 445.743 324.73 444.952 329.418C444.869 329.911 445.108 329.357 445.005 329.96C443.931 336.279 442.699 342.603 441.284 348.851C441.141 349.481 441.192 348.641 441.042 349.269C440.125 353.147 438.525 359.087 438.5 361.521C437.864 364.137 437.086 367.23 436.396 369.529C435.952 371.007 436.188 369.522 435.778 371.373C435.685 371.791 435.937 371.28 435.788 371.905C435.156 374.558 434.384 377.338 433.745 379.933C433.615 380.459 433.756 380.345 433.735 380.498C433.547 381.784 432.725 383.795 432.579 384.243C431.487 387.638 430.826 390.129 429.878 393.324C429.658 394.064 430.054 393.229 429.847 393.943C428.762 397.667 427.595 401.414 426.387 405.004C426.118 405.8 426.237 405.027 426.102 405.405C425.73 406.456 425.629 407.022 425.464 407.697C425.366 408.094 425.246 408.529 425.034 409.122C424.913 409.46 424.876 409.236 424.845 409.294C424.358 410.21 424.321 411.131 424.244 411.382C423.273 414.56 422.349 416.464 421.341 419.496C421.219 419.861 421.628 419.084 421.278 420.108C418.957 426.91 416.298 434.03 413.638 440.566C413.221 441.592 413.416 440.82 413.379 440.88C412.788 441.872 412.756 442.649 412.632 442.988C411.651 445.666 410.461 448.036 410.015 449.925C405.356 461.022 400.621 472.025 395.138 482.596C395.068 482.731 395.075 482.43 394.936 482.701C393.256 485.951 393.741 485.404 392.875 487.662C392.657 488.231 391.569 489.735 391.476 489.868C391.138 490.358 391.25 489.728 391.147 489.897C390.296 491.297 390.961 491.361 389.932 493.343C389.899 493.405 389.933 493.092 389.837 493.253C389.536 493.753 389.309 494.286 389.01 494.77C388.324 495.878 387.844 496.148 387.069 497.968C386.971 498.198 387.461 498.032 386.512 499.756C386.13 500.455 384.438 503.557 383.94 504.398C383.443 505.244 383.672 504.601 383.633 504.66C382.216 506.888 382.65 505.984 381.811 507.021C380.973 508.053 381.609 507.995 381.396 508.488C381.18 508.988 380.095 510.626 379.818 511.016C379.541 511.408 379.779 510.856 379.544 511.212C377.991 513.562 379.148 512.41 378.752 513.251C377.812 515.238 376.638 516.443 375.551 518.161C375.26 518.621 375.566 518.287 375.321 518.706C374.349 520.36 373.644 521.274 372.594 523.158C372.42 523.473 371.706 525.044 370.937 525.925C370.829 526.048 370.996 525.608 370.535 526.287C369.846 527.303 368.634 529.129 367.946 530.228C367.438 531.04 368.177 530.214 367.47 531.19C367.156 531.623 367.626 530.747 367.042 531.563C366.472 532.362 365.021 534.516 364.465 535.329C363.912 536.14 364.316 535.766 364.278 535.836C364.045 536.26 363.024 537.833 362.929 537.966C358.144 544.826 353.335 550.847 348.177 557.159C347.772 557.654 348.143 557.409 348.082 557.485C346.72 559.193 347.565 557.658 346.499 558.744C346.838 558.744 346.224 559.402 345.256 560.565C344.777 561.14 345.119 560.899 345.083 560.957C344.463 561.904 343.803 562.352 343.641 562.475C343.043 562.927 342.645 563.636 342.24 563.937C341.836 564.238 342.488 563.298 341.505 564.389C341.297 564.756 342.21 564.113 341.49 564.964C338.793 568.208 333.061 573.731 330.546 575.988C328.077 578.248 327.186 579.035 325.69 580.281C322.971 582.502 324.04 581.833 322.361 583.304C320.66 584.763 321.238 583.733 320.928 583.858C320.623 583.976 320.415 584.262 320.077 584.456C319.741 584.649 320.36 584.091 319.632 584.625C318.935 585.143 316.97 586.796 316.765 587.056C316.326 587.624 317.378 587.167 315.347 588.485C315.23 588.559 315.534 588.209 315.091 588.499C311.551 590.819 307.724 593.109 303.917 594.886C303.399 595.127 303.801 594.786 303.499 594.924C300.238 596.366 301.479 596.016 299.796 597.001C300.048 596.534 299.089 596.776 296.512 597.694C294.989 598.216 295.297 598.255 294.343 598.658C294.058 598.78 292.953 598.996 292.757 599.115C292.147 599.493 293.257 599.497 290.521 600.042C290.402 600.063 290.753 599.864 290.342 599.947C287.724 600.433 287.362 600.738 284.456 601.051C282.141 601.31 278.009 601.098 275.417 600.623C275.521 600.286 273.094 599.939 272.057 599.905C271.37 599.725 270.664 599.522 269.964 599.294C268.98 598.975 268.016 598.609 267.137 598.217C266.62 597.983 267.005 598.033 266.943 597.994C266.014 597.398 265.253 597.287 264.917 597.129C261.32 595.384 258.791 593.296 255.883 590.848C255.782 590.76 255.443 590.801 254.844 589.949C254.807 589.893 255.78 590.704 254.516 589.424C253.259 588.159 251.172 585.524 249.637 583.56C249.267 583.103 248.223 581.967 247.697 580.842C247.629 580.695 247.784 580.804 247.694 580.587C247.403 579.888 246.968 579.673 246.697 578.795C246.416 577.897 245.656 576.279 244.394 574.099C244.355 574.031 243.913 573.604 243.577 572.897C243.037 571.765 242.347 570.124 241.846 568.927C241.604 568.35 241.643 568.768 241.599 568.668C239.935 564.799 239.051 561.927 237.81 557.6C237.584 556.818 236.768 554.544 236.515 552.983C236.239 551.249 237.238 552.833 236.186 548.968C235.776 547.416 234.567 545.538 234.438 542.598C233.322 537.05 232.823 531.797 232.122 526.17C232.09 525.91 231.795 525.129 231.745 524.537C231.67 523.654 231.73 523.157 231.685 522.521C231.495 519.823 231.252 517.45 231.13 514.841C231.086 513.862 231.208 514.205 231.161 513.046C231.116 511.888 230.944 511.119 230.96 509.526C230.973 508.316 231.225 507.151 231.229 505.564C230.949 505.511 230.93 504.412 230.84 502.481C230.823 502.113 230.729 502.509 230.715 502.335C230.66 501.626 230.738 500.967 230.683 500.288C230.67 500.123 230.574 500.116 230.558 499.981C230.415 498.836 230.646 496.914 230.688 496.604C230.845 495.371 230.73 494.789 230.804 493.835C230.879 492.882 230.92 494.311 230.977 493.196C231.095 490.86 231.174 487.948 231.282 485.581C231.324 484.64 231.169 485.277 231.172 485.142C231.224 483.213 231.465 481.28 231.274 480.187C232.011 478.883 231.275 479.001 231.589 476.269C231.615 476.053 231.944 475.799 231.933 476.633C231.923 477.465 231.745 478.713 231.747 479.887C231.747 480.164 231.95 481.752 231.958 481.966C232.008 483.645 231.535 483.855 231.505 483.943C231.181 484.919 231.413 486.885 231.417 487.385C231.429 489.7 231.31 491.651 231.342 493.599C231.363 494.866 231.667 494.993 231.644 495.98C231.577 499.273 231.153 500.444 231.55 503.535C231.639 504.205 231.957 503.54 231.737 505.936C231.723 506.087 231.522 507.86 231.705 508.869C231.728 508.998 231.825 508.991 231.838 509.162C231.927 510.307 231.876 511.071 231.965 512.304C232.053 513.534 232.181 515.008 232.23 516.434C232.259 517.289 232.149 518.387 232.132 518.794C232.08 519.935 232.383 521.17 232.287 521.895C232.191 522.627 231.839 521.24 231.896 523.134C232.153 523.182 232.425 523.32 232.687 523.41C233.032 527.506 233.411 531.595 234.011 535.661C234.086 536.166 234.144 535.627 234.23 536.176C234.598 538.504 234.823 540.461 235.306 542.857C235.675 544.675 236.224 546.656 236.684 548.541C236.65 549.734 237.429 552.581 237.946 554.567C238.133 555.288 238.046 555.26 238.163 555.774C238.615 557.704 238.608 556.739 238.796 557.246C239.612 559.377 239.13 559.796 240.009 562.36C240.05 562.487 240.936 564.071 241.04 564.289C241.695 565.697 241.027 564.569 241.346 565.481C241.924 567.112 242.337 568.34 243.24 570.17C243.501 570.7 244.289 571.969 244.666 573.069C244.716 573.215 244.587 573.184 244.636 573.297C245.545 575.341 245.886 575.264 246.584 576.322C247.272 577.362 248.127 579.203 248.283 579.561C248.699 580.533 247.798 578.92 247.758 578.874C247.247 578.398 248.019 579.627 248.599 580.546C248.422 580.857 249.309 582.146 249.225 581.52C249.213 581.451 248.709 580.745 248.599 580.546C249.4 581.217 250.343 582.556 251.264 584.232C251.702 585.003 251.037 584.476 252.781 586.485C253.599 587.393 253.451 586.897 254.206 587.644C255.926 589.344 258.115 591.632 260.149 593.078C260.889 593.605 260.244 592.989 260.752 593.342C262.097 594.26 263.283 595.104 264.746 595.837C264.879 595.902 264.616 595.624 265.067 595.86C266.842 596.777 268.55 597.506 270.347 598.108C272.022 598.667 273.759 599.11 275.673 599.404C277.599 599.737 281.068 599.832 283.106 599.703C286.581 599.579 290.894 598.888 293.788 597.951C295.64 597.353 295.195 597.348 295.966 597.002C297.49 596.322 300.199 595.513 300.585 595.382C300.596 595.384 299.052 596.067 299.907 595.776C300.442 595.693 300.568 595.39 300.585 595.382C300.835 595.327 303.958 593.895 304.512 593.561C304.83 593.384 304.595 593.372 304.762 593.282C308.804 591.076 312.602 588.641 316.366 586.006C316.434 585.96 316.41 586.139 316.569 586.029C318.841 584.454 319.996 583.35 321.69 581.869C323.396 580.37 324.68 579.309 325.824 578.613C327.06 577.505 328.946 575.927 329.959 575.058C330.997 574.168 330.961 573.844 331.045 573.759C333.698 570.989 335.28 569.602 338.031 566.735C339.366 565.346 341.756 562.664 343.096 561.085C344.155 559.844 344.809 559.174 345.726 558.036C345.85 557.881 345.635 557.96 345.67 557.911C346.62 556.577 346.326 557.354 346.582 557.128C347.509 556.3 348.072 555.779 349.356 554.067C349.664 553.658 350.212 552.342 350.742 551.635C351.429 550.721 351.273 551.149 351.989 550.182C352.05 550.098 351.968 550.062 352.429 549.476C354.602 546.712 356.836 543.814 358.959 540.853C359.248 540.45 358.763 540.884 359.178 540.3C361.096 537.604 363.163 534.632 365.045 531.949C365.497 531.305 365.304 531.769 365.423 531.643C366.155 530.87 366.769 529.477 366.901 529.267C370.074 524.211 372.648 520.54 375.686 515.265C375.849 514.984 376.898 512.681 377.672 511.821C377.724 511.762 378.498 510.917 378.854 509.972C378.876 509.913 378.418 510.459 379.041 509.405C379.671 508.338 380.558 506.616 381.491 505.233C381.786 504.795 382.606 503.825 383.204 502.344C383.243 502.249 384.041 499.893 384.722 499.26C384.833 499.158 385.045 499.437 385.787 497.714C385.928 497.384 385.559 497.923 385.965 497.072C386.586 495.767 387.56 494.107 388.264 492.449C388.387 492.16 388.811 490.878 389.446 489.996C389.545 489.859 389.497 490.185 389.761 489.695C391.018 487.367 392.208 484.839 393.478 482.422C393.927 481.564 393.863 482.084 394.347 481.196C394.835 480.303 395.739 478.532 396.121 477.551C396.501 476.573 395.764 477.488 396.418 476.062C399.276 469.817 402.188 463.738 404.892 457.487C405.292 456.561 404.874 457.293 405.455 455.922C407.628 450.839 411.075 442.026 412.962 437.643C414.479 434.142 412.884 438.669 413.987 435.97C414.518 434.666 414.758 433.123 414.868 432.8C415.944 429.632 416.86 427.528 417.827 424.7C418.026 424.116 417.702 424.643 417.873 424.146C418.455 422.448 419.136 420.682 419.691 419.048C419.939 418.315 419.801 418.415 420.037 417.752C420.601 416.164 421.12 414.763 421.731 413.226C421.787 413.086 421.58 414.087 421.983 412.9C422.552 411.217 423.294 409.19 423.893 407.189C423.978 406.904 424.061 406.619 424.139 406.337C424.325 405.665 424.122 405.571 424.722 404.194C424.847 403.905 424.984 404.367 425.286 402.639C425.338 402.348 425.908 399.474 426.515 398.172C426.676 397.829 427.167 396.975 427.373 396.172C427.401 396.063 427.155 396.46 427.343 395.798C428.013 393.442 428.748 390.993 429.402 388.586C429.577 387.943 429.183 388.862 429.446 387.905C430.165 385.289 431.119 381.983 431.854 379.411C432.126 378.463 432.047 379.148 432.077 379.081C432.554 378.015 432.491 377.293 432.575 376.921C433.101 374.607 433.667 372.886 434.182 370.736C434.324 370.145 434.104 370.534 434.123 370.414C434.332 369.173 434.307 370.13 434.524 369.366C435.13 367.227 435.708 364.83 436.209 362.662C436.396 361.855 436.048 362.729 436.216 362.004C437.215 357.695 438.208 353.336 439.176 349.134C439.357 348.347 439.355 348.866 439.413 348.706C439.817 347.605 439.936 345.9 439.992 345.516C440.249 343.764 440.474 343.112 440.758 341.586C442.171 334.033 443.824 324.779 444.901 317.648C446.301 308.376 447.26 301.138 448.038 292.201C448.086 291.639 447.898 292.194 447.937 291.709C448.455 285.378 448.906 279.158 449.101 272.834C449.117 272.319 448.958 273.056 448.978 272.23C449.019 270.548 449.087 268.316 449.16 266.597C449.196 265.754 449.289 266.887 449.322 266.039C449.399 264.06 449.425 261.984 449.399 259.909C449.387 259.037 449.256 260.352 449.251 259.22C449.204 251.65 448.868 243.99 448.355 236.355C448.318 235.817 448.55 235.32 448.385 234.194C448.301 234.116 448.212 234.13 448.127 234.101C446.962 223.032 445.179 212.089 441.91 201.506C441.772 201.063 441.878 201.886 441.601 201.004C439.984 195.934 438.153 191.33 435.82 186.433C435.591 185.963 435.948 186.072 435.189 184.741C435.053 184.485 433.845 182.429 433.477 181.954C433.428 181.888 433.547 182.312 433.153 181.674C430.846 177.946 428.057 174.268 424.965 171.214C424.462 170.719 425.095 171.144 424.736 170.791C422.224 168.319 418.971 166.117 416.001 164.512C413.998 163.455 414.84 163.626 413.806 162.943C413.66 162.842 412.329 162.33 412.297 162.193C412.221 161.829 413.003 161.741 412.845 161.325C412.816 161.225 410.907 160.676 412.079 160.877C412.163 160.886 413.539 161.316 413.889 161.399C414.135 161.452 413.766 161.167 414.257 161.306C414.748 161.449 415.22 161.763 416.008 162.061C416.793 162.369 416.532 162.055 418.033 162.827ZM334.621 570.918C335.597 570.109 335.408 569.661 334.524 570.704C334.482 570.755 334.571 570.959 334.621 570.918ZM233.111 531.581C233.123 533.282 233.569 534.369 233.563 533.182C233.56 531.993 233.108 531.062 233.111 531.581ZM231.497 514.29C231.442 516.264 232.095 516.542 231.856 514.44C231.843 514.32 231.5 514.177 231.497 514.29ZM418.885 165.463C418.875 165.446 417.993 164.914 417.967 164.91C417.426 164.755 419.185 165.811 418.885 165.463ZM231.011 497.052C230.918 497.671 231.01 499.441 231.12 498.678C231.208 498.063 231.125 496.292 231.011 497.052ZM375.336 518.094C375.352 518.08 375.747 517.44 375.707 517.433C375.576 517.415 375.063 518.326 375.336 518.094ZM232.5 467.791C232.095 472.101 231.382 474.663 231.817 469.982C231.898 469.134 231.832 471.823 231.969 470.748C232.219 468.781 232.007 467.433 232.377 465.41C232.443 465.045 232.522 467.547 232.5 467.799C232.5 467.796 232.5 467.794 232.5 467.791ZM335.516 570.781C335.538 570.768 336.257 570.045 336.27 570.022C336.555 569.529 335.107 570.986 335.516 570.781ZM396.235 480.061C396.272 480.017 397.312 477.879 397.334 477.802C397.661 476.584 395.559 480.906 396.235 480.061ZM275.378 600.607C274.24 600.579 272.891 600.308 272.062 599.907C273.151 600.195 274.265 600.425 275.378 600.607Z" fill="#00D1FF"/>
<path d="M568.391 397.033C566.587 400.558 563.37 404.549 560.476 407.182C559.597 407.989 559.983 407.517 559.363 408.064C558.151 409.117 556.936 410.161 555.675 411.065C555.246 411.371 555.695 410.878 555.247 411.199C552.741 412.98 550.379 414.502 547.607 415.99C534.199 423.038 519.574 426.385 504.595 428.41C499.627 429.07 493.583 429.535 488.435 429.901C487.828 429.944 488.197 430.032 488.082 430.048C486.279 430.296 486.843 430.038 485.693 430.071C481.094 430.198 475.881 430.318 471.407 430.367C469.484 430.387 471.415 430.608 469.473 430.481C469.338 430.472 469.828 430.357 469.299 430.342C468.117 430.311 465.901 430.306 464.98 430.279C463.212 430.227 462.917 430.221 461.229 430.173C458.907 430.104 456.266 429.943 453.79 429.846C453.264 429.826 453.954 429.982 453.114 429.959C452.274 429.938 450.035 429.801 449.316 429.726C448.58 429.652 448.9 429.577 448.771 429.547C447.711 429.299 445.146 429.374 444.814 429.354C438.771 429.013 433.687 428.377 428.11 427.745C423.872 427.263 419.31 426.72 415.299 426.139C410.45 425.435 406.488 424.743 401.8 423.952C401.307 423.869 401.861 424.108 401.258 424.005C394.939 422.931 388.615 421.699 382.367 420.284C381.737 420.141 382.577 420.192 381.95 420.042C378.071 419.125 372.132 417.525 369.698 417.5C367.082 416.864 363.988 416.086 361.689 415.396C360.211 414.952 361.697 415.188 359.846 414.778C359.428 414.685 359.938 414.937 359.313 414.788C356.661 414.156 353.88 413.384 351.285 412.745C350.759 412.615 350.874 412.756 350.721 412.735C349.434 412.547 347.424 411.725 346.975 411.579C343.58 410.487 341.089 409.826 337.895 408.878C337.154 408.658 337.989 409.054 337.275 408.847C333.551 407.762 329.804 406.595 326.215 405.387C325.418 405.118 326.191 405.237 325.813 405.102C324.762 404.73 324.197 404.629 323.522 404.464C323.124 404.366 322.689 404.246 322.096 404.034C321.759 403.913 321.983 403.876 321.924 403.845C321.008 403.358 320.087 403.321 319.836 403.244C316.659 402.273 314.755 401.349 311.722 400.341C311.357 400.219 312.134 400.628 311.11 400.278C304.309 397.957 297.189 395.298 290.652 392.638C289.626 392.221 290.399 392.416 290.338 392.379C289.346 391.788 288.57 391.756 288.23 391.632C285.552 390.651 283.182 389.461 281.294 389.015C270.196 384.356 259.193 379.621 248.623 374.138C248.487 374.068 248.788 374.075 248.517 373.936C245.267 372.256 245.814 372.741 243.556 371.875C242.988 371.657 241.483 370.569 241.35 370.476C240.861 370.138 241.49 370.25 241.321 370.147C239.922 369.296 239.858 369.961 237.875 368.932C237.814 368.899 238.127 368.933 237.966 368.837C237.465 368.536 236.933 368.309 236.448 368.01C235.34 367.324 235.07 366.844 233.25 366.069C233.02 365.971 233.186 366.461 231.463 365.512C230.763 365.13 227.661 363.438 226.82 362.94C225.974 362.443 226.617 362.672 226.559 362.633C224.33 361.216 225.234 361.65 224.198 360.811C223.166 359.973 223.223 360.609 222.73 360.396C222.23 360.18 220.592 359.095 220.202 358.818C219.81 358.541 220.362 358.779 220.007 358.544C217.657 356.991 218.809 358.148 217.968 357.752C215.98 356.812 214.775 355.638 213.058 354.551C212.597 354.26 212.931 354.566 212.512 354.321C210.858 353.349 209.945 352.644 208.06 351.594C207.746 351.42 206.174 350.706 205.293 349.937C205.17 349.829 205.611 349.996 204.931 349.535C203.916 348.846 202.09 347.634 200.99 346.946C200.178 346.438 201.004 347.177 200.028 346.47C199.596 346.156 200.472 346.626 199.655 346.042C198.857 345.472 196.702 344.021 195.889 343.465C195.078 342.912 195.453 343.316 195.382 343.278C194.958 343.045 193.386 342.024 193.252 341.929C186.392 337.144 180.371 332.335 174.059 327.177C173.565 326.772 173.81 327.143 173.733 327.082C172.025 325.72 173.56 326.565 172.474 325.499C172.474 325.838 171.817 325.224 170.653 324.256C170.078 323.777 170.32 324.119 170.262 324.083C169.315 323.463 168.866 322.803 168.744 322.641C168.291 322.043 167.583 321.645 167.281 321.24C166.98 320.836 167.92 321.488 166.829 320.505C166.462 320.297 167.105 321.21 166.254 320.49C163.01 317.793 157.487 312.061 155.23 309.546C152.97 307.077 152.183 306.186 150.937 304.69C148.716 301.971 149.385 303.04 147.914 301.361C146.456 299.66 147.485 300.238 147.36 299.928C147.243 299.623 146.956 299.415 146.762 299.077C146.57 298.741 147.127 299.36 146.594 298.632C146.075 297.935 144.423 295.97 144.162 295.765C143.594 295.326 144.051 296.378 142.733 294.347C142.659 294.23 143.009 294.534 142.719 294.091C140.399 290.551 138.11 286.724 136.332 282.917C136.091 282.399 136.432 282.801 136.294 282.499C134.852 279.238 135.202 280.479 134.218 278.796C134.684 279.048 134.442 278.089 133.524 275.512C133.002 273.989 132.964 274.297 132.56 273.343C132.439 273.058 132.222 271.953 132.103 271.757C131.726 271.147 131.721 272.257 131.177 269.521C131.155 269.402 131.354 269.753 131.271 269.342C130.786 266.724 130.48 266.362 130.167 263.456C129.908 261.141 130.12 257.009 130.596 254.417C130.933 254.521 131.279 252.094 131.313 251.057C131.493 250.37 131.697 249.664 131.924 248.964C132.243 247.98 132.609 247.016 133.002 246.137C133.235 245.62 133.186 246.005 133.224 245.943C133.82 245.014 133.932 244.253 134.09 243.917C135.834 240.32 137.923 237.791 140.37 234.883C140.458 234.782 140.418 234.443 141.27 233.844C141.326 233.807 140.514 234.78 141.794 233.516C143.06 232.259 145.695 230.172 147.658 228.637C148.115 228.267 149.252 227.223 150.377 226.697C150.523 226.629 150.415 226.784 150.631 226.694C151.33 226.403 151.545 225.968 152.423 225.697C153.321 225.416 154.939 224.656 157.12 223.394C157.187 223.355 157.615 222.913 158.322 222.577C159.454 222.037 161.094 221.347 162.291 220.846C162.869 220.604 162.451 220.643 162.55 220.599C166.42 218.935 169.291 218.051 173.619 216.81C174.4 216.584 176.674 215.768 178.236 215.515C179.97 215.239 178.385 216.238 182.25 215.186C183.802 214.776 185.68 213.567 188.621 213.438C194.168 212.322 199.421 211.823 205.048 211.122C205.308 211.09 206.089 210.795 206.682 210.745C207.565 210.67 208.061 210.73 208.697 210.685C211.396 210.495 213.769 210.252 216.378 210.13C217.357 210.086 217.014 210.208 218.172 210.161C219.33 210.116 220.1 209.944 221.692 209.96C222.902 209.973 224.068 210.225 225.655 210.229C225.707 209.949 226.807 209.93 228.737 209.84C229.105 209.823 228.71 209.729 228.884 209.715C229.593 209.66 230.252 209.738 230.93 209.683C231.095 209.67 231.103 209.574 231.238 209.558C232.382 209.415 234.304 209.646 234.614 209.688C235.847 209.845 236.429 209.73 237.383 209.804C238.336 209.879 236.908 209.92 238.022 209.977C240.358 210.095 243.27 210.174 245.637 210.282C246.578 210.324 245.942 210.169 246.076 210.172C248.006 210.224 249.939 210.465 251.031 210.274C252.335 211.011 252.217 210.275 254.95 210.589C255.166 210.615 255.419 210.944 254.586 210.933C253.753 210.923 252.505 210.745 251.332 210.747C251.054 210.747 249.466 210.95 249.253 210.958C247.573 211.008 247.363 210.535 247.275 210.505C246.299 210.181 244.333 210.413 243.833 210.417C241.518 210.429 239.568 210.31 237.619 210.342C236.352 210.363 236.225 210.667 235.239 210.644C231.945 210.577 230.774 210.153 227.683 210.55C227.013 210.639 227.678 210.957 225.283 210.737C225.131 210.723 223.358 210.522 222.35 210.705C222.22 210.728 222.227 210.825 222.056 210.838C220.911 210.927 220.147 210.876 218.914 210.965C217.685 211.053 216.21 211.181 214.784 211.23C213.93 211.259 212.831 211.149 212.424 211.132C211.284 211.08 210.048 211.383 209.324 211.287C208.591 211.191 209.979 210.839 208.084 210.896C208.036 211.153 207.898 211.425 207.809 211.687C203.712 212.032 199.623 212.411 195.557 213.011C195.052 213.086 195.591 213.144 195.042 213.23C192.714 213.598 190.757 213.823 188.361 214.306C186.543 214.675 184.563 215.224 182.677 215.684C181.485 215.65 178.637 216.429 176.651 216.946C175.931 217.133 175.958 217.046 175.444 217.163C173.514 217.615 174.479 217.608 173.972 217.796C171.842 218.612 171.422 218.13 168.859 219.009C168.732 219.05 167.148 219.936 166.929 220.04C165.521 220.695 166.649 220.027 165.737 220.346C164.106 220.924 162.879 221.337 161.048 222.24C160.518 222.501 159.25 223.289 158.149 223.666C158.003 223.716 158.034 223.587 157.921 223.636C155.878 224.545 155.954 224.886 154.896 225.584C153.856 226.272 152.015 227.127 151.657 227.283C150.686 227.699 152.298 226.798 152.344 226.758C152.821 226.247 151.592 227.019 150.673 227.599C150.361 227.422 149.073 228.309 149.698 228.225C149.767 228.213 150.474 227.709 150.673 227.599C150.001 228.4 148.663 229.343 146.987 230.264C146.216 230.702 146.743 230.037 144.733 231.781C143.825 232.599 144.321 232.451 143.574 233.206C141.874 234.926 139.586 237.115 138.14 239.149C137.614 239.889 138.229 239.244 137.877 239.752C136.959 241.097 136.114 242.283 135.382 243.746C135.316 243.879 135.594 243.616 135.358 244.067C134.441 245.842 133.713 247.55 133.11 249.347C132.551 251.022 132.109 252.759 131.814 254.673C131.481 256.599 131.386 260.068 131.515 262.106C131.639 265.581 132.33 269.894 133.268 272.788C133.866 274.64 133.87 274.195 134.217 274.966C134.896 276.49 135.706 279.199 135.837 279.585C135.835 279.596 135.152 278.052 135.443 278.907C135.526 279.442 135.829 279.568 135.837 279.585C135.891 279.835 137.323 282.958 137.657 283.512C137.834 283.83 137.846 283.595 137.937 283.762C140.142 287.804 142.577 291.602 145.212 295.366C145.258 295.434 145.08 295.41 145.189 295.569C146.764 297.841 147.868 298.996 149.349 300.69C150.849 302.396 151.909 303.68 152.606 304.824C153.713 306.06 155.292 307.946 156.16 308.959C157.05 309.997 157.374 309.961 157.46 310.045C160.229 312.698 161.616 314.28 164.484 317.031C165.872 318.366 168.555 320.756 170.133 322.096C171.375 323.155 172.044 323.809 173.183 324.726C173.337 324.85 173.258 324.635 173.307 324.67C174.642 325.62 173.864 325.326 174.091 325.582C174.918 326.509 175.439 327.072 177.151 328.356C177.56 328.664 178.877 329.212 179.584 329.742C180.498 330.429 180.069 330.273 181.037 330.989C181.12 331.05 181.156 330.968 181.742 331.429C184.507 333.602 187.404 335.836 190.365 337.959C190.768 338.248 190.334 337.763 190.918 338.178C193.615 340.096 196.586 342.163 199.27 344.045C199.914 344.497 199.45 344.304 199.575 344.423C200.348 345.155 201.741 345.769 201.951 345.901C207.008 349.074 210.678 351.648 215.953 354.686C216.234 354.849 218.537 355.898 219.398 356.672C219.456 356.724 220.302 357.498 221.246 357.854C221.305 357.876 220.76 357.418 221.814 358.041C222.88 358.671 224.602 359.558 225.985 360.491C226.423 360.786 227.394 361.606 228.874 362.204C228.969 362.243 231.325 363.041 231.958 363.722C232.06 363.833 231.782 364.045 233.504 364.787C233.834 364.928 233.295 364.559 234.146 364.965C235.451 365.586 237.112 366.56 238.77 367.264C239.059 367.387 240.341 367.811 241.223 368.446C241.359 368.545 241.033 368.497 241.523 368.761C243.851 370.018 246.379 371.208 248.797 372.478C249.654 372.927 249.134 372.863 250.022 373.347C250.915 373.835 252.686 374.739 253.668 375.121C254.645 375.501 253.73 374.764 255.156 375.418C261.401 378.276 267.48 381.188 273.731 383.892C274.658 384.292 273.925 383.874 275.296 384.455C280.38 386.628 289.192 390.075 293.576 391.962C297.076 393.479 292.549 391.884 295.248 392.987C296.552 393.518 298.095 393.758 298.418 393.868C301.587 394.944 303.691 395.86 306.518 396.827C307.102 397.026 306.575 396.702 307.072 396.873C308.77 397.455 310.537 398.136 312.171 398.691C312.904 398.939 312.803 398.801 313.466 399.037C315.054 399.601 316.456 400.12 317.992 400.731C318.132 400.787 317.131 400.58 318.318 400.983C320.001 401.552 322.029 402.294 324.03 402.893C324.315 402.978 324.599 403.061 324.881 403.139C325.553 403.325 325.647 403.122 327.024 403.722C327.313 403.847 326.851 403.984 328.579 404.286C328.87 404.338 331.744 404.908 333.046 405.515C333.39 405.676 334.243 406.167 335.046 406.373C335.156 406.401 334.758 406.155 335.421 406.343C337.777 407.013 340.225 407.748 342.633 408.402C343.275 408.577 342.357 408.183 343.313 408.446C345.929 409.165 349.236 410.119 351.807 410.854C352.756 411.126 352.071 411.047 352.137 411.077C353.204 411.554 353.925 411.491 354.298 411.575C356.612 412.101 358.332 412.667 360.482 413.182C361.074 413.324 360.685 413.104 360.805 413.123C362.045 413.332 361.088 413.307 361.852 413.524C363.991 414.13 366.389 414.708 368.557 415.209C369.364 415.396 368.489 415.048 369.214 415.216C373.523 416.215 377.882 417.208 382.084 418.176C382.871 418.357 382.353 418.355 382.512 418.413C383.613 418.817 385.318 418.936 385.703 418.992C387.454 419.249 388.107 419.474 389.633 419.758C397.185 421.171 406.44 422.824 413.57 423.901C422.842 425.301 430.08 426.26 439.017 427.038C439.58 427.086 439.025 426.898 439.51 426.937C445.841 427.455 452.061 427.906 458.385 428.101C458.9 428.117 458.163 427.958 458.989 427.978C460.67 428.019 462.902 428.087 464.621 428.16C465.465 428.196 464.331 428.289 465.18 428.322C467.159 428.399 469.234 428.425 471.309 428.399C472.181 428.387 470.866 428.256 471.998 428.251C479.568 428.204 487.228 427.868 494.864 427.355C495.401 427.318 495.899 427.55 497.025 427.385C497.102 427.301 497.089 427.212 497.117 427.127C508.187 425.962 519.13 424.179 529.712 420.91C530.155 420.772 529.332 420.878 530.214 420.601C535.284 418.984 539.889 417.153 544.785 414.82C545.255 414.591 545.146 414.948 546.477 414.189C546.733 414.053 548.79 412.845 549.265 412.477C549.33 412.428 548.906 412.547 549.544 412.153C553.272 409.846 556.95 407.057 560.004 403.965C560.499 403.462 560.075 404.095 560.427 403.736C562.899 401.224 565.102 397.971 566.707 395.001C567.763 392.998 567.593 393.84 568.275 392.806C568.376 392.66 568.888 391.329 569.025 391.297C569.39 391.221 569.477 392.003 569.894 391.845C569.994 391.816 570.543 389.907 570.341 391.079C570.332 391.163 569.902 392.539 569.819 392.889C569.766 393.135 570.052 392.766 569.912 393.257C569.769 393.748 569.456 394.22 569.157 395.008C568.849 395.793 569.163 395.532 568.391 397.033ZM160.301 313.621C161.109 314.597 161.557 314.408 160.514 313.524C160.463 313.482 160.259 313.571 160.301 313.621ZM199.637 212.111C197.936 212.123 196.85 212.569 198.037 212.563C199.225 212.56 200.156 212.108 199.637 212.111ZM216.928 210.497C214.954 210.442 214.676 211.095 216.778 210.856C216.898 210.843 217.041 210.5 216.928 210.497ZM565.755 397.885C565.773 397.875 566.304 396.993 566.308 396.967C566.463 396.426 565.408 398.185 565.755 397.885ZM234.166 210.011C233.547 209.918 231.777 210.01 232.54 210.12C233.155 210.208 234.927 210.125 234.166 210.011ZM213.125 354.336C213.138 354.352 213.778 354.747 213.785 354.707C213.804 354.576 212.893 354.063 213.125 354.336ZM263.427 211.5C259.117 211.095 256.555 210.382 261.237 210.817C262.084 210.898 259.395 210.832 260.47 210.969C262.437 211.219 263.786 211.007 265.809 211.377C266.173 211.443 263.671 211.522 263.419 211.5C263.422 211.5 263.425 211.5 263.427 211.5ZM160.437 314.516C160.45 314.538 161.173 315.257 161.196 315.27C161.689 315.555 160.232 314.107 160.437 314.516ZM251.158 375.235C251.201 375.272 253.34 376.312 253.417 376.334C254.635 376.661 250.312 374.559 251.158 375.235ZM130.612 254.378C130.639 253.24 130.91 251.891 131.312 251.062C131.023 252.151 130.794 253.265 130.612 254.378Z" fill="#00D1FF"/>
<g opacity="0.35">
<path d="M498.878 592.568C496.818 596.885 493.695 600.667 489.788 603.574C485.881 606.481 481.312 608.423 476.491 609.224C471.67 610.026 466.747 609.663 462.164 608.168C457.58 606.673 453.479 604.093 450.229 600.658C446.978 597.224 444.678 593.042 443.537 588.488C442.395 583.934 442.446 579.151 443.686 574.565C444.926 569.98 447.316 565.737 450.642 562.216C453.967 558.694 458.125 556.005 462.742 554.389" stroke="#344054" stroke-linecap="round" stroke-linejoin="round"/>
<path d="M471.652 582.158L458.386 540.825C469.81 537.223 482.135 538.091 492.683 543.242C503.232 548.392 511.153 557.409 514.726 568.333C517.829 578.019 517.29 588.532 513.204 598.04L471.652 582.158Z" stroke="#00D1FF" stroke-linecap="round" stroke-linejoin="round"/>
</g>
<defs>
<filter id="filter0_dd_585_247" x="81.021" y="176" width="93" height="93" filterUnits="userSpaceOnUse" color-interpolation-filters="sRGB">
<feFlood flood-opacity="0" result="BackgroundImageFix"/>
<feColorMatrix in="SourceAlpha" type="matrix" values="0 0 0 0 0 0 0 0 0 0 0 0 0 0 0 0 0 0 127 0" result="hardAlpha"/>
<feOffset dy="4"/>
<feGaussianBlur stdDeviation="12.5"/>
<feComposite in2="hardAlpha" operator="out"/>
<feColorMatrix type="matrix" values="0 0 0 0 0 0 0 0 0 0.819608 0 0 0 0 1 0 0 0 0.6 0"/>
<feBlend mode="normal" in2="BackgroundImageFix" result="effect1_dropShadow_585_247"/>
<feColorMatrix in="SourceAlpha" type="matrix" values="0 0 0 0 0 0 0 0 0 0 0 0 0 0 0 0 0 0 127 0" result="hardAlpha"/>
<feOffset dy="4"/>
<feGaussianBlur stdDeviation="20"/>
<feComposite in2="hardAlpha" operator="out"/>
<feColorMatrix type="matrix" values="0 0 0 0 0 0 0 0 0 0.819608 0 0 0 0 1 0 0 0 0.6 0"/>
<feBlend mode="normal" in2="effect1_dropShadow_585_247" result="effect2_dropShadow_585_247"/>
<feBlend mode="normal" in="SourceGraphic" in2="effect2_dropShadow_585_247" result="shape"/>
</filter>
<filter id="filter1_dd_585_247" x="611" y="375" width="99" height="99" filterUnits="userSpaceOnUse" color-interpolation-filters="sRGB">
<feFlood flood-opacity="0" result="BackgroundImageFix"/>
<feColorMatrix in="SourceAlpha" type="matrix" values="0 0 0 0 0 0 0 0 0 0 0 0 0 0 0 0 0 0 127 0" result="hardAlpha"/>
<feOffset dy="4"/>
<feGaussianBlur stdDeviation="9.5"/>
<feComposite in2="hardAlpha" operator="out"/>
<feColorMatrix type="matrix" values="0 0 0 0 0 0 0 0 0 0.819608 0 0 0 0 1 0 0 0 0.6 0"/>
<feBlend mode="normal" in2="BackgroundImageFix" result="effect1_dropShadow_585_247"/>
<feColorMatrix in="SourceAlpha" type="matrix" values="0 0 0 0 0 0 0 0 0 0 0 0 0 0 0 0 0 0 127 0" result="hardAlpha"/>
<feOffset dy="4"/>
<feGaussianBlur stdDeviation="21.5"/>
<feComposite in2="hardAlpha" operator="out"/>
<feColorMatrix type="matrix" values="0 0 0 0 0 0 0 0 0 0.819608 0 0 0 0 1 0 0 0 0.6 0"/>
<feBlend mode="normal" in2="effect1_dropShadow_585_247" result="effect2_dropShadow_585_247"/>
<feBlend mode="normal" in="SourceGraphic" in2="effect2_dropShadow_585_247" result="shape"/>
</filter>
<filter id="filter2_dd_585_247" x="18" y="351" width="99" height="99" filterUnits="userSpaceOnUse" color-interpolation-filters="sRGB">
<feFlood flood-opacity="0" result="BackgroundImageFix"/>
<feColorMatrix in="SourceAlpha" type="matrix" values="0 0 0 0 0 0 0 0 0 0 0 0 0 0 0 0 0 0 127 0" result="hardAlpha"/>
<feOffset dy="4"/>
<feGaussianBlur stdDeviation="9.5"/>
<feComposite in2="hardAlpha" operator="out"/>
<feColorMatrix type="matrix" values="0 0 0 0 0 0 0 0 0 0.819608 0 0 0 0 1 0 0 0 0.6 0"/>
<feBlend mode="normal" in2="BackgroundImageFix" result="effect1_dropShadow_585_247"/>
<feColorMatrix in="SourceAlpha" type="matrix" values="0 0 0 0 0 0 0 0 0 0 0 0 0 0 0 0 0 0 127 0" result="hardAlpha"/>
<feOffset dy="4"/>
<feGaussianBlur stdDeviation="21.5"/>
<feComposite in2="hardAlpha" operator="out"/>
<feColorMatrix type="matrix" values="0 0 0 0 0 0 0 0 0 0.819608 0 0 0 0 1 0 0 0 0.6 0"/>
<feBlend mode="normal" in2="effect1_dropShadow_585_247" result="effect2_dropShadow_585_247"/>
<feBlend mode="normal" in="SourceGraphic" in2="effect2_dropShadow_585_247" result="shape"/>
</filter>
<filter id="filter3_dd_585_247" x="520" y="205" width="122" height="122" filterUnits="userSpaceOnUse" color-interpolation-filters="sRGB">
<feFlood flood-opacity="0" result="BackgroundImageFix"/>
<feColorMatrix in="SourceAlpha" type="matrix" values="0 0 0 0 0 0 0 0 0 0 0 0 0 0 0 0 0 0 127 0" result="hardAlpha"/>
<feOffset dy="4"/>
<feGaussianBlur stdDeviation="12.5"/>
<feComposite in2="hardAlpha" operator="out"/>
<feColorMatrix type="matrix" values="0 0 0 0 0 0 0 0 0 0.819608 0 0 0 0 1 0 0 0 0.6 0"/>
<feBlend mode="normal" in2="BackgroundImageFix" result="effect1_dropShadow_585_247"/>
<feColorMatrix in="SourceAlpha" type="matrix" values="0 0 0 0 0 0 0 0 0 0 0 0 0 0 0 0 0 0 127 0" result="hardAlpha"/>
<feOffset dy="4"/>
<feGaussianBlur stdDeviation="20"/>
<feComposite in2="hardAlpha" operator="out"/>
<feColorMatrix type="matrix" values="0 0 0 0 0 0 0 0 0 0.819608 0 0 0 0 1 0 0 0 0.6 0"/>
<feBlend mode="normal" in2="effect1_dropShadow_585_247" result="effect2_dropShadow_585_247"/>
<feBlend mode="normal" in="SourceGraphic" in2="effect2_dropShadow_585_247" result="shape"/>
</filter>
<filter id="filter4_dd_585_247" x="160" y="502" width="105" height="105" filterUnits="userSpaceOnUse" color-interpolation-filters="sRGB">
<feFlood flood-opacity="0" result="BackgroundImageFix"/>
<feColorMatrix in="SourceAlpha" type="matrix" values="0 0 0 0 0 0 0 0 0 0 0 0 0 0 0 0 0 0 127 0" result="hardAlpha"/>
<feOffset dy="4"/>
<feGaussianBlur stdDeviation="12.5"/>
<feComposite in2="hardAlpha" operator="out"/>
<feColorMatrix type="matrix" values="0 0 0 0 0 0 0 0 0 0.819608 0 0 0 0 1 0 0 0 0.6 0"/>
<feBlend mode="normal" in2="BackgroundImageFix" result="effect1_dropShadow_585_247"/>
<feColorMatrix in="SourceAlpha" type="matrix" values="0 0 0 0 0 0 0 0 0 0 0 0 0 0 0 0 0 0 127 0" result="hardAlpha"/>
<feOffset dy="4"/>
<feGaussianBlur stdDeviation="20"/>
<feComposite in2="hardAlpha" operator="out"/>
<feColorMatrix type="matrix" values="0 0 0 0 0 0 0 0 0 0.819608 0 0 0 0 1 0 0 0 0.6 0"/>
<feBlend mode="normal" in2="effect1_dropShadow_585_247" result="effect2_dropShadow_585_247"/>
<feBlend mode="normal" in="SourceGraphic" in2="effect2_dropShadow_585_247" result="shape"/>
</filter>
<filter id="filter5_dd_585_247" x="416.021" y="138" width="95" height="95" filterUnits="userSpaceOnUse" color-interpolation-filters="sRGB">
<feFlood flood-opacity="0" result="BackgroundImageFix"/>
<feColorMatrix in="SourceAlpha" type="matrix" values="0 0 0 0 0 0 0 0 0 0 0 0 0 0 0 0 0 0 127 0" result="hardAlpha"/>
<feOffset dy="4"/>
<feGaussianBlur stdDeviation="12.5"/>
<feComposite in2="hardAlpha" operator="out"/>
<feColorMatrix type="matrix" values="0 0 0 0 0 0 0 0 0 0.819608 0 0 0 0 1 0 0 0 0.6 0"/>
<feBlend mode="normal" in2="BackgroundImageFix" result="effect1_dropShadow_585_247"/>
<feColorMatrix in="SourceAlpha" type="matrix" values="0 0 0 0 0 0 0 0 0 0 0 0 0 0 0 0 0 0 127 0" result="hardAlpha"/>
<feOffset dy="4"/>
<feGaussianBlur stdDeviation="20"/>
<feComposite in2="hardAlpha" operator="out"/>
<feColorMatrix type="matrix" values="0 0 0 0 0 0 0 0 0 0.819608 0 0 0 0 1 0 0 0 0.6 0"/>
<feBlend mode="normal" in2="effect1_dropShadow_585_247" result="effect2_dropShadow_585_247"/>
<feBlend mode="normal" in="SourceGraphic" in2="effect2_dropShadow_585_247" result="shape"/>
</filter>
<filter id="filter6_f_585_247" x="0" y="0" width="711" height="711" filterUnits="userSpaceOnUse" color-interpolation-filters="sRGB">
<feFlood flood-opacity="0" result="BackgroundImageFix"/>
<feBlend mode="normal" in="SourceGraphic" in2="BackgroundImageFix" result="shape"/>
<feGaussianBlur stdDeviation="75" result="effect1_foregroundBlur_585_247"/>
</filter>
<filter id="filter8_f_585_247" x="170.6" y="171.6" width="368.8" height="368.8" filterUnits="userSpaceOnUse" color-interpolation-filters="sRGB">
<feFlood flood-opacity="0" result="BackgroundImageFix"/>
<feBlend mode="normal" in="SourceGraphic" in2="BackgroundImageFix" result="shape"/>
<feGaussianBlur stdDeviation="8.7" result="effect1_foregroundBlur_585_247"/>
</filter>
<filter id="filter9_f_585_247" x="151.902" y="189.404" width="395.842" height="372.142" filterUnits="userSpaceOnUse" color-interpolation-filters="sRGB">
<feFlood flood-opacity="0" result="BackgroundImageFix"/>
<feBlend mode="normal" in="SourceGraphic" in2="BackgroundImageFix" result="shape"/>
<feGaussianBlur stdDeviation="14.7" result="effect1_foregroundBlur_585_247"/>
</filter>
<radialGradient id="paint0_radial_585_247" cx="0" cy="0" r="1" gradientUnits="userSpaceOnUse" gradientTransform="translate(355.5 355.5) rotate(90) scale(190.006 195.266)">
<stop stop-color="#00D1FF"/>
<stop offset="0.985577" stop-color="#6339F0" stop-opacity="0.2"/>
</radialGradient>
<linearGradient id="paint1_linear_585_247" x1="355" y1="189" x2="507" y2="290.5" gradientUnits="userSpaceOnUse">
<stop stop-color="#00D1FF"/>
<stop offset="1" stop-color="#0B0B0C"/>
</linearGradient>
</defs>
</svg>
