<svg xmlns="http://www.w3.org/2000/svg" width="48" height="42" fill="none" viewBox="0 0 48 42"><g filter="url(#a)"><path fill="#f4f4f9" d="M15.648 0c1.015 0 13.864.746 13.864.746 1.753.181 2.925.354 1.775 2.156-2.705 3.566-4.058 5.142-7.017 8.873 4.667-.442 8.453 1.41 10.482 4.727 3.342 5.464 2.367 11.609-1.352 15.59-3.781 4.045-8.538 5.058-13.779 4.726-5.774-.366-9.834-4.855-9.552-11.112.068-1.492 1.353-2.82 2.959-2.985l.09-.009c1.715-.14.357 1.548-.004 3.23-.086.4-.086.829-.086 1.257 0 2.96 2.161 4.936 5.072 5.721 3.38.913 9.616.163 12.595-3.98 2.429-3.378 3.28-6.993 1.099-10.531-1.178-1.91-2.61-3.123-4.46-3.74-2.38-.794-4.94-.04-7.29.838-2.113.829-2.874-1.327-1.606-2.737l7.1-7.712c1.414-1.504 1.049-1.812-.76-1.824h-8.03c-.93 0-2.255-.204-2.452-1.244-.174-.918.338-1.99 1.352-1.99"/><path fill="#000" d="M17.174 36.91c-4.765-1.212-7.74-6.063-7.534-10.777q.003-.222.013-.446c.084-1.778 1.608-3.221 3.33-3.398l.1-.01c.195-.014.397-.026.649.038.247.038.615.35.652.665.078.578-.097.875-.2 1.217-.238.651-.496 1.246-.618 1.84-.072.345-.071.74-.068 1.16-.044 2.16 1.5 3.99 3.486 4.817q.602.263 1.242.437c4.24.98 9.451-.177 12.122-3.763.34-.47.659-.955.944-1.455 1.593-2.633 1.894-6.025.19-8.634-.983-1.652-2.43-3.026-4.251-3.62a6.3 6.3 0 0 0-1.525-.311c-1.871-.144-3.754.436-5.565 1.096-.735.338-2.001.274-2.405-.683-.393-.877-.056-1.846.522-2.475l7.162-7.66c.197-.207.387-.416.553-.637.157-.208.325-.49.271-.636-.042-.144-.363-.226-.624-.257a8 8 0 0 0-.843-.05l-8.03-.064a4.8 4.8 0 0 1-1.266-.163c-.55-.145-1.137-.529-1.23-1.142-.123-.691.118-1.494.748-1.858.157-.09.328-.131.454-.139s.195.009.195.02c0 .013-.07.022-.187.047a1.4 1.4 0 0 0-.414.16c-.571.342-.79 1.104-.664 1.745.095.555.632.889 1.174 1.02a4.7 4.7 0 0 0 1.19.128l3.028-.024c.223.051.53.09 1.105.107.293.009.72.012 1.036.003.282-.009.495-.024.698-.039.211-.015.412-.03.67-.034.44-.009.856-.03 1.294-.053l.2-.01q.147-.007.294-.01c.267.007.536.018.815.07.139.028.283.062.432.15.15.075.296.303.272.494-.136.686-.56 1.006-.906 1.42l-.611.674c-.359.38-.688.732-.963 1.034-.246.27-.465.524-.682.779l-.422.466-2.73 3.008a435 435 0 0 0-1.667 1.772 2.2 2.2 0 0 0-.506.916c-.143.533-.02 1.135.374 1.427.414.319 1.02.242 1.494.053q.315-.118.604-.224c.453-.166.938-.32 1.429-.452a20 20 0 0 1 1.939-.418 10 10 0 0 1 1.08-.126 6.3 6.3 0 0 1 1.428.062q.522.09.972.233.569.182 1.036.402a6.5 6.5 0 0 1 1.593 1.03q.091.083.206.193c.399.39 1.005 1.05 1.693 2.106l.083.13c.214.333.403.658.57.989.275.544.492 1.107.618 1.734.019.094.032.193.043.283.013.114.022.216.035.274.04.17.089.446.12.749.024.222.038.459.044.678-.056 1.676-.63 3.28-1.424 4.703a17 17 0 0 1-.976 1.535q-.125.177-.26.346c-.261.293-.544.575-.857.854-.408.365-.954.822-1.73 1.292-.572.345-1.268.696-2.115.997-1.567.566-3.26.817-4.348.881-.229.015-.463.025-.71.03-.738 0-1.631.02-3.043-.322a10 10 0 0 1-1.258-.418c-2.012-.797-3.357-2.35-3.801-3.705a5.9 5.9 0 0 1-.335-1.962c0-.388-.014-.842.089-1.347.079-.375.2-.738.328-1.087.184-.506.411-1.015.486-1.405a.6.6 0 0 0 .01-.197c-.012-.026.019.025.015.017-.018-.02-.219-.042-.38-.022l-.082.008a2.9 2.9 0 0 0-1.232.442c-.569.37-1.221 1.063-1.28 2.12q-.007.213-.01.434c.003 1.516.186 2.442.435 3.376.106.378.204.71.322 1.051a6.8 6.8 0 0 0 1.084 2.01c.21.272.453.553.71.833.09.098.167.185.245.269.086.092.171.181.275.276a9 9 0 0 0 1.178.9c.491.316.934.531 1.208.66a8.6 8.6 0 0 0 1.64.568 12 12 0 0 0 1.998.302c1.228.077 2.762.084 4.304-.119a24 24 0 0 0 2.018-.336c.46-.101.979-.232 1.607-.45.355-.123.646-.254.912-.382.244-.118.468-.235.699-.348.204-.1.338-.153.467-.205.143-.059.276-.114.48-.243a6 6 0 0 0 .383-.27q.088-.066.186-.142-.001.01.001.011c.01.015.22-.117.417-.253l.224-.154c.239-.163.668-.513.975-.799.132-.121.252-.227.391-.355.125-.115.26-.242.43-.417l.049-.05.182-.185q.067-.066.115-.12a1 1 0 0 0 .069-.095l.053-.08c.053-.074.124-.164.177-.225.024-.029.044-.05.063-.072.023-.025.046-.05.075-.087.135-.167.254-.339.373-.52.13-.199.261-.41.41-.642l.144-.227c.05-.08.099-.157.137-.225.155-.274.276-.545.38-.797q.102-.252.188-.474c.107-.269.145-.421.174-.532.014-.058.026-.105.041-.154l.087-.252.003-.009q.123-.367.222-.732c.149-.547.26-1.1.315-1.69a6 6 0 0 0 .02-.391c.004-.162.004-.328.01-.497.014-.401.016-.808-.001-1.209a9 9 0 0 0-.226-1.718 8 8 0 0 0-.142-.51l-.09-.28a.2.2 0 0 0 .034.034c.02.017.037.03.072.12.083.212.173.453.192.42.005-.009.014-.005.023 0 .023.013.047.025.008-.182a5 5 0 0 0-.19-.718 1 1 0 0 0-.05-.106 2 2 0 0 1-.14-.328l-.04-.113a4 4 0 0 0-.16-.39c-.04-.07-.047-.05-.054-.025-.01.032-.022.069-.113-.08-.018-.029-.044-.089-.064-.133a.4.4 0 0 0-.028-.057c-.003-.002-.002.01-.002.025 0 .053.005.143-.136-.183l-.122-.28a2 2 0 0 0-.122-.254l-.012-.01q-.076-.157-.155-.311a7 7 0 0 0-.292-.545 18 18 0 0 0-.205-.347 13.777 13.777 0 0 0-1.26-1.74 8 8 0 0 0-.293-.324l.11.099c.205.18.296.244.38.301.057.04.11.076.188.149.14.133.14.107.142.087 0-.01.001-.018.02-.001.016.014.049.05.082.087l.078.086c.24.253.187.163.11.029-.044-.074-.095-.16-.11-.207-.008-.044.006-.039.13.098a10 10 0 0 0-.258-.349 1 1 0 0 0-.12-.106c-.088-.066-.336-.313-.541-.493a6 6 0 0 0-.228-.193c-.26-.203-.203-.121-.15-.053.028.038.053.073.023.058-.013-.007 0 .009.014.024.01.013.02.025.02.028-.01.017-.166-.098-.314-.198a3 3 0 0 0-.251-.156l-.056-.03c-.053-.031-.16-.103-.277-.178l-.184-.114c-.078-.046-.11-.057-.144-.069-.024-.008-.049-.016-.091-.037-.078-.037-.226-.123-.367-.198l-.172-.089a.1.1 0 0 0-.034-.014 10 10 0 0 0-.689-.309c-1.134-.443-2.169-.703-3.741-.835-.297-.023-.619-.03-.944-.025q-.593.002-1.186.054l-.742.068.464-.581q.622-.773 1.244-1.538.22-.231.518-.575c.375-.433.748-.889 1.188-1.426.325-.398.686-.84 1.11-1.352a118 118 0 0 0 3.086-3.875l-.007.01c.228-.358.443-.75.44-1.097.006-.346-.345-.521-.648-.61C30.5.983 29.986.925 29.5.859l-.212-.018c-.791-.066-1.483-.124-1.92-.122-.133 0-.273.007-.402.015q-.135.008-.27.012L25.984.7A24 24 0 0 0 24.28.585l-.724-.048-1.525-.101-.5-.033h-.005L20.515.335l-.431-.028-1.092-.07L18.415.2q-.464-.03-.943-.059c-.507-.03-1.019-.062-1.515-.086-.1-.005-.15-.01-.225-.016-.064-.006-.083-.011-.084-.017.001-.006.02-.012.085-.015a3 3 0 0 1 .227-.001c.497.013 1.01.033 1.518.053l.945.038.577.024 1.094.047.432.02 1.016.044h.006l.498.023 2.346.108.455.021.251.012c1.478.07 2.956.14 4.422.211.445.044.89.08 1.337.181.22.052.443.117.654.25.211.127.39.394.395.658.006.524-.246.916-.473 1.299l-.008.011q-.945 1.269-1.908 2.52c-1.172 1.522-2.372 3.02-3.558 4.526q-.741.938-1.482 1.886l-.231-.427c4.052-.501 8.612 1.129 10.803 4.808 3.18 4.819 2.762 11.825-1.328 16.072-1.218 1.319-2.665 2.441-4.281 3.25-1.61.813-3.414 1.315-5.19 1.543-1.562.203-3.107.22-4.66.126a11.446 11.446 0 0 1-2.416-.4"/></g><path fill="#6339f0" d="M14.754 10.97C5.99 15.174-3.164 23.325 1.064 26.987c3.643 3.154 21.946-2.782 31.097-7.589C50.923 9.542 46.907 6.567 45.527 5.808c-2.177-1.194-8.885-1.441-15.724.047l-1.294 1.527s12.218-2.11 15.368-1.03c4.937 1.694-3.655 8.05-12.068 12.053-10.908 5.19-29.447 9.638-30.024 7.088-1.295-5.724 11.133-12.385 12.97-13.348 2.722-1.429 7.237-3.085 7.237-3.085l1.45-1.514c-2.988.998-5.536 1.912-8.688 3.424"/><path fill="#00d1ff" d="M15.898 9.718C7.133 13.922-2.02 22.072 2.208 25.734c3.642 3.155 21.945-2.781 31.096-7.588C52.066 8.29 48.05 5.314 46.67 4.556c-2.176-1.194-8.884-1.442-15.724.046l-1.294 1.527S41.871 4.02 45.02 5.1c4.937 1.694-3.654 8.05-12.067 12.054C22.044 22.342 3.506 26.79 2.929 24.24c-1.296-5.724 11.133-12.384 12.969-13.348 2.722-1.428 7.237-3.085 7.237-3.085l1.45-1.513c-2.988.997-5.536 1.912-8.687 3.424"/><path fill="#0b0b0c" d="M16.504 9.137C8.072 13.33-1.392 21.624 2.676 25.277c3.504 3.146 22.485-3.265 31.23-7.697C51.913 8.454 46.782 4.91 45.453 4.154c-2.093-1.191-9.046-.776-15.626.708l-1.245 1.523s12.254-2.767 15.284-1.689c4.75 1.69-2.54 7.814-10.635 11.806C22.736 21.678 4.187 27.53 3.37 23.786 2.122 18.077 14.737 11.27 16.503 10.308c2.62-1.424 6.963-3.077 6.963-3.077l1.395-1.51c-2.874.996-5.326 1.908-8.358 3.416"/><circle cx="14.514" cy="6.966" r="1.256" fill="#f4f4f9"/><circle cx="14.514" cy="12.77" r="1.256" fill="#f4f4f9"/><circle cx="14.514" cy="18.575" r="1.256" fill="#f4f4f9"/><defs><filter id="a" width="31.52" height="41.366" x="9.63" y="0" color-interpolation-filters="sRGB" filterUnits="userSpaceOnUse"><feFlood flood-opacity="0" result="BackgroundImageFix"/><feColorMatrix in="SourceAlpha" result="hardAlpha" values="0 0 0 0 0 0 0 0 0 0 0 0 0 0 0 0 0 0 127 0"/><feOffset dx="2" dy="2"/><feGaussianBlur stdDeviation="1"/><feComposite in2="hardAlpha" operator="out"/><feColorMatrix values="0 0 0 0 0 0 0 0 0 0 0 0 0 0 0 0 0 0 0.25 0"/><feBlend in2="BackgroundImageFix" result="effect1_dropShadow_393_241"/><feBlend in="SourceGraphic" in2="effect1_dropShadow_393_241" result="shape"/></filter></defs></svg>