<svg width="48" height="42" viewBox="0 0 48 42" fill="none" xmlns="http://www.w3.org/2000/svg">
<g filter="url(#filter0_d_393_241)">
<path d="M15.6484 0C16.6627 0 29.5115 0.746307 29.5115 0.746307C31.2651 0.927176 32.4374 1.10034 31.2866 2.90231C28.5816 6.468 27.2291 8.04353 24.2705 11.7751C28.9373 11.333 32.7233 13.1848 34.7521 16.5017C38.0941 21.9657 37.119 28.1109 33.3996 32.0912C29.6189 36.1372 24.8619 37.1495 19.6213 36.8178C13.8469 36.4523 9.78667 31.9633 10.0693 25.7061C10.1367 24.2135 11.4218 22.8868 13.0279 22.7209C13.058 22.7178 13.0882 22.715 13.1184 22.7125C14.8328 22.5712 13.4751 24.2599 13.114 25.9419C13.0279 26.3428 13.0279 26.7708 13.0279 27.1987C13.0279 30.1598 15.1893 32.1352 18.0998 32.9204C21.4807 33.8326 27.7163 33.0826 30.6949 28.9401C33.124 25.5618 33.9743 21.9467 31.7938 18.4089C30.6164 16.4986 29.1836 15.2855 27.3342 14.6689C24.9542 13.8754 22.3941 14.6284 20.044 15.5066C17.9307 16.3358 17.1699 14.1798 18.4379 12.7701L25.5385 5.0583C26.9521 3.55378 26.5866 3.24642 24.7777 3.234H16.7473C15.8174 3.234 14.4927 3.02967 14.2959 1.99015C14.1219 1.07179 14.634 0 15.6484 0Z" fill="#F4F4F9"/>
<path d="M17.174 36.9104C12.4087 35.6984 9.43486 30.8465 9.64006 26.1328C9.64204 25.9853 9.64634 25.8368 9.65299 25.6873C9.73703 23.9089 11.2613 22.4658 12.9833 22.2892C13.0163 22.2856 13.0495 22.2823 13.0827 22.2794C13.2782 22.2645 13.48 22.2535 13.7317 22.317C13.9787 22.3551 14.3472 22.6666 14.3841 22.9816C14.4618 23.5604 14.2866 23.8566 14.1833 24.1988C13.9462 24.85 13.6879 25.4455 13.5655 26.0388C13.494 26.3839 13.495 26.7789 13.498 27.1987C13.4541 29.3587 14.9986 31.1894 16.9839 32.0155C17.3834 32.1916 17.7997 32.3367 18.2258 32.4532C22.4653 33.4332 27.6774 32.2765 30.3475 28.6903C30.6888 28.2205 31.0065 27.7355 31.2916 27.2348C32.8846 24.6024 33.1864 21.2097 31.4825 18.6008C30.4994 16.9491 29.0525 15.5749 27.2305 14.9801C26.7401 14.8126 26.227 14.7113 25.7056 14.6699C23.8348 14.5259 21.952 15.1064 20.1408 15.7657C19.4064 16.1039 18.14 16.0395 17.7355 15.0829C17.3432 14.2059 17.6801 13.2367 18.258 12.6083C19.7401 11.0223 21.2206 9.43859 22.7006 7.85594C23.6066 6.8871 24.513 5.91797 25.4196 4.94879C25.617 4.74139 25.8066 4.53241 25.9726 4.3115C26.1301 4.10313 26.2981 3.8217 26.2442 3.67498C26.2019 3.53114 25.8811 3.44948 25.6196 3.41773C25.3463 3.38281 25.0626 3.37306 24.7768 3.36837C23.3775 3.35719 21.9775 3.34594 20.5781 3.33463C19.2996 3.32432 18.024 3.31397 16.7473 3.30359C16.3228 3.29923 15.8944 3.25857 15.4812 3.14123C14.9313 2.99565 14.3443 2.61199 14.2514 1.99858C14.1284 1.308 14.3693 0.505344 14.9988 0.140511C15.1561 0.0506707 15.3272 0.00990918 15.4527 0.00217778C15.5785 -0.00562059 15.6484 0.0106617 15.6484 0.0223168C15.6479 0.0354648 15.578 0.0436765 15.4611 0.0694287C15.3439 0.0951169 15.1904 0.144021 15.0475 0.229094C14.4757 0.570996 14.2569 1.33264 14.3834 1.97358C14.4778 2.52922 15.0151 2.8628 15.5566 2.99375C15.9413 3.09219 16.346 3.12408 16.7473 3.12158C17.7565 3.11368 18.7652 3.10578 19.7749 3.09793C19.9983 3.14898 20.3051 3.1877 20.8797 3.2048C21.173 3.21352 21.6007 3.21715 21.9156 3.20766C22.1984 3.19914 22.4115 3.18394 22.6138 3.16946C22.8253 3.15431 23.0261 3.13993 23.2846 3.13485C23.7232 3.12623 24.14 3.10456 24.5778 3.08179C24.6439 3.07835 24.7105 3.07488 24.7777 3.07143C24.8769 3.06725 24.9728 3.06391 25.0722 3.06212C25.3388 3.06886 25.6082 3.08004 25.8865 3.13169C26.0258 3.15974 26.1701 3.19368 26.3192 3.282C26.4685 3.35721 26.6153 3.5849 26.5913 3.77608C26.455 4.46165 26.0306 4.78196 25.685 5.1959C25.4822 5.4195 25.2781 5.64458 25.074 5.86964C24.7155 6.25095 24.3864 6.60191 24.1115 6.90361C23.8649 7.17422 23.6457 7.4282 23.4294 7.68285C23.2885 7.8382 23.1476 7.99355 23.0067 8.1489C22.0972 9.15148 21.1873 10.1543 20.2773 11.1571C19.7612 11.7033 19.2279 12.2686 18.6105 12.9291C18.3861 13.1746 18.1975 13.4836 18.1043 13.8449C17.9606 14.3779 18.0831 14.9796 18.4783 15.2718C18.8925 15.5905 19.4985 15.5139 19.9725 15.3245C20.1822 15.2465 20.3832 15.1722 20.5763 15.1013C21.0289 14.9352 21.5141 14.7817 22.0047 14.6489C22.6625 14.4702 23.3307 14.3317 23.9437 14.2306C24.3293 14.1665 24.6881 14.125 25.0233 14.105C25.5566 14.0732 26.0303 14.0954 26.4522 14.1669C26.7999 14.2259 27.1237 14.3057 27.4237 14.4004C27.8039 14.5204 28.1484 14.6559 28.4604 14.8015C29.129 15.1143 29.6484 15.4695 30.0526 15.832C30.1138 15.8871 30.1829 15.9514 30.2588 16.0252C30.658 16.4145 31.2637 17.0741 31.9516 18.1313C31.9796 18.1743 32.0074 18.2173 32.035 18.2603C32.2488 18.5942 32.438 18.9187 32.6054 19.2495C32.8798 19.7937 33.0975 20.3569 33.2231 20.984C33.2418 21.0779 33.2552 21.1774 33.2657 21.2674C33.279 21.3815 33.288 21.4829 33.3014 21.541C33.3412 21.7115 33.3898 21.9869 33.4212 22.2895C33.4447 22.5115 33.4592 22.7485 33.4654 22.9676C33.4095 24.6438 32.8347 26.2479 32.0406 27.6705C31.7444 28.2019 31.416 28.7132 31.065 29.2062C30.981 29.324 30.8946 29.4392 30.8059 29.5519C30.5438 29.8445 30.2611 30.1266 29.9485 30.4064C29.5399 30.7708 28.9939 31.2278 28.2173 31.6982C27.6464 32.0433 26.9496 32.3937 26.103 32.6949C24.5361 33.2614 22.8431 33.5123 21.7552 33.5761C21.5261 33.5911 21.2922 33.6013 21.0454 33.6058C20.3066 33.6067 19.4137 33.6264 18.0018 33.2837C17.6183 33.1839 17.1982 33.0526 16.7441 32.8658C14.7323 32.0688 13.387 30.5159 12.943 29.1614C12.6989 28.4757 12.6312 27.8677 12.6127 27.4123C12.61 27.343 12.6084 27.2718 12.608 27.1987C12.608 26.8111 12.5937 26.357 12.6969 25.8523C12.7759 25.4772 12.8965 25.1141 13.025 24.7646C13.2089 24.2585 13.4362 23.75 13.5109 23.3599C13.5284 23.2669 13.528 23.1856 13.521 23.1625C13.509 23.1374 13.5399 23.1882 13.5357 23.1795C13.5182 23.1604 13.317 23.1382 13.1551 23.1579C13.1277 23.1603 13.1006 23.1631 13.0739 23.1661C12.8759 23.1882 12.7009 23.2292 12.5548 23.2746C12.3182 23.3481 12.0787 23.456 11.8424 23.6082C11.2735 23.9788 10.6209 24.6707 10.5624 25.7284C10.5569 25.87 10.5535 26.0146 10.5525 26.1621C10.5546 27.6782 10.7378 28.6037 10.9868 29.5378C11.0927 29.9164 11.1905 30.2489 11.309 30.589C11.4786 31.0679 11.6832 31.5655 12.0806 32.1664C12.174 32.3066 12.2784 32.4509 12.3934 32.5993C12.6036 32.8711 12.8462 33.152 13.1027 33.4321C13.1921 33.5296 13.27 33.6167 13.3479 33.7008C13.4336 33.7932 13.5194 33.8824 13.6231 33.9766C14.01 34.3288 14.42 34.6339 14.801 34.8777C15.2922 35.1931 15.7345 35.4084 16.0087 35.5378C16.499 35.7698 17.0636 35.9641 17.6488 36.1053C18.094 36.2133 18.5548 36.2922 19.0003 36.3472C19.2051 36.3726 19.4178 36.3928 19.6473 36.407C20.8745 36.4837 22.4091 36.4909 23.9507 36.2882C24.6436 36.1958 25.2288 36.1107 25.9686 35.9516C26.4281 35.8508 26.9475 35.7196 27.5755 35.5026C27.9313 35.3789 28.2224 35.2478 28.4878 35.1197C28.7323 35.0015 28.9555 34.8853 29.1867 34.7723C29.3914 34.6719 29.5255 34.6187 29.6538 34.5668C29.7965 34.5084 29.9297 34.453 30.1338 34.3241C30.2425 34.2551 30.3683 34.1654 30.5172 34.0539C30.5763 34.0097 30.6379 33.9628 30.7034 33.9125C30.702 33.9179 30.703 33.9212 30.7044 33.9232C30.7136 33.9383 30.9231 33.8061 31.1211 33.6705C31.2006 33.6163 31.2796 33.561 31.3449 33.5159C31.5838 33.3535 32.0131 33.0029 32.3201 32.7172C32.4521 32.5955 32.5716 32.4897 32.7111 32.3616C32.8358 32.2467 32.971 32.1195 33.1405 31.9453C33.1575 31.9278 33.1738 31.911 33.1896 31.895C33.2624 31.8206 33.3219 31.7612 33.3724 31.7101C33.4167 31.6653 33.4541 31.6269 33.4873 31.5899C33.516 31.5579 33.5349 31.5283 33.556 31.4949C33.5712 31.4709 33.5876 31.4448 33.6095 31.4143C33.6621 31.3413 33.7334 31.2512 33.7856 31.1898C33.8098 31.1614 33.8296 31.1396 33.8493 31.1178C33.8723 31.0925 33.8951 31.0673 33.9244 31.0308C34.0588 30.8636 34.1779 30.6923 34.2969 30.5112C34.4275 30.3124 34.5583 30.1015 34.7062 29.8685C34.7528 29.7951 34.8033 29.7174 34.8513 29.6416C34.9016 29.5623 34.9495 29.4846 34.9878 29.4171C35.1433 29.143 35.2645 28.872 35.3678 28.6202C35.4365 28.4528 35.4975 28.2934 35.5562 28.1465C35.6631 27.8771 35.7013 27.725 35.7298 27.6137C35.7443 27.5559 35.7558 27.5087 35.771 27.4603C35.7865 27.4165 35.802 27.372 35.817 27.3283C35.8314 27.2884 35.8461 27.2471 35.8582 27.2079C35.8591 27.2049 35.86 27.202 35.8609 27.199C35.9427 26.954 36.0171 26.7107 36.0834 26.4671C36.232 25.9198 36.3428 25.3672 36.3979 24.7761C36.4096 24.649 36.4149 24.5187 36.418 24.386C36.4218 24.2236 36.4223 24.0583 36.428 23.8893C36.4416 23.4877 36.444 23.0808 36.4266 22.6802C36.4008 22.0777 36.3292 21.4888 36.2012 20.9615C36.1589 20.7866 36.1108 20.6195 36.0589 20.452C36.0301 20.3588 35.9996 20.2642 35.9691 20.1712C35.9826 20.189 35.993 20.1977 36.0027 20.2058C36.0227 20.2225 36.0401 20.2368 36.0751 20.3265C36.158 20.5383 36.2481 20.779 36.2669 20.7461C36.272 20.737 36.281 20.7414 36.2901 20.7464C36.3128 20.7591 36.3374 20.7712 36.2975 20.5639C36.2713 20.424 36.1914 20.0647 36.1085 19.8459C36.0906 19.7982 36.0753 19.7704 36.0582 19.7396C36.027 19.6837 35.9919 19.6192 35.918 19.4116C35.9054 19.3767 35.8917 19.3387 35.8774 19.2994C35.8203 19.1417 35.7532 18.9704 35.7181 18.9089C35.678 18.8385 35.6714 18.8596 35.6637 18.8839C35.6536 18.9157 35.6422 18.9528 35.5513 18.8043C35.5333 18.7751 35.5069 18.7151 35.4871 18.6711C35.4731 18.6399 35.4622 18.6161 35.4595 18.6143C35.4565 18.6124 35.4568 18.6241 35.4572 18.639C35.4578 18.6917 35.4625 18.782 35.3214 18.4562C35.2828 18.3683 35.2387 18.2659 35.1988 18.1761C35.1401 18.0439 35.0886 17.9343 35.0766 17.922C35.0721 17.9175 35.0682 17.9146 35.0646 17.9124C35.0144 17.8079 34.9623 17.703 34.91 17.6008C34.848 17.4672 34.7475 17.2796 34.6183 17.0561C34.5867 17.0015 34.553 16.944 34.5175 16.8842C34.4833 16.8257 34.4485 16.7673 34.4133 16.7089C34.3307 16.5721 34.2455 16.4386 34.1563 16.3063C34.0578 16.157 33.9496 15.9996 33.832 15.8365C33.5957 15.5092 33.3789 15.2309 33.1534 14.9689C33.0583 14.8586 32.9613 14.7513 32.8597 14.6455C32.9023 14.6834 32.9406 14.7179 32.9705 14.744C33.1745 14.9233 33.2656 14.9875 33.3509 15.0454C33.4074 15.0843 33.4607 15.1215 33.5376 15.1938C33.6776 15.3269 33.6783 15.3013 33.6796 15.2812C33.6802 15.2709 33.681 15.2627 33.7005 15.2799C33.7163 15.2938 33.7487 15.3294 33.7818 15.3665C33.8107 15.3988 33.8402 15.4324 33.8601 15.453C34.0998 15.7056 34.0467 15.6159 33.9693 15.4816C33.9264 15.408 33.8746 15.3227 33.8606 15.2749C33.8515 15.2313 33.8659 15.2363 33.9901 15.3732C33.9071 15.2553 33.821 15.1386 33.7325 15.0242C33.6941 14.9825 33.6602 14.9551 33.6111 14.9184C33.5241 14.8522 33.2762 14.6053 33.0708 14.4251C32.9763 14.3411 32.8922 14.2701 32.8434 14.2317C32.5821 14.0293 32.6402 14.1105 32.6922 14.179C32.7206 14.2171 32.7463 14.2524 32.7161 14.2368C32.7032 14.2301 32.7165 14.2457 32.7297 14.2614C32.7399 14.2736 32.7504 14.2861 32.7491 14.2886C32.7395 14.3062 32.5841 14.191 32.4361 14.0909C32.3515 14.0332 32.2696 13.9799 32.2221 13.9539C32.2076 13.9459 32.1958 13.9401 32.1846 13.9347C32.1683 13.9268 32.1524 13.919 32.1289 13.9052C32.0755 13.8737 31.9698 13.8021 31.8524 13.7274C31.7922 13.689 31.7288 13.6496 31.6681 13.6135C31.5896 13.5669 31.5576 13.5561 31.5239 13.5444C31.5002 13.5362 31.4753 13.5276 31.4327 13.507C31.3553 13.4695 31.2067 13.3841 31.0655 13.3089C31.0039 13.2761 30.9446 13.2453 30.8938 13.2202C30.8731 13.2099 30.8627 13.206 30.8597 13.2064C30.6249 13.0896 30.3966 12.988 30.1713 12.897C29.0367 12.4537 28.0021 12.1945 26.4297 12.0619C26.1325 12.0394 25.8112 12.0311 25.4863 12.0373C25.0905 12.0383 24.6968 12.0565 24.3005 12.091L23.558 12.1585L24.0219 11.5779C24.4361 11.0634 24.8516 10.5499 25.2664 10.0397C25.4117 9.88649 25.5847 9.69429 25.784 9.46463C26.1592 9.03214 26.5323 8.57616 26.9719 8.03853C27.2968 7.64099 27.6581 7.19902 28.0828 6.68651C28.7956 5.82629 29.5203 4.93374 30.3157 3.91386C30.5923 3.55928 30.8813 3.18544 31.1677 2.81207L31.1608 2.82195C31.389 2.46397 31.6043 2.07258 31.6015 1.72485C31.607 1.37893 31.2562 1.2039 30.9528 1.11487C30.5007 0.982733 29.9863 0.924785 29.4998 0.859486C29.4423 0.854291 29.3515 0.847037 29.2882 0.841405C28.4965 0.774815 27.8047 0.716505 27.3687 0.718503C27.2347 0.71945 27.0952 0.726437 26.9656 0.733574C26.8757 0.738789 26.7853 0.743741 26.6956 0.746148C26.4505 0.729812 26.2278 0.714798 25.9837 0.69854C25.5704 0.657031 24.9102 0.600278 24.2808 0.584848C24.0363 0.568583 23.7942 0.552501 23.5569 0.53668C23.0442 0.502677 22.5403 0.469244 22.0324 0.435744C21.8666 0.424783 21.7005 0.413828 21.5316 0.40273C21.53 0.402622 21.5284 0.402514 21.5268 0.402405C21.1899 0.380237 20.8468 0.357806 20.5153 0.336105C20.372 0.326744 20.2263 0.317278 20.084 0.308023C19.721 0.284426 19.3569 0.260924 18.9918 0.237571C18.805 0.22554 18.6067 0.212988 18.4154 0.200864C18.1051 0.1812 17.7923 0.161604 17.4723 0.14205C16.9653 0.111201 16.4531 0.0798639 15.9575 0.0555166C15.8579 0.0510236 15.8065 0.0464063 15.7321 0.0402057C15.6683 0.0343449 15.6492 0.0289639 15.6484 0.0230479C15.6493 0.0172395 15.6688 0.0112324 15.7335 0.00805979C15.8082 0.0052355 15.8602 0.00396913 15.9601 0.0065918C16.4569 0.019626 16.9705 0.0397713 17.4785 0.0595176C17.7992 0.072208 18.1122 0.0849118 18.4228 0.0977796C18.6146 0.105725 18.8127 0.114137 19 0.122021C19.3657 0.137566 19.7308 0.153328 20.0943 0.169218C20.2367 0.175432 20.3827 0.181864 20.5261 0.188177C20.859 0.202805 21.2033 0.218215 21.5416 0.233406C21.5437 0.233499 21.5457 0.233592 21.5478 0.233685C21.7157 0.241243 21.8809 0.248666 22.0458 0.256111C22.5545 0.279144 23.0594 0.302202 23.5728 0.325948C23.8416 0.338295 24.1137 0.350935 24.3923 0.363948C24.5465 0.371143 24.6973 0.37815 24.8474 0.385145C24.9306 0.389053 25.0144 0.393007 25.0981 0.396953C26.576 0.466249 28.0538 0.53683 29.5195 0.608167C29.9652 0.651512 30.41 0.68886 30.8573 0.789107C31.0769 0.841118 31.3 0.905717 31.5105 1.03995C31.7224 1.16572 31.9015 1.43323 31.9059 1.69682C31.9115 2.22141 31.6598 2.61323 31.4327 2.99562L31.4248 3.0071C30.7948 3.85268 30.1591 4.69349 29.5167 5.52718C28.3448 7.04935 27.1454 8.54792 25.9585 10.0527C25.4641 10.6792 24.9716 11.3062 24.4774 11.9391L24.2456 11.5122C28.2983 11.011 32.8584 12.641 35.0489 16.3201C38.2284 21.1385 37.8107 28.1454 33.7213 32.3918C32.5032 33.7108 31.0564 34.833 29.4397 35.6416C27.8296 36.4551 26.0262 36.9572 24.2507 37.1854C22.688 37.3885 21.1434 37.4044 19.5901 37.3107C19.3481 37.2959 19.1123 37.2747 18.8703 37.2454C18.3146 37.1783 17.7446 37.0693 17.174 36.9104Z" fill="black"/>
</g>
<path d="M14.7543 10.9702C5.98986 15.1745 -3.16389 23.325 1.06415 26.9866C4.70701 30.1414 23.0099 24.2053 32.1605 19.3984C50.9226 9.54232 46.9075 6.56669 45.5267 5.8088C43.3504 4.61437 36.6422 4.3665 29.8027 5.85466L28.5087 7.38186C28.5087 7.38186 40.7272 5.27183 43.877 6.35229C48.814 8.04577 40.2225 14.4026 31.8092 18.4051C20.9011 23.5946 2.36231 28.0432 1.78515 25.493C0.48961 19.7688 12.9184 13.1084 14.7543 12.145C17.4768 10.7164 21.9916 9.0597 21.9916 9.0597L23.4411 7.54622C20.4538 8.54392 17.9058 9.45848 14.7543 10.9702Z" fill="#6339F0"/>
<path d="M15.8978 9.71753C7.13329 13.9218 -2.02046 22.0723 2.20759 25.7339C5.85044 28.8887 24.1534 22.9527 33.3039 18.1457C52.0661 8.28964 48.0509 5.314 46.6701 4.55612C44.4939 3.36169 37.7857 3.11382 30.9461 4.60198L29.6522 6.12918C29.6522 6.12918 41.8706 4.01915 45.0204 5.0996C49.9574 6.79309 41.366 13.1499 32.9526 17.1525C22.0445 22.3419 3.50575 26.7905 2.92858 24.2404C1.63304 18.5161 14.0618 11.8558 15.8978 10.8923C18.6202 9.46375 23.135 7.80702 23.135 7.80702L24.5845 6.29354C21.5972 7.29124 19.0492 8.2058 15.8978 9.71753Z" fill="#00D1FF"/>
<path d="M16.5044 9.13669C8.07221 13.3299 -1.39211 21.6241 2.67563 25.2761C6.18036 28.4226 25.161 22.0123 33.9066 17.5797C51.9117 8.45393 46.7808 4.9099 45.4523 4.15401C43.3586 2.96272 36.4063 3.37767 29.8261 4.86191L28.5812 6.38509C28.5812 6.38509 40.8348 3.61845 43.8652 4.69606C48.615 6.38509 41.3247 12.5097 33.2303 16.5017C22.7358 21.6775 4.18667 27.5305 3.36929 23.7864C2.12287 18.0772 14.738 11.2693 16.5044 10.3084C19.1236 8.88358 23.4672 7.23121 23.4672 7.23121L24.8618 5.72171C21.9877 6.71678 19.5363 7.62894 16.5044 9.13669Z" fill="#0B0B0C"/>
<ellipse cx="14.5143" cy="6.96557" rx="1.25585" ry="1.25585" fill="#F4F4F9"/>
<ellipse cx="14.5143" cy="12.7701" rx="1.25585" ry="1.25585" fill="#F4F4F9"/>
<ellipse cx="14.5143" cy="18.5747" rx="1.25585" ry="1.25585" fill="#F4F4F9"/>
<defs>
<filter id="filter0_d_393_241" x="9.63013" y="0" width="31.5201" height="41.3658" filterUnits="userSpaceOnUse" color-interpolation-filters="sRGB">
<feFlood flood-opacity="0" result="BackgroundImageFix"/>
<feColorMatrix in="SourceAlpha" type="matrix" values="0 0 0 0 0 0 0 0 0 0 0 0 0 0 0 0 0 0 127 0" result="hardAlpha"/>
<feOffset dx="2" dy="2"/>
<feGaussianBlur stdDeviation="1"/>
<feComposite in2="hardAlpha" operator="out"/>
<feColorMatrix type="matrix" values="0 0 0 0 0 0 0 0 0 0 0 0 0 0 0 0 0 0 0.25 0"/>
<feBlend mode="normal" in2="BackgroundImageFix" result="effect1_dropShadow_393_241"/>
<feBlend mode="normal" in="SourceGraphic" in2="effect1_dropShadow_393_241" result="shape"/>
</filter>
</defs>
</svg>
